<?xml version="1.0" standalone="no"?>
<!DOCTYPE svg PUBLIC "-//W3C//DTD SVG 20010904//EN"
 "http://www.w3.org/TR/2001/REC-SVG-20010904/DTD/svg10.dtd">
<svg version="1.0" xmlns="http://www.w3.org/2000/svg"
 width="1024.000000pt" height="1024.000000pt" viewBox="0 0 1024.000000 1024.000000"
 preserveAspectRatio="xMidYMid meet">
<metadata>
Created by potrace 1.11, written by Peter Selinger 2001-2013
</metadata>
<g transform="translate(0.000000,1024.000000) scale(0.100000,-0.100000)"
fill="#000000" stroke="none">
<path d="M4196 10033 c-42 -22 -50 -65 -31 -162 2 -9 17 -88 34 -176 17 -88
33 -169 35 -180 3 -11 16 -76 30 -145 14 -69 32 -161 40 -205 9 -44 18 -91 21
-105 3 -14 8 -38 11 -55 2 -16 16 -88 31 -160 14 -71 27 -141 30 -155 2 -14
20 -104 39 -200 47 -241 82 -419 89 -455 7 -40 5 -34 79 -405 36 -179 68 -341
71 -360 3 -19 10 -53 15 -75 5 -22 11 -58 15 -80 3 -22 10 -56 15 -75 5 -19
12 -53 15 -75 4 -22 10 -58 15 -80 5 -22 11 -53 14 -70 3 -16 8 -41 11 -55 3
-14 16 -83 30 -155 14 -71 27 -139 29 -150 4 -16 23 -113 52 -260 2 -11 6 -30
8 -42 3 -11 7 -41 11 -65 l7 -43 -854 0 c-469 1 -864 -2 -877 -5 -56 -14 -79
-89 -47 -147 8 -16 41 -82 72 -148 31 -66 75 -160 99 -210 80 -168 143 -300
178 -375 19 -41 62 -131 95 -200 33 -69 78 -163 100 -210 22 -47 63 -134 92
-195 29 -60 67 -141 85 -180 18 -38 61 -128 95 -200 34 -71 80 -168 102 -215
22 -47 62 -130 88 -185 113 -237 155 -324 185 -390 18 -38 63 -133 100 -210
37 -77 83 -174 102 -215 20 -41 58 -122 86 -180 27 -58 64 -136 82 -175 37
-78 105 -222 188 -395 30 -63 72 -153 94 -200 22 -47 85 -179 140 -295 55
-115 118 -248 141 -295 98 -208 148 -312 194 -410 48 -100 69 -146 168 -355
24 -49 78 -164 121 -254 44 -90 79 -166 79 -169 0 -3 7 -14 16 -23 13 -14 21
-16 36 -8 22 12 21 27 -12 219 -5 30 -12 71 -14 90 -5 39 -14 93 -36 235 -6
39 -13 81 -15 95 -6 44 -16 103 -31 195 -8 50 -16 104 -18 121 -5 38 -27 182
-32 209 -2 11 -6 31 -8 45 -3 14 -8 45 -11 70 -5 44 -11 81 -20 130 -3 14 -7
43 -11 65 -3 22 -14 94 -24 160 -11 66 -22 138 -25 160 -2 22 -7 49 -9 60 -2
11 -9 56 -16 100 -6 44 -22 148 -35 230 -13 83 -26 168 -30 190 -9 62 -37 240
-70 450 -8 50 -17 108 -20 130 -4 22 -13 83 -21 135 -8 52 -17 113 -20 135 -3
22 -7 49 -9 61 -3 12 -7 39 -11 60 -3 21 -16 107 -29 189 -13 83 -27 170 -30
195 -3 25 -8 52 -10 60 -4 17 -11 62 -20 135 -4 28 -8 57 -10 65 -3 8 -7 35
-10 59 -3 24 -7 47 -9 50 -2 3 292 6 653 6 717 0 691 -2 726 58 18 31 19 119
19 2836 l0 2805 -28 20 c-27 21 -30 21 -1217 21 -922 0 -1195 -2 -1213 -12z"/>
</g>
</svg>
