<svg xmlns="http://www.w3.org/2000/svg" width="300" height="3000" viewBox="0 0 299.99999 3000.0001">
    <g color="#000">
        <path style="isolation:auto;mix-blend-mode:normal" overflow="visible" fill="none" d="M0 0h300v300H0z"/>
        <path d="M90.87 115.85v67.97h.9v-67.97h-.9zm-48.92.1c-1.92.17-3.03 1.8-3.3 4-.3 2.5.63 4.57 3.1 4.87 2.45.3 3.86-1.46 4.17-3.98.3-2.5-.62-4.57-3.1-4.87-.3-.04-.6-.04-.87-.02zm-8.65.3a6 6 0 0 0-1.5.2c-1.7.4-3.5 2.1-2.78 5.17.62 2.66 2.63 4 4.93 3.47a6.95 6.95 0 0 0 2.03-.8l-.48-1.8c-.17.1-.65.6-1.6.82-1.27.3-2.47-.6-2.85-2.23-.4-1.7.2-2.97 1.52-3.28.9-.2 1.5 0 1.83.1l-.3-1.67c-.17-.04-.43-.1-.8-.1zm201.4.58c-1.58 0-1.63 1.3-1.63 2.6v.46h-1.25v.6h1.25v5.5h.76v-5.56h1.4v-.65h-1.4v-.55c0-.7-.1-1.84.93-1.84.22 0 .45.05.6.13l.06-.67c-.15-.1-.48-.1-.72-.1zm-71.8.15v3.95h-.02c-.1-.3-.7-1.2-1.92-1.2-1.82 0-2.55 1.37-2.55 3.25 0 1.83.9 3.23 2.6 3.23.9 0 1.5-.3 1.9-1.1h.1v1h.76V117H163zm49.22 0v9.1h.76v-1h.03a2.1 2.1 0 0 0 2 1.13c1.7 0 2.57-1.4 2.57-3.2 0-1.9-.73-3.2-2.55-3.2-1.2 0-1.8.9-1.92 1.2h-.02v-4h-.75zm7 0v9.1h.77v-9.1h-.8zm35.48 0v3.95h-.02a2.1 2.1 0 0 0-1.93-1.2c-1.82 0-2.54 1.37-2.54 3.25 0 1.83.9 3.23 2.6 3.23.9 0 1.5-.3 1.97-1.1v1h.78V117h-.75zm21.48 0v9.1h.76v-1h.03c.4.8 1.04 1.13 1.92 1.13 1.7 0 2.5-1.4 2.5-3.2 0-1.9-.78-3.2-2.6-3.2-1.2 0-1.83.9-1.93 1.2h-.03v-4H276zm-96.48.24v1.02h.76v-1.02h-.76zm42.33 0v1.02h.76v-1.02h-.8zm35.43 0v1.02h.77v-1.02h-.77zm-214.7.2c1.16.14 1.4 1.53 1.2 3.17-.2 1.6-.78 2.9-1.94 2.7-1.16-.16-1.4-1.5-1.2-3.18.2-1.64.77-2.93 1.93-2.8zm69.6.04c-1.5 0-2.67.85-2.67 2.2 0 2.23 3.8 2.43 3.8 4.1 0 1.2-.9 1.73-1.9 1.73-.8 0-1.4-.2-1.9-.5l-.1.8c.46.2 1.1.32 1.92.32 1.3 0 2.77-.68 2.77-2.38 0-2.5-3.88-2.5-3.88-4.2 0-1.1.95-1.45 1.82-1.45.56 0 1.15.1 1.53.3l.12-.77a5.07 5.07 0 0 0-1.68-.28zm-60.94.6l-2.5 4.9c-.98 1.9-.4 3.46 1.32 4.35 1.74.9 3.34.5 4.3-1.4l2.5-4.9-1.8-.9-2.65 5.2c-.4.77-1 1.1-1.7.7-.76-.36-.8-1-.4-1.75l2.63-5.2-1.8-.9zm98.3.07l-.78.27v1.5h-1.2v.64h1.2v3.6c0 1.14.05 2.07 1.4 2.07.38 0 .76-.1.94-.1l-.05-.6c-.2.1-.4.16-.7.16-.62 0-.82-.46-.82-1.02v-4h1.4V120h-1.4v-1.77zm-24.08 1.6c-1.3 0-1.8.94-1.98 1.28h-.02l.04-1.1h-.76v8.7h.76V125h.03a2 2 0 0 0 2 1.2c1.7 0 2.57-1.4 2.57-3.22 0-1.88-.72-3.24-2.54-3.24zm6.95 0c-1.4 0-1.8.94-2 1.28h-.1l.04-1.1h-.76v8.7h.76V125h.05c.37.8.95 1.2 1.92 1.2 1.7 0 2.54-1.4 2.54-3.22 0-1.88-.7-3.24-2.53-3.24zm6.7 0c-2 0-2.9 1.56-2.9 3.25 0 1.68.9 3.23 2.9 3.23s2.9-1.5 2.9-3.2c0-1.7-.9-3.2-2.9-3.2zm6.83 0c-.8 0-1.3.65-1.6 1.34v-1.18h-.77c.05.4.05.7.05 1.3v4.8h.75v-3c0-1.1.32-2.5 1.53-2.5.2 0 .4.03.54.08v-.73a2.2 2.2 0 0 0-.55-.08zm8.5 0c-1.56 0-2.6 1.36-2.6 3.25 0 1.85.76 3.23 2.8 3.23.6 0 1.27-.1 1.8-.3v-.7a4 4 0 0 1-1.73.46c-1.33 0-2.03-1.06-2.03-2.37H157v-.4c0-1.66-.7-3.07-2.45-3.07zm21.67 0c-1.02 0-2 .47-2 1.7 0 1.8 2.97 1.56 2.97 3.03 0 .7-.65 1.1-1.38 1.1a3.6 3.6 0 0 1-1.6-.4l-.1.76c.54.22 1.13.3 1.73.3.95 0 2.17-.46 2.17-1.76 0-2.03-3.03-1.88-3.03-3.03 0-.8.56-1.04 1.35-1.04.42 0 .96.1 1.36.3l.1-.7a5.1 5.1 0 0 0-1.5-.3zm8.83 0c-1.3 0-1.76.7-2 1.26H183v-1.1h-.74c.06.5.06.9.06 1.4v4.7h.76v-3.45c0-1.02.43-2.25 1.83-2.25 1.1 0 1.5.76 1.5 1.9v3.8h.75v-3.95c0-1.37-.6-2.4-2.1-2.4zm6.34 0c-1.8 0-2.54 1.37-2.54 3.25 0 1.37.65 3.1 2.6 3.1.8 0 1.5-.33 1.9-1.22h.04c0 1.74-.15 3.17-2.12 3.17a4.2 4.2 0 0 1-1.83-.44l-.06.7c.33.1 1.1.3 1.9.3 2.1 0 2.9-1.4 2.9-3.1v-5.7h-.8v.7c-.6-.74-1.1-.85-1.95-.85zm9.56 0c-1.3 0-1.76.94-1.96 1.28l.07-1.1h-.76v8.7h.77V125h.02c.36.8.94 1.2 1.9 1.2 1.7 0 2.6-1.4 2.6-3.22 0-1.88-.73-3.24-2.55-3.24zm26.4 0c-1.84 0-3.06 1.34-3.06 3.25 0 1.72 1 3.23 2.97 3.23a5 5 0 0 0 1.6-.2l-.1-.7c-.46.2-.9.3-1.4.3-1.4 0-2.24-1.2-2.24-2.6 0-1.5.85-2.6 2.34-2.6.4 0 .9.2 1.3.4l.07-.73a4.63 4.63 0 0 0-1.5-.23zm18.87 0c-1.3 0-1.74.7-2 1.26h-.02v-1.1h-.72c.05.5.05.9.05 1.4v4.7h.8v-3.45c0-1.02.4-2.25 1.8-2.25 1.07 0 1.48.76 1.48 1.9v3.8h.8v-3.95c0-1.37-.6-2.4-2.12-2.4zm16.6 0c-1.27 0-1.73.7-2 1.26v-1.1h-.74c.07.5.07.9.07 1.4v4.7h.76v-3.45c0-1.02.44-2.25 1.83-2.25 1.05 0 1.47.76 1.47 1.9v3.8h.78v-3.95c0-1.37-.6-2.4-2.1-2.4zm6.37 0c-1.83 0-2.56 1.37-2.56 3.25 0 1.37.65 3.1 2.6 3.1.8 0 1.5-.33 1.9-1.22 0 1.74-.14 3.17-2.1 3.17a4.2 4.2 0 0 1-1.8-.44l-.07.7c.3.1 1.06.3 1.87.3 2.1 0 2.9-1.4 2.9-3.1v-5.7h-.8v.7h-.03c-.6-.74-1.1-.85-1.94-.85zm-153.2.17v3.94c0 1.36.57 2.37 2.1 2.37 1.3 0 1.74-.6 2-1.2h.02v1.1h.7a15 15 0 0 1-.04-1.4V120H120v3.4c0 1.03-.42 2.25-1.82 2.25-1.05 0-1.46-.75-1.46-1.92V120H116zm51.86 0v3.94c0 1.36.58 2.37 2.1 2.37 1.3 0 1.75-.6 2-1.2h.03v1.1h.73a15 15 0 0 1-.08-1.4V120h-.8v3.4c0 1.03-.46 2.25-1.85 2.25-1.07 0-1.5-.75-1.5-1.92V120h-.76zm11.73 0v6.17h.75v-6.18h-.73zm25.7 0v3.94c0 1.36.56 2.37 2.1 2.37 1.3 0 1.74-.6 2-1.2v1.1h.75c-.02-.5-.02-.92-.02-1.4V120h-.7v3.4c0 1.03-.43 2.25-1.83 2.25-1.05 0-1.46-.75-1.46-1.92V120h-.77zm16.62 0v6.17h.76v-6.18h-.8zm14.76 0v3.94c0 1.36.52 2.37 2.1 2.37 1.23 0 1.7-.6 2-1.2v1.1h.7c-.04-.5-.04-.92-.04-1.4V120h-.76v3.4c0 1.03-.43 2.25-1.82 2.25-1.06 0-1.47-.75-1.47-1.92V120h-.75zm20.6 0v6.17h.78v-6.18h-.77zm24.8 0l2.2 6.24-.15.55c-.3.7-.5 1.3-1.16 1.3-.28 0-.42-.1-.57-.1l-.08.6c.23.05.53.1.8.1.86 0 1.3-.85 1.6-1.7l2.46-7.1h-.8l-1.8 5.15-1.74-5.15H282zm-156.73.5c1.48 0 1.86 1.38 1.86 2.58 0 1.2-.37 2.58-1.82 2.58-1.34 0-1.82-1.46-1.82-2.58 0-1.13.5-2.6 1.85-2.6zm6.98 0c1.46 0 1.83 1.38 1.83 2.58 0 1.2-.4 2.58-1.85 2.58-1.35 0-1.82-1.46-1.82-2.58 0-1.13.47-2.6 1.83-2.6zm6.9 0c1.33 0 2.04 1.15 2.04 2.58 0 1.43-.7 2.58-2.03 2.58s-2.06-1.15-2.06-2.58c0-1.43.7-2.6 2.07-2.6zm15.4 0c1.14 0 1.58 1.06 1.58 2.14h-3.4c0-1.02.7-2.15 1.83-2.15zm6.4 0c1.36 0 1.84 1.45 1.84 2.58 0 1.12-.47 2.58-1.82 2.58-1.45 0-1.82-1.38-1.82-2.58 0-1.2.38-2.6 1.84-2.6zm30.52 0c1.4 0 1.8 1.1 1.8 2.58 0 1.12-.5 2.43-1.87 2.43-1.3 0-1.8-1.2-1.8-2.4s.4-2.6 1.83-2.6zm9.3 0c1.45 0 1.83 1.38 1.83 2.58 0 1.2-.38 2.58-1.83 2.58-1.38 0-1.85-1.46-1.85-2.58 0-1.13.47-2.6 1.83-2.6zm13.8 0c1.46 0 1.83 1.38 1.83 2.58 0 1.2-.37 2.58-1.83 2.58-1.37 0-1.85-1.46-1.85-2.58 0-1.13.44-2.6 1.83-2.6zm38.06 0c1.36 0 1.83 1.45 1.83 2.58 0 1.12-.5 2.58-1.85 2.58-1.44 0-1.82-1.38-1.82-2.58 0-1.2.4-2.6 1.83-2.6zm16.6 0c1.4 0 1.82 1.1 1.82 2.58 0 1.12-.5 2.43-1.9 2.43-1.3 0-1.77-1.2-1.77-2.4s.4-2.6 1.84-2.6zm9.3 0c1.46 0 1.83 1.38 1.83 2.58 0 1.2-.4 2.58-1.85 2.58-1.34 0-1.82-1.46-1.82-2.58 0-1.13.44-2.6 1.83-2.6zm-260.1 2.1c-.67.36-1.14.57-1.74 1.08-2.2 1.85-.87 3.6-.7 3.8 1.97 2.37 4.05-.45 5.13.83.4.6.12 1.2-.37 1.6-.57.5-1.16.6-1.8.8l1 1.4a8.3 8.3 0 0 0 2-1.2c1.34-1.1 1.7-2.7.64-3.9-1.96-2.34-4.1.4-5.1-.8-.4-.5-.23-1.03.3-1.45a4.1 4.1 0 0 1 1.56-.76l-.96-1.3zm42.8 1.52l-6.23 6 1.23 1.27 4.5-4.4h.08l-2.77 6.1 1.68 1.72 6.2-5.98-1.25-1.3-4.3 4.16v-.02l2.54-5.95-1.63-1.7zM12 128.38l-3.3 4.73 1.27.9 1.08-1.5 5.78 4.1 1.17-1.7-5.78-4.06 1.07-1.53-1.3-.9zm54.7 5.7a5.5 5.5 0 0 0-1.98.57c-2.46 1.2-3.32 3.45-2.3 5.57.5 1 1 1.55 1.24 1.8l1.58-.84c-.16-.14-.74-.5-1.17-1.4-.57-1.14.03-2.53 1.52-3.26 1.5-.77 2.9-.46 3.5.75.4.83.3 1.45.3 1.8l1.52-.64a5.1 5.1 0 0 0-.6-2.24 3.76 3.76 0 0 0-3.7-2.2zm102.54 2.64c-3.4 0-6.72 1.57-6.72 5.87 0 6.3 8.43 4.8 8.43 8.5 0 1.7-1.96 2.4-3.42 2.4a9.3 9.3 0 0 1-4.36-1.2l-.35 3.5c1.9.45 2.84.72 4.93.72 3.88 0 7.22-1.6 7.22-5.8 0-6.46-8.43-5.06-8.43-8.4 0-2.1 1.7-2.66 3.03-2.66 1.35 0 2.7.3 3.9.82l.37-3.17c-1.4-.44-2.95-.66-4.6-.66zm25.95 0c-6.6 0-10.6 3.7-10.6 10.27 0 6.5 4.3 9.6 10.5 9.6 1.45 0 2.96-.3 4.37-.6l-.17-3.3c-.9.45-2.7.8-4.2.8-4.1 0-6.53-2.96-6.53-6.87 0-3.94 2.5-6.97 6.44-6.97a8 8 0 0 1 4.18 1.02l.3-3.26a13 13 0 0 0-4.33-.8zm15.5 0c-6.1 0-9.4 4-9.4 9.9 0 5.88 3.22 10 9.4 10 6.1 0 9.4-4.2 9.4-10 0-5.82-3.4-9.9-9.43-9.9zm59.43 0c-6.53 0-10.56 3.7-10.56 10.27 0 6.5 4.33 9.6 10.56 9.6 1.47 0 3-.3 4.4-.6l-.18-3.3c-.9.45-2.7.8-4.2.8-4.1 0-6.56-2.96-6.56-6.87 0-3.94 2.5-6.97 6.44-6.97a8 8 0 0 1 4.17 1.02l.27-3.26a12.9 12.9 0 0 0-4.34-.8zm-153.37.33l-7.5 19.23h4l1.7-4.4h7.8l1.64 4.4h4.28l-7.55-19.23h-4.37zm13.9 0v19.23h3.86v-8h1.24c1.65 0 2.14.56 2.7 2l2.3 6h4.3l-3.1-7.52c-.36-.86-1-1.9-2.02-2v-.04a4.4 4.4 0 0 0 4-4.46c0-5.35-4.93-5.2-9.06-5.2h-4.16zm15.1 0v3.03h5.5v16.2h3.85v-16.2h5.5v-3.03h-14.8zm76.9 0v12.3c0 5.14 2.94 7.26 7.87 7.26s7.85-2.1 7.85-7.2v-12.3h-3.87v11.1c0 3.3-1.05 5.47-4 5.47-2.94 0-4-2.15-4-5.43v-11.1h-3.85zm18.6 0v19.23h3.7V141.9h.06l7.33 14.38h4.7v-19.23h-3.68v14.38h-.07l-7.3-14.38h-4.73zm36.17 0v19.23h3.86v-19.23h-3.86zm6.9 0v19.23h11.3v-3.03h-7.46v-16.2h-3.85zM7.9 137.4c-.95.1-1.6.9-1.93 2l-.96 3 8.2 2.7.64-1.93-3.3-1.1c.22-.7.3-.94 1.53-.9l2.4.1.66-2.04-2.95-.02c-1.05 0-1.45.14-1.72.7h-.05c.2-1.66-1.12-2.14-1.46-2.26a2.7 2.7 0 0 0-1-.14zm.35 2.1a1 1 0 0 1 .3.1c.6.2.97.78.73 1.5l-.2.6L7 141l.2-.6c.25-.77.73-.9 1.1-.87zm202.44.3c3.8 0 5.4 3.5 5.4 6.9 0 3.47-1.48 6.97-5.4 6.97-3.95 0-5.4-3.5-5.4-6.96 0-3.4 1.56-6.84 5.4-6.84zm-76.18.36h1.3c1.9 0 4.07.2 4.07 2.5 0 2.4-2.18 2.68-4.07 2.68h-1.3v-5.17zm-15.7.83h.1l2.76 7.92h-5.6l2.75-7.93zm-46.33 2.54l-8.5 1.5.37 1.98 8.48-1.5-.34-1.97zm-59.78 3.9L4.2 150.5l.08 2.23 8.72 2.53-.08-1.96-1.95-.57-.1-2.7 1.9-.6-.06-2.06zm51.86 2.66l-.35 4.86 1.55.16.16-2.82 7.05.5.16-2.05-8.6-.6zm-55.15.46l.05 2-3.64-.92v-.02l3.55-1zM153 164.3c-6.54 0-10.56 3.68-10.56 10.27 0 6.5 4.32 9.6 10.55 9.6 2 0 4.1-.43 6.2-.98v-10.4h-7.8v3h4.1v5a11 11 0 0 1-2.6.25c-4.1 0-6.53-2.95-6.53-6.86 0-3.93 2.5-6.96 6.96-6.96 1.54 0 3.47.3 4.96 1l.23-3.26a18.9 18.9 0 0 0-5.63-.8zm-92.77.3c-.98.13-1.9.75-2.8 1.9l-.7.86 6.8 5.3.84-1.02c1.7-2.2.93-4.36-1.04-5.9-1.1-.86-2.13-1.24-3.1-1.12zm49.2.03v19.23h11.4v-3.03h-7.56v-5.4h6.86v-3.04h-6.86v-4.8h7.5v-3H109.4zm14.55 0v19.23h3.7v-14.38h.05l7.36 14.38h4.7V164.6h-3.7v14.37h-.1l-7.37-14.37h-4.74zm38.32 0v19.23h11.32v-3.03h-7.47v-16.2h-3.85zm20.52 0l-7.5 19.24h4l1.68-4.4h7.8l1.65 4.4h4.27l-7.55-19.23h-4.35zm13.77 0v19.23h3.6v-14.38h.04l7.36 14.38h4.7V164.6h-3.7v14.37h-.03l-7.34-14.37h-4.74zm18.9 0v19.23h5.22c5.9 0 11.1-1.98 11.1-9.6 0-7.64-5.2-9.62-11.1-9.62h-5.26zm-197 0L12 170.2l2.43 2.9.55-.48-1.96-2.3 2.6-2.2 1.78 2.13.55-.48-1.77-2.12 2.35-1.98 1.86 2.23.5-.47-2.4-2.8zm42 .76a4 4 0 0 1 2.33 1.1c1.7 1.3 2.17 3 1 4.5l-.5.6-5.65-4.47.4-.5c.66-.87 1.34-1.24 2-1.3.12-.03.26-.04.4-.03zm158.8 2.2h2.15a6.3 6.3 0 0 1 6.34 6.6 6.3 6.3 0 0 1-6.35 6.6h-2.14V167.6zm-34.5.82h.04l2.8 7.92h-5.6l2.8-7.95zm-161.96.95l-4.8 7.2.6.4 4.24-6.34h.1l-1.28 8.3.82.57 4.82-7.16-.6-.4-4.28 6.38-.1-.02 1.3-8.38-.8-.57zm31.63.04l-.6.4 4.17 6.43-7.2-4.46-.82.5 4.67 7.3.6-.4-4.15-6.4h.02l7.18 4.4.85-.5-4.7-7.27zm-8.6 4.5l-.8.2-.37 9.1.73-.2.1-2.52 3.3-.9 1.36 2.06.8-.24-5.15-7.53zm-13.75.2c-1.9-.1-3.4 1.4-3.94 3.25-.46 1.6-.53 4.5 2.37 5.35a4 4 0 0 0 2.04.1l1.16-4.1-2.22-.6-.2.67 1.5.45-.84 2.9c-.43.1-.8.03-1.2-.08-2.2-.6-2.3-2.85-1.87-4.37.74-2.6 2.6-3.06 3.77-2.7.64.2 1.36.65 1.6 1l.28-.8a5 5 0 0 0-1.63-.92 4.5 4.5 0 0 0-.85-.13zm13.6.7l2.7 4.1-2.88.86.13-4.95h.04zm-8.1.18v8.6h3.57v-.7h-2.8V175h-.8z" style="isolation:auto;mix-blend-mode:normal" overflow="visible"/>
    </g>
    <path style="isolation:auto;mix-blend-mode:normal" color="#000" overflow="visible" fill="none" d="M0 300h300v300H0z"/>
    <g transform="translate(-2121.4 -959.7) scale(4.08084)">
        <circle cy="345.44" cx="556.6" style="isolation:auto;mix-blend-mode:normal" r="25.13" color="#000" overflow="visible" stroke="#000" stroke-width=".01"/>
        <path d="M552.9 334.93c-.15 0-.42.05-.97.14l-1.14.2c-.1.02 0 .47.1 1 .1.52.1.97.1 1h.1a62.4 62.4 0 0 1 2.1-.35c.04-.02 0-.3-.1-.92l-.14-1c0-.06 0-.08-.17-.07zm14.54.04c-1.46 0-2.68.42-3.35 1.16a2.46 2.46 0 0 0-.7 1.78c0 .5 0 .5.1.5a30.44 30.44 0 0 1 1.8-.3c.13 0 .14 0 .15-.2.02-.4.25-.68.74-.86.76-.3 1.44-.13 1.63.36.03.1.22 1.2.42 2.46.4 2.5.4 2.6.57 2.95.1.2.14.26.23.2a62 62 0 0 1 1.17-.14c.58-.1 1.08-.16 1.1-.2.02 0-.03-.12-.1-.26-.22-.33-.26-.55-.63-2.84-.36-2.25-.44-2.64-.67-3.1-.42-.86-1.34-1.35-2.53-1.35zm-8 1.3c-.33 0-.65.06-.87.14-.32.2-.85.5-1.06.7l-.1.2.2.9c.1.5.17.9.2.9 0 0 .1-.08.14-.17.27-.35.7-.55 1.2-.5.4.03.63.2.8.6.14.26.2.56.55 2.77.2 1.37.4 2.5.4 2.52h.1c.02-.03.53-.1 1.1-.2.56-.1 1.05-.17 1.07-.2a95.7 95.7 0 0 0-.84-5.5c-.26-1.1-.92-1.8-1.9-2.03a3.07 3.07 0 0 0-.87-.08zm-14.82 0c-.04-.04-2.15.27-2.2.32-.03 0 .32 2.3.76 5.1.45 2.8.8 5.1.8 5.1h.12l1.13-.2c.82-.1 1.02-.17 1.02-.23 0-.18-1.6-10.17-1.63-10.2zm12.33.5s-.52.06-1.14.16c-.8.15-1.1.2-1.1.26l.6 3.9c.6 3.6.7 3.8.7 3.8a26.4 26.4 0 0 0 2.2-.37c.1 0-1.2-7.83-1.2-7.86zm-3.54.53l-1.1.17c-1 .17-1.1.2-1.1.28 0 .1 1.2 7.4 1.2 7.7.08.1.1.13.1.1l1.2-.17c.9-.13 1.04-.17 1.04-.24 0-.1-1.22-7.82-1.24-7.84zm14.4.64c-.02-.06-2.2.7-2.74.95-.7.3-1.16.7-1.4 1.3a3.3 3.3 0 0 0 0 1.6c.14.4.43.9.7 1.12.26.2.7.44 1.04.54.37.1 1.36.06 1.85-.08a3 3 0 0 0 1.1-.6l.2-.2-.1-.56a4 4 0 0 1-.12-.74c0-.32-.04-.36-.23-.2-.5.46-1.37.65-1.84.4a.78.78 0 0 1-.1-1.3c.27-.2.4-.27 1.2-.57l.7-.27c0-.02-.2-1.45-.25-1.52zm-19.96.08a3.17 3.17 0 0 0-2.2.9l-.12.13.15.86.15.9.26-.23c.3-.3.65-.43 1.07-.43.5 0 .84.3 1 .85.05.12.25 1.3.45 2.56.4 2.4.4 2.6.46 2.6a150.74 150.74 0 0 0 2.23-.35c.02-.03-.84-5.4-.93-5.76a2.5 2.5 0 0 0-1.8-1.9 2.88 2.88 0 0 0-.67-.1zm-8.86 1.37h-.53l.1.9.15.9h.26c.5.08.8.3 1.05.78.1.15.16.26.18.26l1.05-.2a6.1 6.1 0 0 0 1.1-.27 3.4 3.4 0 0 0-.44-1.04 3.38 3.38 0 0 0-2.9-1.43zm-.92.1h-.12c-.22 0-.88.22-1.15.4a3.64 3.64 0 0 0-1.86 3.5 4 4 0 0 0 .14 1.4 4 4 0 0 0 2.07 2.7c.48.22.87.3 1.6.3h.64v-.14c0-.08-.08-.5-.16-.97l-.14-.84-.27-.06c-.76-.15-1.15-.6-1.43-1.55a4.83 4.83 0 0 1 0-2.03c.1-.3.43-.7.72-.83.27-.1.27-.1.1-1.15l-.15-.78zm4.7 4.5h-.14c-.2.03-1.9.22-2 .22-.05 0-.07.05-.07.16 0 .1-.04.3-.1.5-.1.37-.34.62-.7.8l-.26.1.15.97c.1.6.18.96.2.96l.4-.1a3.5 3.5 0 0 0 2.2-1.8c.23-.45.3-.83.36-1.4l.03-.45zm23.96.5a11.13 11.13 0 0 0-1.94.3s.03.3.1.7c.05.34.1.65.07.7l-.52.1c-.42.05-.5.1-.5.16l.14.84c.13.86.05.8.76.68.23-.04.43-.07.44-.06l.34 2.07.4 2.4c.2.85.6 1.3 1.28 1.44.38.1.54.1 1.06.03a5.2 5.2 0 0 0 1.7-.4c0-.1-.27-1.67-.3-1.7l-.5.08c-.6.1-.8.04-.93-.2-.1-.16-.1-.17-.46-2.43-.24-1.45-.26-1.64-.2-1.67l.7-.13c.37-.06.67-.1.68-.13.02-.04-.2-1.65-.26-1.7-.02 0-.35.03-.75.1-.64.1-.7.1-.73.03l-.1-.65a4.7 4.7 0 0 0-.12-.63c0-.02-.1-.03-.23 0zm7.35.1a4 4 0 0 0-4.1 4.7c.25 2.02 1.5 3.43 3.26 3.7.4.06 1.26 0 1.74-.07a3.9 3.9 0 0 0 2.76-2c.17-.4.36-1 .3-1.07 0 0-.53 0-1.14.06l-1.13.1-.1.22c-.23.5-.72.8-1.4.84a1.5 1.5 0 0 1-1.13-.35c-.8-.67-1.16-2.56-.65-3.55.1-.25.5-.6.8-.7.83-.3 1.56 0 1.93.7l.1.3-.12.02a88.82 88.82 0 0 1-2.53.4l-.16.03.05.48c.03.43.18 1.16.25 1.24 0 0 1.2-.17 2.6-.4l2.6-.4-.04-.2a9.8 9.8 0 0 0-.5-1.7 3.82 3.82 0 0 0-2.3-2.25 2.68 2.68 0 0 0-1.12-.13zM555 346.3a7.1 7.1 0 0 0-1.15.12c-1.03.17-1.1.2-1.1.3.04.23 1.45 9.17 1.47 9.22 0 .03.06.04.2.02l1.1-.2c.86-.13.94-.15.93-.24-.04-.3-1.47-9.25-1.5-9.27zm5.8.43c-.33 0-.7.03-1 .1-1 .16-1.63.43-2.15.95a2.4 2.4 0 0 0-.77 1.84v.46c.05.04 1.7-.2 1.98-.3.1 0 .1-.03.1-.15 0-.6.63-1.04 1.5-1.05.34 0 .45 0 .6.1.32.2.34.3.73 2.72.35 2.4.42 2.75.6 3.08.06.2.1.24.22.2a109.62 109.62 0 0 1 2.2-.34c.03 0 0-.1-.1-.34-.2-.37-.27-.6-.64-2.9-.34-2.13-.43-2.5-.67-3a2.5 2.5 0 0 0-1.73-1.3 4.15 4.15 0 0 0-.84-.04zm-11.45 1.74c-.33 0-.66.02-.9.1-.4.1-.8.3-1.04.53l-.2.16.1.7.18.9.03.17.24-.2c.37-.36.93-.48 1.4-.34.28.1.7.45.86.76.32.6.5 1.77.4 2.4-.1.4-.35.84-.58 1.04a1.5 1.5 0 0 1-1.5.23l-.25-.1a19 19 0 0 0 .3 1.86c.08.06.6.15.98.16a3.25 3.25 0 0 0 2.5-1.1c.26-.3.66-1.1.76-1.6a5.4 5.4 0 0 0 .08-1.7c-.23-2-1.15-3.4-2.56-3.9a3 3 0 0 0-.84-.1zm-2.5.6h-.12c-.15 0-2.1.33-2.12.36l1.3 8.44.25 1.44.07.54.23-.06a62.4 62.4 0 0 0 2.05-.3l-.8-5.2-.82-5.15zm14.3.6a28.3 28.3 0 0 0-2.88 1.04 2.27 2.27 0 0 0-1.3 2.7c.2.9.9 1.66 1.8 1.9a4.7 4.7 0 0 0 1.55 0l.6-.2c.3-.1.85-.46.93-.6.03-.06 0-.24-.06-.64-.08-.3-.14-.67-.16-.8l-.05-.27-.17.13a2.2 2.2 0 0 1-1.6.5c-.6-.14-.85-.77-.52-1.24.2-.24.5-.4 1.3-.7l.77-.3s-.2-1.56-.23-1.57z" fill="#fff"/>
    </g>
    <path style="isolation:auto;mix-blend-mode:normal" color="#000" overflow="visible" fill="none" d="M0 600h300v300H0z"/>
    <path d="M14.6 709.64h23.07v3.1H28v24.2h-3.72v-24.2h-9.7v-3.1zm43.6 14.94v12.35h-3.36V724.7q0-2.92-1.14-4.36-1.13-1.45-3.4-1.45-2.72 0-4.3 1.7-1.56 1.7-1.56 4.7v11.54h-3.4v-28.4h3.4v11.13q1.2-1.85 2.83-2.76 1.64-.9 3.78-.9 3.53 0 5.34 2.2 1.8 2.17 1.8 6.4zm24.25 1.28v1.64H67q.2 3.47 2.07 5.3 1.9 1.8 5.23 1.8 1.94 0 3.75-.47 1.83-.47 3.62-1.42v3.2q-1.8.8-3.7 1.2-1.9.4-3.87.4-4.9 0-7.77-2.8-2.85-2.84-2.85-7.7 0-5.03 2.7-7.97 2.72-3 7.34-3 4.13 0 6.52 2.67 2.4 2.64 2.4 7.2zm-3.36-1q-.1-2.75-1.6-4.4-1.5-1.64-4-1.64-2.8 0-4.5 1.6-1.7 1.58-2 4.48l12-.1zm24.5-12.18v10.25h4.62q2.57 0 3.97-1.33 1.4-1.34 1.4-3.8 0-2.45-1.4-3.8-1.4-1.32-3.98-1.32h-4.65zm-3.7-3.04h8.32q4.6 0 6.92 2.1 2.34 2.05 2.34 6.05t-2.35 6.1q-2.35 2-6.94 2h-4.65v10.94h-3.7v-27.3zm22.42-1.14h3.36v28.43h-3.36V708.5zm19.7 18.14q-4.1 0-5.66.93-1.57.94-1.57 3.18 0 1.8 1.16 2.85 1.2 1.05 3.22 1.05 2.8 0 4.46-1.98 1.7-2 1.7-5.28v-.8h-3.32zm6.7-1.4v11.7h-3.37v-3.12q-1.15 1.87-2.87 2.76-1.7.88-4.2.88-3.15 0-5-1.75-1.86-1.7-1.86-4.7 0-3.4 2.3-5.2 2.35-1.7 6.93-1.7h4.74v-.32q0-2.3-1.54-3.57-1.5-1.3-4.26-1.3-1.75 0-3.4.4-1.66.4-3.2 1.28v-3.1q1.85-.72 3.6-1.07 1.72-.37 3.36-.37 4.4 0 6.6 2.3 2.2 2.3 2.2 6.97zm15.53 13.6q-1.43 3.65-2.78 4.76-1.36 1.12-3.63 1.12h-2.7v-2.82h2q1.4 0 2.17-.66.75-.65 1.7-3.1l.6-1.54-8.3-20.14h3.57l6.4 16 6.4-16h3.57l-9 22.37zm30.7-14.27v12.35h-3.38V724.7q0-2.92-1.15-4.36-1.18-1.45-3.4-1.45-2.77 0-4.3 1.7-1.6 1.7-1.6 4.7v11.54h-3.4v-28.4h3.4v11.13q1.2-1.85 2.83-2.76 1.65-.9 3.8-.9 3.52 0 5.33 2.2 1.8 2.17 1.8 6.4zm14.66-5.76q-2.7 0-4.27 2.2-1.6 2.1-1.6 5.77 0 3.7 1.53 5.8 1.57 2.1 4.3 2.1 2.7 0 4.26-2.1 1.57-2.1 1.57-5.8 0-3.6-1.58-5.72-1.6-2.13-4.27-2.13zm0-2.8q4.4 0 6.9 2.88 2.5 2.86 2.5 7.9 0 5.03-2.5 7.9-2.5 2.85-6.9 2.85t-6.9-2.85-2.5-7.9q0-5.02 2.5-7.87 2.5-2.84 6.9-2.84zm14.6 12.9v-12.4h3.38v12.28q0 2.9 1.13 4.38 1.14 1.44 3.4 1.44 2.73 0 4.3-1.74 1.6-1.74 1.6-4.73v-11.6h3.37V737H238v-3.16q-1.22 1.86-2.85 2.78-1.6.9-3.75.9-3.53 0-5.36-2.2-1.84-2.2-1.84-6.42zm37.17-11.8v3.2q-1.43-.73-2.97-1.1-1.53-.36-3.17-.36-2.5 0-3.8.77-1.26.77-1.26 2.3 0 1.17.9 1.85.9.67 3.6 1.27l1.14.27q3.6.77 5.1 2.2 1.5 1.35 1.5 3.85 0 2.85-2.24 4.5-2.25 1.67-6.2 1.67-1.64 0-3.43-.34-1.76-.3-3.74-.96v-3.47q1.87.98 3.7 1.47 1.8.48 3.6.48 2.34 0 3.62-.8 1.27-.83 1.27-2.3 0-1.38-.94-2.1-.9-.74-4.02-1.42l-1.18-.27q-3.13-.67-4.5-2-1.4-1.4-1.4-3.77 0-2.9 2.04-4.48t5.8-1.55q1.88 0 3.53.26 1.64.3 3.03.83zm23.96 8.8v1.66H269.9q.23 3.47 2.1 5.3 1.87 1.8 5.22 1.8 1.94 0 3.75-.47 1.87-.48 3.67-1.43v3.2q-1.8.78-3.7 1.18-1.92.4-3.87.4-4.9 0-7.78-2.84-2.9-2.84-2.9-7.7 0-5.03 2.7-7.97 2.74-2.96 7.34-2.96 4.13 0 6.53 2.64 2.4 2.66 2.4 7.23zm-3.36-1q-.03-2.73-1.55-4.4-1.5-1.62-4-1.62-2.8 0-4.5 1.6-1.7 1.6-1.98 4.48l12-.03zM18.33 756.5h4.97l12.1 22.82V756.5H39v27.3h-5l-12.1-22.85v22.8h-3.57v-27.3zm35.8 9.16q-2.7 0-4.3 2.14-1.56 2.1-1.56 5.77t1.6 5.8q1.58 2.1 4.3 2.1 2.7 0 4.26-2.1 1.57-2.14 1.57-5.8 0-3.63-1.57-5.75-1.57-2.14-4.26-2.14zm0-2.83q4.4 0 6.9 2.85 2.5 2.87 2.5 7.9 0 5.04-2.5 7.9-2.5 2.86-6.9 2.86t-6.9-2.84q-2.5-2.87-2.5-7.9 0-5.04 2.5-7.9 2.5-2.84 6.9-2.84zm26.86-7.5h3.32v28.45H81V755.3zm18.3 10.3q-2.7 0-4.3 2.16-1.58 2.1-1.58 5.75t1.5 5.8q1.58 2.1 4.3 2.1 2.7 0 4.26-2.1 1.56-2.13 1.56-5.78 0-3.64-1.57-5.76-1.6-2.13-4.28-2.13zm0-2.8q4.4 0 6.9 2.84 2.5 2.87 2.5 7.9 0 5.04-2.5 7.9-2.5 2.86-6.9 2.86t-6.9-2.87q-2.5-2.86-2.5-7.9 0-5.03 2.5-7.9 2.5-2.83 6.9-2.83zm28.4 10.5q0-3.68-1.5-5.7-1.5-2-4.24-2-2.7 0-4.24 2-1.5 2-1.5 5.67 0 3.63 1.5 5.64 1.5 2 4.22 2 2.72 0 4.22-2 1.5-2 1.5-5.62zm3.36 7.9q0 5.23-2.33 7.77-2.3 2.55-7.1 2.55-1.74 0-3.3-.26-1.58-.3-3.06-.8v-3.3q1.5.8 2.93 1.2 1.46.33 2.96.33 3.3 0 4.95-1.74 1.66-1.7 1.66-5.2v-1.67q-1.06 1.8-2.68 2.7-1.63.9-3.9.9-3.76 0-6.07-2.87-2.3-2.87-2.3-7.6 0-4.75 2.3-7.62t6.06-2.87q2.3 0 3.9.9 1.64.9 2.68 2.7v-3.1h3.4v17.9zM146 765.6q-2.72 0-4.3 2.13-1.56 2.1-1.56 5.78t1.55 5.8q1.5 2.1 4.3 2.1 2.6 0 4.2-2.1 1.53-2.1 1.53-5.7 0-3.63-1.57-5.75-1.58-2.14-4.26-2.14zm0-2.84q4.37 0 6.88 2.85 2.5 2.9 2.5 7.9 0 5.1-2.5 7.9-2.5 2.9-6.9 2.9t-6.9-2.8q-2.5-2.87-2.5-7.9 0-5.04 2.5-7.9 2.5-2.84 6.9-2.84z" style="line-height:125%" font-weight="400" font-size="37.43" font-family="sans-serif" letter-spacing="0" word-spacing="0"/>
    <path style="isolation:auto;mix-blend-mode:normal" color="#000" overflow="visible" fill="none" d="M0 900h300v300H0z"/>
    <path d="M11.57 997.12v105.76h276.86V997.12H11.57z" fill="#fff"/>
    <path d="M11.57 1050v-52.88h276.86v105.76H11.57V1050zm171.87 0v-51.52l-85.2.05-85.2.05-.06 51.23c-.03 28.2 0 51.4.04 51.5.08.2 17.3.3 85.26.3h85.16V1050zm-22.7 8.7c-.86-.18-1-.42-.56-1 .2-.3.4-.34.87-.25.95.2 1.2-.02 1.9-1.54l.66-1.4-1.8-4.6a186.2 186.2 0 0 1-1.8-4.8c0-.03.4-.1.85-.1h.85l1.22 3.28c.7 1.8 1.34 3.46 1.46 3.7.2.38.38 0 1.6-3.2l1.38-3.65.83-.06c1-.07 1.12-.7-1.4 5.7-3.18 8-3 7.67-4.07 7.96-.9.22-1.06.23-1.9.04zm-30.77-6.94v-6.8h.7c.48 0 .67.07.67.3 0 .16.06.27.14.23a7 7 0 0 1 2.37-.9c2.63-.3 4.3 1.6 4.3 4.83 0 2.3-.85 4-2.42 4.82-.64.33-1.13.4-2.5.4-1.68 0-1.7 0-1.7.5-.02.27-.04 1.1-.06 1.85l-.04 1.35-.73.05-.73.08v-6.83zm4.6 1.56c.44-.2 1.05-.7 1.36-1.1.5-.64.57-.92.63-2.35.05-1.34 0-1.75-.35-2.47a2.7 2.7 0 0 0-3.9-1.04l-.6.45-.04 3.3c-.05 3.2-.04 3.2.4 3.44.67.33 1.7.28 2.6-.13zm-106.27 1.3c-.87-.45-.97-.95-.98-4.86v-3.65h-.87c-.85 0-.88 0-.88-.5s.03-.6.88-.6h.87v-2.7h1.56v2.72h2.52v1.16h-2.52v3.44c0 1.96.08 3.55.2 3.8.24.42.78.45 1.55.05.55-.27.57-.27.86.28.2.57.2.58-.4.9a3.9 3.9 0 0 1-2.9.05zm18.36-.05c-1.83-.65-2.95-2.83-2.77-5.38.1-2.5 1.4-4.1 3.4-4.5 2.6-.5 4.6 1 5 3.9l.1 1h-7v.6c0 .9.6 2.1 1.3 2.7 1.2 1 2.7.92 3.9-.17.72-.65.74-.66 1.2-.3l.4.34-.65.75c-.37.4-.94.84-1.3 1-.8.33-2.65.3-3.64-.04zm4-6.44c0-.58-.6-1.55-1.16-1.88-.8-.48-2.17-.43-2.83.1-.5.37-1.07 1.4-1.07 1.9 0 .12.92.2 2.52.2 2.2 0 2.53-.05 2.53-.32zm5.08 6.4a2.8 2.8 0 0 1-1.62-2.53c-.04-2.02 1.35-3.17 4.3-3.54a7.4 7.4 0 0 0 1.5-.28c.06-.06.05-.4-.02-.8-.27-1.44-2.07-1.94-3.5-.97-.7.5-.77.5-1.2.2-.6-.4-.6-.5.17-1.1a4.73 4.73 0 0 1 4.78-.3c1.16.7 1.28 1.2 1.35 5.6l.07 3.96h-.68c-.6 0-.8-.1-.9-.4-.1-.37-.14-.37-.7.05-.78.57-2.7.7-3.65.2zm3.47-1.4l.7-.35.1-1.58.1-1.6h-.75c-1.2 0-2.7.54-3.14 1.1-.5.65-.53 1.84-.05 2.27.85.77 1.84.82 3.16.15zm6.7 1.5c-.8-.4-.9-.83-1-4.73v-3.7l-.8-.05c-.7-.06-.8-.1-.8-.63 0-.54.1-.57.8-.57h.8v-2.73h1.56l.06 1.32.06 1.3 1.2.07c1.2.1 1.26.1 1.26.7s0 .58-1.2.6l-1.2.1-.06 3.4c-.04 2.92 0 3.4.28 3.72.4.44 1.03.47 1.55.08.5-.38.56-.36.8.2.3.66.3.62-.34.96a4.4 4.4 0 0 1-2.84.08zm13.4-.27c-1.6-.8-2.3-2.25-2.3-4.5 0-1.8.32-2.84 1.2-3.84a4.05 4.05 0 0 1 3.65-1.35c2.04.28 3.25 1.63 3.6 4.02l.13.9H78.5v.7a4 4 0 0 0 .4 1.5 2.97 2.97 0 0 0 4.88.78c.5-.54.54-.55 1.02-.24l.5.32-.54.7c-1.1 1.43-3.53 1.83-5.45.9zm4.3-6.45c-.3-1.2-1.2-1.9-2.5-1.9-.97 0-1.98.8-2.3 1.84l-.2.7h5.2l-.1-.54zm10.9 6.5c-2.3-1.1-3.2-4.7-1.8-7.4 1.44-2.8 5.3-3.1 7-.6l.44.66-.5.33c-.52.32-.53.3-1.34-.54-.73-.77-.93-.87-1.67-.87-1.85 0-3 1.5-3 3.87 0 1.5.48 2.6 1.34 3.3a2.6 2.6 0 0 0 3.7-.5c.5-.6.5-.62 1.07-.33.64.34.58.6-.35 1.5a4.25 4.25 0 0 1-4.9.62zm10 .28a5.5 5.5 0 0 1-2.27-2.44 6.77 6.77 0 0 1 0-4.93 4.38 4.38 0 0 1 8.2.6c.8 2.78-.32 5.88-2.5 6.78a6 6 0 0 1-3.44 0zm3.64-1.86a4.72 4.72 0 0 0 .43-5.4c-1.14-2-3.7-1.9-4.8.18a4.18 4.18 0 0 0-.42 2.3c0 1.6.28 2.3 1.2 3.15.72.68.96.76 2 .67.74-.07 1-.2 1.6-.9zm33.64 1.8a2.88 2.88 0 0 1-1.64-2.54c-.05-2.14 1.4-3.2 4.94-3.66.8-.1.93-.2.93-.57 0-.67-.7-1.67-1.27-1.8-.8-.2-2.03.03-2.53.5-.44.4-.5.4-.96.1-.6-.4-.6-.52-.05-1.02.75-.7 1.35-.9 2.75-.9 1.6-.02 2.5.4 3.1 1.45.37.6.4 1.06.47 4.6l.07 3.96-.77-.06c-.43-.05-.75-.17-.75-.3 0-.35-.2-.3-.8.07-.76.5-2.7.57-3.55.14zm3.47-1.4l.68-.35.07-1.6.05-1.6h-.78c-1.1 0-2.6.54-3.12 1.08-.5.55-.6 1.7-.2 2.2.74.86 1.97.97 3.3.3zm-111.8-5.37v-6.9H35v2.34c0 1.3.04 2.33.1 2.33.06 0 .47-.2.92-.42a4.3 4.3 0 0 1 2.1-.4c1.6 0 2.43.43 3.04 1.6.4.8.44 1.1.44 4.64v3.76H40l-.06-3.8-.06-3.82-.63-.56c-.84-.75-1.9-.77-3.32-.07l-1 .5v7.76h-1.55v-6.9zm37.53 2.05v-4.9h.77c.55 0 .75.07.75.3 0 .17.05.28.13.24 1.54-.82 2.04-.97 2.8-.84.65.1.74.18.64.55-.06.25-.1.54-.1.68 0 .17-.35.25-1.06.25-.76 0-1.2.13-1.7.46l-.66.45-.05 3.8-.07 3.8h-1.5v-4.87zm42.2 0v-4.9h.66c.47 0 .67.08.67.3 0 .35-.02.35 1-.1 1.6-.7 3.25-.64 4.3.18l.5.4 1.13-.53a4.9 4.9 0 0 1 2.4-.5c1.6 0 2.35.4 2.94 1.6.38.8.43 1.27.5 4.63l.08 3.75h-1.8v-3.6c0-3.9-.1-4.4-1-4.87-.78-.4-1.7-.35-2.8.2l-.96.48.05 3.9.06 3.9h-1.6v-3.6c0-3.94-.1-4.5-1.04-4.9-.76-.37-1.45-.3-2.58.23l-1.02.47v7.8h-1.56v-4.86zm37.1 0v-4.9h.68c.4 0 .74.1.85.3.17.28.28.27 1.04-.13 1.12-.6 3.1-.63 4.05-.07 1.4.83 1.45 1.02 1.5 5.55l.07 4.08h-1.57v-3.6c0-4-.1-4.5-1.17-4.95a4.18 4.18 0 0 0-3.2.4l-.7.42v7.74h-1.55v-4.85zm90.9 42.87a18.6 18.6 0 0 0 2.23-.4 4.5 4.5 0 0 0-.36-1.33c-.27-.7-.4-1.34-.3-1.5.05-.1.03-.2-.08-.1-.2.1-.7-1.2-.52-1.43.18-.3-.8-.4-1.7-.2-1.32.3-5.55.8-6.76.8h-1.07l-.72-1.37a4.46 4.46 0 0 1-.6-1.37c.07 0 0-.15-.16-.34a17 17 0 0 1-1.42-2.8c0-.03-.24-.54-.54-1.1-.3-.6-.5-1.2-.43-1.35.06-.15.03-.23-.07-.17s-.3-.15-.4-.44l-1.57-3.84c-1-2.44-1.45-3.3-1.67-3.3-1.4.13-6.16.95-6.16 1.07 0 .1.56 1.4 1.26 2.9s1.2 2.84 1.13 2.95c-.06.13-.04.17.07.1.24-.14 1.67 2.74 1.5 3-.1.15-.05.18.1.1.12-.1.4.26.72.9.3.56.8 1.5 1.2 2.05.34.56.6 1.1.5 1.24-.07.1-.04.15.1.07.1-.07.3.07.44.3a45 45 0 0 0 1.97 2.93c1.7 2.4 1.76 2.45 2.62 2.6 3.43.5 7.02.5 10.64-.05zm4.66-.9c.96-.2 1.9-.4 2.1-.4.17 0 .32-.1.32-.15s.2-.2.48-.26c.5-.13.6-.42.82-2.7.1-1 .2-1.37.43-1.45 1.15-.4 3.1-1.2 4.37-1.8l1.5-.74.7 1.4c.38.76.7 1.4.77 1.47.05.04.43-.15.86-.43.42-.3.82-.53.87-.53.28 0 2.83-2 2.83-2.2 0-.54-1.3-3.87-2.28-5.94-.58-1.2-1-2.3-.92-2.4.1-.12.05-.16-.05-.1s-.33-.1-.48-.4c-.45-.9-2.16-3.7-4.02-6.62a31.15 31.15 0 0 1-1.78-3c0-.22-.93-.03-2.53.55-.7.24-1.84.63-2.54.84l-1.23.4-.33 2.8c-.66 5.52-1.3 12-1.6 15.9-.4 5.5-.42 6.2-.2 6.2.12 0 1-.2 1.95-.45zm4.24-11c.1-.5.24-1.9.36-3.14.24-2.82.3-2.87.7-2.3.76 1 2 3.3 1.85 3.5-.1.14-.06.2.05.1.1-.05.36.17.5.5.3.63.3.65-.3 1-.3.2-.8.4-1.1.4-.3 0-.5.1-.43.2s-.03.13-.22.06c-.16-.08-.27-.07-.2.02.04.1-.2.25-.6.37l-.7.2.1-.9zm-24.6 10.45c.4-.15.68-.4.76-.7a3.64 3.64 0 0 0-.38-2.15c-.1-.12-.13-.33-.05-.46.07-.15.06-.2-.04-.15s-.45-.3-.8-.8c-1.07-1.47-3.7-3.3-5.24-3.6-.73-.18-.75-.25-.3-.76.86-.94.1-3.5-1.46-5.2-.42-.42-.7-.82-.65-.9.07-.05.03-.1-.1-.04-.2.05-1.24-.54-1.45-.82-.06-.07-.8-.38-1.66-.67-1.5-.55-1.67-.57-5.15-.54-3.1.03-8.33.16-8.5.2-.06.04 1.5 2.12 1.95 2.64.2.2.3.47.2.6-.05.1-.04.14.04.07.1-.06.45.25.82.7a25.7 25.7 0 0 0 3.76 3.84l1.58 1.32a87 87 0 0 0 4.93 3.2c1.75 1 5 2.64 5.3 2.64.16 0 .24.08.2.16-.05.1.1.2.33.2.24 0 .78.2 1.2.38.93.4.85.4 2.43.75 1.6.37 1.55.36 2.3.1zm-8.26-4.06c-1.02-.3-1.4-.54-2.42-1.57l-1.2-1.24.65.1a7 7 0 0 0 1 .12c.2 0 .33.07.3.16-.07.08.2.15.6.17 1.26 0 3.57 1.45 3.24 2-.1.1-.04.2.1.15.12-.03.26.06.3.2.13.34-1.14.3-2.62-.14zm-7-6.6a4.67 4.67 0 0 1-.62-.9c0-.06-.17-.3-.4-.53a1.7 1.7 0 0 1-.37-.56c0-.25 2.14-.17 3 .1.45.14.78.34.76.46-.04.1.1.2.3.2.16-.04.3.06.26.2-.05.13.02.2.15.2.33-.08.84.9.7 1.27-.1.26-.4.32-1.66.32h-1.52l-.62-.78zm45.17 4.64a.45.45 0 0 0-.37-.2c-.13 0-.1.07.07.2.36.22.43.22.28 0zm8-2.3c2.1-1.68 2.5-2.2 2.73-3.26.26-1.15.56-3.5.74-5.6.14-1.47.15-1.5.95-2.03.45-.3.85-.6.9-.67a44.7 44.7 0 0 1 2.66-2.17c.3-.18-.5 3.15-1.2 5.35-.53 1.66-.5 2.05.07 1.2.2-.24.6-.84.94-1.3a38.7 38.7 0 0 0 2.42-4.13c0-.03.33-.8.75-1.7 1.88-4 2.7-7.6 3.23-13.8.13-1.5.1-1.5-.24-1.3-.2.1-.45.13-.54.05-.08-.06-.08 0 0 .16.13.2.08.24-.17.15-.2-.06-.3-.05-.26 0 .1.2-1.83 1.35-2.07 1.28-.1-.02-.14.04-.14.1 0 .2-.9.7-1.26.7-.1 0-.24 1.6-.32 4-.13 4-.22 4.45-.9 4.2-.12-.04-.2 0-.2.1.08.3-2 1.76-2.25 1.6-.13-.05-.15-.03-.07.06.08.1-.3.46-.87.8l-1.03.64-.13-3.15c-.14-3.52-.3-4.8-.53-4.8-.1 0-.75.3-1.5.64a38.2 38.2 0 0 1-2.3 1.02c-.4.2-.92.3-1.12.3-.2-.04-.3.02-.23.13.06.1-.06.25-.28.3-.3.1-.37.2-.2.47.2.44.9 6.2 1.15 10.15.14 2 .17 4.8.08 7.36-.06 2.26-.07 4.1 0 4.1s.6-.4 1.23-.9zm-61-11.73c4.24-.32 6.8-.73 8.07-1.26a9.2 9.2 0 0 1 1.4-.5c.16-.03.2-.1.2-.16-.06-.07.16-.35.46-.64.96-.86 1.3-1.8 1.3-3.5 0-2.16-.6-3.67-2-5.2a5.08 5.08 0 0 0-1.15-1.08c-.06.05-.46-.08-.9-.28a4.4 4.4 0 0 0-1.45-.38h-.65l.7-1.02c1.28-1.93 1.33-4.32.15-6.7-.4-.8-.75-1.12-1.7-1.7a3.73 3.73 0 0 0-2.56-.68c-1.74 0-2.8.3-6.2 1.83-5.5 2.4-5.17 2.2-5.17 3.1 0 1.1.5 5.2.87 6.92.7 3.3 2.3 7.33 4.3 10.78.42.74.54.8 1.1.74l3.24-.3zm-.96-6.32a7.53 7.53 0 0 1-.53-1.9c.1-.24 2.8-.9 3.7-.9 2.08 0 3.3 2.9 1.55 3.7-.5.22-3.2.8-3.77.8-.25 0-.5-.5-.95-1.7zm-2.06-6.72c-.2-.52-.7-2.8-.7-3.2 0-.3.16-.43.7-.53.37-.08.73-.2.78-.3.2-.3 1.85-.44 2.34-.18.27.1.44.3.4.4-.05.05.04.16.2.22.2.1.3.4.3 1.03 0 .77-.1 1-.67 1.52-.7.64-2.24 1.2-2.65.95-.13-.1-.2-.06-.1.1.1.13 0 .22-.15.22s-.36-.1-.4-.24zm21.6 10.38c1.7-.3 4.7-.93 6.6-1.36 6.1-1.36 7.57-1.8 7.15-2.1-.1-.06-.32-.6-.5-1.2l-.84-2.8-.53-1.7-.6.14a8.8 8.8 0 0 1-.9.16.67.67 0 0 0-.4.1c-.1.14-9.1 2.4-9.2 2.3a65.6 65.6 0 0 1-1.3-3.9 206.34 206.34 0 0 1-3.7-14.2c-.2-1-.3-1.1-.7-1.1-.2 0-.5.06-.52.16-.05.1-.43.24-.83.32-.9.2-.84.17-1.4.44-.3.14-1.08.45-1.77.7l-1.26.48.04.76c.07 1.25 1.5 7.37 2.57 11.04a10 10 0 0 1 .5 2.35c-.03.1 0 .3.13.4.22.23 2.5 6.74 2.54 7.28 0 .2.08.34.15.34s.27.46.46 1c.28.77.44.96.8.96.2 0 1.8-.24 3.54-.56zm15.28-3.5c.18 0 .53-.07.78-.17.24-.1 1.5-.5 2.8-.87l2.4-.63.1-1.24.26-2.46.15-1.14 2.04-.6a82.1 82.1 0 0 0 3-.94c.5-.2 1-.3 1.1-.23.1.05.2.02.2-.07 0-.1.34-.3.8-.4.8-.2.83-.2 1.25.3.23.3.4.65.33.8-.05.1 0 .2.1.1.1-.05.5.4.9 1.08.4.66.8 1.2.9 1.2.28 0 6.25-2.18 6.44-2.35.1-.1-.2-.76-.68-1.5a6.4 6.4 0 0 1-.8-1.47.14.14 0 0 0-.14-.15c-.08 0-.37-.33-.64-.73a284.8 284.8 0 0 0-3.64-5.3c-.35-.47-.57-.95-.5-1.06.07-.1.03-.15-.1-.08-.1.1-.5-.3-.92-.95a210.48 210.48 0 0 0-6.9-9.25l-1.75-2.26-.8.26c-.45.15-1.85.5-3.1.8-1.5.36-2.3.64-2.3.8 0 .14-.06.26-.16.26s-.13.2-.1.47c.05.24 0 1.5-.12 2.76-1.07 11.86-2.2 24.38-2.22 24.87-.04.57-.02.58.45.34.28-.14.65-.26.83-.26zm6.64-14.5c.1-1.05.2-2.86.26-4l.1-2.1 1.25 1.75c.7 1 1.2 1.9 1.1 2-.07.1-.04.2.07.1.1-.05.6.5 1.13 1.28.9 1.4.93 1.67.14 1.76-.3 0-.3 0-1.64.4-.6.2-1.22.3-1.34.2-.14-.1-.18-.05-.1.1.1.15.03.24-.14.24s-.44.08-.63.15c-.3.1-.34-.05-.2-1.8zm18.94 6.17c.84-.3 2.2-.84 3-1.18l1.48-.64-.54-3.15a89.2 89.2 0 0 0-.82-4.36c-.15-.66-.28-1.33-.28-1.5 0-.2.9-.6 3.1-1.3 1.73-.53 3.16-.95 3.2-.9.26.3 1.03 4.46 1.36 7.4.06.63.16 1.13.2 1.13.18 0 4.85-2.36 5.03-2.53.23-.23-.2-5.4-.7-7.96a41.2 41.2 0 0 0-2.7-8.3 17 17 0 0 1-.8-1.8c0-.1-.2-.5-.5-.95-.4-.6-.6-.78-.9-.7l-2.44.3c-2.32.24-2.72.32-2.72.6 0 .1.3.73.6 1.44.35.7.64 1.5.65 1.74 0 .25.07.4.1.36.14-.1 1.36 3.2 1.38 3.7 0 .24-.1.3-.3.22-.2-.08-.4-.06-.46.04-.1.15-4.2 1.24-4.9 1.3-.15 0-.4.1-.53.17-.15.1-.3.12-.32.1-.2-.25-.66-2-.6-2.15.08-.1.05-.17-.05-.17s-.28-.35-.4-.75c-.2-.8-1.16-3.4-1.7-4.6-.24-.6-.4-.73-.73-.64-.24.05-1 .2-1.7.3-2.07.33-4.1.74-4.2.85a11 11 0 0 0 .66 2.2 140.57 140.57 0 0 1 5.5 19.94l.5 2.3 1.57-.57zm-68.27-8.35c.2-.17 1.54-.9 3.94-2.2l1.75-.9a106 106 0 0 1 2.15-1.1c2.9-1.4 4.3-2.5 5.7-4.54a9.9 9.9 0 0 0 1.52-7.43c-.34-1.6-1.32-2.7-2.45-2.73h-.9c-.1.02.1-.37.45-.87a9.46 9.46 0 0 0 1.7-4.94c.2-3.26-.92-4.2-3.1-2.7-.35.24-.76.6-.9.8l-1.37 1.7a26.53 26.53 0 0 0-2.84 3.97c-.2.32-.62 1.06-.93 1.65-.3.6-.7 1.3-.85 1.55-.55.83-2.5 5.57-3.02 7.35-.9 3.07-1.74 10.54-1.2 10.54.15 0 .35-.08.45-.17zm4.56-8a1 1 0 0 1 .34-.7c.2-.17.2-.2.04-.16-.2.12-.23-.08-.17-1a9 9 0 0 1 .14-1.4c.2-.6 2.9-2.55 3.55-2.55.55 0 .9.47.9 1.23 0 1.5-.76 2.47-3.24 4-1.47.9-1.6.95-1.6.57zm1.17-8.5c0-.08.16-.8.36-1.6.33-1.33.46-1.56 1.53-2.6.63-.6 1.25-1.07 1.36-1 .24.17.22 1.14-.06 1.42-.13.1-.17.2-.1.2.36 0-.72 1.6-1.77 2.6-1.18 1.1-1.4 1.27-1.4.97zm5.13 11.62c.06-.12 0-.15-.2-.1-.33.14-.4.28-.1.28.1 0 .22-.1.3-.2zm6.8-3.7c.47-.42 10.98-4.22 13.24-4.8.4-.1 2.87-.9 2.97-.96.05-.02-.2-1.17-.54-2.54a84.87 84.87 0 0 1-.67-2.8c-.03-.16-.2-.3-.4-.34-.54-.08-5.15 1.43-8.2 2.7-.77.3-1.48.56-1.6.56-.36 0-1.56-8.23-1.97-13.7a62.97 62.97 0 0 0-.3-3.2c-.1-.1-1.73.84-3.17 1.9l-1.5 1.03.1 6.53c.1 6.57.18 7.3 1.24 14.88.1.9.37 1.13.77.76zm19.34-6.63a9.88 9.88 0 0 1 2.3-.5c.14.06.2.03.16-.06-.06-.1.38-.24.96-.4s1.1-.3 1.1-.34c0-1.1.2-4.2.3-4.3.02-.1.35-.25.7-.3l1.1-.26a128 128 0 0 1 4.64-.93c.38-.02.77-.13.87-.2.25-.16 2.1 1.9 2 2.23-.07.13-.04.2.05.14.27-.17 1.26 1 1.1 1.26-.1.15-.07.2.05.12.22-.15 2.25-.56 5.1-1.03 2.1-.4 1.9-.35 5.6-.8 2.6-.33 2.77-.37 2.7-.75-.02-.22-.1-.44-.15-.5a33.2 33.2 0 0 1-1.35-2.42 61.65 61.65 0 0 0-1.9-3.37l-.67-1.06 2.88.13c2.36.1 3 .2 3.4.47a25 25 0 0 1 2.9 3.94c.2.4.64 1.1.94 1.66l.54.94 2.76-.04a25.5 25.5 0 0 0 2.97-.15c.1-.05-.1-.4-.4-.8-.3-.4-.5-.77-.45-.85.07-.1.04-.17-.06-.17-.28 0-1.8-2.28-1.65-2.45.1-.1.05-.1-.07-.04-.27.16-1.1-.9-.9-1.1.1-.1.06-.14-.04-.1-.1.03-1.1-.84-2.2-1.93-1.1-1.1-2.07-2-2.15-2-.1 0-.44-.24-.76-.54a48.7 48.7 0 0 0-5.8-3.78c-2.1-1.06-3.25-1.53-3.66-1.5-.38 0-.34.06.33.6a47.7 47.7 0 0 1 4.2 4.04c0 .24-1.04-.06-1.3-.4-.14-.15-.2-.2-.14-.04.13.24-.3.24-2.72-.06-1.4-.18-1.7-.3-1.57-.6.07-.17.05-.25-.05-.2s-.7-.6-1.35-1.5a44 44 0 0 0-2.2-2.7c-1.05-1.1-1.07-1.1-2.7-1.4-2.5-.42-3.5-.54-3.5-.4 0 .06.32.56.73 1.12a73.33 73.33 0 0 1 6.53 10.93c1.6 3.23 3.22 6.84 3.22 7.15 0 .1-.2 0-.5-.25-.25-.28-.43-.6-.4-.75.08-.1.05-.2-.04-.13-.1.07-.47-.2-.83-.6a890.72 890.72 0 0 1-4.35-4.8l-2.34-2.55a300.2 300.2 0 0 0-2.47-2.65c-.3-.3-.5-.54-.45-.54a14 14 0 0 0-1.27-1.3A9.47 9.47 0 0 1 239 1013c0-.03-.45-.56-1.05-1.17a62.8 62.8 0 0 1-2.1-2.27c-.82-.94-1.08-1.12-1.6-1.1-.73.02-4.37.45-4.44.52a70.7 70.7 0 0 0-.2 3.8c-.24 4.9-.5 8.16-1.1 13.97-.8 8.04-.77 7.3-.34 7.12.2-.1 1.3-.43 2.4-.74zm4.48-14.3v-3.24l1.26 1.53c.7.82 1.25 1.62 1.2 1.74-.04.13.03.2.16.15.12-.06.6.4 1.06 1l.82 1.1-2.2.44-2.28.45s-.03-1.46-.03-3.24zm-33.05 3.5c0-.17-.37-.26-.45-.1-.06.07.02.15.18.15.15 0 .28-.04.28-.07z"/>
    <path style="isolation:auto;mix-blend-mode:normal" color="#000" overflow="visible" fill="none" d="M0 1200h300v300H0z"/>
    <g fill-rule="evenodd">
        <path d="M169.54 1304.67h66.87v155.3H81.1v-113.95h88.48v-41.35z" fill="#333"/>
        <path d="M63.6 1240.03h105.94v64.64H81.06v41.35H63.6v-106z" fill="#585858"/>
        <path d="M81.06 1346.02h88.48v-41.35H81.06v41.35z"/>
        <path d="M129.85 1392.6l-4.88 1.06-.47.13-.2.3-.07.3.07.3 2.67.2v20.6l-2.27.68-.4.27-.2.4v.53l1.47-.05h4.36l1.6.08.47-.06.47-.25.26-.33.2-.47-3.08-.72v-23zm62.52.06l-4.82.87-.6.2-.34.27-.1.4.2.4 2.9.2v7.36l-.9-.27-.93-.1-.86-.1-1.4.1-1.34.33-1.26.6-1.1.8-1 1-.73 1.2-.64 1.4-.4 1.62-.12 1.73.15 1.6.35 1.47.53 1.28.74 1 .8.8 1 .56 1.15.4 1.28.14 1.4-.15 1.24-.4 1.08-.66 1-1v2.15l4.08-.67.74-.2.55-.34.25-.46.1-.6-2.8-.34v-22.64zm-94.9 3.27l-1.62.07-1.27.07-.94.13-.74.2-.46.14-.34.33-.2.4.07.47 2.68.34v17.53l-1.95.6-.53.3-.33.48.06.6 1.07-.06h4.82l.7.08h.6l.73.08h1l1.67-.14 1.56-.44 1.26-.67 1-.94.8-1.2.47-1.36.12-1.6-.12-1.15-.46-1.1-.72-1-1-.8-1.3-.73-1.53-.4 1.4-.72 1.05-.8.74-.93.4-1.13.13-1.3-.14-1.34-.5-1.13-.74-.93-1.07-.8-1.3-.55-1.6-.4-1.73-.08h-1.9zm.12 1.54l1.6.07 1.3.34 1.07.46.9.67.52.9.32.87.15 1-.12 1.08-.3 1-.55.8-.73.55-.96.4-1 .15h-2.3v-8.16zm59.1 4.35l-4.9 1-.4.2-.3.28-.06.4.06.4 2.68.2v11.3l-2.2.8-.4.28-.27.33.1.5h6.03l2 .08.53-.06.4-.25.32-.34.1-.46-.64-.14-.88-.15-.8-.2-.7-.14-.54-.06-.2-.06v-8.7l1.1-1 1.05-.6 1.06-.2.88.12.9.33.5-.67.25-.8.14-.9-.08-.6-.35-.5-.48-.26-.66-.13-.96.2-.95.6-.92.9-.8 1.15-.66 1.36v-4.15zm-15.1.07l-1.4.1-1.34.2-1.14.53-1 .73-.88.87-.6 1.1-.4 1.2-.15 1.4.13 1.2.46 1.08.6.93.9.73.92.6-.88.76-.6.6-.48.6-.3.47-.2.4v.47l.1.56.24.47.57.55.8.47-1.1.8-.8.8-.6.9-.4 1-.12 1.1.14 1.07.45.85.7.68.85.6 1.2.4 1.34.3 1.54.06 1.93-.2 1.8-.56 1.7-.86 1.4-1 1.05-1.3.66-1.28.25-1.4-.13-.96-.4-.87-.65-.7-.93-.47-1.13-.4-1.4-.2-1.7-.06-1.54-.08-1.2-.15-.9-.13-.55-.26-.33-.32-.13-.3.15-.48.32-.6.6-.8.8.14.75.07 1.74-.2 1.5-.4 1.27-.73 1-.97.74-1.12.48-1.3.13-1.4-.1-.94-.25-.8-.4-.66-.53-.68.54.1h.87l.6-.07.5-.27.4-.4.13-.68v-.35l-.07-.2-.8.06h-3.68l-.7-.08-.48-.07-.6-.15-.68-.1-.67-.08zm-24.5 0l-1.4.2-1.3.44-1.2.73-1.05 1-.94 1.34-.65 1.54-.45 1.76-.12 1.95.07 1.6.34 1.35.53 1.13.6.93.8.75.86.6.94.4 1 .2 1 .16 1.6-.14 1.48-.32 1.2-.54.94-.6.6-.7.2-.66v-.33l-.13-.2-.16-.2-1.1.67-1.35.46-1.54.14-1.26-.12-1.07-.33-.96-.6-.8-.9-.54-1.14-.32-1.33-.15-1.55v-.2l.1-.2v-.53h8.96l.2-.68.1-.8v-.7l-.14-1.26-.55-1.12-.8-.93-1-.64-1.2-.46-1.33-.18zm86.6 0l-1.32.2-1.34.44-1.2.73-1.08 1-.96 1.34-.68 1.54-.46 1.76-.14 1.95.14 1.6.26 1.35.54 1.13.66.93.75.75.95.6.94.4 1 .2 1 .16 1.6-.14 1.4-.32 1.28-.54.93-.6.6-.7.2-.66-.05-.33-.08-.2-.13-.2-1.12.67-1.33.46-1.53.14-1.27-.12-1.17-.33-.93-.6-.7-.9-.56-1.14-.34-1.33-.13-1.55v-.93h9.05l.14-.68.14-.8.07-.7-.2-1.26-.47-1.12-.8-.93-1-.64-1.2-.46-1.4-.18zm-32.45 0l-1.74.2-1.65.44-1.66.93-.87.6-.55.54-.28.54-.07.55.12.4.27.33.47.2.66.05.87-.06.13-.94.33-.8.54-.53.68-.33.8-.2.95-.07.73.2.6.47.4.8.3 1.17.06 1.4v1.8l-4.28.8-1.3.36-1 .47-.73.5-.52.66-.34.8-.08.85.12 1.08.44.9.65.8.8.6.95.4 1 .13 1.4-.14 1.15-.34 1.06-.6.87-.8.53.8.6.6.68.3.8.14.7-.14.6-.4.48-.53.35-.6-.8-.27-.6-.4-.4-.4-.25-.6-.07-.74-.07-1.4v-2.42l.06-1.6.07-1.6v-.93l-.13-.9-.28-.8-.4-.76-.55-.6-.67-.55-.87-.3-1.1-.1zm-30.3 1.7l1.05.13.94.46.65.66.5.8.3 1 .1 1.06-.07.87-.27.87-.4.8-.6.6-.8.5-1 .12-1-.15-.88-.4-.75-.6-.6-.8-.33-1-.15-1.14.14-1.06.24-.95.48-.75.68-.6.8-.33.93-.13zm-24.65.06l1.14.14.85.47.6.75.34.93v1.06l-6.22.16.4-1.2.6-1 .73-.67.75-.46.8-.14zm86.6 0l1.15.14.87.47.68.75.33.93v1.06l-6.3.16.48-1.2.57-1 .72-.67.8-.46.73-.14zm-16.86.14l1.2.07 1.06.35 1.1.6v9.3l-.7.6-.86.46-.87.36-.87.14-1.13-.14-.94-.45-.8-.66-.68-.94-.48-1.1-.27-1.26-.13-1.48.13-1.6.26-1.28.46-1.08.6-.8.8-.6.96-.3 1.14-.13zm-88.57 3.28l1.73.06 1.5.26 1.28.48 1 .54.8.76.55.8.33.9.15 1-.2 1.14-.4.94-.63.8-.8.6-.95.4-1 .13h-1l-.85-.05-.67-.08-.67-.15v-8.5zm74.75 4.1v3.12l.06.6-.87.47-.92.36-1 .07-.68-.07-.6-.26-.56-.46-.33-.6-.12-.72.1-.55.28-.54.55-.4.8-.25 3.36-.75zm-33.8 7.15l.6.14.73.1.86.06 1.08.05 1.28.1 1.1.1.8.27.6.4.4.46.2.55.06.66-.2.76-.47.73-.8.7-1 .52-1.14.4-1.3.14-1.26-.13-1.14-.26-.8-.48-.6-.6-.4-.8-.16-.9.2-1.07.53-1 .8-.88zm-22.23 4.4l-4.9.96-.4.2-.25.26-.15.4.08.33 2.73.27v20.6l-1.84.7-.4.3-.13.4.08.46h1.56l1.8-.07 1.55.04h1.8l.28-.12.33-.14.3-.34.2-.53-2.57-.67v-9.56l.94-.73.8-.5.73-.3.7-.2h1.6l.66.2.52.32.47.55.23.67.13 1 .1 1.2v7.45l-.72.26-.6.14-.5.12-.12.05-.47.27-.2.44v.45h1.8l2.14-.06 1.6.05h1.7l.28-.14.34-.14.28-.34.14-.53-2.73-.66v-8.05l-.05-1.6-.27-1.28-.47-1.08-.6-.76-.8-.54-1-.34-1.15-.08-.94.05-.8.12-.8.33-.88.47-.93.66-1 .8v-11.83zm-6.97 3.37l-1.14.13-1.4.08-1.48.1h-6.6l-2.13-.07-2.3-.07-2.4-.05-.75 5.9.53.16.45-.14.4-.3.4-.64.4-1 .66-1.88h4.8v17.6l-2.2.46-.6.28-.27.47.06.6h1.94l1.2-.07h1.27l1.48.04h2.3l.5-.06.48-.2.26-.4.1-.6-3.45-.53v-17.54h3.96l1.06-.13.8 2.7.34.73.4.4.53.2.8-.13-.46-5.97zm53.75 2.2l-.95.28-.94.34-.87.53-.08 2.94-.55.13-.67.07-.68.15-.47.14-.14.1-.13.2-.06.2v.5l2.67.4-.05 2.46-.07 2.7-.07 2.65v2.56l.1 1.1.27.86.47.67.6.46.87.25 1.1.1 1.12-.08 1.16-.27 1-.5.88-.67.3-.48.13-.54-.1-.55-.95.4-1.06.28-1.07.12-.46-.07-.4-.06-.35-.2-.2-.4-.2-.6-.12-.88-.06-1.2v-8.1l1.26.13 1.35.1.6-.06.55-.1.4-.2.26-.46.07-.6v-.33l-.06-.27H163v-2.64l.06-1.56zm11.84 3.7l-4.96 1-.4.2-.27.26-.07.4.06.4 2.66.2v11.3l-2.2.75-.4.27-.2.4v.4l2-.02h2l2 .06h2.1l.47-.05.4-.2.33-.34.2-.53-.7-.08-.8-.2-.86-.13-.65-.13-.54-.08-.1-.1v-8.64l1-1 1.08-.6 1.06-.2.88.14.88.3.5-.7.26-.8.13-.8-.08-.7-.33-.48-.5-.27-.66-.05-.95.2-.95.52-.92.88-.75 1.16-.68 1.44V1432zm-38.02.12l-1.4.13-1.27.43-1.27.8-1.07 1-.88 1.28-.75 1.55-.4 1.8-.2 1.98.13 1.54.35 1.36.46 1.14.68 1 .8.74.85.5.93.4 1 .3 1 .06 1.6-.15 1.5-.33 1.2-.48.9-.6.6-.67.2-.76v-.3l-.13-.27-.13-.12-1.15.7-1.34.4-1.54.2-1.28-.15-1.06-.4-1-.6-.72-.8-.52-1.14-.35-1.3-.14-1.6v-.38l.05-.2v-.4h8.98l.2-.66.07-.73.07-.68-.2-1.35-.47-1.05-.8-.92-1-.67-1.2-.44-1.34-.14zm14.47 0l-1.8.13-1.7.5-1.6.87-.9.66-.53.55-.24.55-.06.47.07.46.27.27.5.18.74.13.88-.07.14-1 .33-.72.53-.5.6-.4.86-.15.95-.04.75.14.5.55.48.8.26 1.12.06 1.4v1.7l-4.3.87-1.26.3-1 .4-.72.53-.53.68-.34.8-.03.96.15 1 .46.93.6.8.87.6.93.3 1 .16 1.4-.06 1.15-.4 1-.55.96-.8.53.8.5.52.7.4.8.05.7-.14.6-.35.5-.52.33-.67-.8-.28-.6-.34-.4-.47-.3-.53-.12-.8v-3.75l.08-1.6.06-1.57v-1l-.13-.88-.25-.8-.4-.8-.54-.6-.7-.47-.85-.28-1.06-.13zm36.93 0l-1.4.13-1.26.43-1.2.8-1.14 1-.9 1.28-.66 1.55-.47 1.8-.12 1.98.06 1.54.36 1.36.53 1.14.6 1 .8.74.85.5.94.4 1 .3 1 .06 1.6-.15 1.47-.33 1.2-.48.93-.6.6-.67.2-.76v-.3l-.16-.27-.15-.12-1.13.7-1.35.4-1.57.2-1.27-.15-1.07-.4-.93-.6-.8-.8-.53-1.14-.33-1.3-.1-1.6v-.18l.06-.2v-.56h9l.2-.68.14-.74v-.7l-.15-1.33-.5-1.07-.8-.93-1-.7-1.2-.44-1.33-.14zm-52.2 1.73l1.1.2.92.44.6.7.33.9v1.13l-6.23.13.4-1.23.6-1 .67-.73.8-.4.8-.2zm51.4 0l1.1.2.93.44.6.7.32.9v1.13l-6.24.13.4-1.23.6-1 .74-.73.73-.4.8-.2zm-35.13 7.5v.8l-.05.7v.8l.1.8.1.68-.9.47-1 .34-.92.07-.7-.06-.67-.34-.47-.4-.4-.6-.15-.74.15-.6.26-.47.57-.4.8-.28 3.35-.8z" fill="#fff" stroke="#fff" stroke-width=".07" stroke-linejoin="round" stroke-miterlimit="10"/>
    </g>
    <g color="#000">
        <path style="isolation:auto;mix-blend-mode:normal" overflow="visible" fill="none" d="M0 1500h300v300H0z"/>
        <path d="M242.84 1613.6c-.1 0-.2.06-.32.2-.25.25-.27.4-.3 2.96a29.27 29.27 0 0 1-.12 2.88c-.05.1-.2 1.22-.32 2.47l-.4 4c-.1 1-.2 2.2-.2 2.7a3 3 0 0 1-.13 1.1 6.9 6.9 0 0 0-.16 1.8l-.1 1.65-.4.1c-.2.07-.5.17-.65.24-.68.3-5.3.86-7.26.87a4.2 4.2 0 0 0-1.37.16c-.05.1-1.2.13-3.1.13-2.9 0-3.3.05-3.3.4 0 .05.5.56 1.13 1.12l1.16 1h1.88c2.4 0 7.27-.23 7.6-.37.33-.13 4.25-.24 4.33-.12.1.14-.23 3.8-.34 3.8-.15 0-.15 2.83 0 3 .22.23.3 1 .1 1.25-.26.3-.3 2.97-.06 3.35.13.2.13.3 0 .5-.26.46-.2.65.26.7.36.03.44.1.47.4 0 .2-.06.5-.17.73-.2.47-.25 1-.07 1.2.07.08.18.5.26 1 .1.85 0 2.2-.3 2.8a12.2 12.2 0 0 0-.37 2.55c0 .25-.05.45-.12.45-.36 0-.34 7.63.03 8.1.17.2.03.52-.22.52-.1 0-.2.13-.2.37 0 .2-.16.6-.42.92a3.5 3.5 0 0 0-.43.68 4 4 0 0 1-.5.76c-.25.36-.5.7-.52.8-.1.24-1.94 2.6-3.88 5-.2.22-.65.9-1.03 1.44a4.2 4.2 0 0 1-.82 1.05c-.06 0-.24-.2-.4-.44-.24-.4-.25-.6-.25-3.4 0-1.9.06-3 .15-3.1.12-.13.23-.73.35-2.1.04-.38.12-.8.17-.95.2-.5.4-1.47.4-1.97 0-.25.05-.5.1-.55.07-.04.15-.28.2-.54a7 7 0 0 1 .18-1l.28-1.08a244.7 244.7 0 0 1 1.4-5.7c.16-.6.3-1.3.4-1.52.08-.26.14-.98.14-1.6 0-1-.05-1.25-.34-1.8-.53-1-.77-1.2-2.27-1.83a6.38 6.38 0 0 0-2-.36c-.34 0-.64-.04-.7-.1-.03-.1-.5-.14-.96-.14-1.3 0-3.97-.27-4.02-.4 0-.07-.14-.1-.3-.1-.63 0-2.2-.6-2.7-1.07a.67.67 0 0 0-.4-.23c-.05 0-.24-.3-.4-.63a24.3 24.3 0 0 0-.4-.88c-.06-.14-.1-.35-.1-.5 0-.13-.06-.27-.13-.32a6.32 6.32 0 0 1-.1-1.78c0-1 .03-1.74.1-1.8.2-.1.17-2.24 0-3.2-.2-.8-.68-1.7-1.1-1.9a3 3 0 0 1-.5-.3 5 5 0 0 0-1.63-.77c-.12 0-.26-.05-.3-.1-.05-.1-.22-.15-.38-.15-.2 0-.38-.1-.4-.16-.07-.08-.35-.13-.66-.13-.3 0-.6-.05-.64-.12 0-.06-.2-.12-.42-.12-.2 0-.38-.06-.38-.1 0-.1-.25-.16-.55-.2-.3-.05-.73-.1-.97-.17-.4-.06-.5-.02-.8.34a2 2 0 0 0-.45.8 2.3 2.3 0 0 1-.2.53c-.28.32-.43 2.82-.3 4.65.1 1 .2 1.94.28 2.07.08.13.2.64.3 1.15.06.5.2.9.24.9s.1.17.1.36c0 .2.1.6.26.87a17.12 17.12 0 0 0 1.7 3.36c.04 0 .1.05.1.15 0 .76 2.03 1.85 3.47 1.85.36 0 .7.07.8.1.04.1.35.18.7.2 2 .26 3.04.6 3.45 1.16.23.3.24.4.1.95a12.7 12.7 0 0 1-.92 3c-.07.1-.1.44-.1.7 0 .27-.08.53-.15.57-.08.06-.14.23-.14.4 0 .16-.02.33-.1.37-.05.06-.1.33-.1.63s-.08.66-.17.84c-.1.18-.22.87-.3 1.53-.1.64-.2 1.3-.27 1.44-.06.15-.2.86-.3 1.6l-.4 2.53c-.1.65-.18 1.45-.18 1.8 0 .3-.07.6-.14.7a19.3 19.3 0 0 0-.15 3.1l-.03 2.95.6.83c.34.48.7.86.8.86.1 0 .2.04.2.1 0 .26 3.48 2.3 3.92 2.3a1 1 0 0 1 .34.1 8 8 0 0 0 1.38.53c.5.14.95.3 1.36.5.12.06.47.1.8.1.3 0 .6.07.63.14.06.1.3.15.6.15.26 0 .5.07.56.14.04.05.72.1 1.63.1 1.3 0 1.64-.04 2.25-.3 1.18-.47 1.34-.67 2.4-2.93.06-.13.18-.36.27-.5.38-.6.9-1.45 1.38-2.13l.5-.8c0-.06.27-.45.62-.9.34-.44.63-.86.63-.9 0-.24.62-.85.8-.78.1 0 .2.3.23.65.04.34.16.78.26.98.1.2.2.45.2.54 0 .1.04.2.1.2.1 0 .15.07.15.17s.34.55.76 1c.57.62 1 .92 1.9 1.4a16.1 16.1 0 0 0 1.96.84c.05.06.42.17.8.25.4.1.84.22 1 .3.4.2 4.43.2 4.86.02 1-.47 1.65-.8 2.1-1.16.7-.54 1.2-1.02 1.2-1.16 0-.07.1-.23.26-.36.14-.13.25-.3.25-.38 0-.1.1-.27.2-.4.37-.4.8-1.05.8-1.17 0-.07.2-.34.4-.6a3 3 0 0 0 .36-.6l.38-.65c.2-.3.42-.7.5-.9.2-.5.4-.3.4.38 0 .7.24 2.36.38 2.53.05.05.16.5.25 1 .1.44.2.86.3.9a8.37 8.37 0 0 0 1.25 2.6c.07 0 .1.3.1.7 0 .55.07.7.24.77.63.2 1.4.64 1.93 1.07.32.28.65.5.73.5.1 0 .15.05.15.12 0 .05.04.1.1.1s.28.1.47.25a14 14 0 0 0 3.1 1.05c.15 0 .35.05.4.1.2.2 1 .24 3.6.2 1.5 0 2.6-.1 2.75-.15.12-.07.53-.2.9-.3.37-.07.9-.25 1.17-.38.27-.14.56-.25.63-.25.1 0 .15-.04.15-.1s.1-.14.18-.14c.4 0 2.36-2 2.36-2.4 0-.1.1-.3.26-.5a4 4 0 0 0 .4-.86c.1-.27.2-.56.25-.63.06-.05.18-.4.27-.75.1-.33.2-.7.26-.74.07-.06.18-.57.27-1.13.1-.55.24-1.1.3-1.2.2-.23.2-8.47 0-8.9a9.15 9.15 0 0 1-.32-1.44 13.3 13.3 0 0 0-.85-3.16 2.9 2.9 0 0 1-.26-.66c0-.2-1.17-2.43-1.5-2.93l-.3-.4.44-.2c.26-.1.84-.42 1.3-.7.46-.27.85-.5.9-.5.23 0 4.63-3.26 4.63-3.44 0-.07.07-.1.15-.1.3 0 4.06-3.64 4.8-4.67a8 8 0 0 1 .6-.8c.1-.1.2-.32.25-.53.03-.2.1-.4.17-.42.3-.17-.1-1.07-.45-1.06-.1 0-.3.2-.44.48a35.3 35.3 0 0 1-3.2 3.28l-.92.73a46 46 0 0 1-4.46 3.03 36.55 36.55 0 0 1-4.38 2.12c-.2.06-.4.12-.47.12s-.3-.4-.57-.92c-.25-.5-.54-1-.66-1.1-.1-.1-.2-.24-.2-.33 0-.1-.05-.2-.1-.2a8.22 8.22 0 0 1-1.23-1.9c-.1-.4-.4-1.1-.6-1.46a1.2 1.2 0 0 1-.1-.47c0-.16-.05-.28-.12-.28s-.1-.24-.1-.5c0-.3.04-.5.1-.5.24 0 1.66-2.4 1.66-2.78 0-.08.1-.22.2-.3.24-.2.7-1.07.9-1.8.1-.3.15-1 .1-1.73a3.94 3.94 0 0 0-.42-2 5.27 5.27 0 0 0-2.5-2.4c-1.17-.6-1.87-.83-2.53-.83-.26 0-.5-.05-.54-.1-.04-.08-.36-.14-.7-.14-.34 0-.65.07-.7.14-.04.05-.24.1-.44.1s-.4.05-.45.1c-.04.1-.2.15-.4.15-.15 0-.56.2-.9.4-.32.2-.63.38-.7.38-.13 0-.86.84-1.1 1.25l-.3.9c-.06.33-.2.68-.3.8-.1.1-.2.38-.23.62l-.2.56a4.6 4.6 0 0 0-.27 1.1c-.14.86-.14 1.98 0 4.95 0 .37-.17.96-.4 1.3-.13.2-.24.4-.24.5 0 .1-.15.54-.35.95a54.6 54.6 0 0 0-1.05 2.26c-.05.14-.1.3-.1.4 0 .1-.1.3-.26.48-.15.2-.27.4-.27.5 0 .1-.12.43-.27.76a145.46 145.46 0 0 1-1.85 3.92c-.4.8-.94 2.16-1.53 4a129.46 129.46 0 0 1-1 3.03l-.32.8c-.1.2-.35.8-.57 1.33a7.14 7.14 0 0 1-.56 1.12c-.1.1-.2.3-.26.5-.04.16-.12.3-.2.3-.03 0-.14.13-.22.3-.1.2-.2.3-.33.24-.17-.05-.2-.6-.2-4.36 0-2.73.04-4.33.1-4.4.1-.03.15-1.23.15-3.15 0-1.94-.05-3.14-.13-3.2-.05 0-.1-.3-.1-.5 0-.28-.1-.98-.2-1.57a67.9 67.9 0 0 1-1.06-8.5c0-.48-.07-.9-.13-.97-.07-.07-.14-1.67-.16-3.65-.03-3 0-3.52.15-3.63.1-.06 1.72-.1 3.77-.1 2.24 0 3.6-.06 3.65-.14.04-.07.47-.13.95-.13s.9-.04.97-.1c.04-.08.2-.14.38-.14.8 0 2.37-1.06 2.37-1.6 0-.2-.07-.24-.9-.17-.84.07-.92.05-1.74-.38-.74-.4-1-.47-2.05-.53a38.5 38.5 0 0 0-3.05 0c-1 .04-2.44.1-3.2.1h-1.35l-.2-.47c-.17-.36-.24-1-.28-2.3-.06-1.75 0-2.5.35-4.6.07-.46.14-1.7.15-2.74 0-1.76 0-2-.3-2.74a6.04 6.04 0 0 0-2.13-2.9 7.04 7.04 0 0 0-2.56-1.3l-.5-.24c-.1-.08-.6-.2-1.02-.3a3.5 3.5 0 0 1-.87-.24 9.8 9.8 0 0 0-1.64-.24 10.54 10.54 0 0 1-2.02-.33zm-56.08.8l-.07.7a6.57 6.57 0 0 1-.7 1.87 25.16 25.16 0 0 0-1.3 3.25 3 3 0 0 0-.3.73c-.1.34-.3.82-.4 1.08a2.1 2.1 0 0 0-.28.67c0 .13-.06.25-.1.3-.08.03-.2.42-.28.86-.1.43-.2.85-.26.92a3.5 3.5 0 0 0-.25.7c-.1.3-.2.68-.27.82-.08.14-.2.6-.3 1.02a5 5 0 0 1-.25.9 5 5 0 0 0-.22.88c-.07.4-.2.87-.25 1-.07.15-.2.7-.27 1.22-.1.52-.2 1-.26 1.08-.07.07-.18.7-.28 1.43-.13 1.04-.22 1.34-.4 1.44-.4.2-.73.9-.73 1.47 0 .3-.1.8-.25 1.08-.12.3-.3.8-.4 1.1-.1.33-.2.65-.27.73-.06.1-.05.18.03.23.2.12.17.5-.05.9-.13.2-.27.54-.34.74l-.1.36-1.4-.05-1.44-.04v.3c0 .2-.1.43-.2.5-.2.1-.16.2.2.53.2.2.55.42.75.46.2.04.6.2.86.35l.5.27-.1 1.12a6.8 6.8 0 0 1-.2 1.32c-.05.1-.18.9-.3 1.77a62.1 62.1 0 0 1-.73 4.96c-.06.1-.16.77-.24 1.47a11 11 0 0 1-.26 1.5c-.07.15-.18.8-.27 1.47-.08.66-.2 1.27-.26 1.35a2.3 2.3 0 0 0-.26.8 6.2 6.2 0 0 1-.37 1.23c-.13.3-.24.6-.24.65a1 1 0 0 1-.1.33l-.28.6c-.1.2-.2.5-.27.6-.07.15-.1.47-.1.75 0 .27-.08.54-.15.6-.07.02-.1.26-.1.5 0 .34-.1.54-.36.75-.3.27-.37.28-.73.13l-.4-.17-.05-3.66c-.04-2-.1-3.75-.18-3.9a15 15 0 0 0-.24-.5c-.14-.3-.1-.9.15-2.1.1-.4.17-1 .2-1.33.04-.35.1-.75.2-.9.2-.5.3-1.04.32-2.6.04-1 0-1.6-.08-1.7a.58.58 0 0 1-.15-.34 5.2 5.2 0 0 0-1.6-1.76c-.1 0-.17-.03-.17-.1 0-.05-.35-.24-.75-.4a4.4 4.4 0 0 0-2-.3c-1.26 0-1.27 0-1.84.44-.6.47-1 .85-1.2 1.15a71.1 71.1 0 0 1-2.98 4.2c-.16.14-.28.3-.28.36s-.26.45-.57.8c-.3.4-.6.8-.65.97-.2.68-.3.1-.3-1.77 0-1.5-.04-2.06-.14-2.06-.37 0-.6-.4-.6-1.05 0-.7-.2-.97-.75-.98-.16 0-.4-.06-.5-.1a9.22 9.22 0 0 0-.58-.28l-.7-.26-.58-.22a.97.97 0 0 0-.38-.13c-.1 0-.83-.34-1.63-.74a5.2 5.2 0 0 1-1.6-1c-.15-.33-.4-.38-.54-.1-.2.3-.6.3-1.6-.07-.98-.35-2.13-.48-2.13-.24 0 .05-.1.2-.2.3-.2.2-.2.26-.03.55.2.4.24 2.4.03 2.55-.07.05-.2.4-.3.8-.1.37-.2.7-.26.75-.04.02-.13.25-.17.5-.1.34-.08.5.1.66.2.26.3 1.58.05 1.7a6.3 6.3 0 0 0-.14 1.8c0 1.68-.2 3.56-.37 3.8a3.7 3.7 0 0 0-.26.8c-.1.4-.2.8-.27.96-.2.36-.15 1.24.08 1.92.14.34.27.95.3 1.36.05.4.1.75.2.8.14.1.12 1.05-.03 1.05-.06 0-.13.43-.16.93-.03.8-.07.98-.3 1.08-.25.1-.3.25-.33 1.4-.05 1.2-.07 1.3-.5 1.9a27.72 27.72 0 0 0-.78 1.16l-.37.5c-.5.8-.57.9-.7 1.06l-.82 1.1c-.37.5-1.1 1.4-1.6 2a23.86 23.86 0 0 0-2.2 3c0 .08-.2.35-.42.63-.4.46-.47.5-.64.3-.3-.3-.48-1.4-.48-2.97 0-1.7.2-4.46.37-4.8.04-.16.16-.86.24-1.58.07-.7.2-1.3.23-1.3s.15-.55.24-1.23c.1-.7.2-1.3.25-1.4a7 7 0 0 0 .24-1.13c.1-.56.2-1.05.25-1.1.04-.02.15-.5.25-1 .1-.52.2-1 .28-1.1.06-.05.17-.5.26-1a5 5 0 0 1 .24-1c.06-.1.17-.54.26-1 .1-.5.2-.97.27-1.03.07-.07.1-.3.1-.5s.07-.35.14-.35c.18 0 .2-2.46.04-2.77l-.26-.53c-.2-.46-.4-.66-.96-1.1a6.02 6.02 0 0 0-1.5-.8c-.42-.2-2-.4-2.93-.4-.45 0-.86-.06-.9-.13a2.5 2.5 0 0 0-.87-.1 15 15 0 0 1-3.2-.37c-.06-.1-.4-.18-.72-.2a1.8 1.8 0 0 1-.8-.3c-.1-.1-.2-.18-.3-.18-.14 0-.6-.25-.85-.48a1.6 1.6 0 0 0-.4-.3c-.1-.07-.28-.34-.38-.6-.08-.3-.25-.7-.37-.94-.17-.4-.2-.96-.2-4.22 0-2.83-.04-3.8-.16-3.92a.55.55 0 0 1-.14-.3c0-.22-.42-.65-1.13-1.15-.7-.5-1.3-.78-1.9-.9-.25-.04-.47-.12-.47-.18s-.4-.18-.92-.26c-.5-.06-1-.2-1.15-.23a4.08 4.08 0 0 0-.7-.2c-.26-.05-.7-.17-1-.27-.56-.2-.58-.2-.8.1a5.98 5.98 0 0 0-1 2.24c-.3 1.6-.1 5.44.33 6.94a24.27 24.27 0 0 0 1.74 4.66c.25.5.46 1.03.46 1.2 0 .16-.14.7-.3 1.22a39.24 39.24 0 0 1-1.02 2.84c-.1.2-.3.7-.43 1.14l-.5 1.27c-.3.6-1 2.2-1.2 2.88-.08.26-.4.9-.67 1.46a5.4 5.4 0 0 0-.52 1.2c0 .1-.1.34-.23.5-.13.2-.25.4-.25.5 0 .1-.12.36-.25.5a6.83 6.83 0 0 1-.66 1.1 3 3 0 0 0-.37.66c0 .06-.1.2-.24.3-.15.05-.27.2-.27.3 0 .1-.38.54-.85 1.03a8.4 8.4 0 0 0-1.1 1.4 2.2 2.2 0 0 1-.66.7c-.5.3-1.42.3-1.82 0a1.2 1.2 0 0 0-.6-.26c-.3 0-1.53-1.35-1.54-1.67a1 1 0 0 0-.26-.5 1.22 1.22 0 0 1-.25-.6c0-.16-.06-.4-.13-.5a4.1 4.1 0 0 1-.45-1.88 28 28 0 0 0-.15-1.5c-.06-.4-.04-.46.2-.46.13 0 .28-.08.33-.15.04-.08.26-.14.48-.14a4.9 4.9 0 0 0 1.7-.4c.08-.06.2-.1.4-.1a.8.8 0 0 0 .5-.25c.14-.13.3-.25.4-.25.18 0 .56-.55.56-.8 0-.1.1-.26.2-.35.1-.1.16-.24.16-.35 0-.27.54-1.04.72-1.04.2 0 .92-.6.92-.8 0-.1.1-.22.2-.3.1-.1.25-.5.36-.87l.33-1.13c.15-.5.15-2.9 0-3-.1-.05-.14-.2-.14-.35 0-.16-.05-.46-.1-.67-.08-.2-.2-.7-.3-1.1-.07-.4-.2-.8-.25-.8-.06-.06-.1-.2-.1-.3 0-.1-.12-.45-.26-.7a2.5 2.5 0 0 1-.24-.68 7.37 7.37 0 0 0-2.3-1.96 2.1 2.1 0 0 0-.6-.4c-.1 0-.13-.02-.13-.1 0-.14-2.57-1.52-3.5-1.87a13.9 13.9 0 0 0-3.5-1c-.5-.06-.92-.15-.96-.2-.1-.15-2-.15-2.35 0l-.8.26c-.6.16-1.7.87-1.7 1.07a.4.4 0 0 1-.2.3c-.26.24-1.4 2.7-1.53 3.34-.05.2-.16.48-.25.57-.1.06-.2.42-.25.8-.05.3-.13.6-.18.6-.07 0-.2.16-.27.37-.3.7-1.66 1.7-2.77 2.1-.7.27-.97.2-.97-.2a12.5 12.5 0 0 0-1.55-3.1c0-.06-.16-.34-.37-.6a2.6 2.6 0 0 1-.37-.6c0-.07-.2-.27-.38-.45-.2-.2-.47-.5-.6-.7-.1-.18-.3-.34-.4-.34-.1 0-.3-.06-.45-.13l-.5-.28a3.54 3.54 0 0 0-1.8-.03c-.24.16-1 .4-1.25.4-.1 0-.3.1-.45.26-.17.14-.34.25-.4.25-.14 0-.5.76-.6 1.2 0 .2-.1.58-.14.8-.02.24 0 .58.07.77.1.2.2.64.24.98.05.6.06.6.4.54.27-.06.43 0 .65.23.16.18.34.3.4.3.07 0 .44.3.84.6a7.54 7.54 0 0 0 1.64 1.07c.26.2.8.4 1.2.5a9.7 9.7 0 0 1 1.42.42c.2.08.25.2.17 1.14a5.3 5.3 0 0 1-.2 1.18 5.6 5.6 0 0 0-.26 1.34c-.1.67-.2 1.32-.27 1.46-.04.14-.15.66-.24 1.15-.1.5-.2.94-.26 1-.03.1-.14.5-.23.96-.1.48-.2.9-.25.97-.05.06-.17.46-.26.9-.1.4-.2.8-.25.9-.08.06-.18.43-.25.8-.05.4-.16.8-.22.95-.07.1-.2.5-.27.8-.06.3-.2.74-.26.95a35 35 0 0 0-.85 2.85c-.1.47-.2.95-.3 1.1a8.2 8.2 0 0 0-.23.84c-.13.46-.23.6-.47.67-.5.12-.57 0-.57-.9 0-.45-.1-.98-.2-1.17a5.9 5.9 0 0 1-.34-1.02c-.1-.36-.2-.73-.28-.8a4 4 0 0 1-.3-.96 29.9 29.9 0 0 0-.73-2.84c-.05-.15-.16-.6-.24-1-.08-.44-.2-.96-.27-1.18-.05-.2-.2-.9-.3-1.5a22.67 22.67 0 0 1-.5-3.97 9 9 0 0 0-.2-1.7c-.2-.44 0-4.58.33-6.5.08-.54.06-.58-.48-1.1a5 5 0 0 0-1.06-.76c-.26-.1-.47-.3-.47-.4a6.4 6.4 0 0 0-1.65-1.7c-.08 0-.2.24-.3.54l-.2.7c-.04.2-.9.1-1.1-.1-.07-.1-.34-.14-.6-.14-.5 0-.5-.07-.75 1.82-.2 1.62-.26 1.95-.4 2.02-.04.05-.1.3-.1.58 0 .5-.2 1.47-.4 1.97-.03.14-.15.63-.23 1.1a4 4 0 0 1-.27.93c-.16.16-.13 2.14.03 2.3.14.15-.14 1.14-.47 1.65-.1.15-.2.34-.2.4 0 .1-.1.4-.24.68a61.96 61.96 0 0 1-3 6.16c-.2.25-.45.62-.55.8a7 7 0 0 1-.76 1.04 3.6 3.6 0 0 0-.63.83c0 .05-.1.14-.2.17-.1.05-.4.4-.6.76-.25.4-.57.77-.77.86-.4.2-1.4.2-1.5.03-.02-.06-.2-.12-.4-.12-.8 0-1.9-1.3-2.7-3.34a12 12 0 0 1-.33-2c-.04-.4-.12-.8-.2-.8-.1-.1-.13-.7-.02-1 .05-.15.24-.2.5-.2.25 0 .44-.08.44-.15s.23-.1.5-.1c.28 0 .54-.05.58-.12.04-.06.25-.12.45-.12.34 0 .7-.16 1.5-.66.17-.1.5-.6.75-1.14.47-.95.87-1.5 1.1-1.5.5-.03 1.45-1.64 1.58-2.7.06-.33.14-.65.2-.7a6.6 6.6 0 0 0 0-2.25 2.32 2.32 0 0 1-.2-.84 19 19 0 0 0-1.33-4.25 3.4 3.4 0 0 0-.76-.73 3.3 3.3 0 0 1-.66-.6c-.1-.1-.22-.2-.3-.2a3.2 3.2 0 0 1-.8-.5 11.2 11.2 0 0 0-2-1.17c-.4-.2-.75-.44-.8-.5-.03-.07-.15-.1-.25-.1s-.5-.16-.86-.3a12.1 12.1 0 0 0-2.3-.87 4.9 4.9 0 0 1-.93-.28c-.4-.2-3.93-.2-4.33 0l-.76.33c-.73.3-1.72 1.6-2.02 2.6-.08.28-.2.5-.24.5s-.12.25-.2.55c-.1.3-.2.6-.27.65a2.7 2.7 0 0 0-.27.7c-.1.3-.2.62-.26.7a4 4 0 0 0-.24.8c-.1.4-.2.8-.28.9-.15.3-.36 2.36-.36 3.52 0 .57-.07 1.07-.14 1.1a2.3 2.3 0 0 0-.14.9c0 .45.06.85.13.9.08.03.14.53.14 1.1 0 1.15.2 3.34.36 3.7.07.15.2.64.27 1.1.1.45.2.87.27.94a1 1 0 0 1 .1.46c0 .17.1.54.24.83l.4.96a13.72 13.72 0 0 0 4.5 6.02c.2.1.56.3.8.5.44.33 1.93.86 3 1.1.98.15 3.4.15 4.64-.04 1-.13 2.54-.6 3.27-.97 1.95-1 3.8-2.9 5.43-5.6.33-.55.82-1.27 1.1-1.6a14.28 14.28 0 0 0 1.77-3.05c.1-.3.18-.35.3-.23.1.08.2.36.27.6l.12 1c.03.27.1.62.16.76.25.6.4 1.2.4 1.5 0 .2.05.45.1.57.2.36.4 1.1.4 1.4 0 .3.24 1.34.4 1.73a9 9 0 0 1 .2 1.47c.04.9.12 1.26.25 1.3.1.05.2.2.2.37 0 .22.15.37.6.6.35.2 1.05.85 1.84 1.72 1.23 1.35 1.3 1.4 2.05 1.58a5 5 0 0 1 .92.3c.07.04.52.15 1 .2.47.1.97.2 1.1.3.3.15.7-.07 1.1-.6.53-.7 1.4-2.1 1.4-2.27 0-.1.13-.32.27-.5s.24-.4.24-.5c0-.1.13-.34.26-.5.17-.2.3-.4.3-.5 0-.07.1-.35.24-.6.35-.67.72-1.53.92-2.12.1-.24.2-.53.24-.6.05-.06.16-.37.25-.7.1-.3.2-.64.28-.75.05-.1.16-.5.25-.9.1-.36.2-.73.24-.8.05-.07.16-.56.25-1.1.07-.5.2-1.05.25-1.2a8 8 0 0 0 .4-1.83c.23-1.8.26-1.96.37-2.1.1-.04.12-.74.12-1.52 0-.85.05-1.5.12-1.5.07-.08.13-.6.13-1.18 0-.6.06-1.1.13-1.15.1-.06.14-.4.14-.8v-.74h.9c.5 0 1.16-.1 1.5-.23.3-.1.6-.14.65-.1.04.07.1 1.43.14 3.04.04 1.76.1 3.03.2 3.18.08.14.2.84.3 1.56.08.7.2 1.3.26 1.3s.1.15.1.3c0 .3.18.9.4 1.4l.26.8c.08.3.2.54.23.57.1.1.9 1.75.9 1.9 0 .08.02.15.1.15s.14.14.22.34c.1.2.27.5.4.67.42.58 2.5 2.67 2.64 2.67.08 0 .18.1.2.2.05.1.15.2.2.2s.38.16.65.3a9.6 9.6 0 0 0 2.68 1c1.54.35 6.3.07 6.8-.4a10.43 10.43 0 0 0 2.7-1.36 18.16 18.16 0 0 0 3.15-3.27c.1-.1.15-.2.15-.25 0-.04.14-.25.3-.5.18-.2.38-.52.46-.7.23-.54.47-.92.87-1.4.6-.7 1.05-1.3 1.05-1.46a5.6 5.6 0 0 0 1-2 8.45 8.45 0 0 0 .83-1.9 6 6 0 0 1 .56-1.26c.1-.1.15-.23.15-.35s.13-.46.3-.77c.17-.35.33-.93.4-1.46.04-.5.12-.93.2-1 .03-.07.15-.4.24-.76.1-.34.2-.7.24-.75.04-.06.16-.37.25-.67.2-.66.27-.7.65-.54.17.04.88.2 1.58.3 2.35.32 3.42.53 3.8.73.2.12.43.2.48.2.08 0 .3.18.5.4.36.38.4.7.14 1.32a9.1 9.1 0 0 0-.27.94c-.1.4-.2.76-.24.83-.06.1-.17.45-.26.83-.1.4-.2.83-.26.97a8.04 8.04 0 0 0-.37 1.76c0 .16-.07.4-.14.52a6.6 6.6 0 0 0-.4 1.95c0 .28-.03.53-.1.57-.13.1-.26.76-.34 1.86-.05.43-.13.86-.2.93-.06.07-.1.34-.1.6 0 .26-.07.5-.14.55-.08.06-.14.6-.14 1.2a3.5 3.5 0 0 1-.12 1.23c-.06.04-.12.47-.12.95s-.07.9-.14.95c-.1.05-.1 1.06-.1 2.6 0 2.37 0 2.55.24 3.05.3.55 1.8 2.02 2.1 2.02.1 0 .17.06.17.1 0 .1.1.17.24.2.23.1.93.5 1.03.6.02.05.3.17.55.26.3.1.66.27.85.4.17.1.43.22.56.22.12 0 .4.1.6.22.2.12.7.3 1.1.4.37.07.8.2.9.25a6 6 0 0 0 1.07.25c.5.1 1 .2 1.13.25.4.18 1.15.22 2.8.18a5.6 5.6 0 0 0 1.64-.16.55.55 0 0 1 .33-.13c.3 0 1.1-.72 1.32-1.23.4-.9 1.24-2.47 1.64-3a23.87 23.87 0 0 1 1.48-2.32 6.18 6.18 0 0 0 .75-1.1c.2-.24.9-1.24 1.26-1.77.35-.54.55-.6.76-.2.1.17.24.34.33.4.1.05.17.17.17.26 0 .1.2.3.4.47.75.5 1.27.87 1.38.87.04 0 .2.1.33.23.16.1.6.3 1 .4a5 5 0 0 1 .98.3c.23.2 4.8.2 5.2 0 .17-.1.66-.2 1.1-.3.83-.14 1.56-.44 1.56-.64 0-.17-.27-.63-.54-.94-.2-.22-.23-.55-.23-2.8 0-1.42.05-2.6.1-2.68.1-.14.2-1.27.34-4.45a7.04 7.04 0 0 1 .3-2.2c0-.15.06-.3.13-.36.05-.04.1-.28.1-.52s.08-.43.15-.43.14-.1.14-.27c0-.13.03-.28.1-.32.07-.04.13-.16.13-.26s.1-.44.26-.77a43.04 43.04 0 0 0 .75-1.83c0-.1.1-.3.26-.48s.27-.4.27-.5c0-.3 2.53-5.2 3.1-5.98a5.1 5.1 0 0 1 1.4-2.2c.82-.7.86-.6.8 1.42-.04 1-.13 2.1-.2 2.45-.1.33-.25 1.36-.37 2.3a9.9 9.9 0 0 1-.35 1.8c-.2.3-.18 5.76.02 6 .1.12.2.85.25 1.9.13 1.9.27 2.3.9 2.75.7.52 3.8.63 4.74.2a2 2 0 0 1 .57-.2c.1 0 .18-.05.18-.12 0-.06.1-.1.2-.1.2 0 .2 0-.06 1.2l-.25 1.5a8.6 8.6 0 0 1-.24 1.2c-.06.13-.2.8-.3 1.45a59.1 59.1 0 0 0-.53 2.97c0 .35.03.38.47.42.26 0 .47.1.47.15 0 .14 1.5.15 1.73 0 .1-.05.2-.3.24-.6.03-.26.1-.55.16-.6.06-.08.18-.66.26-1.28.1-.64.2-1.2.25-1.28a5 5 0 0 0 .3-1.4c.05-.7.2-1.34.22-1.45.07-.1.2-.8.28-1.52.1-.75.2-1.4.28-1.47.05-.03.16-.8.26-1.6s.2-1.5.25-1.5c.03 0 .15-.7.24-1.5.08-.83.2-1.52.26-1.52s.1-.22.1-.5c0-.25.05-.52.1-.6.1-.05.18-.5.2-.93.05-.45.15-1.1.2-1.46.1-.33.2-1 .3-1.5.16-1.36.26-1.84.4-1.9a3 3 0 0 0 .1-.9c0-.4.04-.82.1-.9.06-.06.14-.34.18-.62a45.72 45.72 0 0 1 .84-4.3c.08-.43.2-.9.26-1.03a4 4 0 0 0 .2-.74l.06-.5.85.1a147 147 0 0 0 4.32.17c1.9.05 3.64.14 3.83.2.3.08.35.16.35.6 0 .26.07.58.1.7.1.12.2.84.3 1.6.1.75.2 1.4.27 1.43.06 0 .1.26.1.52s.06.52.12.6c.04.05.12.45.2.87.1 1.2.2 1.84.3 1.9.06.06.1.45.1.9 0 .44.06.84.1.9.16.06.3.73.37 1.83a3 3 0 0 0 .16.94c.06.08.1.25.1.4 0 .15.04.3.1.4a3 3 0 0 1 .2.93c.1 1.2.2 1.9.3 1.9.06 0 .18.64.27 1.4.1.74.2 1.4.26 1.5.07.05.18.74.27 1.5.1.76.2 1.4.26 1.46.03.04.15.73.24 1.53.1.8.2 1.5.27 1.6.06.05.18 1 .27 2.05l.16 1.96.42.35c.23.2.58.4.77.47.2.06.55.2.83.3.26.15.8.28 1.2.3l1.6.17c.47.05.92.14 1 .2.16.17 10.05.15 10.15-.02.04-.07 0-.23-.13-.36a.84.84 0 0 1-.2-.5c0-.24.17-.32 1.25-.62.27-.06.3-.13.2-.48a1.8 1.8 0 0 0-.16-.54 4.1 4.1 0 0 1-.25-.9c-.1-.4-.2-.8-.25-.87a6.35 6.35 0 0 1-.26-1.16 8.18 8.18 0 0 0-.28-1.27 11.2 11.2 0 0 1-.4-2.32c0-.2 0-.4-.1-.4a7.7 7.7 0 0 1-.24-1.36 10.6 10.6 0 0 0-.25-1.6 13.6 13.6 0 0 1-.36-2.7c0-.23-.05-.4-.12-.4s-.1-.23-.1-.5c0-.28-.05-.54-.12-.58-.07-.05-.13-.5-.13-1.02 0-.5-.07-.95-.14-1-.1-.04-.14-.3-.14-.57 0-.28-.05-.53-.1-.58-.08-.04-.14-.46-.14-.93a3 3 0 0 0-.1-.98c-.12-.13-.22-.77-.35-2.16a2.57 2.57 0 0 0-.2-.9c-.05-.07-.1-.33-.1-.6 0-.24-.05-.5-.1-.6a5 5 0 0 1-.3-1.4c-.1-.65-.2-1.3-.24-1.4l-.36-.75c-.14-.3-.26-.66-.26-.8s-.06-.26-.13-.3c-.06-.04-.1-.24-.1-.44s-.07-.4-.1-.45a4.7 4.7 0 0 1-.3-1.26 7.9 7.9 0 0 0-.3-1.4 11.4 11.4 0 0 1-.15-2.06c-.02-1.36-.1-1.97-.23-2.25a7.2 7.2 0 0 1-.34-1.1c-.1-.4-.2-.8-.25-.9-.03-.1-.14-.9-.23-1.86-.1-.94-.2-1.83-.27-1.97-.2-.5-.4-5.4-.36-9.2.05-3.68.04-3.9-.2-4.16-.12-.13-.3-.25-.35-.25s-.35-.2-.66-.4c-.3-.2-.56-.38-.6-.38-.12 0-.6-.4-1.6-1.37-.92-.87-2.2-1.7-2.7-1.7a6.78 6.78 0 0 0-2.22-.5c-.2 0-.4-.04-.4-.1 0-.05-.7-.2-1.55-.26-.84-.1-1.64-.2-1.77-.3a16.7 16.7 0 0 0-2.6-.2l-2.4-.07zm-162.58 1.76a.1.1 0 0 0-.08.03.72.72 0 0 1-.44.1c-.16 0-.3 0-.3.1 0 .2-1.4 1.72-2.58 2.7-1.16.98-3.12 2.9-3.12 3.05 0 .1-.05.2-.1.2-.2.1-1.58 2.2-2.07 3.15a7.46 7.46 0 0 0-.6 1.43l-.2.54c-.1.04-.1.2-.1.4s-.2.5-.3.8c-.5.7-.6.86-1.2 2.03a50.66 50.66 0 0 0-3.6 7.95 5.2 5.2 0 0 0-.3.63l-.28.77a8.3 8.3 0 0 0-.26.76l-.2.7c-.18.4-.6 1.9-.8 2.8a29.24 29.24 0 0 0-.87 3.7c-.04.25-.13.5-.2.53-.08.06 0 .16.23.24.7.26 1.2.52 1.5.8.16.15.45.37.64.5.3.2.34.3.3.6-.07.3 0 .4.35.63.47.3 1.3 1.14 2.07 2.1.93 1.1 1.9 2.1 2.06 2.1.1 0 .2.05.22.15.03.1.1.2.16.2.1 0 1.35.9 2 1.43.1.1.45.4.73.6.83.64 1.3 1.03 2.4 2l1.1.9c.1 0 .7.5 1.6 1.36.3.3.6.56.65.56.04 0 .33.24.64.56.3.3.6.57.66.57.07 0 .34.24.6.5.27.3.53.5.58.5.05 0 .84.73 1.76 1.6.94.87 1.8 1.64 1.97 1.72.37.2.36.4-.06 1.2-.5.96-2.12 2.6-3.4 3.47l-1.15.8a15.22 15.22 0 0 0-1.9 1.14c-1 .66-1.05.68-1.8 1.1-.9.5-1.64.7-2.64.7-.7 0-.9-.05-1.5-.46a2.8 2.8 0 0 1-.75-.66 5.14 5.14 0 0 0-.5-.78c-.25-.3-.68-1-.96-1.5l-.57-.9-.75-.07-1.16-.1c-.35-.05-.4 0-.34.33.05.4.2.87.56 1.65.3.6.3.76.06.85-.1.04-.2-.03-.25-.2-.07-.24-.5-.42-.7-.3-.15.1-.15 1.3 0 1.4.08.05.14.3.14.6 0 .8.24 2.13.5 2.7l.3.86a9.8 9.8 0 0 0 1.5 2.43c.4.35 1.2.8 1.46.8s.67.36.67.57c0 .4.83.85 1.96 1.1.4.1.77.2.8.26.04.06.15.1.26.1.1 0 .44.12.74.25l1 .4c.3.1.53.2.57.28.1.15 3.08.14 3.18 0 .05-.07.38-.1.75-.1a15.07 15.07 0 0 0 4.13-.68 6.72 6.72 0 0 0 1.65-.5 16.3 16.3 0 0 0 4.7-2.56c0-.07.1-.1.14-.1a3 3 0 0 0 .74-.56c.3-.3.85-.76 1.2-1.03.53-.48.93-1.07.93-1.4 0-.08.12-.38.26-.67.14-.3.25-.62.25-.72 0-.1.05-.22.12-.26.06-.04.12-.25.12-.46 0-.37.07-.45.62-.68.6-.28.63-.3.7-.9.13-.9.12-3.7 0-5.25-.1-1.3-.15-1.35-1.08-3.1-.2-.3-.37-.6-.4-.6a9.57 9.57 0 0 0-.88-1.42c-.4-.63-.73-1.2-.73-1.22 0-.05-.23-.38-.5-.73-.26-.36-.56-.8-.66-1a5.6 5.6 0 0 0-.67-.9 2.3 2.3 0 0 1-.47-.7c0-.1-.04-.15-.1-.15-.06 0-.2-.18-.3-.36a6.3 6.3 0 0 0-1.12-1.4c-.25-.3-.5-.6-.5-.64a49.36 49.36 0 0 0-4.95-4.7c-.04-.1-.7-.4-4.17-2.1-1.42-.67-1.9-1.05-1.9-1.5 0-.2-.05-.37-.13-.4-.1-.08-.1-.14 0-.24s.14-.74.14-1.75c0-1.3.03-1.68.2-1.84.1-.1.22-.37.26-.57.04-.2.1-.38.17-.38.06 0 .7-1.2 1.46-2.7a79.95 79.95 0 0 1 2.2-4.2c.37-.7.83-1.52 1.04-1.82a3 3 0 0 0 .4-.65c0-.05.1-.2.18-.27.1-.1.3-.4.4-.6a6 6 0 0 1 .38-.6c.4-.5 1.1-1.46 1.3-1.78.3-.46 1.45-1.7 1.73-1.84.2-.1.2-.04.15.67-.03.46-.1.87-.16.94a7.5 7.5 0 0 0-.2 1.7 8.27 8.27 0 0 1-.2 1.74c-.15.2-.06 2.95.12 4.16.2 1.3.67 2.8 1.13 3.7.55.96.65 1.14.88 1.42.5.6.88.9 1.18.9.17 0 .4.05.55.1.17.1.4.1.86-.05.57-.2.65-.26.9-.85.2-.54.26-.9.26-2.16 0-1-.07-1.6-.17-1.78-.15-.2-.15-.3 0-.5.06-.17.14-.5.14-.76 0-.27.1-.6.25-.78.2-.3.2-.32 0-.7l-.26-.4.32-.32c.47-.45.64-.93.8-2.34.1-.7.2-1.38.26-1.5.17-.4.4-1.4.4-1.78 0-.16.04-.32.1-.35.1-.02.4-1.43.6-2.6.05-.23.13-.45.2-.5.06-.02.1-.4.1-.85 0-.42.06-.83.1-.9.1-.07.17-.46.2-.9.05-.4.1-1.05.16-1.42.1-.9-.07-1.2-.86-1.58-.67-.3-.68-.33-.8-1.6a3.7 3.7 0 0 0-.2-1l-.24-.56a3.1 3.1 0 0 0-.63-1c-.1-.1-.22-.3-.27-.4-.06-.16-.18-.26-.3-.26-.1 0-.25-.1-.34-.2a1.9 1.9 0 0 0-.6-.4 4 4 0 0 1-.73-.3c-.65-.3-1.05.3-.7 1 .1.15.1.47.1.7l-.16.87c-.2 1.26-.38 1.95-.48 2a5.87 5.87 0 0 1-.88 1.87A5.7 5.7 0 0 1 32 1622a9.4 9.4 0 0 0-1.48-1.3c-.1 0-.2-.03-.2-.1a16.5 16.5 0 0 0-1.8-1.4 9.7 9.7 0 0 1-1.7-1.3c-.1-.13-.24-.24-.3-.24-.1 0-.6-.4-1.16-.9-.62-.54-.92-.8-1.07-.8zm163.37 4.32c.05 0 .14.1.24.32.1.37.2.7.1 1.46-.07.55-.1 1.16-.2 1.36-.05.2-.04.47.04.63.07.15.17 1.48.2 2.94.06 1.4.15 3.1.2 3.6.63 5.3 1.03 9.8.95 10.6-.1.63-.1.7-.43.6-.4-.1-2.33-.1-3.34 0a3.7 3.7 0 0 1-.8 0 4.68 4.68 0 0 0-1.38-.2c-1.5-.1-1.84-.2-1.63-.4.1-.1.2-.9.26-1.6.06-1.1.15-1.6.35-2 .15-.25.27-.6.27-.76 0-.15.1-.48.22-.7.1-.26.22-.87.26-1.46 0-.56.1-1.1.2-1.2.1-.1.2-.64.24-1.18.04-.54.15-1.04.24-1.1.1-.08.12-.3.1-.46a5.4 5.4 0 0 1 .6-2.13c.06-.03.12-.16.12-.3 0-.1.1-.34.2-.52.1-.15.2-.46.27-.7.04-.2.2-.56.3-.85.1-.28.26-.7.3-.92.06-.2.15-.42.2-.46.08-.04.13-.16.13-.26s.1-.43.24-.7c.14-.3.37-.9.52-1.38.12-.47.3-.98.4-1.16a8.78 8.78 0 0 0 .4-1.08zM82.23 1649.2c.3 0 .84.4 1.3.95.28.34.9 1.38.9 1.53 0 .14-.35.06-.84-.2-.3-.14-.6-.34-.7-.44a.86.86 0 0 0-.3-.18 3 3 0 0 1-1.1-.94c0-.25.4-.7.7-.7zm25.83 3.3c.15 0 .1 4.68-.03 4.97-.07.13-.2.36-.26.5-.07.14-.12.34-.12.44 0 .5-1.2 2-2.07 2.5-.6.4-.73.4-.73-.1a17.62 17.62 0 0 1 .5-3.6c0-.2.07-.43.14-.5 0 0 .1-.2.1-.4s0-.4.1-.5.2-.52.4-.9c.1-.36.3-.66.4-.66 0 0 .1-.07.1-.16 0-.16 1.2-1.5 1.4-1.5zm159.5 1c.1 0 .2.17.46.7l.53 1.04a22.05 22.05 0 0 0 .77 1.67c.22.5.36.9.3 1-.02.07-.43.3-.88.54-.46.23-1.18.7-1.6 1.04a18.7 18.7 0 0 0-2.72 2.95c-.1.2-.6.84-.68.84-.04 0-.08-.06-.08-.13s.06-.14.13-.14.1-.13.1-.3c0-.14.1-.5.2-.8.1-.26.4-1 .63-1.64.22-.64.5-1.4.65-1.72.34-.8.43-1 .6-1.5l.33-.83c.3-.62.8-2 .8-2.12 0-.1.1-.25.2-.38a.6.6 0 0 1 .17-.1zm-207.13.4c.23 0 .47 3.14.26 3.35-.1.08-.2.38-.2.68 0 .3-.1.57-.16.6-.07.06-.13.25-.13.43 0 .42-.24 1.1-.56 1.6-.34.57-1.1 1.35-1.3 1.35-.1 0-.15.1-.15.1 0 .1-.8.6-.95.6a2.9 2.9 0 0 1-.06-.8c0-.44.05-.84.12-.9.07-.03.13-.3.13-.62 0-.3.04-.6.1-.63.08-.04.13-.4.13-.76s.02-.7.1-.75c.04-.06.2-.36.25-.7a5.8 5.8 0 0 1 1-2.1c.5-.76 1.06-1.36 1.3-1.36zm209.82 6.9c.12 0 .2.1.22.3.02.13.1.35.16.5.37.8.82 9.1.52 9.76-.07.14-.2.8-.27 1.45a6.64 6.64 0 0 1-.64 2.3c0 .4-.88 1.96-1.2 2.1-.18.1-.32.2-.32.3 0 .06-.08.1-.17.1-.1 0-.28.1-.4.26-.36.4-1.24.76-1.82.76-.46 0-.56-.04-.66-.32a2.33 2.33 0 0 1-.12-.38c0-.07-.1-.28-.2-.5a13.47 13.47 0 0 1-.58-7.76c.06-.08.15-.4.2-.7.04-.32.18-.8.3-1.1.14-.27.4-.87.6-1.32.67-1.5 2.02-3.4 3.7-5.16.3-.32.53-.48.68-.5z" style="isolation:auto;mix-blend-mode:normal" overflow="visible"/>
    </g>
    <path style="isolation:auto;mix-blend-mode:normal" color="#000" overflow="visible" fill="none" d="M0 1800h300v300H0z"/>
    <path d="M72.93 1846.2l-15.52 15.5-15.5 15.52.2 88.3.1 88.3h185.1l15.46-15.44 15.4-15.42v-176.78H72.96zm108.28 30.93v16.4c0 17.92 0 18.06-1 22.05-3.5 13.28-13.2 24.54-26.7 31.03l-2.96 1.4c-.65.2-6.56-2.7-10.07-5-9.82-6.43-16.96-15.9-19.95-26.32-1.4-4.9-1.44-5.87-1.4-24.1l.07-15.27 31.07-.05 31.1-.03zm-28.9 4.2a5.3 5.3 0 0 0-2.9.8l-.8.5-.6-.34c-.8-.5-1.5-.5-2.4 0-.9.4-1.5 1.3-1.5 2.2 0 .5-.2.94-.86 1.92-1.6 2.3-2.16 3.85-1.72 4.57.07.1.6-.53 1.17-1.4a18 18 0 0 1 1.97-2.43l.9-.86.7.7c.38.4.98.88 1.34 1a9.3 9.3 0 0 1 1.47.9c.44.37 1 .7 1.24.76.35.1.45.22.45.63 0 .27.1.8.26 1.15l.3.63-.76.63c-1 .85-1.14.9-2.4.8l-1.06-.1.62.3.6.3-.7.14c-.37.08-.8.27-1 .43-.3.26-.2.3.85.17 1.08-.1 1.13-.1 1 .23-.5 1.2-.36 1.16 1.9-.86a6.22 6.22 0 0 1 1.6-.93c.7-.27.98-.48 1.02-.75.05-.34.32-.5 1.32-.83.2-.1.35.1.6.65.32.9.15 1.43-.5 1.64-.24.07-.58.24-.78.4-.3.23-.3.24.24.13.63-.12.72 0 .34.44a2 2 0 0 0-.35.82c-.1.5-.1.5.53-.26.63-.77 1.15-1 1.15-.54 0 .14.1.4.26.6.2.3.23.27.23-.47 0-.45.1-1.08.2-1.4.12-.44.1-.74-.1-1.2-.4-.93-.33-1.27.28-1.5a4.27 4.27 0 0 0 1.96-2.28 5.75 5.75 0 0 0-1.67-5.75 6.64 6.64 0 0 0-4.35-1.74zm-19.4.03c-1.3-.02-2.52.32-3.22.98l-.4.36-.67-.37c-.9-.48-1.6-.47-2.57.04a2.6 2.6 0 0 0-1.43 2.32c0 .5-.2.9-.7 1.6-1.1 1.4-2 3.2-2 3.8 0 1.2.2 1.1 1.12-.3.95-1.4 2.78-3.46 3.1-3.46.1 0 .34.27.56.6.23.35.76.8 1.26 1.02.47.22 1.2.67 1.64 1 .42.32.96.64 1.2.7.3.07.44.23.44.53 0 .22.13.75.3 1.15l.3.74-.7.6c-.95.82-1.33.95-2.44.84l-.94-.1.55.33.5.32-.74.13c-.4.06-.84.25-.96.4-.2.22-.06.24.9.13 1.08-.13 1.1-.1 1 .2-.1.2-.2.53-.23.75-.08.36 0 .33.64-.26 1.6-1.5 2.18-1.9 3.1-2.28.67-.27.97-.5 1-.76.06-.33.34-.5 1.3-.82.2-.06.4.1.6.6.4.86.24 1.4-.5 1.7-.34.14-.7.38-.84.53-.22.27-.2.28.24.1.6-.3.74-.13.4.4-.2.22-.3.6-.3.85 0 .44 0 .44.33-.12.3-.5 1.05-1.1 1.15-.9l.3.58.23.54.17-1.13c.06-.62.16-1.24.2-1.36.05-.1 0-.5-.17-.82-.4-.9-.34-1.25.25-1.5 1.8-.76 2.7-3.35 1.9-5.72a6.8 6.8 0 0 0-3.6-3.56 7.08 7.08 0 0 0-2.35-.44zm38.8 0c-1.3-.02-2.5.3-3.2.96-.36.35-.4.35-1.1 0-1.2-.62-2.4-.37-3.35.68-.4.42-.54.78-.6 1.48-.1.74-.3 1.2-1.03 2.28-1.2 1.77-1.7 2.75-1.7 3.4 0 1.22.2 1.16 1.2-.35.97-1.4 2.7-3.3 3-3.3.1 0 .33.26.53.55.2.3.76.75 1.25 1 .5.28 1.24.76 1.67 1.1.46.3 1 .63 1.2.7.3.06.47.22.47.52 0 .24.14.77.3 1.17l.3.75-.7.6c-.94.83-1.32.96-2.43.86-.7-.06-.83-.04-.55.08.66.3.63.5-.1.62-.37.05-.8.22-.9.37-.2.23-.06.25 1 .15l1.2-.14-.3.43c-.16.23-.3.55-.3.72 0 .2.2.1.7-.37 1.6-1.48 2.18-1.9 3.1-2.26.67-.26.96-.5 1-.75.05-.34.32-.5 1.33-.83.23-.07.37.07.6.57.35.88.2 1.43-.54 1.73-.32.16-.7.4-.83.56-.2.25-.2.25.26.06.6-.3.78-.13.4.4-.14.22-.27.6-.27.85 0 .44 0 .43.34-.1.3-.53 1.03-1.1 1.16-.94l.32.6.3.55v-.72c0-.4.1-1.04.2-1.45.1-.55.1-.84-.1-1.23-.35-.6-.37-1.3-.08-1.3.53 0 1.6-1 2.05-1.93 1.32-2.72-.3-6.32-3.46-7.5a7.06 7.06 0 0 0-2.3-.44zm-20.93.7c.18 0 .15.16-.1.4-.3.3-.1.27.5-.05.3-.1.68-.2.87-.2.28 0 .3.07.1.3-.2.26-.17.28.4.17.36-.06.84-.06 1.07 0 .4.14.4.15.06.28-.3.1-.25.17.36.34 1.5.4 2.66 2.36 2.2 3.8a3 3 0 0 1-1.7 1.95c-.4.14-.7.4-.9.85-.3.7-1.92 1.8-2.13 1.47a4.4 4.4 0 0 1-.2-1.05c-.1-.83-.15-.87-.77-.97-.4-.06-.9-.35-1.3-.7-.33-.34-.9-.7-1.25-.82a4.18 4.18 0 0 1-1.94-1.8c-.16-.3-.3-.34-.5-.22-.4.2-2.24 2.1-2.8 2.9-.26.33-.47.55-.47.5 0-.2.5-1 1.5-2.34.7-.9.9-1.3.85-1.73-.13-1.26.9-2.3 2.27-2.3.6 0 .8.1 1.13.53l.4.54.84-.78a4.93 4.93 0 0 1 1.23-.86c.1-.03.2-.04.24-.04zm-19.6.07c.14-.02.2.07.1.27-.1.24-.02.24.4 0 .3-.14.7-.26.87-.26.3 0 .3.04.1.27-.2.3-.13.3.5.2a4 4 0 0 1 1.06 0c.3.2.3.2-.04.3-.3.1-.24.2.38.38a3.65 3.65 0 0 1 2.4 3.1c0 1.1-1 2.5-2.06 2.75-.25.06-.5.33-.66.7-.16.45-.5.8-1.15 1.16-.5.3-.94.47-1 .4a5.65 5.65 0 0 1-.2-1.08c-.1-.76-.2-.93-.47-.93-.48 0-1-.3-1.8-1.03-.38-.33-.84-.6-1.03-.6-.38 0-1.5-1.02-2-1.8l-.3-.44-1.33 1.34c-.74.7-1.5 1.57-1.74 1.86-.83 1.12.06-.4 1.08-1.8.9-1.3 1-1.5.94-2.1-.06-.6 0-.78.64-1.4.62-.66.82-.75 1.52-.75.68 0 .9.1 1.24.5l.42.52.86-.8a3.04 3.04 0 0 1 1.3-.8zm40.18 0c.3 0 .3.05.1.28-.2.3-.12.3.5.2.9-.1 1.54.1 1.13.3-.2.17-.2.2.1.3 1.82.6 2.9 2.38 2.4 4.04a3.4 3.4 0 0 1-1.87 1.9c-.3.05-.53.3-.7.7-.16.45-.5.8-1.15 1.16-.5.3-.95.46-1 .4a6.3 6.3 0 0 1-.2-1.08c-.1-.77-.2-.94-.5-.94-.5 0-1-.3-1.8-1-.36-.34-.82-.6-1-.6-.38 0-1.53-1.03-2-1.8l-.3-.44-1.34 1.34a25.7 25.7 0 0 0-1.72 1.86l-.4.5.3-.55c.13-.3.7-1.16 1.22-1.87.84-1.15.94-1.36.9-1.96-.1-.57 0-.77.5-1.32.3-.34.8-.7 1.1-.8.62-.15 1.54.04 1.75.38.45.77.45.77.95.18.7-.84 2-1.45 1.76-.83-.1.25-.02.25.4 0a3 3 0 0 1 .88-.25zm-45.3 2.15c-.3 0-.43.56-.16.73.13.1.3.1.4 0 .2-.2 0-.7-.25-.7zm19.5.04c-.22 0-.4.3-.3.57a.3.3 0 0 0 .37.1c.3-.15.37-.55.1-.7a.27.27 0 0 0-.17-.07zm19.34.05c-.05 0-.1 0-.13.02-.32.1-.35.5-.04.6.33.1.57-.2.44-.5a.3.3 0 0 0-.26-.2zm-44.4 12.25l.06 7.02c.08 6.27.13 7.2.47 8.8a44.95 44.95 0 0 0 14.9 25.38c3.5 3 6.73 5.1 11.34 7.37a23.2 23.2 0 0 0 2.97 1.3c.17 0 1.23-.5 2.36-1 13.7-6.48 22.9-17.3 26.4-31 .8-3.26.9-4.28.9-11.3v-6.68h-.67c-1.1 0-2.8.5-4.3 1.23a9.74 9.74 0 0 1-5.1 1.33c-1.96 0-2.7-.2-4.9-1.26s-3.66-1.37-5.5-1.25c-1.6.1-2.3.33-4.43 1.34-1.9.9-2.9 1.15-4.84 1.13a9.8 9.8 0 0 1-4.95-1.3 9.64 9.64 0 0 0-9.4 0 10.3 10.3 0 0 1-5.03 1.27 10.3 10.3 0 0 1-5.04-1.27 9.93 9.93 0 0 0-4.3-1.22h-.9zm41.62 1.34l.7 2.2.68 2.17 2.3.05 2.34.05-1.05.75c-.6.4-1.44 1-1.9 1.34l-.86.6.67 2.1c.4 1.15.66 2.1.6 2.1-.03 0-.83-.57-1.75-1.26-1-.76-1.77-1.2-1.9-1.13-.12.07-.82.58-1.56 1.14-1.6 1.2-1.8 1.32-1.8 1.13 0-.08.3-1.02.64-2.1.35-1.05.57-2 .5-2.07l-1.94-1.4-1.75-1.3h4.7l.7-2.18.7-2.2zm-23.76.02l.7 2.18.67 2.17 2.33.05 2.32.05-1.82 1.32c-1 .72-1.83 1.43-1.83 1.57 0 .14.3 1.1.63 2.16.34 1.05.6 1.93.58 1.96 0 .02-.8-.57-1.76-1.3l-1.75-1.36-1.7 1.3c-.97.7-1.77 1.24-1.8 1.2-.06-.04.2-1 .55-2.1.62-2.03.63-2.06.3-2.3a52.5 52.5 0 0 1-1.88-1.34l-1.5-1.1 2.27-.06 2.27-.05.7-2.17.73-2.18zm6.44 12.64a8.3 8.3 0 0 1 3.7 1l1.5.76v6.8c0 3.74-.07 6.77-.14 6.74l-1.5-.74c-2.64-1.33-4.55-1.32-7.75.05-2.2.95-3.5 1.1-4.9.53l-.93-.37V1912h2.2c1.96 0 2.3-.04 3.52-.5a11.7 11.7 0 0 1 4.24-.96zm11.1.07c1.5 0 1.9 0 3.5.6 1.95.7 4 1 5.4.65l.75-.18v13.56l-.67.3c-1.64.7-2.84.5-6.14-.94-1-.45-1.4-.5-2.86-.5a6.9 6.9 0 0 0-2.7.36c-.56.2-1.4.6-1.83.9l-.8.56v-13.72l.78-.45a7.9 7.9 0 0 1 4.58-1.2zm-21.7 1.6c.02 0 .06 3 .06 6.7v6.7l.84.4c.57.24 1.34.4 2.2.44a4.4 4.4 0 0 0 2.5-.4c3.1-1.3 3.4-1.4 5.1-1.3a5.6 5.6 0 0 1 2.98.7c.72.37 1.5.86 1.73 1.1.26.26.4.6.37.83-.05.36-.1.34-.65-.24a6.6 6.6 0 0 0-5.72-1.7c-.64.1-1.88.52-2.77.93-1.5.7-1.7.76-3.22.75-1.27 0-1.8-.1-2.6-.42a9.6 9.6 0 0 1-1.2-.6c-.16-.14-.2-1.74-.2-6.93 0-6 .02-6.74.27-6.83.16-.06.32-.1.36-.1zm32.2 0c.54 0 .58.5.58 7.1v6.6l-.85.36c-2.37 1-4.4 1-6.92-.06a7.52 7.52 0 0 0-3.2-.73 5.4 5.4 0 0 0-2.7.36 6.1 6.1 0 0 0-1.9 1.2l-.86.8v-.53c0-.42.17-.62.95-1.2a6.86 6.86 0 0 1 4.66-1.3c1.4.08 1.85.2 3.06.74.8.35 1.75.74 2.13.85.97.3 3.06.14 4.1-.3l.85-.4v-6.7c0-3.7.05-6.7.13-6.7zm1.1.5l.55.26c.62.33.95.34 1.7.06.46-.18.64-.17.87 0 .72.63-.1 1.54-.9 1a1.64 1.64 0 0 0-.96-.23c-.45.05-.5.13-.5.77 0 .68.05.74.52.8.28.03.6-.03.7-.14.3-.3 1.2-.23 1.32.1.25.7-.57 1.17-1.3.8a1.6 1.6 0 0 0-.83-.17c-.35.03-.44.2-.48.7-.1.68-.08.7.55.7.35 0 .8-.1 1-.2.46-.3.98 0 .98.6 0 .54-.5.84-1 .55a2.14 2.14 0 0 0-.94-.2c-.6 0-.64 0-.64.7s.04.7.65.7c.35 0 .8-.1.98-.2.45-.3.96 0 1.04.54.1.55-.57.84-1.14.5a1.64 1.64 0 0 0-.92-.27c-.44.07-.5.15-.5.8s.07.73.44.8c.23.04.6-.03.8-.14.57-.3 1.23-.17 1.3.28.1.64-.4.9-1.2.63-1.03-.34-1.35-.2-1.4.57-.07.7-.06.7.57.7.36 0 .8-.1 1-.2.47-.3 1 0 1 .6s-.5.86-1 .57a2.14 2.14 0 0 0-.97-.22c-.6 0-.65.02-.65.7 0 .7.03.73.64.73a2 2 0 0 0 .95-.23c.45-.28.96 0 1.04.54.1.52-.6.82-1.14.5-.6-.4-1-.4-1.7.14a8.3 8.3 0 0 1-5.84 1.65 4.95 4.95 0 0 1-2.96-.8c-.74-.4-1.76-.8-2.28-.94a5.74 5.74 0 0 0-4.3.8l-.4.27.43.36c.55.43.6.92.1 1.4-.3.32-.6.36-2.55.36-2.4 0-3-.2-3-.97 0-.47.15-.7.6-.96.3-.18.26-.24-.45-.66a6.1 6.1 0 0 0-3.55-.8c-.45.06-1.6.5-2.52.95l-1.7.84h-2.08c-2.4 0-3.36-.28-4.87-1.36-1.1-.8-1.35-.8-2.1-.42-.47.25-.55.25-.9-.05-.35-.28-.38-.4-.2-.7.22-.4 1-.56 1.2-.2.04.1.37.15.7.15.6 0 .6 0 .6-.72v-.74l-.65.1a6.3 6.3 0 0 0-1.06.2c-.36.12-.96-.26-.96-.62 0-.34.6-.73.98-.6.22.07.7.16 1.06.2l.68.1v-.73c0-.7 0-.7-.6-.7-.33 0-.7.05-.72.15-.2.3-.96.2-1.16-.16-.16-.3-.1-.44.17-.74.37-.35.43-.36.83-.1a2 2 0 0 0 .94.3c.5 0 .53-.04.53-.82 0-.76-.05-.8-.5-.8-.28 0-.66.13-.85.27-.45.37-.57.36-1-.1-.3-.3-.32-.4-.17-.7.2-.35.95-.5 1.14-.2.06.1.4.2.73.2.6 0 .6 0 .6-.7s-.02-.7-.54-.7c-.3 0-.7.06-.9.2-.5.24-1.04 0-1.04-.48 0-.6.44-.9 1-.64.24.1.68.2.97.2.5 0 .54-.05.54-.7 0-.7-.02-.74-.6-.74-.3 0-.67.1-.77.2-.1.1-.4.17-.6.14-.35-.03-.43-.15-.43-.6 0-.56.17-.6 1.74-.32l.7.12v-.84c0-.76-.05-.82-.47-.82-.25 0-.65.14-.88.3-.6.4-1.22.08-1.14-.6.1-.55.55-.7 1.16-.4.4.23.94.2 1.82-.1l.4-.1v13.6l1.2.55c2.47 1.1 4.3 1.1 7.07-.2 2.95-1.3 5.4-1.12 7.35.6.43.4.8.8.8.9 0 .06-.23.15-.5.2-.3.02-.5.16-.55.36-.06.3.1.34 1.78.3 1.5-.03 1.85-.1 1.85-.3 0-.18-.24-.3-.6-.37l-.6-.1.78-.74a5.1 5.1 0 0 1 4.06-1.58c1.34 0 1.7.06 3.17.65.93.36 2.13.74 2.7.83a9.3 9.3 0 0 0 4.7-.7l1.2-.5v-6.83l.05-6.82zm-17.3 19.4l.7 2.2.7 2.2 2.3.03 2.27.04-1.57 1.15-1.87 1.36c-.22.16-.17.47.38 2.22.38 1.12.6 2.07.6 2.1a8.2 8.2 0 0 1-1.6-1.05 45 45 0 0 0-1.7-1.28c-.13-.1-.9.37-2.03 1.23-1 .75-1.78 1.26-1.73 1.12.3-.85 1.23-3.8 1.23-4 0-.17-.82-.87-1.8-1.6l-1.82-1.3 2.3-.05 2.3-.03.7-2.2.7-2.17zm-20.94 25.46l.83.05.85.07.03 5.86.07 5.84h-1.7l-3.1-4.02a64.3 64.3 0 0 0-3.27-4c-.1 0-.15 1.8-.15 4v4.02H121l.06-5.85.03-5.87.6-.05c.3 0 .7.07.83.2.13.1 1.7 2.03 3.4 4.23l3.16 4 .05-4.24.07-4.25zm-33.28 0l3.1.06 3.06.04.07.96.07.94h-4.5v3.03h4.3v1.77l-2.1.05-2.1.05-.07 1.57-.05 1.55h4.5v1.77h-6.3v-11.8zm-22.7 0l4.4.06 4.43.04.05.96.05.93h-3.6v9.82h-2v-9.85h-3.4v-1.98zm119.25 0v2h-3.56v9.83h-1.8v-9.84h-3.6l.06-.9.03-.96 4.45-.03 4.4-.06zm-58.46.02H136v11.8h-2v-11.8zm45.23 0h2v11.8h-1.98v-11.8zm-95.57.1h1.8l.02 2.44.04 2.46h5.16l.1-2.46.04-2.47h1.8l.04 5.84.06 5.85h-2v-4.85h-5.2v4.83h-2l.04-5.85.05-5.86zm89.34.05c.64 0 1.32.12 1.87.4l.75.35v2.55l-.5-.45c-.78-.73-1.63-1.08-2.3-.97-.86.1-1.14.4-1.14 1.1 0 .73.2.98 1.95 2.1 1.68 1.13 2.24 1.94 2.3 3.4.1 1.43-.42 2.53-1.46 3.1a3.66 3.66 0 0 1-3.5-.07l-1-.5-.07-1.42-.05-1.4.65.74c1.4 1.64 3.7 1.63 3.7 0 0-.75-.3-1.1-2.1-2.43-1.8-1.35-2.2-2-2.2-3.4a2.9 2.9 0 0 1 1.42-2.63c.4-.26 1-.4 1.66-.4zm-63.88 0h1.75l.05 4.08c.06 4.5.14 4.84 1.27 5.5.67.4 2.2.4 2.97 0 1.1-.57 1.17-.8 1.2-5.4l.1-4.16h1.73v4.24c0 4.1 0 4.3-.4 5.17a4.17 4.17 0 0 1-2.43 2.2c-1.9.58-4.3 0-5.28-1.3-.87-1.12-1-1.93-1-6.3v-4zm40.94 0h6.24v1.8H152v3.05h4.14v1.8h-4.1v3.2h4.45v1.8H150v-11.6zm9.8 0h2c1.77 0 2.1.07 2.74.4 1.77 1 2.1 3.9.58 5.3l-.43.4.6.8c.34.46.9 1.35 1.27 2 .36.67.9 1.55 1.18 1.97l.5.74h-2.23l-1.06-1.8c-1.3-2.26-2-3.03-2.77-3.03h-.56v4.83h-1.8v-11.6zm40.8 0h2.3l-1.94 2.76-1.96 2.76v6.12h-2v-6.2l-1.9-2.62a55.35 55.35 0 0 1-1.87-2.74c0-.04.5-.06 1.1-.03l1.12.04 1.1 1.6c.6.9 1.2 1.7 1.28 1.78.1.1.73-.65 1.44-1.66l1.3-1.8zm19.47 0h5.9v1.8h-3.93v2.67h3.98v1.8h-3.93l-.05 2.6-.03 2.64-.8.04c-.47.03-.9 0-.96-.07a69.6 69.6 0 0 1-.1-5.8v-5.7zm-73.34 0c.7 0 .96.07.9.23l-2.2 5.9c-1.7 4.5-2.2 5.67-2.45 5.7a.5.5 0 0 1-.42-.3l-2.1-5.5a432.8 432.8 0 0 1-2.13-5.6c-.14-.4-.1-.4.8-.38l.95.05.57 1.44 1.43 3.64c.54 1.4.9 2.1 1 1.95.1-.14.72-1.8 1.44-3.7l1.3-3.45h.96zm65.3.03h.7c2.28.14 3.75 1.17 4.7 3.32.36.7.4 1.18.4 2.56 0 1.5-.02 1.82-.5 2.72a5.96 5.96 0 0 1-3.2 2.9 5.52 5.52 0 0 1-7.2-4.06 6 6 0 0 1 1.54-5.9 4.58 4.58 0 0 1 3.6-1.56zm-50.4 1.77v3.05h.7c1.44 0 2.1-.8 1.77-2.07-.23-.75-.63-1-1.63-1h-.86zm50.56.05c-2.44.06-4.17 2.7-3.3 5.56a4.24 4.24 0 0 0 2.37 2.4c.8.23 2.1.1 2.77-.23 1.26-.65 1.98-2 1.97-3.7 0-1.94-1.06-3.46-2.7-3.9-.38-.1-.74-.14-1.1-.13zm-89.9 14.43a12.2 12.2 0 0 1 5.2 1.1l1 .46.1.97c.15 1.1.17 2.83.05 2.83a11 11 0 0 1-1.1-.63 8.86 8.86 0 0 0-5.16-1.42c-1.6 0-1.9.07-2.76.5a6.92 6.92 0 0 0-2.8 2.58 8.72 8.72 0 0 0-.78 5.75c1.1 4.9 6.5 6.55 11.45 3.5a15.1 15.1 0 0 1 1.33-.78c.03 0 .04.84 0 1.9l-.05 1.9-.8.4c-.45.23-1.3.6-1.88.8-.85.3-1.6.4-3.4.44-2.48.1-3.38-.1-4.8-.8-3.4-1.76-5.3-5.04-5.3-9.06 0-2.16.22-3.23 1.1-5.07a9.32 9.32 0 0 1 8.54-5.36zm-40.43 0h1l3.7 9.24a9901 9901 0 0 1 4.04 10.1l.33.87h-3.3l-1.16-2.86-1.1-2.85-3.43.06-3.47.05-1.08 2.83-1.1 2.8H73l.36-.9a1729.7 1729.7 0 0 1 7.35-19c.2-.23.4-.3 1.3-.3zm92.4.1h2.24l4 10c2.2 5.5 4 10.03 4 10.06 0 .04-.75.04-1.66 0l-1.64-.04-1.15-2.8-1.15-2.83h-6.9l-.33.95-1.1 2.86-.75 1.94h-1.56c-.87 0-1.6-.06-1.6-.14s1.73-4.6 3.83-10.06l3.82-9.9zm14 .05l1.3.04 1.3.05 5.55 7.04 5.54 7.06.04-7.1v-7.1h3.04v20.05h-2.62l-5.5-7.03-5.5-7.05-.06 7.05-.04 7.07h-3.05v-20zm-95.1 0h3.2l.05 6.93c.05 6.8.06 6.93.47 7.75.7 1.46 2.15 2.3 3.98 2.3 2.07 0 3.7-.84 4.36-2.3.37-.8.4-1.1.44-7.75l.04-6.94h3.2v6.6c0 7.13-.1 8.15-.97 9.85a6.38 6.38 0 0 1-4.25 3.44 8 8 0 0 1-2.72.3c-2.03-.03-2.26-.07-3.63-.7a7.14 7.14 0 0 1-4-5.6c-.1-.7-.2-4.1-.2-7.6v-6.3zm40.6 0h3.2l.05 4.02.05 4 3.3-4.02 3.3-4.02h4.1l-.35.4c-1.2 1.33-7.4 8.96-7.4 9.1 0 .1 2.03 2.37 4.5 5.05 2.5 2.7 4.63 5 4.76 5.2.26.3.15.3-1.9.3h-2.1l-4.1-4.4-4.1-4.4-.04 4.4-.03 4.4h-3.2v-20zm18.94 0h3.2v16.8h7.86v3.23h-11.1v-20.03zm57.57 0h4.08c5.9 0 7.44.43 9.7 2.7a9.7 9.7 0 0 1 2.86 7.16 9.6 9.6 0 0 1-1.1 4.9 9.13 9.13 0 0 1-5.28 4.76c-.97.36-1.5.4-5.67.47l-4.6.08v-20.05zm3.23 3.22v13.6h2.4c3.4 0 4.85-.54 6.22-2.2 1.1-1.36 1.46-2.47 1.47-4.7 0-1.8-.05-2.08-.5-3.06a5.86 5.86 0 0 0-4-3.4 15.2 15.2 0 0 0-3.3-.26h-2.3zM81.86 1980a27.7 27.7 0 0 0-.95 2.4l-1.02 2.78c-.1.3.03.32 2.02.32h2.16l-.35-.85a131.7 131.7 0 0 0-1.87-4.66zm93.6.1c-.1 0-.25.36-.6 1.37l-1.07 2.82-.4 1.2h2.14a11 11 0 0 0 2.14-.1c0-.1-.4-1.1-.9-2.4l-1.1-2.78c-.1-.13-.1-.2-.18-.2zm2.15 18.63h.9l.1 2.2.06 2.18.82-1c.52-.7.9-1 1.2-1 .5 0 .5.1-.2 1-.95 1.16-.95 1.1.04 2.2.9 1.04.9 1.05.45 1.1-.45.06-1.13-.54-2.2-1.92-.17-.23-.2-.1-.2.84-.03 1.07-.04 1.1-.47 1.1h-.45v-6.6zm22.54 0h.88l.06 2.17.03 2.18.8-1c.56-.74.9-1.03 1.2-1.03.24 0 .43.05.43.1 0 .07-.32.5-.72.98-.4.47-.7.9-.7.98 0 .1.4.6.9 1.2.9 1.1.9 1.1.43 1.1-.37 0-.73-.22-1.44-1l-.95-1.02v1.03c0 .97-.04 1-.46 1h-.4v-6.6zm-116.74.16h.48c.4 0 .53.3 1.22 2.2.42 1.2.8 2 .85 1.9l.8-2.2c.6-1.66.74-1.9 1.14-1.94.4-.05.5.07 1.2 2.1.4 1.2.8 2.16.8 2.16.02 0 .4-1 .8-2.17.7-1.9.8-2.14 1.2-2.14.2 0 .4.03.4.05-.04.4-2.28 6.2-2.4 6.28-.1.02-.58-1.06-1.06-2.4a11.46 11.46 0 0 0-1-2.4c-.08.06-.52 1.18-1 2.5a13.26 13.26 0 0 1-1 2.43c-.1 0-.15 0-.15-.05 0-.03-.5-1.5-1.15-3.22l-1.15-3.16zm-8.06 0c2.37 0 2.5 0 2.5.3s-.14.32-1.02.4l-1.02.02-.1 2.82c-.06 2.64-.1 2.8-.4 2.8s-.37-.16-.4-2.8l-.06-2.83-1.04-.02c-.87-.05-1.02-.1-1.02-.4 0-.33.14-.35 2.5-.35zm18.42 0c.33 0 .36.1.36 1.3 0 1.3 0 1.34.34 1.06.46-.4 1.33-.38 1.74.1.2.3.3.7.4 2.13 0 1.67 0 1.77-.3 1.77-.38 0-.4-.12-.48-1.6-.05-1.32-.12-1.66-.4-1.85-.32-.24-.7-.2-1.14.14-.15.1-.2.7-.2 1.7 0 1.5-.04 1.6-.37 1.6s-.34-.1-.34-3.2 0-3.22.34-3.22zm18.45 0c.4 0 .5.2 1.2 2a25 25 0 0 0 .8 2.1c.07.04.47-.87.9-2 .68-1.9.8-2.18 1.2-2.18.44 0 .4-.08 1.5 2.95.6 1.63.46 1.74 1.47-1.2.53-1.5.66-1.75 1-1.75.23 0 .4.07.4.13 0 .13-2.17 6.2-2.26 6.3-.13.17-.4-.45-1.23-2.8a22.9 22.9 0 0 0-.87-2.3l-1 2.6c-.5 1.4-1 2.55-1.07 2.55-.1 0-2.12-5.4-2.3-6.2-.05-.13.1-.22.34-.22zm46.9 0c2.38 0 2.5 0 2.5.3s-.13.32-1 .4l-1.03.02-.04 2.82c-.04 2.64-.06 2.8-.4 2.8s-.34-.16-.4-2.8l-.03-2.83-1.04-.02c-.9-.05-1.03-.1-1.03-.4 0-.33.13-.35 2.5-.35zm29.5 0h.4c.3 0 .66.3 1.3 1.2.48.7.9 1.22.98 1.22a8 8 0 0 0 1-1.25c.66-.94.98-1.25 1.3-1.25h.4v6.46h-.87l-.06-2.44-.04-2.44-.8 1.16a7.22 7.22 0 0 1-.9 1.2 6.2 6.2 0 0 1-1-1.3l-.9-1.3-.06 2.54c-.05 2.4-.08 2.54-.4 2.54-.35 0-.36-.15-.36-3.2v-3.25zm-5.46.3c.35 0 .5.5.27.8-.27.3-.5.3-.64-.03-.13-.37.06-.8.37-.8zm-60.95.7c.9 0 1.16.05 1.16.26 0 .2-.24.27-1.15.27-.9 0-1.17-.06-1.17-.27 0-.2.25-.25 1.17-.25zm40.4 0c.9 0 1.15.05 1.15.26 0 .2-.24.27-1.15.27-.9 0-1.18-.06-1.18-.27 0-.2.26-.25 1.17-.25zm-83.4 1.1c.8-.04 1.54.6 1.68 1.6l.1.74H79.6c-1.5 0-1.63.1-.9.83.45.4 1 .5 1.9.1.23-.1.3-.04.3.24 0 .2-.14.45-.32.54-1.08.57-2.32.26-2.82-.7-.46-.9-.28-2.43.35-2.97.4-.3.7-.42 1.1-.43zm42.9 0c.44 0 .9.13 1.2.5.3.4.37.7.37 1.9s.04 1.4.26 1.3c.4-.15.33.4-.1.6a.68.68 0 0 1-.7 0 .9.9 0 0 0-.8 0c-.56.2-.47.2-.85 0-.98-.5-.73-1.5.57-2.2 1-.5 1-.5.73-1-.23-.4-.56-.4-1.26-.03-.5.27-.5.26-.5-.17 0-.5.56-.8 1.1-.83zm52.2 0c.44 0 .9.13 1.2.5.3.4.37.7.37 1.9s.05 1.4.27 1.3c.43-.16.33.4-.1.62-.3.15-.48.15-.78-.02-.3-.14-.5-.15-.77 0-.2.1-.47.2-.57.2-.32 0-.92-.7-.92-1.05 0-.5.67-1.22 1.35-1.45.5-.1.63-.3.63-.6 0-.54-.73-.73-1.34-.33-.43.3-.44.3-.44-.14 0-.5.5-.82 1.1-.84zm-11.8 0c.45 0 .9.14 1.2.5.3.4.37.7.37 1.9s.04 1.4.27 1.3c.4-.15.34.38-.07.6-.24.13-.48.13-.78 0a1.1 1.1 0 0 0-.8 0c-.2.1-.4.2-.44.2l-.35-.1c-.16 0-.4-.3-.5-.6-.3-.7.1-1.3 1.1-1.7.52-.2.7-.4.7-.7 0-.53-.58-.7-1.27-.4-.53.3-.54.3-.54-.1 0-.5.52-.8 1.1-.8zm-26.45 0c.38 0 .76.17 1 .5.32.4.38.77.38 2.2 0 1.55-.03 1.67-.36 1.67-.33 0-.36-.12-.36-1.52 0-1.3-.05-1.57-.35-1.87-.34-.36-.4-.37-.9-.1-.53.3-.53.3-.53 1.9 0 1.46 0 1.6-.3 1.6s-.34-.14-.34-2.17 0-2.14.35-2.14c.2 0 .36.1.36.3 0 .27 0 .27.32 0 .2-.2.5-.3.8-.3zm-36.82 0c1.1 0 1.36.47 1.36 2.27 0 1.3.03 1.5.26 1.4.4-.17.33.36-.08.6-.36.2-.9.06-.9-.2 0-.08-.23 0-.5.1-.6.33-.6.33-1.1-.02-.3-.2-.38-.4-.34-.94.06-.6.16-.7.96-1.1.5-.24.9-.46.9-.5.03 0 0-.23-.14-.5-.25-.52-.7-.55-1.35-.06l-.45.37v-.5c0-.65.4-.9 1.3-.9zm3.5 0c.27 0 .36.14.36.5v.5l.36-.5c.37-.43.76-.54 1.32-.3.3.1.35.4.12.74-.2.2-.3.2-.6.05-.84-.47-1.3.3-1.3 2.12 0 1.13 0 1.25-.35 1.25-.33 0-.35-.12-.35-2.15s.03-2.15.36-2.15zm22.88 0c.2 0 .4.1.47.2.07.1.22.1.45 0 .6-.3 1.2-.2 1.6.18.3.3.4.6.4 2.14 0 1.67 0 1.8-.32 1.8s-.35-.13-.35-1.6c0-1.46-.04-1.64-.4-1.9-.33-.22-.44-.23-.76-.02-.3.2-.38.46-.4 1.88-.07 1.6-.08 1.7-.5 1.7h-.45v-2.15c0-2 0-2.14.32-2.14zm5.5 0c1.12 0 1.4.43 1.47 2.28.05 1.2.12 1.5.3 1.42.16-.05.26.02.26.17 0 .4-.86.7-1.2.42-.18-.17-.35-.17-.7 0-.6.26-.72.24-1.14-.17-.73-.72-.25-1.72 1.04-2.16.44-.1.58-.3.54-.5-.1-.6-.6-.8-1.22-.44-.53.3-.54.3-.54-.1 0-.6.4-.83 1.2-.83zm13.1 0c1.04 0 1.27.43 1.27 2.3 0 1.27.05 1.5.27 1.4.42-.15.33.4-.1.6-.26.16-.43.16-.6 0-.2-.15-.4-.16-.83 0l-.6.2-.4-.23c-.43-.3-.52-.95-.22-1.5.1-.2.54-.48 1-.65.62-.25.8-.4.75-.7-.1-.55-.58-.75-1.17-.45-.27.14-.56.28-.64.3 0 .05-.1-.08-.1-.26 0-.55.6-.94 1.4-.94zm7.66 0c.67 0 .9.1 1.4.63.52.5.62.73.62 1.42 0 .95-.27 1.6-.8 1.95-1.77 1.18-3.83-.55-3.14-2.62.3-.9.96-1.4 1.93-1.4zm14.53 0c.2 0 .35.14.35.3 0 .3.02.3.33 0 .44-.4 1.2-.36 1.62.06.3.33.3.33.6 0 .4-.47 1.33-.46 1.8.02.25.3.32.7.4 2.14.03 1.7.02 1.77-.3 1.77-.37 0-.4-.1-.4-1.33 0-1.7-.2-2.3-.77-2.3-.78 0-1 .5-1 2.12 0 1.32-.05 1.44-.38 1.44-.36 0-.4-.1-.4-1.57 0-1.65-.13-2-.8-2-.66 0-.8.35-.8 2 0 1.46-.03 1.58-.36 1.58s-.36-.1-.36-2.13c0-2.02.03-2.14.36-2.14zm16.27 0h.9v4.3h-.9v-4.3zm14.24 0c1.08 0 1.3.36 1.36 2.17.05 1.3.1 1.5.37 1.5.45-.1.38.2-.14.52-.37.23-.5.24-.73.05-.2-.17-.37-.18-.72 0-.6.3-.74.25-1.15-.16-.8-.75-.3-1.74 1-2.17.4-.15.6-.3.5-.57-.1-.58-.58-.78-1.17-.48l-.66.3c-.08.04-.14-.1-.14-.28 0-.56.6-.95 1.4-.95zm9.33 0c1.06 0 1.3.43 1.3 2.3 0 1.27.04 1.5.26 1.4.4-.15.32.4-.1.6-.28.16-.44.16-.64 0-.2-.17-.37-.17-.7-.02-.62.3-.75.27-1.16-.15-.8-.72-.4-1.62.8-2.07.6-.3.8-.4.7-.7-.1-.6-.58-.8-1.16-.5-.3.12-.58.3-.65.3-.1.04-.15-.1-.15-.28 0-.55.6-.94 1.4-.94zm3.23 0h.9v1.7c0 1.54.05 1.7.38 1.9.3.15.47.13.8-.1.42-.25.44-.37.44-1.9 0-1.46.03-1.6.36-1.6.34 0 .36.14.36 2.16s-.1 2.14-.4 2.14c-.2 0-.4-.07-.4-.17s-.2-.07-.5.1c-.7.35-.8.33-1.4-.17-.48-.4-.5-.53-.56-2.25l-.08-1.8zm5.57 0c.27 0 .36.14.36.5v.5l.36-.5c.4-.5 1-.6 1.48-.2.28.2.3.26.07.57-.2.3-.3.3-.53.1-.38-.3-.9-.1-1.16.45-.1.26-.2 1-.2 1.7 0 1.13-.03 1.25-.36 1.25s-.35-.12-.35-2.15 0-2.16.34-2.16zm4.77 0c1 0 1.3.4 1.4 2.25.04 1.2.12 1.5.3 1.44.46-.13.25.4-.22.6-.36.2-.5.2-.7 0-.2-.1-.36-.1-.7 0-.6.3-.74.3-1.15-.1-.75-.76-.27-1.76 1-2.18.47-.15.6-.3.56-.57-.1-.57-.57-.77-1.16-.5l-.64.34c-.07.02-.13-.1-.13-.3 0-.56.56-.96 1.35-.96zm3.2 0h.9v1.7c0 1.54.04 1.7.37 1.9.3.15.5.13.82-.1.4-.25.4-.37.4-1.9 0-1.57 0-1.6.4-1.55.4.04.4.12.46 2.15l.08 2.1h-.5c-.25 0-.46-.07-.46-.17s-.2-.07-.5.1c-.7.34-.8.33-1.4-.17-.47-.4-.5-.52-.57-2.23l-.06-1.8zm-81.5 0c.5 0 .5.1.5.36 0 .24-.1.36-.34.36-.3 0-.34.07-.2.44.1.3.1.64 0 .98-.18.48-.4.65-1.48 1-.55.16-.25.52.65.78.96.27 1.42.83 1.24 1.54-.07.26-.3.6-.5.73-.43.3-1.8.4-2.38.1-.8-.4-.9-1.8-.2-2.1.2-.04.26-.2.18-.43-.08-.2 0-.46.1-.6.2-.22.15-.34-.1-.63-.48-.5-.44-1.5.05-2 .3-.3.65-.4 1.64-.44l.7-.03zm-33.8 0c.2.03.5.07.6.13.4.15.8 1 .8 1.67v.55h-2.68l.28.54c.33.62.95.82 1.73.55.72-.26.7-.26.7.15a.6.6 0 0 1-.32.5c-1.95 1.06-3.72-.87-2.8-3.07.14-.33.4-.7.6-.8.26-.13.7-.2 1.1-.2zm-.1.7c-.5 0-1 .3-1 .8 0 .3.16.37.9.37.9 0 1.04-.12.7-.73-.12-.23-.4-.34-.65-.34zm-28.4.03c-.4 0-1 .57-1 .94 0 .02.42.1 1 .1s.94-.08.94-.15c0-.36-.6-.93-1-.93zm61 0c-.3 0-.87.56-.87.82 0 .12.1.35.26.5.15.16.4.28.52.28.3 0 .8-.48.8-.75 0-.26-.55-.86-.78-.86zm11.6 0c-1.1 0-1.6 1.7-.8 2.5s2.1.12 2.1-1.1c0-.65-.7-1.4-1.33-1.4zm-7.1 1.43l-.53.26c-.65.33-.78.53-.63 1 .1.35.36.43.86.24.2-.07.3-.33.3-.8v-.7zm62.05 0l-.5.25c-.57.3-.8.68-.63 1.1.1.28.4.33.86.16.2-.07.3-.33.3-.8v-.7zm-107.16.17c-.64 0-1.28.93-.9 1.32.2.17.7.12.92-.1.3-.3.27-1.23-.02-1.23zm23.1 0c-.67 0-1.3.93-.9 1.32.2.17.65.12.9-.1.3-.3.26-1.23 0-1.23zm8.7 0c-.1 0-.27.1-.5.25-.3.23-.4.83-.17 1.06.05.06.3.1.5.06.25-.04.35-.2.4-.72.03-.4-.05-.6-.24-.6zm31.5 0c-.1 0-.3.1-.5.3-.32.3-.42.8-.2 1.02.08.06.3.1.5.06.28-.03.38-.2.4-.7.06-.4-.02-.63-.2-.6zm11.8 0c-.1 0-.28.1-.5.3-.32.3-.42.8-.2 1.02.08.06.3.1.5.06.28-.03.38-.2.4-.7.06-.4 0-.63-.2-.6zm22.52 0c-.13 0-.33.13-.58.36-.47.47-.5.6-.2.9.5.47 1.04.14 1.04-.6 0-.4-.1-.6-.28-.6zm22.9 0c-.14 0-.34.13-.6.36-.44.47-.47.6-.17.9.46.47 1.02.14 1.02-.6 0-.4-.1-.6-.3-.6zm-80.1 2.2c-.16.02-.33.05-.46.13-.46.26-.43.87.07 1.07.52.22.56.22 1.1 0 .35-.12.46-.28.42-.56-.07-.4-.6-.6-1.14-.6zm-66.8 4.77H227v1.08H73.2v-1.1zm34.24 4.3l.7.05.74.04.97 2.2a27.8 27.8 0 0 0 1.1 2.38c.05.07.55-.96 1.07-2.3l.95-2.4h.8c.4 0 .75.04.75.1 0 .05-.76 1.9-1.66 4.1-1.2 2.94-1.7 4-1.9 4-.2 0-.65-.86-1.5-2.94a18.96 18.96 0 0 0-1.34-2.85 49.9 49.9 0 0 0-1.3 2.9c-1.23 2.85-1.6 3.36-1.94 2.52l-1.6-3.97a73.67 73.67 0 0 1-1.45-3.7c0-.1.36-.15.78-.15h.78l.96 2.4c.5 1.34 1 2.4 1.03 2.35.07-.05.56-1.14 1.1-2.43l.98-2.34zm56.17 0l1.7 3.88a844.4 844.4 0 0 1 1.75 4c.03.1-.3.13-.77.13h-.82l-.4-1-.4-.96h-3.6l-.4.97-.4 1h-.8c-.96 0-1.06.46.93-4.34l1.5-3.6.85-.07.86-.07zm-90.4 0H74c.77 0 .77.03 3.1 2.77l2.32 2.77.05-2.76.05-2.8h1.6v8.05h-.76c-.75 0-.76-.03-3.08-2.8l-2.32-2.8-.05 2.8v2.8h-1.6v-8.05zm16.1 0h5.18v1.26h-3.6v2.15h3.4v1.27h-3.4v2.13l1.83.04 1.84.05.05.56.06.6h-5.4v-8.04zm42.02 0h7.1l-2.3 3.36-2.3 3.34 2.3.1 2.3.05v1.26h-7.35l.3-.5 2.28-3.3a74.1 74.1 0 0 0 1.9-2.9c0-.06-.95-.1-2.13-.1h-2.15v-1.26zm14.82 0h5.2v1.26h-3.6v2.15h3.6l-.07.6-.05.58-1.74.07-1.7.05v2.12l1.83.05 1.84.05.06.58.03.6h-5.45v-8zm28.4 0h1.6v6.8l1.93.05 1.9.05.08.6.07.6h-5.56v-8zm28.08 0h1.52l2.35 2.8 2.4 2.8v-5.6h1.6v8.06h-.7c-.7 0-.76-.07-3.1-2.83l-2.37-2.8-.04 2.8-.05 2.82h-1.6v-8.06zm16.1 0h2.27c2.04 0 2.4.06 3.2.43 1.6.74 2.24 1.84 2.24 3.7 0 1.76-1.1 3.3-2.63 3.73-.38.1-1.66.2-2.87.2h-2.2v-8.07zm-28.7.1h1.73l.72 1.6 1.73 4 1.04 2.36h-1.7l-.4-.95-.36-.92h-3.7l-.33.95-.36.94h-1.7l1.63-4 1.63-3.97zm30.3 1.16v5.57l1.52-.06c1.47-.05 1.52-.07 2.18-.73.67-.66.7-.7.7-2 0-1.16-.06-1.38-.46-1.8-.7-.76-1.3-.98-2.68-.98h-1.25zm-57.63.44l-.5 1.4c-.3.73-.55 1.47-.6 1.64-.1.28.04.3 1.17.3.7 0 1.25-.02 1.25-.1s-.5-1.35-1-2.5l-.3-.7zm28.2.2a29 29 0 0 0-1.13 3c0 .1.55.17 1.25.17.94 0 1.25-.06 1.18-.23-.4-1.05-1.26-3-1.3-2.95z"/>
    <g color="#000">
        <path style="isolation:auto;mix-blend-mode:normal" overflow="visible" fill="none" d="M0 2100h300v300H0z"/>
        <path d="M205.6 2190.95v27.07h-15.07v20.85h15.07v42.47c0 24.3 15.92 26.52 30.3 26.52 7.2 0 14.87-1.05 21.7-1.05v-25.6c-2.55.38-5.1.5-7.67.5-8.56 0-10.45-3.53-10.45-11.8v-31h18.13v-20.8h-18.1V2191h-33.9zm-38.97 24.23c-9.1 0-18.73 5.26-18.73 17.07 0 8.6 8.6 16.94 13.6 24-10.9 6.8-24.65 15.14-24.65 30.03 0 14.12 13.37 22.72 26.2 22.72 13.1 0 21.7-7.3 26.83-16.68l11.4 14.5h3.34l-13.47-17.08c2.57-5.77 4-10.9 3.86-18.46h-2.5a36.5 36.5 0 0 1-3.1 16.17l-24.1-30.55c8.37-6.16 20.16-12.58 20.16-24.65 0-10.78-8.6-17.07-18.74-17.07zm-76.17.6c-26.7 0-48.07 18.64-48.07 46.7 0 28.08 21.3 46.57 48 46.57 23.93 0 42.9-13.53 46.2-37.66h-32.3c-.7 7-5.8 13-13.2 13-13 0-14.9-11.2-14.9-21.9 0-10.8 1.87-22.1 14.9-22.1 3.6 0 6.5 1 8.54 2.9 2.22 1.9 3.42 4.8 3.76 8.4h32.16c-2.06-24.5-21.9-36-45.17-36zm76.3 1.96c8.47 0 16.05 5.53 16.05 14.5 0 10.66-11.8 17.73-19.1 22.73-9.2-11.93-13.2-17.07-13.2-22.97 0-9 7.5-14.26 16.3-14.26zm-3.7 40.58l25.14 31.57c-4.74 9.6-12.95 16.5-25.15 16.5-11.8 0-23.63-7.1-23.63-20.2 0-14.26 13.24-21.4 23.63-27.97z" overflow="visible"/>
    </g>
    <path style="isolation:auto;mix-blend-mode:normal" color="#000" overflow="visible" fill="none" d="M0 2400h300v300H0z"/>
    <path d="M191.9 2473.7l-41.9-41.9-42.04 42.04a86.56 86.56 0 0 1 42.1-10.85 86.68 86.68 0 0 1 41.85 10.7M74 2507.8L31.8 2550l42.32 42.32a86.5 86.5 0 0 1-11.02-42.38 86.54 86.54 0 0 1 10.86-42.1m33.7 118.03L150 2668.2l42.2-42.2a86.56 86.56 0 0 1-42.15 10.9 86.57 86.57 0 0 1-42.38-11.03M237 2549.94c0 15.3-3.95 29.65-10.88 42.13L268.2 2550l-41.92-41.9a86.54 86.54 0 0 1 10.72 41.84"/>
    <path d="M150 2466.4a83.6 83.6 0 1 0 0 167.2 83.6 83.6 0 0 0 0-167.2zm-19.44 19.17h6.67v22.77c0 5 .3 7.37 2.83 7.37 2.52 0 2.82-2.3 2.82-7.3v-22.74h6.46v21.96c0 9.94-2.17 14.34-9.4 14.34-7.26 0-9.38-4.3-9.38-14.36v-21.96zm22.16 0h6.67v11.3l5-11.3h5.9l-6.17 13.98 6.92 21.6h-6.93l-4.5-13.97-.32.8v13.18h-6.67v-35.6zm-.58 45.02H156l10.2 40.2h-7.68l-1.37-5.87h-6.66l-1.4 5.86h-7.2l10.2-40.3zm-77.7.1H94.9v7.14h-6.38v32.95H80.9v-32.95h-6.5v-7.15zm23.17 0h7.6v15.9h6.5v-15.94h7.5v40.12h-7.5v-16.74h-6.5v16.73h-7.5v-40.13zm25.2 0h17v7.14h-9.5v9.1h7.18v7.2h-7.17v9.83h9.85v6.83h-17.3v-40.1zm39.7 0H183v7.14h-6.4v32.95H169v-32.95h-6.5v-7.15zm22.96 0h4.15c9.23 0 15.26 4.13 15.26 14.7 0 5.35-1.7 8.88-4.37 11.04l5.4 14.34h-7.7l-4.4-11.6-1 .16v11.46h-7.34v-40.12zm22.34 0h16.96v7.14h-9.5v9.1h7.17v7.2h-7.15v9.83h9.8v6.83h-17.3v-40.1zm-15 7.14V2553c3.6-.1 4.72-3.97 4.72-7.56 0-3.6-1.14-7.46-4.72-7.58zm-39 10.15l-1.94 10.47h3.87L153.8 2548zm-45.1 38.1h82.6v3.2h-82.6v-3.2zm51.6 11.7c1.76 0 3.03 1.35 3.03 4.54 0 3-.94 5.73-2.43 7.8l-1.64-1.06a10.36 10.36 0 0 0 1.8-3.7c-.33.2-.72.3-1.17.3-1.3 0-2.6-.87-2.6-3.98 0-2.97 1.43-4 2.9-4zm-6.7.02c1.74 0 2.76 1.33 2.76 2.95 0 1.23-.5 2.15-1.14 2.58.86.47 1.5 1.67 1.5 3.22 0 2.03-1.18 3.5-3.1 3.5-1.95 0-3.13-1.45-3.13-3.5 0-1.55.6-2.73 1.5-3.2a3.15 3.15 0 0 1-1.2-2.58c0-1.65 1-2.98 2.72-2.98zm-16.04.02c.52 0 .98.15 1.16.25l-.33 1c-.3-.1-.6-.18-.8-.18-.4 0-.6.18-.6.54 0 .92 2 2.35 2 3.87 0 1.1-.8 1.63-1.8 1.63a3.3 3.3 0 0 1-1.5-.37l.3-.95c.22.12.7.3 1.1.3.44 0 .7-.25.7-.62 0-.97-2-2.35-2-3.87 0-1.25.86-1.62 1.67-1.62zm-7.38.05H135v1.83h-2.9v3.2h2.2v1.85h-2.2v3.3h3v1.8h-4.92v-12.07zm37.7 0h1.42v7.92h1.1v1.57h-1.1v2.52h-1.9v-2.53h-3.62v-1.1l4.1-8.4zm-28.56 0h3.44v1.07h-1.14v5.94h-1.15v-5.93h-1.15v-1.07zm6.74.1h3.14v11.92h-1.93v-10.13h-1.2v-1.8zm7.55 1.6c-.6 0-.8.63-.8 1.44 0 .8.27 1.5.9 1.5s.88-.68.88-1.5c0-.8-.22-1.43-.86-1.43zm6.7.05c-.7 0-1 .77-1 2.17 0 1.65.3 2.18 1 2.18a2 2 0 0 0 1.2-.3c.06-.4.08-.82.08-1.25 0-1.86-.34-2.7-1.17-2.7zm7.1 2.4l-1.8 3.77h1.9v-3.78zm-13.8 2.32c-.8 0-1.2.84-1.2 2 0 1.17.5 1.97 1.3 1.97s1.26-.8 1.26-1.97c0-1.15-.44-2-1.25-2z"/>
    <path style="isolation:auto;mix-blend-mode:normal" color="#000" overflow="visible" fill="none" d="M0 2700h300v300H0z"/>
    <path d="M73 2775c-4.7 0-4.77.02-7.74 1.48a17.45 17.45 0 0 0-9.45 18.84c1.2 6.93 6.5 12.6 13.1 14.03a17.86 17.86 0 0 0 19.2-7.97c2-3.04 2.68-5.92 2.5-10.2-.13-3.14-.33-4-1.46-6.3a19.55 19.55 0 0 0-8.6-8.6c-2.6-1.22-2.9-1.28-7.44-1.28zm94.6 6.1c-.1 0-6.96 4.83-15.25 10.72-8.28 5.9-16.32 11.6-17.87 12.7l-2.8 2-.68 2.97-1.66 7.2-1 4.2H116.6l-.4 1.5a837.45 837.45 0 0 0-4.74 20.2c0 .2 2.42.32 5.7.32 6.5 0 6.1-.3 5.14 3.66-.47 2-3.52 15.8-10.03 45.4-2.95 13.44-1.87 21.03 3.77 26.45 2.5 2.4 6.72 4.62 10.8 5.7 3.44.86 11.43 1.05 16.4.36a57.3 57.3 0 0 0 12.57-3.54l2.8-1.18 2.6-11.86c2.1-9.66 2.5-11.8 2-11.65-.3.1-2 .8-3.74 1.6-8.2 3.6-15.35 3.53-16.16-.16-.28-1.2-.1-3.4.65-7.7.3-1.85 6.6-29.46 10.1-44.32l.7-2.94 6.7-.1 6.7-.1 2.1-9.96a925.97 925.97 0 0 1 2.3-10.8l.2-.9h-13.2l.2-1.27c.1-.7 1.58-7.66 3.2-15.47 4.7-22.25 4.9-23.1 4.7-23.1zm45.57 38a47.2 47.2 0 0 0-37.77 18.98c-2.68 3.6-6.9 12.1-8.1 16.36a66.07 66.07 0 0 0-1.2 30.53c4.46 22 21.93 37.68 43.73 39.22 12.16.8 22.17-1.7 31.37-7.9 3.58-2.4 8.88-7.9 11.5-11.9 2.08-3.1 5.66-10.1 5.35-10.4-.1-.1-4.06-1.8-8.47-3.6-.25-.1-.9.8-1.46 2-2.75 6-8.46 12.86-13.43 16.14-5.1 3.33-11.2 5.22-18 5.6-21.1 1.14-36.8-12.47-40.1-34.65-.8-5.3-.6-14.26.4-18.84 2.2-10.1 7.1-18.65 13.7-23.85 3.3-2.6 9.5-5.7 13.33-6.7 3.46-.86 11.27-1.2 15-.62a33.1 33.1 0 0 1 17.6 8.6c5.3 5.1 7.5 10.06 8.6 19.12l.24 1.9 4.4-.14 4.42-.1.1-19.24.1-19.2h-9.08v6.5c0 3.6-.14 6.5-.3 6.5-.17 0-1.34-1.16-2.6-2.58a35.6 35.6 0 0 0-14.85-9.58 47 47 0 0 0-14.6-2.3zm-124.57 2.6l-23.27.1-23.27.1v22.48l7.1.1 7.12.12v55.15l-7.2.1c-5.46.1-7.18.24-7.15.6.02.28.07 5.3.1 11.15l.06 10.64h61.8v-22.46H88.6v-78.06z"/>
</svg>
