<svg xmlns="http://www.w3.org/2000/svg" width="300" height="3000" viewBox="0 0 299.99999 3000.0001">
    <g color="#000">
        <path style="isolation:auto;mix-blend-mode:normal" overflow="visible" fill="none" d="M0 0h300v300H0z"/>
        <path d="M90.87 115.85v67.97h.9v-67.97h-.9zm-48.92.1c-1.92.17-3.03 1.8-3.3 4-.3 2.5.63 4.57 3.1 4.87 2.45.3 3.86-1.46 4.17-3.98.3-2.5-.62-4.57-3.1-4.87-.3-.04-.6-.04-.87-.02zm-8.65.3c-.38 0-.87.04-1.5.2-1.7.4-3.5 2.1-2.78 5.17.62 2.66 2.63 4 4.93 3.47a6.95 6.95 0 0 0 2.03-.8l-.48-1.74c-.17.14-.65.63-1.6.85-1.27.3-2.47-.6-2.85-2.22-.4-1.7.2-2.97 1.52-3.28.9-.2 1.5 0 1.83.1l-.3-1.66c-.17-.03-.43-.08-.8-.1zm201.4.58c-1.58 0-1.63 1.3-1.63 2.6v.46h-1.25v.64h1.25v5.53h.76v-5.53h1.4v-.65h-1.4v-.55c0-.73-.1-1.86.93-1.86.22 0 .45.04.6.12l.06-.66c-.15-.1-.48-.13-.72-.13zm-71.8.15v3.95h-.02c-.1-.3-.7-1.2-1.92-1.2-1.82 0-2.55 1.37-2.55 3.25 0 1.83.86 3.23 2.56 3.23.88 0 1.5-.33 1.92-1.1h.03v.97h.77v-9.1h-.76zm49.22 0v9.1h.76v-1h.03c.42.8 1.05 1.13 1.93 1.13 1.7 0 2.55-1.4 2.55-3.22 0-1.88-.73-3.24-2.55-3.24-1.2 0-1.8.9-1.92 1.2h-.02v-3.96h-.76zm7 0v9.1h.77v-9.1h-.77zm35.48 0v3.95h-.02c-.1-.3-.72-1.2-1.93-1.2-1.82 0-2.54 1.37-2.54 3.25 0 1.83.86 3.23 2.55 3.23.9 0 1.52-.33 1.93-1.1h.02v.97h.76v-9.1h-.76zm21.48 0v9.1h.76v-1h.03c.4.8 1.04 1.13 1.92 1.13 1.7 0 2.54-1.4 2.54-3.22 0-1.88-.73-3.24-2.55-3.24-1.22 0-1.83.9-1.93 1.2h-.03v-3.96h-.76zm-96.48.24v1.02h.76v-1.02h-.76zm42.33 0v1.02h.76v-1.02h-.77zm35.43 0v1.02h.77v-1.02h-.77zm-214.7.2c1.16.14 1.4 1.53 1.2 3.17-.2 1.63-.78 2.92-1.94 2.77-1.16-.14-1.4-1.52-1.2-3.16.2-1.63.77-2.92 1.93-2.78zm69.6.04c-1.5 0-2.67.85-2.67 2.2 0 2.23 3.86 2.43 3.86 4.1 0 1.2-.86 1.73-1.9 1.73-.8 0-1.37-.2-1.87-.5l-.1.85c.46.2 1.1.36 1.92.36 1.3 0 2.78-.67 2.78-2.37 0-2.48-3.88-2.5-3.88-4.2 0-1.08.96-1.44 1.83-1.44.57 0 1.16.1 1.54.3l.12-.76a5.07 5.07 0 0 0-1.66-.28zm-60.94.6l-2.5 4.9c-.98 1.9-.4 3.46 1.32 4.35 1.74.9 3.34.44 4.3-1.47l2.5-4.9-1.8-.92-2.65 5.2c-.4.77-.92 1.1-1.64.72-.73-.37-.78-1-.38-1.76l2.63-5.18-1.78-.92zm98.3.07l-.78.27v1.5h-1.2v.64h1.2v3.6c0 1.14.05 2.07 1.4 2.07.38 0 .76-.1.94-.16l-.05-.63c-.2.1-.4.16-.7.16-.62 0-.82-.46-.82-1.02v-4h1.4v-.65h-1.4v-1.77zm-24.08 1.6c-1.3 0-1.8.94-1.98 1.28h-.02l.04-1.1h-.76v8.7h.76V125h.03c.4.8.97 1.2 1.94 1.2 1.7 0 2.54-1.4 2.54-3.22 0-1.88-.72-3.24-2.54-3.24zm6.95 0c-1.32 0-1.8.94-1.98 1.28h-.03l.04-1.1h-.76v8.7h.76V125h.03c.37.8.95 1.2 1.92 1.2 1.7 0 2.54-1.4 2.54-3.22 0-1.88-.73-3.24-2.55-3.24zm6.77 0c-2 0-2.9 1.56-2.9 3.25 0 1.68.9 3.23 2.9 3.23s2.88-1.54 2.88-3.22c0-1.7-.88-3.24-2.88-3.24zm6.85 0c-.8 0-1.3.65-1.6 1.34v-1.18h-.77c.05.44.05.7.05 1.37v4.8h.76V123c0-1.1.33-2.46 1.54-2.46.2 0 .4.02.56.07v-.78a2.2 2.2 0 0 0-.54-.08zm8.5 0c-1.56 0-2.6 1.36-2.6 3.25 0 1.85.76 3.23 2.8 3.23.58 0 1.27-.1 1.8-.33v-.77a4 4 0 0 1-1.73.46c-1.34 0-2.04-1.06-2.04-2.37h4.22v-.4c0-1.65-.7-3.06-2.45-3.06zm21.67 0c-1.03 0-2.02.47-2.02 1.7 0 1.8 2.97 1.56 2.97 3.03 0 .7-.64 1.1-1.37 1.1a3.6 3.6 0 0 1-1.6-.4l-.1.76c.56.22 1.15.3 1.75.3.93 0 2.15-.46 2.15-1.76 0-2.03-3.04-1.88-3.04-3.03 0-.8.55-1.04 1.34-1.04.42 0 .96.1 1.36.3l.08-.68c-.55-.2-1.2-.28-1.53-.28zm8.82 0c-1.3 0-1.75.7-2 1.26h-.03v-1.1h-.75c.05.5.05.97.05 1.44v4.73h.76v-3.42c0-1.03.44-2.26 1.84-2.26 1.05 0 1.46.75 1.46 1.9v3.77h.76v-3.95c0-1.36-.58-2.38-2.1-2.38zm6.35 0c-1.82 0-2.54 1.37-2.54 3.25 0 1.37.63 3.1 2.6 3.1.8 0 1.47-.33 1.88-1.22h.04c0 1.74-.17 3.17-2.14 3.17a4.2 4.2 0 0 1-1.82-.44l-.06.76c.32.1 1.06.32 1.87.32 2.1 0 2.9-1.4 2.9-3.12v-5.67h-.78v.7h-.02c-.57-.75-1.1-.86-1.93-.86zm9.56 0c-1.3 0-1.78.94-1.98 1.28h-.02l.05-1.1h-.76v8.7h.76V125h.02c.38.8.96 1.2 1.93 1.2 1.7 0 2.54-1.4 2.54-3.22 0-1.88-.72-3.24-2.54-3.24zm26.37 0c-1.83 0-3.05 1.34-3.05 3.25 0 1.72.97 3.23 2.95 3.23.58 0 1.07-.03 1.6-.2l-.08-.72c-.46.17-.9.28-1.4.28-1.4 0-2.24-1.18-2.24-2.58 0-1.5.84-2.6 2.33-2.6.42 0 .92.15 1.33.33l.06-.72a4.63 4.63 0 0 0-1.5-.24zm18.88 0c-1.3 0-1.75.7-2 1.26h-.03v-1.1h-.74c.06.5.06.97.06 1.44v4.73h.77v-3.42c0-1.03.43-2.26 1.83-2.26 1.05 0 1.46.75 1.46 1.9v3.77h.77v-3.95c0-1.36-.6-2.38-2.12-2.38zm16.6 0c-1.28 0-1.74.7-2 1.26h-.02v-1.1h-.74c.05.5.05.97.05 1.44v4.73h.76v-3.42c0-1.03.44-2.26 1.83-2.26 1.05 0 1.47.75 1.47 1.9v3.77h.76v-3.95c0-1.36-.6-2.38-2.12-2.38zm6.36 0c-1.82 0-2.55 1.37-2.55 3.25 0 1.37.62 3.1 2.6 3.1.8 0 1.46-.33 1.88-1.22h.02c0 1.74-.17 3.17-2.13 3.17-.67 0-1.35-.2-1.82-.44l-.06.76c.3.1 1.05.32 1.86.32 2.12 0 2.9-1.4 2.9-3.12v-5.67h-.77v.7h-.03c-.58-.75-1.1-.86-1.93-.86zM116 119.9v3.94c0 1.36.58 2.37 2.1 2.37 1.3 0 1.75-.68 2-1.24h.03v1.1h.73a15 15 0 0 1-.04-1.45v-4.7h-.77v3.4c0 1.04-.43 2.26-1.83 2.26-1.05 0-1.46-.75-1.46-1.92v-3.75H116zm51.87 0v3.94c0 1.36.58 2.37 2.1 2.37 1.3 0 1.75-.68 2-1.24h.03v1.1h.74a15 15 0 0 1-.05-1.45v-4.7h-.77v3.4c0 1.04-.44 2.26-1.83 2.26-1.05 0-1.47-.75-1.47-1.92v-3.75h-.76zm11.73 0v6.17h.76v-6.18h-.76zm25.7 0v3.94c0 1.36.57 2.37 2.1 2.37 1.3 0 1.75-.68 2-1.24h.02v1.1h.74c-.05-.5-.05-.97-.05-1.45v-4.7h-.75v3.4c0 1.04-.43 2.26-1.83 2.26-1.05 0-1.46-.75-1.46-1.92v-3.75h-.77zm16.63 0v6.17h.76v-6.18h-.77zm14.76 0v3.94c0 1.36.57 2.37 2.1 2.37 1.28 0 1.74-.68 2-1.24h.02v1.1h.74c-.05-.5-.05-.97-.05-1.45v-4.7h-.75v3.4c0 1.04-.44 2.26-1.83 2.26-1.06 0-1.47-.75-1.47-1.92v-3.75h-.76zm20.66 0v6.17h.77v-6.18h-.77zm24.8 0l2.18 6.24-.15.55c-.26.78-.47 1.33-1.13 1.33-.28 0-.42-.05-.57-.1l-.07.66c.25.05.55.08.82.08.86 0 1.3-.84 1.6-1.7l2.46-7.1h-.8l-1.77 5.16-1.74-5.15h-.85zm-156.74.5c1.45 0 1.83 1.38 1.83 2.58 0 1.2-.38 2.58-1.83 2.58-1.36 0-1.84-1.46-1.84-2.58 0-1.13.48-2.6 1.84-2.6zm6.95 0c1.46 0 1.83 1.38 1.83 2.58 0 1.2-.37 2.58-1.83 2.58-1.36 0-1.83-1.46-1.83-2.58 0-1.13.47-2.6 1.83-2.6zm6.9 0c1.33 0 2.04 1.15 2.04 2.58 0 1.43-.7 2.58-2.03 2.58-1.34 0-2.05-1.15-2.05-2.58 0-1.43.7-2.6 2.05-2.6zm15.4 0c1.14 0 1.58 1.06 1.58 2.14h-3.4c0-1.02.7-2.15 1.82-2.15zm6.4 0c1.36 0 1.84 1.45 1.84 2.58 0 1.12-.47 2.58-1.82 2.58-1.46 0-1.83-1.38-1.83-2.58 0-1.2.37-2.6 1.83-2.6zm30.52 0c1.4 0 1.82 1.1 1.82 2.58 0 1.12-.5 2.43-1.87 2.43-1.3 0-1.8-1.2-1.8-2.42 0-1.2.4-2.6 1.84-2.6zm9.3 0c1.46 0 1.84 1.38 1.84 2.58 0 1.2-.38 2.58-1.83 2.58-1.35 0-1.82-1.46-1.82-2.58 0-1.13.47-2.6 1.83-2.6zm13.8 0c1.47 0 1.84 1.38 1.84 2.58 0 1.2-.37 2.58-1.83 2.58-1.34 0-1.82-1.46-1.82-2.58 0-1.13.44-2.6 1.83-2.6zm38.07 0c1.36 0 1.83 1.45 1.83 2.58 0 1.12-.47 2.58-1.83 2.58-1.45 0-1.83-1.38-1.83-2.58 0-1.2.38-2.6 1.83-2.6zm16.6 0c1.38 0 1.82 1.1 1.82 2.58 0 1.12-.5 2.43-1.9 2.43-1.3 0-1.77-1.2-1.77-2.42 0-1.2.38-2.6 1.83-2.6zm9.3 0c1.46 0 1.83 1.38 1.83 2.58 0 1.2-.37 2.58-1.83 2.58-1.35 0-1.83-1.46-1.83-2.58 0-1.13.44-2.6 1.83-2.6zM18.5 122.5c-.66.36-1.13.57-1.73 1.08-2.2 1.85-.88 3.6-.7 3.8 1.96 2.37 4.04-.45 5.12.83.44.55.17 1.2-.32 1.6-.58.5-1.17.6-1.8.8l1 1.37a8.3 8.3 0 0 0 2-1.22c1.33-1.1 1.7-2.7.63-3.94-1.95-2.34-4.08.4-5.1-.8-.4-.5-.22-1.03.3-1.45a4.1 4.1 0 0 1 1.57-.76l-.96-1.3zm42.8 1.52l-6.22 6 1.23 1.27 4.5-4.34.03.02-2.77 6.1 1.67 1.73 6.2-5.97-1.25-1.3-4.3 4.17v-.02l2.54-5.95-1.63-1.7zM12 128.38l-3.3 4.73 1.27.9 1.08-1.54 5.78 4.05 1.17-1.64-5.78-4.06 1.07-1.53-1.3-.9zm54.7 5.7c-.6.05-1.27.22-1.98.57-2.46 1.2-3.32 3.45-2.3 5.57.5 1 1 1.55 1.24 1.8l1.58-.84c-.16-.14-.74-.5-1.17-1.4-.57-1.14.03-2.53 1.52-3.26 1.56-.77 2.93-.46 3.53.75.4.83.34 1.45.32 1.8l1.56-.64c0-.37-.04-1.08-.6-2.24a3.76 3.76 0 0 0-3.7-2.12zm102.54 2.64c-3.4 0-6.72 1.57-6.72 5.87 0 6.35 8.43 4.83 8.43 8.5 0 1.73-1.96 2.48-3.42 2.48a9.3 9.3 0 0 1-4.36-1.2l-.35 3.5c1.9.46 2.84.73 4.93.73 3.88 0 7.22-1.6 7.22-5.8 0-6.45-8.43-5.05-8.43-8.38 0-2.1 1.7-2.67 3.03-2.67 1.35 0 2.7.3 3.9.82l.37-3.16c-1.4-.46-2.95-.68-4.6-.68zm25.95 0c-6.54 0-10.56 3.7-10.56 10.27 0 6.5 4.32 9.6 10.55 9.6 1.45 0 2.96-.27 4.37-.6l-.17-3.22c-.9.46-2.7.8-4.2.8-4.12 0-6.54-2.95-6.54-6.86 0-3.94 2.48-6.97 6.44-6.97 1.38 0 2.7.2 4.16 1.02l.28-3.25c-1.4-.55-3.1-.8-4.35-.8zm15.57 0c-6.1 0-9.4 4-9.4 9.9 0 5.88 3.24 10 9.4 10 6.1 0 9.43-4.2 9.43-10 0-5.82-3.4-9.9-9.43-9.9zm59.45 0c-6.53 0-10.56 3.7-10.56 10.27 0 6.5 4.33 9.6 10.56 9.6 1.45 0 2.97-.27 4.37-.6l-.17-3.22c-.9.46-2.7.8-4.2.8-4.12 0-6.55-2.95-6.55-6.86 0-3.94 2.5-6.97 6.45-6.97 1.38 0 2.7.2 4.16 1.02l.26-3.25c-1.4-.55-3.08-.8-4.34-.8zm-153.37.33l-7.5 19.23h4l1.68-4.4h7.8l1.65 4.4h4.27l-7.55-19.23h-4.35zm13.9 0v19.23h3.86v-8h1.25c1.63 0 2.12.56 2.68 2l2.3 6h4.3l-3.08-7.52c-.38-.86-1-1.9-2.04-2v-.04a4.4 4.4 0 0 0 3.98-4.46c0-5.35-4.93-5.2-9.06-5.2h-4.16zm15.08 0v3.03h5.5v16.2h3.86v-16.2h5.5v-3.03h-14.87zm76.92 0v12.3c0 5.14 2.93 7.26 7.86 7.26 4.94 0 7.86-2.1 7.86-7.26v-12.3h-3.86v11.1c0 3.3-1.05 5.44-4 5.44-2.94 0-4-2.15-4-5.43v-11.1h-3.85zm18.6 0v19.23h3.7V141.9h.05l7.35 14.38h4.7v-19.23h-3.68v14.38h-.06l-7.32-14.38h-4.73zm36.16 0v19.23h3.87v-19.23h-3.86zm6.9 0v19.23h11.32v-3.03h-7.47v-16.2h-3.85zm-276.42.36c-.96.1-1.6.9-1.94 1.95l-.98 3 8.2 2.67.62-1.93-3.3-1.1c.22-.7.3-.95 1.53-.9l2.4.08.66-2.03-2.95-.02c-1.07 0-1.47.12-1.74.7l-.02-.02c.2-1.67-1.14-2.15-1.48-2.27a2.7 2.7 0 0 0-.98-.12zm.34 2.1c.12 0 .23.03.32.06.6.2.96.74.72 1.48l-.2.6-2.12-.7.2-.58c.24-.77.72-.9 1.08-.87zm202.45.25c3.83 0 5.4 3.47 5.4 6.86 0 3.48-1.46 6.98-5.4 6.98-3.93 0-5.4-3.5-5.4-6.97 0-3.38 1.58-6.85 5.4-6.85zm-76.16.33h1.3c1.9 0 4.06.2 4.06 2.5 0 2.4-2.18 2.68-4.07 2.68h-1.3v-5.18zm-15.7.83h.07l2.78 7.94h-5.6l2.76-7.93zm-46.34 2.56l-8.5 1.5.37 1.98 8.48-1.5-.34-1.98zM12.8 147.4l-8.52 3.06.08 2.23 8.72 2.56-.08-1.96-1.94-.54-.1-2.7 1.9-.6-.06-2.06zm51.87 2.65l-.34 4.86 1.56.13.18-2.84 7.05.48.14-2.04-8.6-.6zm-55.14.46l.06 1.98-3.62-.93v-.02l3.55-1.02zM153 164.28c-6.54 0-10.56 3.68-10.56 10.27 0 6.5 4.32 9.6 10.55 9.6 2.05 0 4.17-.43 6.2-.98V172.8h-7.76v3.03h4.08v5.02c-.66.16-1.48.27-2.53.27-4.12 0-6.54-2.95-6.54-6.86 0-3.93 2.48-6.96 6.96-6.96 1.55 0 3.48.33 4.97 1l.24-3.24c-1.66-.5-3.42-.8-5.65-.8zm-92.77.3c-.98.13-1.9.75-2.8 1.9l-.7.86 6.8 5.3.84-1.02c1.7-2.2.93-4.36-1.04-5.9-1.1-.86-2.13-1.24-3.1-1.12zm49.2.03v19.22h11.4v-3.03h-7.56v-5.4h6.86v-3.04h-6.86v-4.74h7.5v-3.02H109.4zm14.55 0v19.22h3.7v-14.38h.05l7.36 14.38h4.7V164.6h-3.7v14.37h-.05l-7.32-14.37h-4.75zm38.32 0v19.22h11.32v-3.03h-7.47v-16.2h-3.85zm20.52 0l-7.5 19.23h4l1.68-4.4h7.8l1.65 4.4h4.27l-7.55-19.23h-4.35zm13.77 0v19.22h3.68v-14.38h.05l7.36 14.38h4.7V164.6h-3.7v14.37h-.04l-7.33-14.37h-4.74zm18.95 0v19.22h5.26c5.9 0 11.1-1.98 11.1-9.6 0-7.64-5.2-9.62-11.1-9.62h-5.25zm-196.95 0l-6.6 5.57 2.44 2.9.55-.48-1.96-2.3 2.6-2.2 1.78 2.13.55-.48-1.77-2.12 2.35-1.98 1.86 2.23.56-.47-2.36-2.8zm42 .75c.92.05 1.75.62 2.33 1.1 1.7 1.3 2.18 3.02 1 4.53l-.48.64-5.66-4.45.4-.5c.66-.86 1.34-1.23 2-1.3.12-.02.26-.03.4-.02zm158.8 2.28h2.15a6.3 6.3 0 0 1 6.34 6.58 6.3 6.3 0 0 1-6.35 6.6h-2.14v-13.17zm-34.5.82h.04l2.78 7.93h-5.62l2.8-7.93zm-161.96.96l-4.82 7.18.6.4 4.25-6.33H23L21.73 179l.82.57 4.82-7.17-.6-.4-4.28 6.38-.02-.02 1.28-8.38-.82-.57zm31.63.04l-.6.4 4.17 6.43h-.03l-7.18-4.44-.83.5 4.68 7.27.6-.4-4.14-6.4h.02l7.18 4.4.83-.5-4.7-7.26zm-8.6 4.5l-.8.22-.37 9.1.73-.22.1-2.52 3.3-.92 1.38 2.07.8-.22-5.14-7.52zm-13.75.2c-1.92-.1-3.4 1.4-3.93 3.25-.46 1.57-.53 4.5 2.37 5.35.7.2 1.35.26 2.05.1l1.17-4.1-2.23-.62-.2.67 1.48.43-.83 2.9c-.43.1-.78.04-1.2-.07-2.2-.6-2.3-2.85-1.87-4.37.75-2.62 2.6-3.08 3.78-2.73.63.2 1.35.66 1.6 1l.27-.78a5 5 0 0 0-1.63-.92c-.3-.08-.58-.13-.85-.14zm13.58.7l2.7 4.1-2.85.86.13-4.95h.02zm-8.07.18v8.6h3.57v-.7h-2.8v-7.9h-.77z" style="isolation:auto;mix-blend-mode:normal" overflow="visible"/>
    </g>
    <path style="isolation:auto;mix-blend-mode:normal" color="#000" overflow="visible" fill="none" d="M0 300h300v300H0z"/>
    <g transform="matrix(4.08084 0 0 4.08084 -2121.4 -959.7)">
        <circle cy="345.44" cx="556.6" style="isolation:auto;mix-blend-mode:normal" r="25.13" color="#000" overflow="visible" stroke="#000" stroke-width=".01"/>
        <path d="M552.9 334.93c-.15 0-.42.05-.97.14l-1.14.2c-.02.02.03.47.1 1 .1.52.16.97.16 1h.14a62.4 62.4 0 0 1 2.1-.35c.04-.02 0-.3-.08-.92l-.16-1c0-.06-.02-.08-.17-.07zm14.54.04c-1.46 0-2.68.42-3.35 1.16a2.46 2.46 0 0 0-.65 1.78c0 .46 0 .46.1.44a30.44 30.44 0 0 1 1.83-.3c.14-.02.15-.04.16-.24.02-.4.25-.68.74-.86.76-.3 1.44-.13 1.63.36.04.1.23 1.2.43 2.46.4 2.5.42 2.6.58 2.94.1.2.13.23.22.2a62 62 0 0 1 1.15-.17c.58-.1 1.08-.17 1.1-.2.02 0-.03-.13-.1-.27-.22-.33-.26-.55-.63-2.84-.36-2.25-.44-2.64-.67-3.1-.42-.86-1.34-1.35-2.53-1.35zm-8 1.3c-.33 0-.65.06-.87.14-.32.13-.85.47-1.06.7l-.1.12.13.9c.08.48.15.88.17.88 0 0 .08-.08.14-.17.27-.35.72-.55 1.2-.5.4.03.63.2.82.6.13.26.2.56.54 2.77.2 1.37.4 2.5.4 2.52 0 .03.03.03.08.02.04-.02.55-.1 1.12-.18.56-.1 1.05-.18 1.07-.2.05-.04-.72-4.94-.86-5.5-.26-1.1-.92-1.8-1.9-2.04a3.07 3.07 0 0 0-.87-.06zm-14.82 0c-.04-.04-2.15.27-2.2.32-.03 0 .32 2.33.76 5.15.45 2.8.8 5.13.8 5.14h.12l1.13-.2c.82-.12 1.02-.17 1.02-.23 0-.18-1.6-10.17-1.63-10.2zm12.33.5s-.52.06-1.14.16c-.88.15-1.12.2-1.12.26l.6 3.93c.6 3.63.63 3.87.72 3.86a26.4 26.4 0 0 0 2.17-.37c.03-.02-1.18-7.83-1.22-7.86zm-3.54.53l-1.12.17c-1.03.17-1.12.2-1.12.28 0 .1 1.15 7.4 1.2 7.7.03.1.06.13.12.1l1.13-.17c.9-.13 1.05-.17 1.05-.24 0-.1-1.22-7.82-1.24-7.84zm14.32.64c-.03-.06-2.2.7-2.75.95-.7.3-1.16.77-1.4 1.33-.14.4-.14 1.16 0 1.65.14.4.43.88.72 1.13.24.22.67.45 1.02.55.38.1 1.37.06 1.86-.08a3 3 0 0 0 1.13-.58l.2-.2-.12-.56c-.07-.3-.12-.64-.12-.74 0-.32-.04-.36-.23-.2-.5.46-1.36.65-1.83.4a.78.78 0 0 1-.1-1.3c.24-.2.38-.27 1.16-.57l.7-.27c.02-.02-.2-1.45-.24-1.52zm-19.97.08c-.25 0-.5.03-.7.07-.52.12-1.16.48-1.5.84l-.12.14.14.86.14.86s.13-.1.27-.25c.3-.3.65-.44 1.07-.44.5.02.84.3 1 .85.05.13.25 1.3.45 2.57.36 2.38.4 2.6.43 2.6a150.74 150.74 0 0 0 2.22-.36c.03-.03-.83-5.4-.92-5.76a2.5 2.5 0 0 0-1.8-1.9 2.88 2.88 0 0 0-.68-.08zm-8.86 1.37c-.3 0-.52 0-.54.06 0 .03.04.46.12.94l.14.9.27.02c.5.06.8.28 1.03.76.07.15.14.26.16.26l1.05-.22c.58-.12 1.06-.24 1.08-.26a3.4 3.4 0 0 0-.45-1.04 3.38 3.38 0 0 0-2.9-1.43zm-.93.12l-.14.02c-.22.02-.88.27-1.15.43a3.64 3.64 0 0 0-1.85 3.5c0 .82.02.96.14 1.4a4 4 0 0 0 2.07 2.7c.48.24.87.3 1.6.32h.64v-.14c0-.08-.07-.5-.15-.97l-.13-.84-.28-.06c-.75-.17-1.14-.6-1.42-1.57a4.83 4.83 0 0 1-.02-2.02c.1-.3.45-.7.74-.84.27-.13.27-.1.1-1.16l-.15-.78zm4.7 4.53l-.16.03c-.2.04-1.92.23-2.02.23-.05 0-.07.06-.07.17 0 .1-.04.3-.1.5-.1.37-.34.62-.7.8l-.26.1.15.97c.1.6.17.96.2.96l.4-.1a3.5 3.5 0 0 0 2.2-1.8c.22-.45.3-.83.35-1.4l.03-.45zm23.94.5c-.17 0-.44.05-.84.1-.6.1-1.1.2-1.12.22-.02 0 .02.33.08.7.06.36.1.67.08.7l-.53.1c-.44.07-.5.1-.5.18 0 .05.05.43.12.84.12.85.04.78.75.67.24-.04.44-.07.45-.06l.33 2.08.4 2.38c.2.86.6 1.3 1.26 1.45.38.1.54.1 1.06.03.68-.08 1.67-.33 1.67-.42 0-.1-.25-1.65-.27-1.67 0 0-.23.02-.5.07-.6.1-.78.06-.93-.17-.12-.17-.12-.18-.48-2.44-.23-1.44-.25-1.63-.18-1.66.04-.02.36-.08.7-.14.36-.05.66-.1.67-.12.03-.03-.2-1.64-.25-1.68-.02 0-.35.03-.75.1-.65.1-.72.1-.74.03l-.1-.65a4.7 4.7 0 0 0-.12-.63c0-.02-.1-.03-.27 0zm7.33.13a4 4 0 0 0-4.1 4.7c.26 2.03 1.5 3.44 3.27 3.72.4.06 1.24.02 1.72-.07a3.9 3.9 0 0 0 2.77-2c.18-.38.37-1 .32-1.06-.02-.02-.54 0-1.15.06l-1.12.1-.1.23c-.25.52-.74.82-1.4.86a1.5 1.5 0 0 1-1.15-.34c-.82-.68-1.18-2.57-.67-3.56.14-.27.54-.63.83-.73.83-.3 1.56-.02 1.93.7l.13.3-.13.02a88.82 88.82 0 0 1-2.54.4l-.14.03.03.47c.03.42.18 1.15.25 1.23 0 0 1.2-.16 2.6-.4l2.6-.4-.04-.2a9.8 9.8 0 0 0-.48-1.68 3.82 3.82 0 0 0-2.32-2.26 2.68 2.68 0 0 0-1.13-.12zm-19.07 1.7c-.02-.03-.53.04-1.14.13-1.03.18-1.1.2-1.1.3.04.24 1.45 9.18 1.47 9.23 0 .04.07.05.2.03l1.1-.18c.87-.14.95-.16.94-.25-.03-.3-1.46-9.24-1.48-9.26zm5.8.44c-.32 0-.68.03-1 .1-1 .16-1.62.43-2.14.95a2.4 2.4 0 0 0-.77 1.84v.47c.04.02 1.68-.22 1.97-.3.08 0 .1-.05.1-.17 0-.6.62-1.03 1.48-1.04.34 0 .45 0 .6.1.32.18.34.3.73 2.72.37 2.4.44 2.75.6 3.08.08.2.1.22.24.2a109.62 109.62 0 0 1 2.2-.36c.03 0 0-.1-.12-.33-.2-.38-.25-.6-.62-2.9-.33-2.14-.42-2.52-.66-3a2.5 2.5 0 0 0-1.73-1.3 4.15 4.15 0 0 0-.87-.05zm-11.44 1.74c-.33 0-.66.02-.9.1-.4.1-.8.3-1.04.53l-.18.15.1.73.16.9.03.16.23-.22c.38-.34.94-.46 1.43-.32.26.08.67.46.84.77.33.6.5 1.76.38 2.38-.08.4-.32.84-.55 1.04a1.5 1.5 0 0 1-1.48.22l-.26-.1a19 19 0 0 0 .32 1.88c.07.08.6.17.97.18a3.25 3.25 0 0 0 2.5-1.1c.26-.3.66-1.12.76-1.6a5.4 5.4 0 0 0 .08-1.72c-.23-2-1.15-3.4-2.56-3.9a3 3 0 0 0-.86-.1zm-2.5.6h-.12c-.17 0-2.1.33-2.14.36-.02.02.67 4.48 1.3 8.42l.23 1.42.07.53.23-.04a62.4 62.4 0 0 0 2.04-.33s-.35-2.35-.8-5.2l-.82-5.16zm14.3.58c-.04-.04-2.53.88-2.88 1.06-1.1.56-1.56 1.5-1.3 2.7.2.93.9 1.67 1.8 1.9a4.7 4.7 0 0 0 1.55 0c.18-.05.46-.13.6-.2.32-.1.86-.45.94-.6.04-.05.02-.23-.05-.63-.07-.3-.13-.67-.15-.8l-.03-.27-.17.15c-.4.36-1.14.58-1.6.5-.6-.14-.86-.77-.53-1.24.17-.23.47-.4 1.3-.7l.75-.3c.02 0-.22-1.55-.24-1.56z" fill="#fff"/>
    </g>
    <path style="isolation:auto;mix-blend-mode:normal" color="#000" overflow="visible" fill="none" d="M0 600h300v300H0z"/>
    <g style="line-height:125%" font-weight="400" font-size="37.43" font-family="sans-serif" letter-spacing="0" word-spacing="0">
        <path d="M14.6 709.64h23.07v3.1H28v24.2h-3.72v-24.2h-9.7v-3.1zM58.2 724.58v12.35h-3.36V724.7q0-2.92-1.14-4.36-1.13-1.45-3.4-1.45-2.72 0-4.3 1.73-1.56 1.73-1.56 4.73v11.57h-3.4V708.5h3.4v11.14q1.2-1.85 2.83-2.76 1.64-.9 3.78-.9 3.53 0 5.34 2.18 1.8 2.18 1.8 6.42zM82.45 725.86v1.64H67q.2 3.47 2.07 5.3 1.9 1.8 5.23 1.8 1.94 0 3.75-.47 1.83-.47 3.62-1.42v3.2q-1.8.76-3.7 1.16-1.9.4-3.87.4-4.9 0-7.77-2.85-2.85-2.84-2.85-7.7 0-5.03 2.7-7.97 2.73-2.96 7.34-2.96 4.13 0 6.52 2.67 2.4 2.65 2.4 7.22zm-3.36-1q-.05-2.75-1.56-4.4-1.5-1.64-4-1.64-2.8 0-4.5 1.6-1.68 1.58-1.94 4.47l12-.03zM103.66 712.68v10.25h4.64q2.58 0 3.98-1.33 1.4-1.34 1.4-3.8 0-2.45-1.4-3.8-1.4-1.32-3.98-1.32h-4.64zm-3.7-3.04h8.34q4.6 0 6.93 2.1 2.35 2.05 2.35 6.05 0 4.03-2.35 6.1-2.34 2.06-6.93 2.06h-4.64v10.97h-3.7v-27.3zM122.4 708.5h3.37v28.43h-3.36V708.5zM142.1 726.64q-4.08 0-5.65.93-1.57.94-1.57 3.18 0 1.8 1.16 2.85 1.2 1.05 3.22 1.05 2.8 0 4.48-1.98 1.7-2 1.7-5.28v-.76h-3.35zm6.7-1.4v11.7h-3.36v-3.12q-1.15 1.87-2.87 2.76-1.72.88-4.2.88-3.15 0-5-1.75-1.86-1.77-1.86-4.73 0-3.45 2.3-5.2 2.34-1.76 6.92-1.76h4.72v-.32q0-2.32-1.54-3.58-1.5-1.28-4.27-1.28-1.76 0-3.42.42-1.65.42-3.2 1.26v-3.1q1.86-.72 3.6-1.07 1.73-.36 3.37-.36 4.45 0 6.64 2.3 2.2 2.3 2.2 6.98zM164.34 738.83q-1.43 3.66-2.78 4.77-1.35 1.12-3.62 1.12h-2.7v-2.82h2q1.38 0 2.15-.66.75-.65 1.7-3.1l.6-1.54-8.3-20.14h3.57l6.4 16 6.4-16h3.56l-9 22.37zM195 724.58v12.35h-3.37V724.7q0-2.92-1.14-4.36-1.14-1.45-3.4-1.45-2.73 0-4.3 1.73-1.57 1.73-1.57 4.73v11.57h-3.38V708.5h3.38v11.14q1.2-1.85 2.83-2.76 1.65-.9 3.78-.9 3.53 0 5.34 2.18 1.8 2.18 1.8 6.42zM209.67 718.82q-2.7 0-4.28 2.12-1.58 2.1-1.58 5.77 0 3.7 1.55 5.8 1.57 2.1 4.3 2.1 2.68 0 4.26-2.1 1.57-2.13 1.57-5.8 0-3.62-1.57-5.74-1.58-2.14-4.26-2.14zm0-2.85q4.38 0 6.9 2.85 2.5 2.85 2.5 7.9 0 5.02-2.5 7.9-2.52 2.84-6.9 2.84-4.4 0-6.9-2.85-2.5-2.86-2.5-7.9 0-5.03 2.5-7.88 2.5-2.85 6.9-2.85zM224.27 728.85v-12.4h3.37v12.27q0 2.9 1.13 4.37 1.13 1.44 3.4 1.44 2.72 0 4.3-1.74 1.58-1.74 1.58-4.73v-11.6h3.37v20.46h-3.37v-3.14q-1.22 1.85-2.85 2.77-1.6.9-3.74.9-3.53 0-5.36-2.2-1.83-2.2-1.83-6.42zM261.43 717.06v3.18q-1.42-.73-2.96-1.1-1.54-.36-3.18-.36-2.5 0-3.78.77-1.24.77-1.24 2.3 0 1.17.9 1.85.9.66 3.6 1.26l1.15.26q3.58.76 5.08 2.17 1.53 1.38 1.53 3.88 0 2.85-2.27 4.52-2.25 1.66-6.2 1.66-1.64 0-3.43-.33-1.77-.3-3.75-.95v-3.47q1.87.98 3.68 1.47 1.8.48 3.58.48 2.37 0 3.65-.8 1.27-.83 1.27-2.3 0-1.38-.93-2.1-.9-.74-4.04-1.42l-1.17-.27q-3.12-.66-4.5-2-1.4-1.4-1.4-3.76 0-2.9 2.05-4.46 2.04-1.57 5.8-1.57 1.87 0 3.52.27 1.64.28 3.03.82zM285.4 725.86v1.64h-15.45q.22 3.47 2.08 5.3 1.88 1.8 5.23 1.8 1.94 0 3.75-.47 1.83-.47 3.63-1.42v3.2q-1.8.76-3.7 1.16-1.92.4-3.87.4-4.9 0-7.77-2.85-2.86-2.84-2.86-7.7 0-5.03 2.7-7.97 2.73-2.96 7.33-2.96 4.13 0 6.53 2.67 2.4 2.65 2.4 7.22zm-3.35-1q-.04-2.75-1.56-4.4-1.5-1.64-4-1.64-2.8 0-4.5 1.6-1.7 1.58-1.94 4.47l12-.03zM18.37 756.43h4.97l12.1 22.83v-22.83h3.6v27.3h-5l-12.1-22.84v22.82h-3.57v-27.3zM54.16 765.6q-2.7 0-4.28 2.13-1.57 2.1-1.57 5.78t1.56 5.8q1.58 2.1 4.3 2.1 2.7 0 4.26-2.12Q60 777.16 60 773.5q0-3.63-1.58-5.75-1.57-2.14-4.26-2.14zm0-2.84q4.4 0 6.9 2.85 2.5 2.86 2.5 7.9 0 5.03-2.5 7.9-2.5 2.85-6.9 2.85t-6.9-2.85q-2.5-2.87-2.5-7.9 0-5.04 2.5-7.9 2.5-2.84 6.9-2.84zM81.03 755.28h3.36v28.44h-3.37v-28.44zM99.34 765.6q-2.7 0-4.27 2.13-1.58 2.1-1.58 5.78t1.55 5.8q1.57 2.1 4.3 2.1 2.68 0 4.25-2.12 1.57-2.12 1.57-5.77 0-3.63-1.57-5.75-1.57-2.14-4.26-2.14zm0-2.84q4.4 0 6.9 2.85 2.5 2.86 2.5 7.9 0 5.03-2.5 7.9-2.5 2.85-6.9 2.85t-6.9-2.85q-2.5-2.87-2.5-7.9 0-5.04 2.5-7.9 2.5-2.84 6.9-2.84zM127.76 773.25q0-3.66-1.5-5.67-1.5-2-4.23-2-2.7 0-4.23 2-1.5 2-1.5 5.67 0 3.64 1.5 5.65 1.52 2 4.23 2 2.72 0 4.22-2 1.5-2 1.5-5.65zm3.37 7.93q0 5.23-2.32 7.77-2.3 2.56-7.1 2.56-1.78 0-3.35-.27-1.57-.25-3.05-.8v-3.27q1.48.8 2.92 1.2 1.45.37 2.95.37 3.3 0 4.95-1.74 1.64-1.72 1.64-5.2v-1.68q-1.04 1.8-2.66 2.7-1.63.9-3.9.9-3.76 0-6.07-2.87-2.3-2.87-2.3-7.6 0-4.75 2.3-7.62t6.07-2.87q2.27 0 3.9.9 1.62.9 2.66 2.7v-3.1h3.37v17.92zM146 765.6q-2.72 0-4.3 2.13-1.56 2.1-1.56 5.78t1.55 5.8q1.56 2.1 4.3 2.1 2.67 0 4.25-2.12 1.57-2.12 1.57-5.77 0-3.63-1.57-5.75-1.58-2.14-4.26-2.14zm0-2.84q4.37 0 6.88 2.85 2.5 2.86 2.5 7.9 0 5.03-2.5 7.9-2.5 2.85-6.9 2.85t-6.9-2.85q-2.5-2.87-2.5-7.9 0-5.04 2.5-7.9 2.5-2.84 6.9-2.84z"/>
    </g>
    <path style="isolation:auto;mix-blend-mode:normal" color="#000" overflow="visible" fill="none" d="M0 900h300v300H0z"/>
    <path d="M11.57 997.12v105.76h276.86V997.12H11.57z" fill="#fff"/>
    <path d="M11.57 1050v-52.88h276.86v105.76H11.57V1050zm171.87 0v-51.52l-85.2.05-85.2.05-.06 51.23c-.03 28.18 0 51.35.04 51.48.08.2 17.3.24 85.26.24h85.16V1050zm-22.7 8.7c-.86-.18-1-.42-.56-1 .2-.3.4-.34.87-.25.95.2 1.2-.02 1.9-1.54l.66-1.4-1.84-4.68a186.2 186.2 0 0 1-1.84-4.78c0-.05.38-.1.84-.1h.85l1.23 3.26c.68 1.8 1.33 3.45 1.45 3.7.18.37.37 0 1.6-3.22l1.37-3.64.82-.06c1-.07 1.15-.7-1.38 5.7-3.17 8-3 7.67-4.06 7.96-.9.25-1.07.26-1.9.07zm-30.77-6.94v-6.8h.7c.48 0 .67.07.67.3 0 .16.06.27.14.23.9-.48 1.76-.78 2.37-.84 2.63-.26 4.3 1.62 4.3 4.86 0 2.3-.85 3.98-2.42 4.82-.64.34-1.13.42-2.5.42-1.68 0-1.7 0-1.7.5-.02.26-.04 1.1-.06 1.84l-.04 1.36-.73.06-.73.06v-6.82zm4.6 1.56c.44-.2 1.05-.7 1.36-1.1.5-.64.57-.92.63-2.35.05-1.34 0-1.75-.35-2.47a2.7 2.7 0 0 0-3.9-1.04l-.67.45-.06 3.22c-.05 3.18-.04 3.22.4 3.43.67.33 1.7.28 2.6-.13zm-106.27 1.3c-.87-.45-.97-.95-.98-4.86v-3.65h-.87c-.85 0-.88 0-.88-.57 0-.56.03-.58.88-.58h.87V1042.22h1.56V1044.95h2.52v1.16h-2.52v3.43c0 1.98.08 3.57.2 3.8.24.44.78.47 1.55.07.55-.28.57-.28.86.27.28.56.27.57-.37.88a3.9 3.9 0 0 1-2.83.06zm18.36-.05c-1.83-.65-2.95-2.83-2.77-5.38.17-2.45 1.42-4.06 3.46-4.47 2.6-.52 4.64 1.07 4.98 3.88l.1 1H45.4v.64c0 .88.6 2.1 1.33 2.72 1.2 1 2.7.94 3.9-.15.74-.65.76-.66 1.2-.3l.43.34-.66.75c-.36.4-.93.85-1.28 1-.8.34-2.66.32-3.65-.03zm4-6.44c0-.58-.6-1.55-1.16-1.88-.8-.48-2.17-.43-2.83.1-.5.37-1.07 1.4-1.07 1.9 0 .12.92.2 2.52.2 2.2 0 2.53-.05 2.53-.32zm5.08 6.4a2.8 2.8 0 0 1-1.62-2.53c-.04-2.02 1.35-3.17 4.3-3.54a7.4 7.4 0 0 0 1.5-.28c.06-.06.05-.4-.02-.8-.27-1.44-2.07-1.94-3.5-.97-.7.47-.77.5-1.2.2-.6-.4-.6-.57.17-1.15a4.73 4.73 0 0 1 4.78-.3c1.16.7 1.28 1.22 1.35 5.58l.07 3.94h-.68c-.52 0-.73-.1-.82-.4-.12-.37-.13-.37-.7.05-.77.57-2.72.7-3.64.22zm3.47-1.4l.7-.35.04-1.58.06-1.6h-.75c-1.18 0-2.7.54-3.14 1.1-.5.65-.53 1.84-.05 2.27.85.77 1.84.82 3.16.15zm6.7 1.5c-.87-.4-.96-.83-1-4.73l-.05-3.7-.78-.05c-.72-.06-.78-.1-.78-.63 0-.54.03-.57.77-.57h.77V1042.22h1.55l.06 1.32.06 1.3 1.2.07c1.2.06 1.23.07 1.23.63s-.02.56-1.22.62l-1.2.06-.06 3.4c-.04 2.93 0 3.42.28 3.73.4.44 1.02.47 1.54.08.5-.38.57-.36.83.2.3.66.3.62-.36.96a4.4 4.4 0 0 1-2.84.08zm13.37-.27c-1.6-.8-2.37-2.25-2.37-4.5 0-1.8.32-2.84 1.2-3.84a4.05 4.05 0 0 1 3.65-1.35c2.04.28 3.25 1.63 3.6 4.02l.13.9h-7.02v.73c0 .4.18 1.1.4 1.57a2.97 2.97 0 0 0 4.88.78c.5-.54.54-.55 1.02-.24l.5.32-.54.7c-1.1 1.45-3.53 1.85-5.45.9zm4.3-6.45c-.3-1.27-1.23-1.98-2.57-1.98-.97 0-1.98.8-2.3 1.83l-.2.7h5.2l-.12-.54zm10.88 6.46c-2.3-1.14-3.2-4.75-1.84-7.4 1.44-2.8 5.3-3.16 7-.66l.44.66-.5.33c-.52.33-.53.32-1.34-.53-.72-.75-.92-.85-1.66-.85-1.83 0-2.98 1.5-2.97 3.88 0 1.47.47 2.6 1.33 3.3 1.13.88 2.82.67 3.7-.5.5-.63.5-.64 1.07-.35.64.33.58.6-.35 1.48a4.25 4.25 0 0 1-4.87.63zm9.96.23a5.5 5.5 0 0 1-2.27-2.45c-.62-1.26-.6-3.63.02-4.93a4.38 4.38 0 0 1 8.2.6c.8 2.78-.33 5.88-2.48 6.78-.8.33-2.7.33-3.46 0zm3.64-1.87a4.72 4.72 0 0 0 .43-5.4c-1.14-1.98-3.68-1.88-4.78.18-.36.67-.45 1.15-.44 2.3 0 1.6.27 2.3 1.18 3.14.73.68.97.76 2 .67.75-.05 1-.2 1.6-.87zm33.64 1.8a2.88 2.88 0 0 1-1.65-2.54c-.03-2.13 1.43-3.2 4.96-3.65.78-.1.92-.2.92-.55 0-.66-.7-1.66-1.27-1.8-.8-.2-2.04.04-2.54.5-.42.42-.47.43-.94.12-.6-.4-.6-.53-.05-1.03.77-.7 1.37-.9 2.77-.93 1.6-.02 2.5.4 3.1 1.45.37.6.4 1.07.47 4.62l.07 3.95-.74-.07c-.43-.04-.75-.16-.75-.3 0-.34-.2-.3-.8.08-.73.5-2.7.57-3.52.14zm3.46-1.4l.68-.35.06-1.58.05-1.6h-.75c-1.1 0-2.62.52-3.13 1.06-.5.54-.6 1.7-.2 2.2.73.85 1.96.96 3.3.28zm-111.8-5.37v-6.9h1.56v2.34c0 1.28.05 2.33.1 2.33.07 0 .48-.2.93-.43.6-.3 1.17-.42 2.1-.42 1.6 0 2.44.43 3.05 1.62.4.8.43 1.1.43 4.62v3.75H40l-.06-3.8-.06-3.82-.63-.57c-.84-.74-1.9-.76-3.32-.06l-1 .5v7.75h-1.55v-6.9zm37.53 2.05v-4.85h.78c.58 0 .78.07.78.3 0 .17.06.28.14.24 1.57-.82 2.07-.97 2.8-.84.68.1.77.18.67.55-.06.24-.1.53-.1.67 0 .16-.35.24-1.06.24-.76 0-1.2.13-1.7.46l-.66.44-.05 3.83-.05 3.84h-1.55v-4.86zm42.2 0v-4.85h.67c.48 0 .68.08.68.3 0 .35-.02.35 1-.1 1.6-.7 3.25-.64 4.3.18l.5.4 1.13-.53c.86-.4 1.44-.52 2.4-.52 1.6 0 2.38.42 2.97 1.62.38.8.43 1.26.5 4.62l.08 3.75h-1.8v-3.6c0-3.9-.1-4.4-1-4.88-.78-.4-1.7-.35-2.8.2l-.96.48.06 3.9.06 3.9h-1.58v-3.62c0-3.93-.12-4.48-1.06-4.9-.76-.36-1.45-.3-2.58.24l-1.02.47v7.8h-1.56v-4.86zm37.12 0v-4.85h.67c.4 0 .73.1.84.3.17.28.28.27 1.04-.13 1.13-.6 3.1-.63 4.06-.07 1.4.83 1.46 1.02 1.52 5.55l.06 4.07h-1.57v-3.6c0-4.02-.1-4.52-1.15-4.96a4.18 4.18 0 0 0-3.2.4l-.7.42v7.74h-1.56v-4.86zm90.9 42.86c1.16-.17 2.17-.35 2.22-.4a4.5 4.5 0 0 0-.36-1.34c-.24-.68-.38-1.35-.3-1.48.08-.13.06-.18-.05-.1-.2.12-.7-1.2-.52-1.45.17-.3-.8-.4-1.7-.2-1.33.3-5.56.8-6.77.8h-1.07l-.73-1.37a4.46 4.46 0 0 1-.6-1.36c.07 0 0-.15-.16-.34-.26-.3-1.4-2.5-1.43-2.77 0-.05-.24-.56-.54-1.13-.3-.58-.5-1.17-.43-1.33.06-.15.03-.23-.07-.17s-.26-.14-.37-.43l-1.57-3.84c-1-2.42-1.44-3.3-1.66-3.28-1.4.13-6.14.95-6.14 1.07 0 .1.56 1.4 1.26 2.9.68 1.52 1.2 2.85 1.13 2.96-.07.12-.05.16.06.1.23-.15 1.66 2.73 1.5 3-.1.14-.06.17.07.1.14-.1.42.25.74.88.3.57.82 1.5 1.2 2.06.35.57.6 1.13.5 1.25-.06.1-.03.15.1.07.12-.08.32.06.45.3.12.25 1 1.56 1.97 2.92 1.7 2.42 1.76 2.46 2.62 2.6 3.44.5 7.03.5 10.65-.04zm4.65-.9c.97-.2 1.9-.4 2.1-.4.18-.02.33-.1.33-.16 0-.08.2-.2.47-.25.5-.13.6-.42.82-2.7.1-.98.22-1.37.44-1.45 1.15-.4 3.08-1.2 4.37-1.8l1.5-.74.7 1.38c.37.76.72 1.42.76 1.47.05.05.43-.14.86-.42.42-.3.82-.52.87-.52.27 0 2.82-2 2.82-2.2 0-.54-1.27-3.87-2.26-5.94-.58-1.2-1-2.3-.92-2.4.07-.12.03-.16-.07-.1-.1.08-.32-.1-.47-.4-.46-.9-2.17-3.7-4.03-6.62a31.15 31.15 0 0 1-1.78-3c0-.25-.93-.06-2.53.52-.7.25-1.83.64-2.53.85l-1.25.4-.34 2.8c-.66 5.56-1.3 12-1.6 15.9-.4 5.5-.42 6.22-.2 6.22.12-.02 1-.2 1.95-.43zm4.25-11c.07-.5.22-1.92.34-3.15.27-2.83.3-2.88.73-2.3.77 1 2 3.3 1.86 3.5-.08.13-.05.18.06.1.1-.06.33.16.5.5.3.62.3.64-.3 1-.3.2-.82.4-1.12.4-.3 0-.5.1-.44.2s-.04.12-.23.05c-.17-.07-.28-.06-.22.03.05.1-.2.26-.6.38l-.7.2.12-.9zm-24.6 10.44c.4-.14.66-.4.74-.68.14-.55-.07-1.82-.35-2.16-.12-.13-.14-.34-.06-.47.08-.14.07-.2-.03-.14s-.46-.3-.82-.8c-1.06-1.46-3.68-3.28-5.23-3.6-.73-.17-.75-.24-.3-.75.86-.93.13-3.5-1.46-5.18-.42-.43-.7-.83-.65-.9.07-.06.03-.08-.08-.05-.18.05-1.24-.54-1.45-.82-.06-.07-.8-.38-1.66-.67-1.5-.53-1.67-.55-5.15-.52-3.1.03-8.34.16-8.5.2-.07.04 1.48 2.12 1.94 2.64.2.2.28.46.2.58-.05.12-.04.15.04.08.1-.08.46.23.83.68a25.7 25.7 0 0 0 3.76 3.84l1.56 1.33a87 87 0 0 0 4.95 3.2c1.74 1 5 2.66 5.3 2.66.15 0 .23.07.18.15-.05.1.1.17.33.18.23 0 .77.18 1.2.37.92.4.84.38 2.42.74 1.6.36 1.57.35 2.3.1zm-8.28-4.05c-1.03-.3-1.4-.54-2.43-1.57l-1.22-1.22.66.12c.36.07.82.13 1.03.13.2 0 .33.07.28.16-.05.08.23.15.63.17 1.26.03 3.57 1.46 3.24 2-.08.12-.03.2.1.16.13-.04.27.05.32.18.13.35-1.14.3-2.62-.13zm-7-6.6a4.67 4.67 0 0 1-.63-.9c0-.06-.18-.3-.4-.53-.2-.23-.38-.5-.38-.58 0-.24 2.13-.16 3 .12.44.13.77.33.75.45-.03.12.1.2.3.2.17-.03.3.07.27.2-.02.14.05.22.18.2.32-.07.83.9.7 1.28-.1.26-.42.32-1.67.32h-1.52l-.62-.76zm45.16 4.64a.45.45 0 0 0-.35-.2c-.14 0-.12.08.06.2.36.23.43.23.28 0zm8-2.3c2.1-1.67 2.53-2.2 2.75-3.25.25-1.14.55-3.48.73-5.58.13-1.48.14-1.5.94-2.04.44-.3.84-.6.9-.66a44.7 44.7 0 0 1 2.65-2.18c.26-.17-.5 3.16-1.22 5.36-.54 1.63-.52 2.02.06 1.2.18-.27.6-.87.94-1.32.54-.73 2.42-3.96 2.42-4.14 0-.04.34-.8.76-1.68 1.88-4 2.72-7.6 3.23-13.82.12-1.48.1-1.52-.25-1.32-.2.1-.45.14-.54.06-.08-.08-.08 0 0 .14.13.2.08.24-.17.15-.2-.07-.3-.06-.25.02.1.16-1.82 1.32-2.06 1.25-.1-.03-.16.03-.16.12 0 .17-.9.67-1.26.7-.12 0-.25 1.56-.33 3.98-.13 4-.22 4.44-.88 4.2-.14-.05-.22 0-.2.12.06.3-2 1.73-2.27 1.58-.12-.06-.14-.04-.06.05.08.1-.3.45-.87.8l-1.03.63-.14-3.15c-.15-3.53-.3-4.8-.54-4.8-.1 0-.76.28-1.5.63a38.2 38.2 0 0 1-2.3 1.03c-.42.2-.93.32-1.13.3-.2-.03-.3.03-.24.14.06.1-.06.25-.28.32-.3.1-.34.2-.2.45.24.45.9 6.2 1.18 10.16.14 1.97.17 4.8.08 7.34-.07 2.27-.08 4.13-.02 4.13s.6-.4 1.23-.92zm-60.98-11.72c4.24-.34 6.8-.75 8.07-1.28.64-.27 1.27-.5 1.4-.5.13-.02.2-.08.16-.15-.05-.07.17-.35.47-.64.93-.87 1.27-1.8 1.27-3.53 0-2.14-.58-3.65-2-5.18a5.08 5.08 0 0 0-1.15-1.08c-.05.05-.45-.08-.9-.28a4.4 4.4 0 0 0-1.44-.37h-.63l.68-1.03c1.28-1.93 1.33-4.32.15-6.7-.4-.8-.73-1.12-1.68-1.7a3.73 3.73 0 0 0-2.56-.68c-1.73 0-2.78.3-6.2 1.83-5.5 2.43-5.16 2.23-5.16 3.12 0 1.08.52 5.23.87 6.94.7 3.3 2.3 7.33 4.3 10.78.43.73.55.8 1.1.73l3.25-.3zm-.96-6.34a7.53 7.53 0 0 1-.53-1.9c.1-.24 2.8-.9 3.7-.9 2.08 0 3.3 2.9 1.55 3.7-.5.22-3.2.8-3.78.8-.23 0-.5-.5-.93-1.7zm-2.06-6.72c-.2-.55-.67-2.8-.67-3.2 0-.34.15-.46.7-.56.36-.07.72-.2.77-.3.2-.3 1.85-.43 2.34-.17.26.13.43.3.38.4-.05.07.04.18.2.24.2.08.3.4.3 1.02 0 .78-.1 1-.67 1.53-.68.65-2.24 1.2-2.65.96-.15-.1-.2-.07-.1.08.08.13 0 .22-.17.22s-.35-.1-.4-.24zm21.63 10.35c1.7-.32 4.68-.94 6.6-1.37 6.1-1.37 7.56-1.8 7.14-2.1-.1-.07-.32-.6-.5-1.2l-.84-2.8-.53-1.7-.6.13c-.34.07-.74.15-.9.16-.16 0-.34.07-.4.13-.12.14-9.13 2.4-9.2 2.3-.05-.04-.62-1.8-1.28-3.9a206.34 206.34 0 0 1-3.7-14.2c-.2-1-.3-1.12-.7-1.12-.25 0-.5.08-.56.18-.06.1-.44.24-.84.32-.9.2-.83.17-1.4.44-.28.13-1.07.44-1.76.7l-1.27.47.05.75c.08 1.26 1.5 7.38 2.58 11.05.33 1.15.56 2.2.5 2.34-.04.13 0 .34.12.45.23.22 2.5 6.73 2.55 7.27 0 .2.07.34.14.34s.28.45.47.98c.28.78.44.97.8.97.23 0 1.83-.26 3.54-.58zm15.27-3.5c.18 0 .53-.08.78-.18.24-.1 1.5-.48 2.8-.84l2.4-.64.1-1.26.26-2.43.14-1.16 2.04-.6a82.1 82.1 0 0 0 3-.92c.5-.18 1.02-.3 1.1-.23.1.06.18.03.18-.06 0-.1.37-.27.83-.4.78-.2.83-.2 1.25.3.24.3.4.65.34.8-.06.13-.02.2.1.13.1-.08.5.4.9 1.05.4.64.8 1.17.9 1.17.27 0 6.24-2.18 6.43-2.35.1-.1-.2-.73-.68-1.47a6.4 6.4 0 0 1-.8-1.47c.02-.08-.03-.15-.12-.15-.08 0-.37-.33-.64-.73-.95-1.42-3.03-4.44-3.64-5.28-.34-.46-.56-.94-.5-1.05.08-.1.04-.14-.08-.07-.12.08-.5-.32-.93-.95a210.48 210.48 0 0 0-6.9-9.26l-1.75-2.27-.82.26c-.45.14-1.85.5-3.1.8-1.5.35-2.3.63-2.3.8 0 .13-.06.25-.16.25s-.12.2-.08.47c.05.25 0 1.5-.12 2.77-1.07 11.86-2.2 24.38-2.22 24.87-.04.56-.02.57.45.33.27-.14.64-.26.82-.26zm6.64-14.5c.08-1.06.18-2.87.25-4.02l.12-2.08 1.26 1.74c.7 1 1.2 1.86 1.1 2-.07.1-.04.16.07.1.1-.08.6.5 1.12 1.25.92 1.38.94 1.65.15 1.74-.3.02-.3.02-1.65.43-.6.2-1.22.28-1.34.2-.14-.1-.18-.06-.1.08.1.15.03.24-.14.24-.16 0-.43.06-.62.13-.3.1-.32-.04-.2-1.8zm18.93 6.16c.84-.3 2.2-.84 3-1.18l1.48-.62-.54-3.14c-.3-1.74-.68-3.7-.85-4.36-.15-.67-.28-1.34-.28-1.5 0-.2.9-.6 3.12-1.3 1.73-.54 3.16-.96 3.2-.92.26.27 1.03 4.45 1.36 7.4.06.62.16 1.12.2 1.12.18 0 4.85-2.36 5.03-2.53.24-.23-.2-5.4-.7-7.96-.46-2.4-1.6-5.93-2.7-8.3-.42-.9-.77-1.74-.77-1.82 0-.08-.23-.5-.5-.94-.4-.6-.63-.77-.94-.7-.22.04-1.32.17-2.44.3-2.33.25-2.73.33-2.73.58 0 .1.28.76.6 1.47.34.7.63 1.48.64 1.73 0 .25.06.4.1.36.13-.1 1.35 3.22 1.37 3.7 0 .25-.1.32-.32.23-.18-.07-.37-.05-.44.05-.1.15-4.2 1.24-4.87 1.3-.16 0-.4.1-.54.17-.15.1-.3.13-.32.1-.2-.24-.67-2-.6-2.14.07-.1.04-.17-.06-.17s-.27-.33-.38-.73c-.22-.8-1.17-3.37-1.7-4.6-.25-.6-.4-.72-.74-.63-.23.06-1 .2-1.7.3-2.06.34-4.1.75-4.2.86-.05.05.25 1.04.67 2.2a140.57 140.57 0 0 1 5.5 19.95c.26 1.27.48 2.3.5 2.3l1.56-.57zm-68.27-8.35c.2-.18 1.54-.93 3.94-2.2.78-.4 1.56-.83 1.75-.93a106 106 0 0 1 2.16-1.08c2.9-1.42 4.3-2.52 5.7-4.54a9.9 9.9 0 0 0 1.52-7.44c-.34-1.6-1.32-2.7-2.45-2.73h-.9c-.1.02.1-.37.44-.87 1.03-1.47 1.58-3.1 1.7-4.94.2-3.24-.92-4.2-3.1-2.68-.35.24-.76.6-.9.8-.16.22-.78.97-1.37 1.7a26.53 26.53 0 0 0-2.85 3.97c-.2.32-.64 1.06-.95 1.65-.3.6-.7 1.3-.88 1.56-.56.83-2.52 5.57-3.03 7.35-.9 3.07-1.75 10.54-1.2 10.54.14 0 .34-.07.44-.16zm4.56-8.03c0-.23.16-.54.34-.7.2-.15.23-.2.08-.14-.2.12-.24-.08-.18-1 .04-.62.1-1.26.16-1.42.18-.57 2.9-2.53 3.53-2.53.57 0 .93.47.93 1.23 0 1.5-.77 2.47-3.25 4-1.47.9-1.6.95-1.6.57zm1.17-8.48c0-.08.17-.8.37-1.6.35-1.33.48-1.56 1.55-2.6.64-.6 1.26-1.07 1.37-1 .26.17.24 1.14-.04 1.42-.13.12-.17.22-.1.22.36 0-.72 1.58-1.77 2.58-1.16 1.1-1.4 1.27-1.4.97zm5.14 11.62c.07-.12 0-.15-.18-.08-.34.12-.4.26-.12.26.1 0 .23-.08.3-.2zm6.82-3.68c.46-.44 10.97-4.24 13.23-4.8.4-.1 2.85-.9 2.95-.98.03-.02-.22-1.17-.56-2.54a84.87 84.87 0 0 1-.68-2.8c-.02-.15-.2-.3-.4-.33-.53-.08-5.14 1.43-8.2 2.7-.76.3-1.47.56-1.58.56-.37 0-1.57-8.22-1.98-13.7-.14-1.72-.27-3.15-.3-3.2-.1-.1-1.73.85-3.17 1.9l-1.44 1.04.1 6.54c.1 6.56.17 7.3 1.23 14.87.1.88.36 1.12.76.75zm19.33-6.65c1.1-.32 2.14-.53 2.28-.48.14.05.2.02.16-.07-.06-.1.38-.27.96-.4s1.06-.3 1.06-.37c0-1.1.2-4.18.3-4.3.04-.1.37-.22.72-.28l1.12-.24c.8-.2 3.94-.83 4.64-.95.36-.06.75-.17.85-.24.26-.16 2.1 1.9 2 2.23-.06.13-.03.2.06.14.26-.16 1.25 1 1.08 1.27-.1.15-.06.2.06.12.23-.14 2.26-.55 5.1-1.02 2.1-.36 1.9-.33 5.6-.78 2.6-.32 2.78-.36 2.72-.74-.03-.23-.1-.45-.16-.5-.06-.06-.66-1.15-1.34-2.43a61.65 61.65 0 0 0-1.9-3.38l-.67-1.06 2.88.14c2.32.1 2.98.2 3.36.47.46.36 2.2 2.7 2.93 3.94.2.38.64 1.1.94 1.64l.56.95 2.78-.04a25.5 25.5 0 0 0 2.96-.15c.08-.06-.1-.42-.42-.8-.32-.4-.53-.78-.48-.86.05-.1.02-.17-.08-.17-.27 0-1.8-2.27-1.64-2.44.08-.1.04-.1-.08-.03-.27.15-1.1-.92-.9-1.13.1-.08.06-.12-.04-.08-.1.03-1.1-.84-2.2-1.93-1.1-1.1-2.05-2-2.13-2-.1 0-.42-.23-.74-.53a48.7 48.7 0 0 0-5.83-3.77c-2.1-1.05-3.24-1.52-3.65-1.5-.38 0-.34.07.33.62a47.7 47.7 0 0 1 4.2 4.03c0 .24-1.06-.06-1.32-.38-.14-.17-.2-.2-.14-.06.13.24-.3.24-2.72-.06-1.4-.17-1.7-.28-1.57-.6.06-.16.04-.24-.06-.18s-.7-.6-1.35-1.5c-.65-.88-1.64-2.1-2.2-2.7-1.04-1.1-1.06-1.12-2.7-1.4-2.48-.43-3.5-.55-3.5-.42 0 .07.33.57.74 1.13a73.33 73.33 0 0 1 6.53 10.94c1.6 3.23 3.22 6.84 3.22 7.15 0 .1-.22 0-.5-.26-.26-.26-.44-.58-.38-.73.05-.13.02-.2-.07-.15-.1.06-.46-.22-.82-.62a890.72 890.72 0 0 1-4.35-4.8l-2.34-2.54a300.2 300.2 0 0 0-2.47-2.67c-.3-.3-.5-.54-.46-.54.04 0-.54-.6-1.28-1.3a9.47 9.47 0 0 1-1.28-1.37c.03-.04-.43-.57-1.03-1.18a62.8 62.8 0 0 1-2.1-2.27c-.82-.96-1.08-1.14-1.6-1.13-.73.02-4.37.45-4.44.52-.03.03-.14 1.75-.24 3.82-.24 4.9-.5 8.16-1.1 13.97-.8 8.04-.77 7.28-.34 7.12.2-.1 1.3-.42 2.4-.73zm4.46-14.3v-3.23l1.26 1.53c.7.84 1.23 1.64 1.18 1.76-.05.13.02.2.15.15.13-.04.6.42 1.07 1.03l.84 1.12-2.2.43-2.25.45c-.02 0-.04-1.45-.04-3.23zm-33.05 3.5c0-.16-.37-.25-.45-.1-.06.08.02.16.18.16.15 0 .28-.03.28-.06z"/>
    <path style="isolation:auto;mix-blend-mode:normal" color="#000" overflow="visible" fill="none" d="M0 1200h300v300H0z"/>
    <g fill-rule="evenodd">
        <path d="M169.54 1304.67h66.87v155.3H81.07v-113.95h88.48v-41.35z" fill="#333"/>
        <path d="M63.6 1240.03h105.94v64.64H81.06v41.35H63.6v-106z" fill="#585858"/>
        <path d="M81.06 1346.02h88.48v-41.35H81.06v41.35z"/>
        <path d="M129.85 1392.6l-4.88 1.06-.47.13-.2.33-.07.33.07.34 2.67.2v20.6l-2.27.68-.4.27-.2.4v.53l1.47-.07h4.36l1.6.08.47-.07.47-.25.26-.34.2-.46-3.08-.73v-23zm62.52.06l-4.82.87-.6.2-.34.27-.12.4.13.4 2.9.2v7.36l-.88-.27-.94-.08-.87-.06-1.4.13-1.33.33-1.27.6-1.07.8-1 1-.74 1.2-.62 1.4-.4 1.62-.13 1.74.13 1.6.34 1.47.53 1.27.74 1 .8.8 1 .54 1.13.4 1.27.14 1.4-.14 1.22-.4 1.07-.67 1-1v2.15l4.07-.67.74-.2.55-.34.26-.46.08-.6-2.8-.34v-22.68zm-94.9 3.27l-1.62.07-1.27.07-.94.13-.74.2-.46.14-.34.33-.2.4.07.47 2.68.34v17.53l-1.95.54-.53.27-.33.48.06.6 1.07-.07h4.82l.73.08h.67l.73.07h1l1.68-.14 1.55-.45 1.27-.67 1-.94.8-1.2.48-1.34.13-1.6-.13-1.15-.47-1.07-.74-1-1-.8-1.28-.74-1.54-.4 1.4-.74 1.07-.8.74-.94.4-1.13.12-1.28-.13-1.33-.48-1.14-.73-.94-1.08-.8-1.28-.53-1.6-.4-1.74-.07h-1.94zm.12 1.54l1.66.07 1.34.34 1.07.46.88.67.53.82.33.86.15 1-.14 1.08-.32 1-.53.8-.74.54-.93.4-1 .14H97.6v-8.17zm59.16 4.35l-4.9 1-.4.2-.26.28-.06.4.06.4 2.68.2v11.3l-2.2.8-.4.28-.27.33.07.48 2-.07h4.02l2 .08.54-.07.4-.25.34-.34.13-.46-.66-.13-.87-.12-.8-.2-.67-.14-.54-.07-.2-.06V1407l1.07-1 1.07-.6 1.07-.2.87.12.87.34.48-.67.27-.8.13-.87-.06-.6-.34-.47-.47-.27-.65-.14-.94.2-.93.6-.94.88-.8 1.14-.67 1.33v-4.15zm-15.06.07l-1.4.12-1.34.27-1.14.53-1 .73-.88.87-.6 1.07-.4 1.2-.13 1.4.14 1.22.47 1.07.6.92.88.74.94.6-.87.74-.6.6-.47.6-.27.47-.2.4v.47l.08.54.26.47.54.53.8.47-1.07.8-.8.8-.6.88-.4 1-.13 1.07.14 1.07.47.87.67.67.87.6 1.22.4 1.33.28 1.55.07 1.94-.2 1.8-.54 1.68-.86 1.4-1 1.07-1.28.66-1.27.27-1.4-.13-.95-.4-.87-.67-.67-.94-.45-1.15-.4-1.4-.2-1.68-.07-1.54-.07-1.2-.12-.87-.14-.54-.27-.33-.33-.15-.34.14-.46.32-.6.6-.8.8.12.74.07 1.74-.2 1.48-.4 1.27-.74 1-.94.74-1.14.46-1.34.13-1.4-.08-.94-.26-.8-.4-.67-.54-.67.53.13h.87l.6-.06.47-.27.4-.4.13-.67v-.34l-.07-.2-.8.06H144.77l-.67-.07-.46-.07-.6-.14-.67-.14-.67-.07zm-24.5.06l-1.4.2-1.28.47-1.2.73-1.07 1-.94 1.34-.66 1.54-.47 1.74-.13 1.94.07 1.6.34 1.35.54 1.13.6.94.8.74.87.6.94.4 1 .2 1 .14 1.6-.14 1.48-.33 1.2-.54.94-.6.6-.66.2-.67v-.33l-.13-.2-.15-.2-1.13.66-1.34.47-1.54.14-1.27-.13-1.07-.33-.94-.6-.8-.87-.54-1.14-.33-1.34-.15-1.55v-.2l.07-.2v-.53h8.97l.2-.67.12-.8v-.68l-.13-1.27-.55-1.13-.8-.94-1-.67-1.2-.47-1.35-.14zm86.62 0l-1.34.2-1.34.47-1.2.73-1.08 1-.94 1.34-.67 1.54-.46 1.74-.15 1.94.14 1.6.25 1.35.54 1.13.66.94.73.74.93.6.94.4 1 .2 1 .14 1.6-.14 1.42-.33 1.26-.54.94-.6.6-.66.2-.67-.06-.33-.07-.2-.14-.2-1.13.66-1.34.47-1.54.14-1.27-.13-1.14-.33-.93-.6-.73-.87-.54-1.14-.34-1.34-.13-1.55v-.93h9.04l.13-.67.14-.8.06-.68-.2-1.27-.47-1.13-.8-.94-1-.67-1.2-.47-1.4-.14zm-32.47 0l-1.74.2-1.66.47-1.68.93-.87.6-.54.54-.27.54-.07.53.13.4.27.34.46.2.66.07.87-.06.14-.93.33-.8.54-.54.67-.33.8-.2.95-.07.73.2.6.47.4.8.27 1.14.07 1.4v1.81l-4.28.8-1.27.34-1 .46-.74.53-.54.66-.34.8-.07.87.12 1.08.47.88.66.8.8.6.94.4 1 .14 1.4-.14 1.15-.33 1.07-.6.87-.8.53.8.6.6.67.33.8.14.67-.14.6-.4.47-.53.34-.6-.8-.27-.6-.4-.4-.4-.28-.6-.07-.75-.06-1.4v-2.42l.06-1.6.07-1.6v-.95l-.13-.93-.27-.8-.4-.74-.54-.6-.67-.54-.88-.27-1.07-.14zm-30.32 1.74l1.07.13.94.47.67.67.48.8.33 1 .08 1.07-.07.88-.26.86-.4.8-.6.6-.8.48-1 .13-1-.14-.88-.4-.74-.6-.6-.8-.33-1-.15-1.15.14-1.06.25-.94.47-.73.67-.6.8-.34.93-.13zm-24.63.06l1.14.14.87.47.6.73.35.94v1.07l-6.23.14.4-1.2.6-1 .74-.67.74-.47.8-.14zm86.6 0l1.15.14.87.47.67.73.32.94v1.07l-6.3.14.48-1.2.54-1 .73-.67.8-.47.74-.14zm-16.86.14l1.2.07 1.08.33 1.07.6v9.3l-.68.6-.87.47-.87.34-.87.14-1.13-.13-.93-.46-.8-.67-.67-.94-.48-1.13-.27-1.27-.14-1.48.13-1.6.26-1.28.47-1.07.6-.8.8-.6.94-.27 1.14-.13zm-88.55 3.28l1.73.06 1.48.27 1.28.48 1 .53.8.75.54.8.33.87.14 1-.2 1.14-.42.94-.66.8-.8.6-.94.4-1 .14H99.8l-.87-.06-.67-.07-.67-.13v-8.5zm74.75 4.08v3.13l.07.6-.87.47-.93.34-1 .08-.68-.07-.6-.26-.54-.47-.33-.6-.14-.74.07-.53.27-.54.54-.4.8-.27 3.36-.74zm-33.8 7.16l.6.13.74.07.86.07 1.07.05 1.28.07 1.08.13.8.27.6.4.4.47.2.53.07.67-.2.73-.47.74-.8.67-1 .53-1.14.4-1.27.14-1.28-.13-1.14-.26-.8-.46-.6-.6-.4-.8-.15-.88.22-1.07.53-1 .8-.88zm-22.22 4.4l-4.88.95-.4.2-.27.27-.14.4.07.33 2.75.27v20.6l-1.87.68-.4.27-.14.4.07.46h1.55l1.8-.07 1.55.06h1.8l.27-.14.34-.13.28-.34.2-.54-2.55-.67v-9.57l.94-.73.8-.54.74-.32.68-.2h1.54l.67.2.52.33.47.55.26.67.13 1 .06 1.2v7.43l-.73.27-.6.13-.48.14-.13.05-.47.27-.2.47v.46h1.8l2.15-.07 1.6.06H127.8l.27-.14.33-.13.27-.34.13-.54-2.74-.67v-8.02l-.07-1.6-.27-1.28-.47-1.07-.6-.73-.8-.54-1-.33-1.14-.07-.95.07-.8.13-.8.34-.88.47-.93.67-1 .8v-11.84zm-6.96 3.36l-1.14.13-1.4.08-1.48.07H98.74l-2.14-.07-2.3-.07-2.4-.05-.73 5.88.53.14.47-.14.4-.33.4-.67.4-1 .67-1.88h4.82v17.6l-2.2.47-.6.27-.28.46.07.6h1.94l1.2-.07h1.27l1.47.06h2.29l.53-.07.47-.2.27-.4.12-.6-3.48-.55v-17.53h3.96l1.06-.13.8 2.73.34.74.4.4.54.2.8-.14-.47-5.95zm53.75 2.2l-.94.28-.94.33-.86.53-.07 2.94-.53.13-.67.07-.67.13-.46.14-.14.13-.13.2-.07.2V1433.94l2.68.4-.06 2.48-.07 2.68-.06 2.67v2.54l.07 1.08.27.88.47.66.6.47.88.26 1.08.07 1.13-.07 1.13-.27 1-.48.87-.66.27-.47.13-.55-.06-.54-.94.42-1.07.26-1.07.14-.47-.07-.4-.07-.35-.2-.2-.4-.2-.6-.13-.87-.07-1.2v-8.09l1.27.14 1.34.07.6-.06.54-.13.4-.2.27-.46.07-.6v-.34l-.07-.26h-4.42V1429.93l.07-1.54zm11.85 3.7l-4.96 1-.4.2-.26.26-.06.4.06.4 2.68.2v11.3l-2.2.75-.4.25-.2.4v.4l2-.06h2l2 .06h2.1l.46-.07.4-.2.33-.34.2-.54-.72-.07-.8-.2-.87-.13-.66-.13-.54-.08-.13-.07v-8.63l1-1 1.07-.6 1.07-.2.88.13.87.33.47-.73.27-.8.12-.8-.06-.68-.34-.47-.47-.27-.67-.06-.93.2-.94.53-.93.88-.73 1.13-.67 1.42v-4.15zm-38.02.12l-1.4.14-1.28.46-1.27.8-1.07 1-.87 1.28-.74 1.54-.4 1.8-.2 1.95.13 1.54.34 1.35.46 1.13.66 1 .8.74.88.54.94.4 1 .27 1 .06 1.6-.14 1.48-.33 1.2-.47.94-.6.6-.67.2-.75v-.27l-.13-.27-.13-.12-1.14.67-1.34.4-1.54.2-1.27-.13-1.06-.4-1-.6-.74-.8-.53-1.15-.34-1.33-.13-1.6v-.35l.06-.2v-.4h8.97l.2-.68.07-.73.07-.68-.2-1.34-.47-1.07-.8-.93-1-.67-1.2-.46-1.35-.14zm14.46 0l-1.8.14-1.67.53-1.6.87-.88.67-.54.54-.25.54-.07.47.07.47.26.27.48.18.74.14.87-.07.12-1 .34-.74.53-.52.6-.4.86-.14.94-.06.74.13.53.55.47.8.27 1.14.08 1.4V1439.8l-4.3.87-1.26.33-1 .4-.74.54-.53.67-.34.8-.06.94.14 1 .47.94.6.8.87.6.94.34 1 .13 1.4-.07 1.14-.4 1-.54.94-.8.54.8.53.53.68.4.8.06.74-.14.6-.33.48-.54.33-.68-.8-.27-.6-.33-.4-.47-.28-.53-.13-.8V1440.3l.07-1.6.05-1.55v-1l-.13-.87-.27-.8-.4-.8-.53-.6-.67-.48-.87-.26-1.07-.14zm36.95 0l-1.4.14-1.27.46-1.2.8-1.15 1-.87 1.28-.67 1.54-.47 1.8-.14 1.95.06 1.54.33 1.35.53 1.13.6 1 .8.74.87.54.94.4 1 .27 1 .06 1.62-.14 1.47-.33 1.2-.47.94-.6.6-.67.2-.75v-.27l-.13-.27-.13-.12-1.13.67-1.34.4-1.54.2-1.28-.13-1.07-.4-.94-.6-.8-.8-.53-1.15-.33-1.33-.14-1.6v-.15l.07-.2V1438.9h8.97l.2-.68.13-.73v-.68l-.13-1.34-.53-1.07-.8-.93-1-.67-1.2-.46-1.35-.14zm-52.2 1.74l1.07.2.93.47.6.68.34.94v1.13l-6.23.14.4-1.22.6-1 .67-.74.8-.4.8-.2zm51.4 0l1.07.2.94.47.6.68.33.94v1.13l-6.23.14.4-1.22.6-1 .74-.74.75-.4.8-.2zm-35.14 7.5v.8l-.06.74v.8l.07.8.08.67-.87.47-1 .33-.93.07-.67-.07-.67-.33-.47-.4-.4-.6-.14-.74.14-.6.26-.47.54-.4.8-.26 3.35-.8z" fill="#fff" stroke="#fff" stroke-width=".07265049999999999" stroke-linejoin="round" stroke-miterlimit="10"/>
    </g>
    <g color="#000">
        <path style="isolation:auto;mix-blend-mode:normal" overflow="visible" fill="none" d="M0 1500h300v300H0z"/>
        <path d="M242.84 1613.6c-.1 0-.2.06-.32.2-.25.25-.27.4-.3 2.96a29.27 29.27 0 0 1-.12 2.88c-.05.1-.2 1.22-.32 2.47l-.4 4c-.1.96-.2 2.16-.2 2.68 0 .53-.06 1.02-.13 1.1-.07.05-.14.85-.16 1.75l-.04 1.63-.38.12c-.2.06-.5.16-.64.23-.68.3-5.3.87-7.26.88a4.2 4.2 0 0 0-1.37.14c-.04.08-1.2.12-3.08.12-2.92 0-3.32.05-3.32.4 0 .05.5.56 1.14 1.12l1.14 1.02h1.88c2.4 0 7.25-.24 7.58-.38.32-.14 4.24-.25 4.32-.13.1.16-.23 3.8-.34 3.8-.14 0-.14 2.85 0 3 .23.25.28 1.02.1 1.27-.25.32-.28 2.98-.05 3.36.13.2.13.3 0 .5-.26.43-.2.62.26.66.34.04.42.1.45.4.02.2-.05.52-.16.74-.22.45-.26 1-.08 1.2.07.06.18.5.26.98.13.85.02 2.2-.25 2.82-.14.32-.38 1.94-.38 2.53 0 .25-.05.45-.12.45-.37 0-.35 7.64.02 8.1.17.2.03.53-.22.53-.12 0-.2.13-.2.37 0 .22-.17.6-.43.95a3.5 3.5 0 0 0-.45.67c0 .04-.22.37-.5.73-.25.35-.5.7-.52.78-.1.25-1.94 2.62-3.88 5-.2.23-.65.9-1.03 1.45a4.2 4.2 0 0 1-.82 1.04c-.08 0-.26-.2-.4-.45-.26-.42-.27-.63-.27-3.4 0-1.9.06-3 .15-3.1.13-.16.24-.76.36-2.14.04-.37.12-.8.17-.94.2-.47.4-1.46.4-1.96 0-.27.05-.53.1-.57.07-.04.15-.28.2-.54.03-.28.1-.72.18-1l.27-1.08a244.7 244.7 0 0 1 1.4-5.7c.14-.6.3-1.3.4-1.53.06-.26.12-.98.12-1.6 0-1-.05-1.25-.34-1.8-.53-1-.77-1.2-2.27-1.83a6.38 6.38 0 0 0-2-.36c-.33 0-.63-.05-.68-.12-.04-.07-.48-.13-.97-.13-1.3 0-3.97-.26-4.02-.4-.02-.06-.16-.1-.3-.1-.65 0-2.2-.6-2.7-1.06-.13-.13-.3-.23-.4-.23-.07 0-.26-.3-.42-.66a24.3 24.3 0 0 0-.4-.88c-.06-.12-.1-.33-.1-.47 0-.14-.06-.28-.13-.33a6.32 6.32 0 0 1-.13-1.77c0-1 .05-1.73.13-1.78.17-.1.16-2.23-.03-3.17-.16-.83-.65-1.7-1.07-1.9a3 3 0 0 1-.48-.32 5 5 0 0 0-1.62-.77c-.12 0-.26-.04-.3-.1-.05-.08-.22-.14-.38-.14-.17 0-.34-.06-.38-.13-.05-.07-.33-.12-.64-.12-.3 0-.6-.05-.63-.12-.05-.07-.25-.13-.46-.13-.2 0-.38-.05-.38-.1 0-.07-.24-.15-.54-.2-.3-.04-.73-.1-.97-.16-.36-.08-.47-.04-.77.32-.2.22-.4.58-.44.8-.06.23-.15.47-.2.54-.27.34-.42 2.84-.28 4.67.08 1.02.2 1.95.27 2.08.05.14.17.65.26 1.16.08.5.2.92.26.92s.12.16.12.35c0 .2.1.58.25.86a17.12 17.12 0 0 0 1.67 3.36c.05 0 .1.07.1.17 0 .76 2.04 1.85 3.48 1.85.36 0 .7.05.78.1.06.08.37.16.7.2 2 .24 3.06.6 3.47 1.14.22.3.23.4.1.94-.38 1.6-.6 2.35-.93 2.98-.06.12-.1.45-.1.72 0 .28-.07.54-.14.58-.07.05-.13.22-.13.38 0 .17-.06.34-.13.38-.06.05-.12.32-.12.62s-.08.67-.17.85c-.1.17-.24.86-.33 1.52-.1.65-.2 1.3-.27 1.45-.06.14-.2.85-.3 1.58l-.4 2.54c-.1.67-.18 1.47-.18 1.8 0 .3-.06.62-.13.7-.08.07-.14 1.27-.16 3.1l-.02 2.97.6.86c.34.47.7.85.8.85.1 0 .2.05.2.1 0 .27 3.48 2.32 3.92 2.32.07 0 .23.05.35.1.4.2.85.38 1.37.53.5.15.95.32 1.36.52.12.06.47.1.78.1.3 0 .6.07.65.14.05.07.3.13.58.13.27 0 .53.05.57.12.05.07.73.12 1.64.12 1.32 0 1.65-.04 2.26-.3 1.18-.47 1.34-.67 2.4-2.93.06-.13.18-.36.27-.5.37-.6.9-1.45 1.37-2.13.27-.4.5-.76.5-.8 0-.03.28-.42.63-.87.34-.44.63-.86.63-.92 0-.22.65-.83.8-.76.1.03.22.34.26.68.05.33.17.77.27.97.1.2.18.45.18.54 0 .1.06.2.13.2.08 0 .14.07.14.17s.33.55.75 1c.57.62 1 .92 1.92 1.38a16.1 16.1 0 0 0 1.95.86c.07.07.44.18.83.26.38.1.83.22 1 .3.4.2 4.42.2 4.85.02 1-.45 1.63-.8 2.08-1.14.7-.54 1.2-1.02 1.2-1.16 0-.07.12-.23.26-.36.13-.13.24-.3.24-.38 0-.08.1-.26.22-.4.36-.4.8-1.04.8-1.16 0-.06.17-.33.37-.6.2-.28.38-.55.38-.6.02-.07.18-.35.37-.64.2-.3.43-.7.5-.9.22-.48.42-.3.42.38 0 .7.23 2.35.37 2.52.05.07.16.52.25 1 .1.46.2.88.27.92a8.37 8.37 0 0 0 1.26 2.6c.06 0 .1.3.1.7 0 .55.06.7.23.77.65.22 1.43.65 1.95 1.08.32.28.65.5.73.5.08 0 .14.05.14.12 0 .07.06.13.13.13s.28.1.47.22c.43.28 2.67 1.04 3.1 1.05.16 0 .36.05.43.12.2.2.98.23 3.6.2 1.48 0 2.6-.08 2.74-.16.13-.07.54-.2.9-.3.38-.07.9-.25 1.18-.38.27-.13.56-.24.63-.24.1 0 .15-.06.15-.13s.08-.13.17-.13c.4 0 2.36-2 2.36-2.4 0-.1.1-.3.24-.5a4 4 0 0 0 .4-.84c.1-.28.22-.57.26-.64.04-.06.16-.4.25-.76.1-.35.2-.7.25-.76.05-.07.16-.58.25-1.14.1-.56.23-1.1.3-1.2.2-.24.2-8.48 0-8.9a9.15 9.15 0 0 1-.33-1.45 13.3 13.3 0 0 0-.86-3.17 2.9 2.9 0 0 1-.25-.65c0-.2-1.16-2.44-1.5-2.94l-.3-.4.45-.2c.25-.1.83-.42 1.28-.7.46-.27.85-.5.88-.5.25 0 4.65-3.26 4.65-3.44 0-.06.06-.1.14-.1.32 0 4.06-3.63 4.8-4.66.24-.34.52-.7.6-.8.1-.1.2-.33.25-.54.04-.2.12-.4.18-.43.3-.18-.1-1.08-.46-1.07-.07 0-.27.2-.44.47a35.3 35.3 0 0 1-3.2 3.27l-.94.73a46 46 0 0 1-4.48 3.02 36.55 36.55 0 0 1-4.38 2.14c-.2.07-.4.13-.46.13s-.3-.4-.55-.92c-.24-.5-.53-1-.65-1.1-.1-.1-.2-.24-.2-.33 0-.1-.05-.18-.1-.2a8.22 8.22 0 0 1-1.23-1.9c-.1-.35-.4-1.08-.6-1.42a1.2 1.2 0 0 1-.1-.47c0-.14-.06-.26-.13-.26s-.13-.23-.13-.5c0-.3.05-.5.12-.5.23 0 1.65-2.4 1.65-2.77 0-.08.1-.22.22-.3.24-.2.7-1.07.92-1.8.1-.3.13-1 .1-1.73a3.94 3.94 0 0 0-.44-1.98 5.27 5.27 0 0 0-2.52-2.42c-1.16-.6-1.86-.83-2.52-.83-.25 0-.5-.06-.53-.12-.03-.07-.35-.13-.7-.13-.33 0-.64.06-.7.13-.03.06-.23.12-.43.12-.2 0-.4.06-.45.13-.04.07-.2.13-.38.13-.17 0-.58.18-.9.4-.34.2-.65.37-.7.37-.15 0-.88.83-1.1 1.24-.08.2-.22.6-.3.9-.08.33-.2.68-.3.8-.1.1-.2.38-.25.62-.06.25-.15.5-.2.57-.05.06-.16.55-.25 1.08-.14.85-.14 1.97 0 4.94.02.36-.17.95-.4 1.3-.13.18-.24.4-.24.5 0 .1-.15.53-.35.94a54.6 54.6 0 0 0-1.05 2.24c-.06.12-.1.3-.12.38 0 .1-.1.3-.25.48-.13.17-.25.4-.25.48 0 .1-.12.43-.27.76a145.46 145.46 0 0 1-1.87 3.93c-.42.78-.94 2.15-1.53 3.97a129.46 129.46 0 0 1-1.02 3.05c-.08.24-.23.6-.32.82-.1.2-.34.8-.56 1.33a7.14 7.14 0 0 1-.57 1.14c-.1.1-.2.32-.25.48-.05.16-.13.3-.2.3-.04 0-.15.13-.23.3-.1.2-.2.3-.34.24-.16-.06-.18-.63-.18-4.37 0-2.73.04-4.33.12-4.38.08-.05.13-1.25.13-3.17 0-1.93-.05-3.13-.13-3.18-.06-.04-.12-.3-.12-.54 0-.26-.1-.96-.2-1.55a67.9 67.9 0 0 1-1.06-8.5c0-.47-.07-.9-.13-.96-.07-.07-.14-1.67-.16-3.65-.03-3.02 0-3.54.15-3.65.1-.07 1.72-.12 3.77-.12 2.24 0 3.6-.05 3.65-.13.04-.07.47-.13.95-.13s.9-.05.95-.12c.04-.07.2-.13.38-.13.8 0 2.35-1.04 2.35-1.58 0-.22-.07-.24-.9-.17-.84.07-.92.05-1.74-.38-.75-.4-1-.47-2.06-.53-.66-.04-2.03-.04-3.04 0-1 .05-2.46.1-3.2.1h-1.37l-.2-.46c-.16-.35-.23-1-.27-2.32-.06-1.72 0-2.46.35-4.57.08-.46.15-1.7.16-2.74.03-1.74 0-1.97-.28-2.72a6.04 6.04 0 0 0-2.14-2.9 7.04 7.04 0 0 0-2.56-1.3l-.5-.24c-.13-.07-.6-.2-1.04-.28a3.5 3.5 0 0 1-.87-.25 9.8 9.8 0 0 0-1.64-.24 10.54 10.54 0 0 1-2.02-.33zm-56.08.8l-.07.7c-.06.45-.28 1.08-.67 1.87-.32.65-.73 1.62-.92 2.15-.17.53-.36 1.02-.4 1.1-.06.06-.17.4-.26.73-.1.34-.27.82-.4 1.08-.13.25-.24.55-.24.67 0 .13-.05.25-.1.3-.07.03-.2.42-.27.86-.1.43-.2.85-.25.92a3.5 3.5 0 0 0-.25.7c-.08.3-.2.68-.26.82-.06.14-.18.6-.27 1.02a5 5 0 0 1-.25.9 5 5 0 0 0-.24.88c-.08.4-.2.87-.26 1-.06.15-.18.7-.26 1.22-.1.52-.2 1-.25 1.08-.05.07-.16.7-.26 1.43-.13 1.04-.22 1.34-.4 1.44-.4.2-.73.9-.73 1.47 0 .3-.1.8-.24 1.08-.13.3-.3.8-.4 1.1-.1.33-.2.65-.28.73-.06.1-.05.18.03.23.2.12.16.5-.06.9-.12.2-.26.54-.33.74l-.13.36-1.42-.05-1.43-.04v.37c0 .2-.1.45-.2.53-.16.12-.13.2.22.53.22.22.56.43.76.47.2.05.57.2.84.36l.5.27-.1 1.13a6.8 6.8 0 0 1-.2 1.33c-.05.1-.18.9-.3 1.78-.28 2.3-.64 4.73-.73 4.95-.06.1-.16.76-.24 1.46a11 11 0 0 1-.25 1.5c-.05.15-.16.8-.25 1.47-.08.66-.2 1.27-.26 1.35-.08.07-.18.44-.26.82a6.2 6.2 0 0 1-.38 1.23c-.14.3-.25.6-.25.66 0 .07-.04.23-.1.35l-.27.6c-.1.2-.2.48-.27.6-.06.13-.1.45-.1.73 0 .28-.07.55-.14.6-.07.03-.12.27-.12.52 0 .33-.1.53-.34.74-.3.26-.37.27-.73.12l-.4-.16-.06-3.66c-.03-2.02-.1-3.78-.17-3.92a15 15 0 0 0-.23-.52c-.14-.3-.1-.9.15-2.08.08-.38.17-.98.2-1.33.04-.34.1-.74.18-.88.22-.5.3-1.05.34-2.6.04-1 0-1.6-.08-1.7a.58.58 0 0 1-.13-.35c0-.27-1.36-1.76-1.6-1.76-.1 0-.18-.04-.18-.1 0-.06-.33-.25-.73-.42-.6-.24-.95-.3-2-.3-1.27 0-1.28 0-1.85.45-.62.48-1 .86-1.2 1.16a71.1 71.1 0 0 1-2.97 4.2c-.14.15-.26.3-.26.37 0 .06-.26.43-.57.8-.3.4-.6.8-.64.95-.2.67-.32.1-.32-1.78 0-1.47-.03-2.03-.13-2.03-.37 0-.62-.4-.62-1.04 0-.7-.2-.97-.73-.98-.16 0-.4-.05-.5-.1a9.22 9.22 0 0 0-.58-.27l-.7-.27-.56-.25c-.12-.07-.3-.12-.38-.12-.1 0-.82-.33-1.62-.73-.96-.48-1.5-.82-1.6-1-.13-.33-.37-.38-.52-.12-.18.32-.6.3-1.6-.06-.97-.35-2.12-.48-2.12-.24 0 .06-.1.2-.2.32-.2.18-.2.25-.04.54.2.4.24 2.4.03 2.55-.07.06-.2.4-.3.8-.1.38-.2.72-.26.76-.05.03-.14.26-.18.52-.08.33-.05.5.1.65.23.23.3 1.55.08 1.68a6.3 6.3 0 0 0-.13 1.8c0 1.67-.2 3.55-.38 3.8-.05.07-.17.44-.25.82-.1.4-.2.8-.28.93-.2.37-.15 1.25.08 1.93.12.35.25.96.3 1.37.03.4.1.76.17.8.14.1.12 1.06-.03 1.06-.06 0-.13.43-.16.93-.02.8-.06.94-.3 1.04-.24.1-.27.24-.32 1.4-.05 1.2-.07 1.3-.5 1.9a27.72 27.72 0 0 0-.78 1.15l-.35.5c-.5.8-.57.9-.7 1.04l-.82 1.07c-.38.5-1.1 1.4-1.6 2a23.86 23.86 0 0 0-2.2 3.02c0 .07-.2.34-.43.62-.38.45-.45.48-.62.3-.3-.3-.48-1.4-.48-2.98 0-1.7.22-4.45.38-4.8.06-.15.18-.85.26-1.57.08-.72.2-1.3.24-1.3.04 0 .16-.56.25-1.24.1-.7.2-1.3.27-1.37.05-.07.17-.6.27-1.14.1-.57.2-1.06.24-1.1.05-.03.16-.5.26-1 .1-.53.2-1.02.26-1.1.05-.06.16-.5.25-1 .1-.5.2-.95.26-1.02.05-.07.16-.53.25-1 .1-.5.2-.96.27-1.02.06-.07.1-.28.1-.48 0-.2.06-.35.13-.35.16 0 .17-2.46.02-2.77l-.26-.53c-.2-.45-.4-.65-.96-1.1-.47-.34-.73-.48-1.5-.8-.42-.18-2-.4-2.93-.4-.45 0-.86-.05-.9-.12-.05-.06-.44-.1-.87-.1-1.02-.02-3-.25-3.2-.38-.06-.06-.4-.15-.72-.2a1.8 1.8 0 0 1-.8-.27c-.1-.1-.23-.18-.3-.18-.17 0-.63-.25-.88-.48-.1-.1-.27-.22-.4-.28-.1-.06-.27-.33-.37-.6-.08-.27-.25-.7-.37-.93-.18-.4-.2-.97-.2-4.23 0-2.84-.05-3.8-.17-3.93a.55.55 0 0 1-.15-.3c0-.22-.44-.65-1.15-1.15-.7-.5-1.3-.78-1.92-.9-.26-.04-.48-.12-.48-.18 0-.05-.4-.17-.92-.25-.5-.08-1.03-.2-1.17-.25a4.08 4.08 0 0 0-.7-.2c-.25-.05-.7-.17-1-.27-.55-.2-.57-.18-.8.1-.42.52-.86 1.52-1 2.25-.3 1.6-.1 5.44.34 6.94a24.27 24.27 0 0 0 1.75 4.67c.25.5.46 1.02.46 1.18 0 .17-.14.72-.3 1.23a39.24 39.24 0 0 1-1.02 2.84c-.1.2-.3.72-.45 1.14-.15.42-.38 1-.5 1.27-.3.6-.98 2.2-1.22 2.86-.08.26-.4.9-.67 1.46-.3.55-.52 1.1-.52 1.2 0 .1-.1.34-.24.52-.14.17-.26.4-.26.5 0 .1-.12.34-.25.5-.14.2-.25.38-.25.44 0 .05-.18.35-.4.65-.2.3-.37.6-.37.66 0 .06-.1.18-.25.27-.14.08-.26.23-.26.3 0 .1-.38.57-.85 1.06a8.4 8.4 0 0 0-1.1 1.4c-.15.26-.44.58-.65.7-.52.3-1.44.3-1.84 0a1.2 1.2 0 0 0-.6-.26c-.3 0-1.55-1.33-1.56-1.65 0-.1-.1-.33-.25-.5a1.22 1.22 0 0 1-.25-.6c0-.17-.05-.4-.12-.52-.3-.6-.38-.94-.45-1.87a28 28 0 0 0-.15-1.5c-.06-.4-.04-.47.2-.47.13 0 .28-.07.33-.14.04-.07.26-.13.48-.13a4.9 4.9 0 0 0 1.7-.4c.05-.06.2-.1.37-.1a.8.8 0 0 0 .5-.25c.13-.14.3-.26.4-.26.17 0 .55-.54.55-.8 0-.1.1-.25.2-.34.1-.1.18-.25.18-.36 0-.27.54-1.04.72-1.04.22 0 .93-.63.93-.82 0-.1.1-.23.2-.3.1-.1.26-.5.37-.88l.33-1.12c.16-.52.16-2.93 0-3.03-.08-.05-.13-.2-.13-.35 0-.15-.06-.45-.12-.66-.07-.2-.2-.72-.28-1.12-.08-.4-.2-.77-.26-.8-.06-.04-.1-.17-.1-.3 0-.1-.12-.43-.26-.7a2.5 2.5 0 0 1-.25-.66 7.37 7.37 0 0 0-2.3-1.95c-.25-.22-.53-.4-.6-.4-.1 0-.15-.03-.15-.1 0-.15-2.56-1.53-3.5-1.88-1.8-.67-2.7-.93-3.48-1-.5-.05-.92-.14-.96-.2-.1-.14-2-.14-2.37 0l-.8.27c-.6.17-1.72.88-1.72 1.08 0 .08-.08.22-.2.3-.27.24-1.4 2.7-1.54 3.34-.04.22-.15.48-.24.57-.1.08-.2.44-.25.8-.05.33-.13.62-.18.62-.05 0-.17.16-.25.37-.3.68-1.64 1.7-2.75 2.1-.7.23-.94.17-.94-.2 0-.3-1.04-2.47-1.34-2.8-.1-.1-.2-.26-.2-.33s-.16-.35-.37-.62a2.6 2.6 0 0 1-.38-.6c0-.07-.16-.27-.35-.45-.2-.2-.45-.5-.58-.7-.12-.18-.3-.34-.4-.34-.1 0-.3-.05-.45-.12l-.52-.27a3.54 3.54 0 0 0-1.8-.03c-.23.16-1 .42-1.24.42-.1 0-.3.12-.46.26-.15.14-.32.25-.38.25-.14 0-.5.75-.6 1.2-.02.22-.1.57-.14.8-.04.23-.02.57.05.76.07.2.17.63.22.97.07.6.08.6.42.54.27-.05.43 0 .65.24.16.17.34.3.4.3.07 0 .44.28.84.6.4.32.82.62.92.66.1.03.42.22.7.4.28.2.82.42 1.2.5a9.7 9.7 0 0 1 1.44.44c.2.07.23.18.15 1.13-.04.58-.12 1.1-.17 1.18-.06.07-.17.67-.25 1.33-.1.68-.2 1.33-.27 1.47-.05.14-.16.66-.25 1.15-.08.48-.2.94-.25 1-.05.08-.16.5-.25.96-.08.46-.2.88-.25.95-.05.07-.17.47-.26.9-.1.4-.2.82-.27.9-.06.07-.16.44-.23.82-.07.38-.18.8-.24.94-.06.13-.18.5-.26.8-.08.33-.2.76-.28.97-.3.86-.64 2.08-.82 2.85-.1.46-.24.94-.3 1.08a8.2 8.2 0 0 0-.26.85c-.12.46-.22.6-.46.67-.48.12-.55 0-.55-.9 0-.45-.08-.98-.18-1.17a5.9 5.9 0 0 1-.34-1.04c-.1-.37-.2-.74-.27-.82-.06-.07-.2-.5-.3-.95-.24-1.15-.6-2.55-.72-2.85-.06-.14-.17-.6-.25-1-.07-.43-.2-.95-.26-1.17-.06-.2-.2-.9-.3-1.5a22.67 22.67 0 0 1-.52-3.98 9 9 0 0 0-.2-1.74c-.2-.43 0-4.57.34-6.5.08-.53.06-.57-.48-1.1a5 5 0 0 0-1.04-.75c-.25-.12-.46-.3-.46-.42 0-.2-1.43-1.68-1.64-1.68-.07 0-.2.24-.28.54l-.2.7c-.05.2-.9.1-1.12-.1-.06-.08-.33-.13-.58-.13-.53 0-.5-.05-.76 1.84-.2 1.64-.27 1.97-.4 2.04-.05.05-.1.3-.1.58 0 .5-.2 1.46-.4 1.96-.04.14-.16.63-.24 1.08-.1.45-.2.88-.27.95-.16.17-.13 2.15.03 2.3.15.16-.13 1.15-.46 1.66-.1.16-.2.35-.2.42 0 .08-.1.38-.24.67a61.96 61.96 0 0 1-3 6.16c-.2.26-.44.63-.54.82-.08.2-.44.65-.77 1.03-.34.38-.62.75-.62.82 0 .06-.1.15-.22.18-.13.03-.42.37-.63.74-.23.4-.55.76-.75.85-.4.2-1.4.2-1.5.03-.04-.07-.22-.13-.4-.13-.83 0-1.88-1.3-2.72-3.36-.1-.28-.2-.86-.32-2-.05-.4-.13-.77-.2-.8-.12-.08-.14-.7-.03-1 .05-.13.24-.2.5-.2.25 0 .44-.06.44-.13s.23-.12.5-.12c.28 0 .54-.05.58-.12.04-.07.25-.13.45-.13.33 0 .7-.15 1.5-.65.16-.1.5-.6.74-1.13.46-.96.86-1.5 1.1-1.52.5-.02 1.44-1.63 1.57-2.68.05-.34.13-.66.2-.7.13-.08.13-2.17 0-2.26a2.32 2.32 0 0 1-.2-.85c-.1-.9-.97-3.64-1.34-4.24a3.4 3.4 0 0 0-.73-.75c-.27-.2-.56-.47-.65-.6-.1-.1-.23-.2-.3-.2-.08 0-.43-.22-.8-.5-.65-.48-.77-.55-2-1.18-.4-.2-.76-.43-.8-.5-.04-.06-.16-.1-.26-.1s-.48-.15-.85-.3c-1.14-.5-1.66-.7-2.32-.86-.34-.07-.76-.2-.92-.28-.4-.2-3.95-.2-4.35 0l-.77.34c-.73.32-1.72 1.6-2.02 2.62-.08.28-.2.5-.24.5-.05 0-.16.25-.25.55-.1.3-.2.6-.26.66-.05.06-.17.38-.26.7-.1.3-.2.62-.26.7-.05.06-.16.43-.25.8-.1.4-.2.8-.27.9-.15.3-.36 2.36-.36 3.52 0 .57-.06 1.07-.13 1.1-.06.06-.12.46-.12.9 0 .45.06.85.13.9.08.03.14.53.14 1.1 0 1.15.22 3.34.37 3.7.07.15.18.64.27 1.1.08.45.2.87.26.94.07.07.12.26.12.43 0 .17.1.54.24.83.12.28.3.7.38.96a13.72 13.72 0 0 0 4.5 6.05c.22.1.57.33.8.5.45.35 1.94.88 3.02 1.1.97.17 3.4.17 4.63-.02 1-.14 2.55-.6 3.28-.98 1.94-1 3.8-2.9 5.42-5.58.33-.56.82-1.28 1.1-1.6.25-.3.6-.8.74-1.06.48-.84.88-1.63 1.02-2 .1-.3.17-.35.3-.23.1.08.22.36.26.62l.14.97c.05.27.13.62.18.76.24.6.4 1.18.4 1.5 0 .2.04.44.1.56.2.36.4 1.1.4 1.4 0 .3.23 1.34.4 1.73a9 9 0 0 1 .18 1.48c.05.9.13 1.26.26 1.3.1.05.18.2.18.37 0 .22.15.37.6.6.35.2 1.05.85 1.84 1.72 1.22 1.35 1.28 1.4 2.04 1.58.43.1.85.23.92.28.08.04.53.15 1 .22.48.08.98.2 1.1.27.3.16.7-.06 1.12-.6.52-.68 1.4-2.1 1.4-2.26 0-.1.12-.32.26-.5s.25-.4.25-.5c0-.1.13-.34.26-.5.14-.2.26-.4.26-.5 0-.07.1-.35.24-.6.35-.67.72-1.53.92-2.12.1-.27.2-.56.24-.63.04-.07.15-.38.24-.7.1-.3.2-.65.26-.76.05-.1.16-.5.25-.9.1-.38.2-.75.26-.82.05-.07.16-.56.25-1.08.08-.53.2-1.07.26-1.2a8 8 0 0 0 .4-1.85c.23-1.8.26-1.97.37-2.1.08-.05.13-.75.13-1.53 0-.82.05-1.46.12-1.5.07-.05.13-.57.13-1.15 0-.6.06-1.1.13-1.14.08-.05.13-.4.13-.8v-.73l.9-.03c.5-.02 1.17-.12 1.5-.23.3-.1.6-.15.66-.1.04.06.1 1.42.14 3.03.03 1.75.1 3.02.2 3.17.07.14.2.84.3 1.56.07.7.2 1.3.25 1.3.05 0 .1.13.1.3 0 .3.16.9.38 1.4.06.15.18.5.26.77.08.28.2.54.23.57.12.1.9 1.74.9 1.9 0 .07.05.14.1.14s.17.15.25.35c.1.2.26.5.38.66.43.57 2.5 2.66 2.65 2.66.08 0 .18.08.22.2.04.1.14.18.2.18.08 0 .37.14.64.3.57.36 1.62.74 2.68.98 1.55.35 6.32.07 6.78-.4a10.43 10.43 0 0 0 2.74-1.36 18.16 18.16 0 0 0 3.14-3.28c.1-.1.16-.2.16-.24 0-.05.14-.26.3-.5.18-.2.38-.53.46-.7.24-.55.48-.93.88-1.4.6-.7 1.03-1.3 1.03-1.47 0-.08.08-.22.18-.3.2-.16.83-1.46.83-1.7a8.45 8.45 0 0 0 .8-1.9c.22-.6.46-1.16.56-1.25.1-.08.17-.24.17-.36s.14-.47.3-.78c.18-.34.34-.92.4-1.45.05-.5.13-.94.2-1 .04-.08.16-.42.25-.77.1-.35.2-.7.25-.76.04-.07.16-.38.25-.68.2-.65.28-.7.66-.53.17.06.88.2 1.58.3 2.35.34 3.42.55 3.8.75.2.12.43.2.48.2.05 0 .26.18.46.4.37.38.4.7.15 1.32-.06.14-.17.57-.26.95-.08.4-.2.76-.24.83-.06.07-.17.44-.26.82-.1.4-.2.82-.25.96a8.04 8.04 0 0 0-.38 1.78c0 .18-.05.42-.12.54-.18.37-.4 1.4-.4 1.93 0 .28-.04.53-.1.57-.14.1-.27.75-.35 1.85-.04.44-.12.87-.2.94-.05.06-.1.33-.1.6 0 .25-.06.5-.13.54-.07.05-.13.6-.13 1.2 0 .63-.05 1.17-.12 1.22-.07.04-.13.47-.13.95s-.07.9-.14.95c-.08.05-.12 1.06-.12 2.6 0 2.37 0 2.55.28 3.05.3.56 1.8 2.03 2.1 2.03.08 0 .15.05.15.1 0 .07.1.16.23.2.24.07.94.48 1.04.6.04.04.3.16.57.25.3.1.67.28.86.4.18.12.44.23.57.23.13 0 .4.1.62.23.2.12.7.3 1.08.4.38.07.8.2.9.25.12.06.6.18 1.08.26.5.1 1 .2 1.13.26.4.18 1.15.22 2.78.18.87-.02 1.57-.1 1.65-.18a.55.55 0 0 1 .34-.13c.32 0 1.12-.74 1.34-1.25.4-.9 1.24-2.47 1.64-3 .15-.22.4-.64.58-.96.16-.3.57-.92.9-1.35a6.18 6.18 0 0 0 .74-1.1c.2-.24.92-1.24 1.27-1.77.36-.54.56-.6.77-.2.1.17.23.34.32.4.1.05.18.17.18.26 0 .1.18.3.4.47.73.53 1.25.88 1.36.88.05 0 .2.1.34.24.13.12.6.3 1 .4.43.1.85.24.95.3.24.2 4.8.2 5.2 0 .18-.08.67-.2 1.1-.3.84-.14 1.57-.44 1.57-.64 0-.16-.27-.62-.54-.93-.2-.22-.22-.55-.22-2.8 0-1.42.06-2.6.12-2.68.12-.13.2-1.26.34-4.44.04-.9.12-1.7.2-1.77.05-.08.1-.26.1-.42 0-.15.06-.32.13-.36.06-.04.12-.28.12-.52s.06-.43.13-.43.13-.1.13-.25c0-.13.05-.28.12-.32.07-.05.13-.17.13-.27s.12-.45.27-.78a43.04 43.04 0 0 0 .75-1.84c0-.08.1-.3.25-.47.14-.17.25-.4.25-.5 0-.3 2.53-5.2 3.08-5.97.12-.17.22-.38.22-.47 0-.26.72-1.26 1.2-1.7.82-.7.86-.62.8 1.43-.04 1-.13 2.1-.2 2.44-.1.35-.25 1.38-.37 2.3-.12.9-.28 1.72-.34 1.82-.2.3-.17 5.76.03 6 .1.12.2.85.28 1.9.12 1.88.26 2.3.88 2.75.72.52 3.82.63 4.75.2.2-.1.45-.2.54-.2.1 0 .18-.05.18-.12 0-.07.08-.12.2-.12.2 0 .2 0-.08 1.2l-.25 1.47a8.6 8.6 0 0 1-.25 1.2c-.05.15-.2.8-.3 1.47-.13.66-.3 1.52-.36 1.9-.08.38-.15.87-.16 1.08 0 .35.03.38.47.42.26.02.47.1.47.16 0 .14 1.52.15 1.75 0 .08-.05.2-.32.23-.6.04-.26.12-.55.17-.6.05-.08.17-.66.25-1.28.1-.63.2-1.2.26-1.27.06-.07.18-.7.26-1.4.08-.7.2-1.35.25-1.46.06-.12.18-.8.27-1.53.1-.74.2-1.4.26-1.46.05-.06.16-.8.26-1.6.08-.83.2-1.5.24-1.5.04 0 .16-.7.25-1.52.08-.84.2-1.53.26-1.53s.1-.22.1-.48c0-.27.06-.54.12-.6.07-.07.15-.5.18-.95.03-.45.13-1.1.2-1.46.1-.35.2-1.03.27-1.52.17-1.36.27-1.84.4-1.9.05-.05.1-.44.1-.88 0-.43.05-.84.12-.9.06-.08.14-.36.18-.64.1-.7.44-2.58.58-3.1.08-.25.2-.8.27-1.2.08-.43.2-.9.26-1.03a4 4 0 0 0 .2-.75l.07-.5.85.1c.47.04 2.42.12 4.34.18 1.9.05 3.64.14 3.83.2.3.08.35.16.35.6 0 .26.05.58.1.7.08.12.2.84.3 1.6.07.75.2 1.4.25 1.43.06.03.1.28.1.54s.06.53.12.6c.07.06.15.46.2.88.1 1.18.2 1.83.34 1.9.05.05.1.44.1.9 0 .43.05.83.1.87.15.08.28.75.36 1.85.04.45.12.88.18.94.07.07.12.24.12.4 0 .14.05.3.12.38.06.06.14.5.18.94.1 1.17.22 1.9.32 1.9.05 0 .17.62.26 1.37.1.75.22 1.42.27 1.5.06.06.17.75.26 1.52.1.76.2 1.42.25 1.46.05.04.17.73.26 1.53.1.8.2 1.52.26 1.6.06.06.18 1 .27 2.06l.15 1.94.42.36c.23.2.58.4.77.46.2.04.57.18.85.3.27.13.82.26 1.2.3l1.6.15c.48.05.93.14 1 .2.17.17 10.06.15 10.16-.02.05-.07 0-.23-.12-.36a.84.84 0 0 1-.2-.48c0-.24.16-.32 1.24-.62.26-.06.3-.13.2-.48a1.8 1.8 0 0 0-.17-.52 4.1 4.1 0 0 1-.25-.9c-.1-.4-.2-.8-.25-.88a6.35 6.35 0 0 1-.25-1.14c-.08-.56-.2-1.13-.26-1.27-.14-.34-.4-1.84-.4-2.33 0-.22-.03-.4-.1-.4-.05 0-.17-.62-.26-1.37-.08-.75-.2-1.47-.26-1.6-.13-.32-.4-2.14-.38-2.7 0-.24-.06-.42-.13-.42s-.13-.22-.13-.5c0-.27-.05-.53-.12-.57-.07-.05-.13-.5-.13-1.02 0-.5-.07-.96-.14-1-.07-.05-.13-.3-.13-.58 0-.27-.05-.52-.12-.57-.06-.04-.12-.46-.12-.93 0-.47-.05-.9-.1-.98-.13-.12-.23-.76-.36-2.15a2.57 2.57 0 0 0-.18-.9c-.07-.06-.12-.32-.12-.57 0-.25-.05-.5-.1-.58-.07-.06-.2-.7-.28-1.4-.1-.68-.2-1.34-.26-1.44l-.36-.74c-.15-.3-.27-.65-.27-.78s-.06-.27-.13-.32c-.07-.04-.12-.24-.12-.44s-.05-.4-.1-.43a4.7 4.7 0 0 1-.28-1.26 7.9 7.9 0 0 0-.28-1.4 11.4 11.4 0 0 1-.16-2.05c-.03-1.34-.1-1.95-.24-2.23-.1-.22-.26-.72-.35-1.12-.1-.4-.2-.8-.26-.86-.05-.08-.16-.9-.25-1.85-.1-.94-.2-1.83-.26-1.97-.2-.5-.4-5.4-.36-9.22.04-3.67.03-3.9-.2-4.15-.13-.14-.3-.26-.36-.26s-.36-.17-.67-.38c-.3-.2-.58-.38-.62-.38-.12 0-.6-.4-1.6-1.37-.92-.86-2.2-1.67-2.67-1.67a6.78 6.78 0 0 0-2.25-.5c-.22 0-.4-.06-.4-.1 0-.07-.7-.2-1.56-.28-.85-.08-1.65-.2-1.78-.27-.12-.07-1.3-.16-2.6-.2l-2.4-.08zm-162.58 1.76a.1.1 0 0 0-.08.03.72.72 0 0 1-.44.14c-.16 0-.3.05-.3.1 0 .26-1.4 1.77-2.58 2.76-1.16.98-3.12 2.9-3.12 3.05 0 .1-.05.18-.1.2-.2.08-1.58 2.18-2.07 3.15a7.46 7.46 0 0 0-.58 1.43c-.05.27-.14.5-.2.55-.06.04-.1.2-.1.38s-.14.53-.3.8c-.44.7-.54.88-1.2 2.05a50.66 50.66 0 0 0-3.6 7.94c-.04.07-.15.36-.23.64l-.28.76a8.3 8.3 0 0 0-.25.76l-.22.7c-.16.4-.58 1.9-.8 2.8-.1.5-.25 1.03-.3 1.13-.08.2-.43 1.8-.55 2.54-.04.25-.13.5-.2.53-.08.05 0 .15.23.23.7.27 1.2.53 1.5.8.15.16.44.38.63.5.28.2.32.3.27.6-.07.3 0 .4.35.64.47.33 1.3 1.17 2.07 2.1.93 1.12 1.88 2.1 2.06 2.1.1 0 .2.08.26.18.04.1.12.2.17.2.1 0 1.33.88 1.97 1.42.14.1.48.4.76.6.84.65 1.3 1.04 2.42 2 .58.5 1.08.92 1.1.92.08 0 .7.52 1.58 1.36.32.3.62.54.66.54.05 0 .34.25.65.57.3.3.6.57.67.57.06 0 .33.23.6.5.26.28.52.5.57.5.06 0 .85.72 1.77 1.58.93.87 1.8 1.64 1.96 1.72.36.2.35.4-.07 1.18-.5.96-2.14 2.6-3.43 3.47l-1.17.8c-.04.05-.2.15-.4.23-.33.17-.45.24-1.5.92-1 .64-1.05.66-1.8 1.08-.9.5-1.64.7-2.64.7-.72 0-.9-.05-1.5-.46a2.8 2.8 0 0 1-.77-.66 5.14 5.14 0 0 0-.5-.77c-.25-.3-.68-.98-.96-1.48l-.54-.92-.76-.06-1.15-.1c-.35-.04-.38-.02-.34.34.05.42.2.88.56 1.66.3.62.3.77.05.86-.1.05-.2-.02-.25-.17-.08-.26-.5-.44-.7-.3-.16.1-.16 1.28 0 1.38.07.05.13.32.13.6 0 .8.25 2.13.5 2.7.13.28.26.67.3.86a9.8 9.8 0 0 0 1.5 2.45c.4.36 1.2.8 1.47.8.25 0 .67.37.67.58 0 .38.82.84 1.95 1.1.4.08.76.2.8.25.03.06.14.1.25.1.1 0 .42.12.72.25l1 .4c.27.07.52.2.56.26.1.15 3.07.14 3.17-.02.04-.07.37-.13.74-.13a15.07 15.07 0 0 0 4.15-.64c.46-.08.88-.2.95-.23.07-.05.4-.17.7-.26a16.3 16.3 0 0 0 4.68-2.55c.02-.06.1-.1.17-.1.08 0 .4-.25.74-.55.32-.3.86-.77 1.18-1.04.56-.48.96-1.07.96-1.4 0-.08.12-.38.26-.67.14-.3.25-.62.25-.72 0-.1.06-.23.13-.27.07-.03.13-.24.13-.45 0-.34.08-.42.63-.65.6-.26.63-.28.7-.9.13-.9.12-3.7 0-5.23-.12-1.3-.15-1.38-1.08-3.1-.17-.32-.35-.6-.4-.62a9.57 9.57 0 0 0-.86-1.43c-.42-.64-.76-1.2-.76-1.23 0-.04-.22-.37-.48-.72-.26-.36-.56-.8-.66-1-.12-.22-.42-.62-.68-.9-.26-.3-.48-.6-.48-.68 0-.1-.04-.16-.1-.16-.06 0-.2-.16-.3-.34a6.3 6.3 0 0 0-1.12-1.42c-.28-.3-.5-.6-.5-.63a49.36 49.36 0 0 0-4.98-4.7c-.04-.1-.7-.42-4.17-2.1-1.43-.68-1.9-1.06-1.9-1.52 0-.18-.06-.36-.14-.4-.1-.07-.1-.13 0-.23.1-.08.14-.76.14-1.77 0-1.3.04-1.67.2-1.83.1-.1.23-.36.27-.56.04-.2.1-.37.17-.37.06 0 .7-1.2 1.46-2.7a79.95 79.95 0 0 1 2.22-4.2c.36-.7.82-1.52 1.03-1.82.2-.3.38-.6.38-.67 0-.06.07-.2.16-.28.1-.1.27-.37.4-.6.14-.26.3-.5.36-.58.4-.5 1.1-1.46 1.3-1.78.3-.47 1.45-1.7 1.73-1.85.2-.1.2-.04.15.67-.04.44-.1.85-.17.92-.05.06-.13.83-.18 1.7a8.27 8.27 0 0 1-.2 1.74c-.15.18-.06 2.95.12 4.16.2 1.3.67 2.8 1.13 3.7.53.97.63 1.15.86 1.43.5.63.87.9 1.17.9.17 0 .42.06.55.13.18.1.42.08.87-.07.57-.2.65-.27.9-.86.2-.52.26-.9.26-2.14 0-.98-.06-1.6-.16-1.76-.13-.2-.13-.3 0-.5.08-.15.16-.48.16-.74 0-.27.1-.6.24-.78.22-.3.22-.32 0-.7l-.24-.4.32-.32c.48-.45.65-.93.8-2.34.1-.7.2-1.38.27-1.52.16-.38.38-1.4.38-1.76 0-.17.05-.33.1-.36.1-.03.42-1.44.62-2.6.04-.24.12-.46.18-.5.07-.03.12-.42.12-.86 0-.43.05-.84.1-.9.08-.08.16-.47.2-.9.04-.4.1-1.06.15-1.43.1-.9-.07-1.2-.86-1.57-.67-.3-.68-.32-.8-1.6a3.7 3.7 0 0 0-.2-1l-.24-.55c-.17-.4-.4-.76-.65-1-.1-.1-.23-.3-.28-.4-.05-.14-.17-.24-.28-.24-.1 0-.26-.1-.35-.23-.1-.12-.37-.3-.6-.4-.26-.08-.58-.2-.72-.28-.65-.3-1.05.3-.68 1 .08.14.12.46.08.7l-.15.86c-.2 1.24-.36 1.93-.46 2-.06.03-.1.15-.1.26 0 .2-.58 1.42-.77 1.6a5.7 5.7 0 0 1-1.4-1.17 9.4 9.4 0 0 0-1.47-1.3c-.1 0-.18-.03-.2-.1a16.5 16.5 0 0 0-1.8-1.4 9.7 9.7 0 0 1-1.7-1.3c-.1-.13-.23-.24-.3-.24-.08 0-.6-.4-1.15-.9-.62-.57-.92-.8-1.07-.8zm163.37 4.32c.05 0 .14.1.24.32.16.37.2.7.15 1.46-.03.55-.1 1.16-.15 1.36-.05.2-.04.47.04.63.07.15.17 1.48.2 2.94.06 1.46.15 3.1.2 3.6.63 5.3 1.03 9.88.95 10.65-.1.67-.1.68-.43.58-.4-.1-2.32-.1-3.33 0-.42.06-.75.05-.8-.02a4.68 4.68 0 0 0-1.37-.18c-1.48-.07-1.83-.16-1.62-.42.08-.1.2-.82.24-1.6.07-1.1.16-1.55.36-1.92.15-.26.27-.6.27-.77 0-.15.1-.48.22-.7.12-.26.23-.87.27-1.46.03-.56.12-1.1.2-1.2.1-.12.2-.64.26-1.18.05-.54.16-1.04.25-1.1.1-.08.14-.3.1-.46a5.4 5.4 0 0 1 .6-2.16c.08-.04.14-.17.14-.3 0-.1.07-.35.17-.53.1-.17.2-.48.26-.7.05-.2.2-.58.32-.87.13-.28.27-.7.32-.92.05-.2.14-.43.2-.47.07-.04.12-.16.12-.26s.1-.43.24-.72c.14-.3.37-.9.52-1.36.15-.47.33-.98.4-1.16a8.78 8.78 0 0 0 .43-1.06zM82.23 1649.2c.3 0 .84.4 1.3.95.28.34.9 1.38.9 1.53 0 .14-.35.06-.84-.2-.3-.14-.6-.34-.7-.44-.12-.1-.26-.18-.3-.18-.17 0-1.1-.8-1.1-.94 0-.25.48-.7.73-.7zm25.83 3.3c.15 0 .1 4.68-.03 4.97-.07.13-.2.36-.26.5-.07.14-.12.34-.12.44 0 .5-1.2 1.94-2.07 2.47-.6.37-.73.35-.73-.1 0-.76.3-3 .4-3.1.06-.08.1-.3.1-.54 0-.23.07-.45.14-.5.06-.03.12-.2.12-.38 0-.17.05-.4.1-.53.08-.12.26-.52.42-.9.15-.36.33-.66.4-.66.04 0 .1-.07.1-.16 0-.17 1.26-1.5 1.42-1.5zm159.5 1c.1 0 .2.17.46.7l.53 1.04a22.05 22.05 0 0 0 .77 1.67c.22.44.36.85.3.92-.02.06-.43.3-.88.53-.46.23-1.18.7-1.6 1.04-.73.58-2.58 2.58-2.72 2.94-.1.22-.6.84-.68.84-.04 0-.08-.06-.08-.13s.06-.13.13-.13.13-.12.13-.28c0-.15.1-.5.24-.8.13-.27.42-1.02.65-1.65.22-.64.5-1.4.65-1.72.34-.8.43-1 .6-1.52l.33-.83c.3-.64.82-2 .82-2.14 0-.08.1-.24.2-.37.07-.07.12-.1.16-.12zm-207.13.4c.23 0 .47 3.14.26 3.35-.08.08-.14.38-.14.68 0 .3-.06.57-.13.6-.07.06-.13.25-.13.43 0 .42-.24 1.1-.56 1.6-.36.57-1.1 1.35-1.3 1.35-.1 0-.17.05-.17.1 0 .1-.8.54-.95.54a2.9 2.9 0 0 1-.06-.82c0-.45.05-.85.12-.9.07-.04.13-.32.13-.63 0-.3.07-.6.14-.64.07-.04.12-.4.12-.76 0-.38.05-.72.1-.75.07-.04.2-.34.28-.68a5.8 5.8 0 0 1 1-2.1c.48-.76 1.05-1.36 1.3-1.36zm209.82 6.9c.12 0 .2.1.22.3.02.13.1.35.16.5.37.8.82 9.1.52 9.76-.07.14-.2.8-.27 1.45-.1.68-.26 1.4-.4 1.63-.13.24-.24.5-.24.6 0 .4-.88 1.94-1.2 2.08-.18.1-.32.22-.32.3 0 .06-.08.12-.17.12-.1 0-.28.1-.4.25-.36.4-1.24.76-1.82.76-.46 0-.56-.04-.66-.32a2.33 2.33 0 0 1-.12-.38c0-.04-.1-.25-.2-.47-.4-.85-.76-2.5-.88-3.96-.1-1.03.12-3.57.3-3.8.06-.08.15-.4.2-.7.04-.32.18-.8.3-1.1.14-.27.4-.87.6-1.32.67-1.5 2.02-3.4 3.7-5.17.3-.32.53-.48.68-.5z" style="isolation:auto;mix-blend-mode:normal" overflow="visible"/>
    </g>
    <g>
        <path style="isolation:auto;mix-blend-mode:normal" color="#000" overflow="visible" fill="none" d="M0 1800h300v300H0z"/>
        <path d="M72.93 1846.2l-15.52 15.5-15.5 15.52.12 88.3.12 88.3h185.11l15.43-15.44 15.42-15.42v-176.78H72.93zm108.28 30.93v16.4c0 17.92 0 18.06-1.05 22.05-3.48 13.28-13.2 24.54-26.75 31.03l-2.96 1.4c-.65.2-6.56-2.76-10.07-5.06-9.83-6.46-16.97-15.88-19.96-26.35-1.4-4.9-1.45-5.88-1.4-24.1l.06-15.28 31.07-.05 31.07-.04zm-28.92 4.2c-1.05 0-2.08.24-2.93.8l-.8.5-.6-.34c-.8-.44-1.5-.43-2.44.03-.9.44-1.5 1.3-1.5 2.23 0 .52-.2.97-.86 1.95-1.58 2.3-2.16 3.86-1.72 4.58.06.1.58-.53 1.16-1.4.57-.86 1.46-1.95 1.97-2.43l.9-.86.7.72c.36.4.96.86 1.32 1 .36.16 1.03.56 1.48.9.44.35 1 .68 1.24.74.33.08.43.22.43.63 0 .28.12.8.27 1.16l.27.64-.75.65c-1 .86-1.14.9-2.38.8l-1.08-.1.63.32.6.3-.67.13c-.37.07-.8.26-.98.42-.27.27-.2.3.85.18 1.08-.12 1.13-.1 1 .22-.5 1.2-.36 1.15 1.9-.87a6.22 6.22 0 0 1 1.6-.94c.7-.26.98-.47 1.02-.74.05-.34.32-.5 1.32-.83.23-.07.37.1.6.68.34.9.17 1.43-.5 1.64-.22.07-.56.24-.76.4-.33.23-.32.24.22.13.63-.13.72-.02.34.43-.14.15-.3.52-.36.82-.12.52-.1.52.52-.23.64-.76 1.16-1 1.16-.53 0 .13.1.4.26.58.23.32.25.28.25-.46 0-.45.08-1.08.18-1.4.13-.44.1-.74-.08-1.2-.4-.93-.33-1.27.28-1.52a4.27 4.27 0 0 0 1.95-2.27 5.75 5.75 0 0 0-1.67-5.74 6.64 6.64 0 0 0-4.35-1.73zm-19.46.03c-1.3-.02-2.53.32-3.23.98l-.4.36-.68-.37c-.9-.48-1.6-.47-2.57.04a2.6 2.6 0 0 0-1.43 2.32c0 .5-.18.9-.7 1.63-1.08 1.46-1.98 3.2-1.98 3.8 0 1.2.2 1.17 1.13-.26.93-1.4 2.76-3.44 3.08-3.44.1 0 .34.27.56.6.23.35.76.78 1.26 1.02.47.23 1.2.68 1.64 1 .42.33.96.65 1.2.7.3.08.44.24.44.54 0 .22.13.75.3 1.15l.3.74-.7.6c-.95.83-1.33.96-2.44.85l-.95-.1.54.32.52.32-.74.14c-.4.08-.84.27-.96.4-.2.24-.07.26.9.15 1.07-.12 1.12-.1 1 .22-.1.2-.2.52-.24.74-.08.35 0 .32.64-.27 1.62-1.5 2.18-1.9 3.1-2.28.67-.27.97-.5 1-.76.06-.34.34-.52 1.32-.83.2-.06.38.1.6.6.4.86.23 1.4-.52 1.7-.32.14-.7.38-.82.53-.22.26-.2.27.24.08.6-.28.77-.12.4.4-.16.23-.28.6-.28.86 0 .44 0 .44.34-.12.3-.5 1.05-1.1 1.15-.92l.3.58.26.52.14-1.13c.07-.62.17-1.24.2-1.36.06-.13 0-.52-.16-.86-.4-.92-.33-1.27.26-1.5 1.84-.78 2.7-3.37 1.9-5.74a6.8 6.8 0 0 0-3.58-3.57 7.08 7.08 0 0 0-2.34-.44zm38.8 0c-1.3-.02-2.52.3-3.2.96-.37.35-.38.35-1.08 0-1.2-.62-2.38-.37-3.37.68-.4.42-.54.78-.6 1.48-.08.74-.28 1.2-1.03 2.28-1.2 1.77-1.7 2.75-1.7 3.4 0 1.22.2 1.16 1.2-.35.98-1.44 2.7-3.37 3-3.37.1 0 .34.24.54.53.2.3.76.75 1.25 1.02.5.27 1.24.75 1.67 1.08.43.32.97.64 1.2.7.3.07.44.23.44.53 0 .22.13.75.3 1.15l.3.75-.7.6c-.95.83-1.33.96-2.44.86-.7-.06-.84-.04-.56.08.65.3.62.5-.1.62-.38.06-.8.23-.9.38-.2.23-.07.25.98.15l1.2-.12-.28.42c-.17.24-.3.56-.3.73 0 .2.2.12.7-.36 1.6-1.47 2.17-1.88 3.08-2.25.68-.27.97-.5 1-.76.06-.34.33-.5 1.34-.83.24-.08.38.06.6.56.36.88.2 1.43-.53 1.73-.32.14-.7.38-.83.54-.2.26-.2.26.24.07.6-.28.77-.12.4.4-.15.23-.28.6-.28.86 0 .45 0 .44.35-.1.32-.52 1.04-1.1 1.17-.93.03.03.18.3.34.6l.3.53v-.72c0-.4.1-1.05.2-1.46.12-.57.1-.86-.1-1.25-.33-.6-.35-1.3-.06-1.3.54 0 1.6-1 2.06-1.94 1.34-2.76-.3-6.36-3.44-7.54a7.06 7.06 0 0 0-2.33-.44zm-20.94.7c.18 0 .15.16-.1.4-.28.3-.1.27.52-.05.28-.14.66-.26.85-.26.28 0 .3.04.1.28-.2.25-.17.27.4.16.36-.06.84-.06 1.07 0 .4.14.4.15.06.28-.3.1-.23.16.38.33 1.5.4 2.65 2.36 2.22 3.8-.26.88-.96 1.7-1.7 1.95-.42.15-.7.42-.9.86-.3.7-1.94 1.8-2.15 1.46-.06-.1-.15-.57-.2-1.05-.1-.84-.14-.88-.76-.98-.4-.06-.9-.35-1.28-.7-.35-.34-.92-.7-1.27-.82a4.18 4.18 0 0 1-1.94-1.77c-.17-.3-.3-.36-.52-.24-.4.2-2.23 2.08-2.8 2.86-.25.34-.46.56-.46.5 0-.2.5-.98 1.5-2.33.7-.94.9-1.33.85-1.76-.13-1.26.9-2.3 2.27-2.3.6 0 .8.1 1.13.53l.4.53.85-.77a4.93 4.93 0 0 1 1.22-.87c.1-.04.2-.05.24-.05zm-19.6.07c.14-.02.2.07.12.27-.1.24-.04.24.4 0 .3-.14.67-.26.85-.26.3 0 .3.04.1.27-.2.25-.13.27.52.17.4-.07.88-.06 1.05 0 .3.13.3.15-.03.28-.3.1-.25.17.37.34a3.65 3.65 0 0 1 2.38 3.1c0 1.1-1 2.48-2.05 2.74-.26.06-.5.33-.67.72-.17.44-.5.78-1.16 1.15-.5.3-.96.47-1 .4a5.65 5.65 0 0 1-.22-1.08c-.1-.76-.2-.93-.47-.93-.47 0-1-.3-1.8-1.02-.37-.33-.83-.6-1.02-.6-.37 0-1.5-1.02-2-1.8l-.3-.44-1.32 1.35c-.73.72-1.5 1.57-1.73 1.86-.85 1.16.04-.36 1.06-1.8.9-1.25 1-1.5.94-2.1-.07-.58 0-.74.63-1.37.62-.64.82-.73 1.52-.73.68 0 .9.1 1.24.5l.42.52.86-.8c.53-.47 1.03-.76 1.3-.78zm40.18 0c.28 0 .3.05.1.28-.2.25-.13.27.5.17.88-.14 1.53.03 1.12.28-.2.13-.2.18.1.27 1.84.58 2.92 2.37 2.43 4.03a3.4 3.4 0 0 1-1.88 1.9c-.28.05-.53.32-.68.7-.18.45-.52.8-1.17 1.16-.5.3-.95.47-1 .4a6.3 6.3 0 0 1-.2-1.07c-.1-.77-.2-.94-.48-.94-.5 0-1-.3-1.8-1.02-.38-.33-.84-.6-1.03-.6-.37 0-1.52-1.02-2-1.8l-.3-.43-1.33 1.34c-.73.72-1.5 1.57-1.72 1.86l-.4.54.27-.56c.14-.3.7-1.14 1.23-1.85.86-1.16.96-1.37.88-1.97-.06-.57 0-.77.5-1.32.3-.35.82-.7 1.13-.8.63-.16 1.55.03 1.76.37.45.76.45.76.95.17.7-.85 2-1.46 1.76-.84-.1.24-.04.24.4 0 .3-.14.67-.26.86-.26zm-45.3 2.15c-.32 0-.44.56-.17.73.13.1.3.1.4 0 .2-.2 0-.72-.25-.72zm19.5.04c-.23 0-.42.3-.32.57a.3.3 0 0 0 .38.17c.32-.13.37-.53.1-.7a.27.27 0 0 0-.17-.05zm19.33.05c-.05 0-.1 0-.13.02-.33.12-.36.54-.05.65.32.12.56-.16.43-.48a.3.3 0 0 0-.26-.2zm-44.42 12.25l.08 7.02c.07 6.27.12 7.2.46 8.8a44.95 44.95 0 0 0 14.88 25.38c3.5 3 6.73 5.1 11.34 7.37a23.2 23.2 0 0 0 2.98 1.3c.16 0 1.22-.42 2.35-.95 13.7-6.44 22.92-17.25 26.4-30.96.82-3.26.9-4.28.9-11.3v-6.68h-.66c-1.12 0-2.83.5-4.3 1.24-2.03 1.02-3.24 1.34-5.13 1.33-1.94-.02-2.7-.22-4.9-1.26-2.2-1.05-3.64-1.38-5.47-1.26-1.6.1-2.33.34-4.45 1.35-1.9.9-2.9 1.14-4.84 1.12a9.8 9.8 0 0 1-4.95-1.3 9.64 9.64 0 0 0-9.4 0 10.3 10.3 0 0 1-5.05 1.28 10.3 10.3 0 0 1-5.04-1.27 9.93 9.93 0 0 0-4.3-1.24h-.88zm41.64 1.34l.7 2.2.68 2.17 2.3.05 2.33.05-1.06.75c-.58.4-1.43 1-1.88 1.34l-.84.6.67 2.1c.37 1.15.63 2.1.58 2.1-.04 0-.84-.57-1.76-1.26-1-.76-1.77-1.2-1.9-1.13-.12.07-.82.58-1.56 1.14-1.58 1.2-1.78 1.32-1.78 1.13 0-.08.3-1.02.64-2.1.36-1.05.58-2 .5-2.07l-1.93-1.4-1.75-1.3h4.67l.7-2.18.7-2.2zm-23.76.02l.68 2.18.68 2.17 2.32.05 2.33.05-1.83 1.32c-1 .72-1.83 1.43-1.83 1.57 0 .14.3 1.1.63 2.16.34 1.05.6 1.93.58 1.96-.02.02-.82-.57-1.78-1.3l-1.75-1.36-1.7 1.3c-.94.7-1.74 1.24-1.78 1.2-.05-.04.2-1 .56-2.1.63-2.03.64-2.06.3-2.3-.2-.12-1.04-.73-1.87-1.34l-1.5-1.1 2.27-.06 2.27-.05.7-2.17.72-2.18zm6.43 12.64a8.3 8.3 0 0 1 3.72 1l1.5.76v6.8c0 3.74-.07 6.77-.14 6.74l-1.5-.74c-2.63-1.33-4.54-1.32-7.74.05-2.2.95-3.48 1.1-4.9.53l-.93-.37v-13.32h2.2c1.98 0 2.32-.04 3.54-.5 1.7-.65 3.02-.97 4.25-.96zm11.1.07c1.53 0 1.9.07 3.5.67 1.97.73 4.02 1 5.4.67l.77-.18v13.57l-.66.28c-1.62.7-2.82.5-6.12-.92-1-.44-1.4-.5-2.87-.5-1.28 0-1.93.08-2.7.37-.57.2-1.4.62-1.84.92l-.8.55v-13.75l.78-.46a7.9 7.9 0 0 1 4.57-1.2zm-21.7 1.66c.04 0 .08 3.02.08 6.7v6.73l.85.38c.55.25 1.32.4 2.2.45 1.18.06 1.52 0 2.5-.4 3.1-1.32 3.38-1.4 5.1-1.32 1.46.07 1.8.16 2.96.73.72.36 1.5.85 1.73 1.1.24.25.4.6.35.82-.05.37-.1.35-.65-.23a6.6 6.6 0 0 0-5.75-1.73c-.63.1-1.87.53-2.76.94-1.53.7-1.72.75-3.24.74-1.28 0-1.8-.1-2.6-.43a9.6 9.6 0 0 1-1.2-.6c-.17-.13-.22-1.73-.22-6.92 0-6 .03-6.77.28-6.86.16-.06.32-.1.36-.1zm32.23 0c.53 0 .57.52.57 7.08v6.64l-.85.36c-2.38 1-4.4 1-6.93-.07a7.52 7.52 0 0 0-3.22-.74 5.4 5.4 0 0 0-2.67.33c-.64.24-1.4.72-1.92 1.2l-.85.8v-.53c0-.45.16-.65.94-1.2a6.86 6.86 0 0 1 4.68-1.32c1.37.07 1.83.18 3.04.73.8.35 1.74.74 2.12.85.97.3 3.06.15 4.1-.32l.85-.38v-6.7c0-3.7.05-6.72.13-6.72zm1.1.53l.54.26c.63.33.96.34 1.72.06.45-.17.63-.16.86.02.74.62-.1 1.53-.9 1a1.64 1.64 0 0 0-.94-.24c-.43.05-.48.13-.48.77 0 .66.05.72.52.78.28.03.6-.03.7-.14.3-.3 1.2-.22 1.32.1.26.7-.56 1.18-1.28.8a1.6 1.6 0 0 0-.83-.16c-.35.05-.44.18-.48.73-.07.66-.06.67.57.67.35 0 .8-.1 1-.22.46-.3.98.02.98.58 0 .57-.52.87-1 .58-.18-.12-.62-.22-.97-.22-.6 0-.63.02-.63.72s.02.7.63.7c.35 0 .8-.1.98-.2.45-.3.96-.02 1.04.53.1.58-.58.87-1.15.5a1.64 1.64 0 0 0-.93-.24c-.43.05-.48.13-.48.77 0 .62.06.72.43.78.24.04.6-.03.82-.14.57-.3 1.23-.17 1.3.28.1.63-.4.88-1.2.62-1.03-.34-1.35-.2-1.4.57-.07.66-.06.67.57.67.35 0 .8-.1 1-.22.46-.3.98.02.98.58 0 .57-.52.87-1 .58-.18-.12-.62-.22-.97-.22-.6 0-.63.02-.63.7 0 .7.02.73.63.73.35 0 .8-.1.98-.22.45-.28.96 0 1.04.54.1.56-.58.86-1.13.5-.6-.4-1-.36-1.7.18a8.3 8.3 0 0 1-5.84 1.65 4.95 4.95 0 0 1-2.93-.8c-.73-.4-1.75-.83-2.27-.95a5.74 5.74 0 0 0-4.3.82l-.4.27.44.36c.55.43.6.92.1 1.4-.3.32-.6.36-2.55.36-2.38 0-3-.2-3-.95.02-.46.17-.7.62-.95.3-.17.26-.23-.45-.65-1.02-.6-2.47-.9-3.54-.76-.46.07-1.6.5-2.53.96l-1.7.84h-2.06c-2.4 0-3.37-.27-4.88-1.35-1.1-.8-1.34-.84-2.1-.45-.46.24-.54.24-.9-.06-.34-.28-.37-.4-.2-.72.23-.4 1-.54 1.2-.2.05.1.38.17.72.17.6 0 .6-.02.6-.73v-.74l-.66.1c-.37.04-.84.13-1.05.2-.35.12-.95-.26-.95-.62 0-.35.6-.74.96-.62.22.07.7.16 1.06.2l.67.1v-.73c0-.7 0-.73-.6-.73-.35 0-.68.08-.74.18-.2.3-.97.2-1.17-.17-.15-.3-.1-.43.18-.73.36-.35.42-.36.82-.1.23.16.67.3.97.3.5 0 .53-.04.53-.82 0-.76-.03-.8-.5-.8-.26 0-.64.13-.83.27-.45.34-.57.33-1-.1-.3-.3-.32-.43-.17-.7.2-.38.97-.5 1.16-.2.05.1.38.2.72.2.6 0 .6-.03.6-.72 0-.68-.02-.72-.54-.72-.3 0-.7.08-.9.2-.5.26-1.05.03-1.05-.46 0-.62.44-.9 1-.66.24.1.68.2.97.2.5 0 .53-.04.53-.7 0-.7-.02-.73-.6-.73-.3 0-.67.1-.77.2-.1.1-.4.17-.62.14-.34-.05-.42-.17-.42-.6 0-.58.17-.6 1.74-.34l.67.12v-.83c0-.77-.03-.83-.45-.83-.25 0-.65.12-.88.28-.6.4-1.22.07-1.14-.6.07-.56.53-.72 1.14-.4.4.22.94.2 1.82-.1l.4-.12v13.58l1.2.57c2.48 1.13 4.3 1.1 7.08-.16 2.95-1.32 5.4-1.13 7.35.58.46.4.83.8.83.88 0 .08-.22.17-.5.2-.3.04-.5.18-.54.38-.06.3.1.32 1.78.27 1.5-.03 1.85-.1 1.85-.3 0-.18-.23-.3-.6-.37l-.58-.1.76-.74a5.1 5.1 0 0 1 4.08-1.57c1.34 0 1.7.08 3.17.67.92.37 2.12.75 2.68.84a9.3 9.3 0 0 0 4.68-.68l1.2-.5.04-6.83.04-6.84zm-17.3 19.4l.7 2.18.7 2.2 2.28.04 2.28.05-1.58 1.16-1.85 1.35c-.23.16-.18.47.37 2.22.36 1.12.6 2.07.57 2.1a8.2 8.2 0 0 1-1.58-1.05c-.8-.63-1.58-1.2-1.7-1.28-.14-.1-.9.38-2.04 1.24-1 .77-1.78 1.28-1.73 1.14.3-.82 1.22-3.8 1.22-4 0-.14-.82-.84-1.8-1.56l-1.82-1.3 2.3-.06 2.3-.05.7-2.2.7-2.17zm-20.95 25.46l.84.05.85.07.05 5.86.04 5.85h-1.69l-3.13-4.03a64.3 64.3 0 0 0-3.26-4.02c-.08 0-.14 1.82-.14 4.03v4.02h-1.8l.06-5.85.03-5.86.6-.06c.32-.02.72.06.87.2.15.1 1.7 2.02 3.43 4.22l3.15 4 .05-4.23.05-4.24zm-33.27 0l3.1.06 3.08.05.05.94.06.95h-4.5v3.04H102v1.77l-2.1.04-2.1.06-.07 1.57-.05 1.56h4.49v1.78H95.9v-11.8zm-22.7 0l4.42.06 4.43.05.05.94.06.94h-3.6v9.84H76.6v-9.84h-3.4v-1.98zm119.27 0v1.98H188.9v9.84h-1.8v-9.84h-3.6l.07-.93.05-.93 4.43-.05 4.42-.05zm-58.47.02h1.96v11.8H134v-11.8zm45.24 0h1.98v11.8h-1.98v-11.8zm-95.58.1h1.8l.04 2.45.05 2.46h5.16l.06-2.47.05-2.46h1.8l.05 5.85.04 5.86H90.7v-4.83h-5.18v4.82h-1.97l.04-5.85.06-5.85zm89.36.06c.64 0 1.32.13 1.87.4l.76.36v2.54l-.5-.46c-.77-.73-1.62-1.08-2.3-.97-.85.14-1.13.42-1.13 1.13 0 .72.22.97 1.94 2.1 1.67 1.12 2.23 1.93 2.3 3.4.1 1.42-.43 2.52-1.47 3.1-1.02.57-2.26.54-3.5-.08l-.97-.5-.05-1.42-.06-1.43.64.74c1.4 1.63 3.68 1.62 3.67 0 0-.76-.3-1.1-2.1-2.44-1.8-1.36-2.2-1.98-2.2-3.42a2.9 2.9 0 0 1 1.43-2.62c.4-.27 1-.4 1.66-.42zm-63.88.02h1.76l.06 4.07c.06 4.5.14 4.83 1.27 5.5.67.4 2.2.4 2.97 0 1.12-.58 1.18-.8 1.24-5.4l.06-4.17h1.76v4.24c0 4.1-.02 4.3-.42 5.16a4.17 4.17 0 0 1-2.42 2.2c-1.92.57-4.3 0-5.28-1.3-.87-1.13-1-1.94-1-6.3v-4zm40.95 0h6.25v1.8h-4.29V1962.78H156.17v1.78H152.06v3.2h4.46v1.8h-6.42V1957.96zm9.83 0h2c1.76 0 2.1.06 2.73.4 1.77 1 2.1 3.9.58 5.3l-.46.4.6.8c.35.45.92 1.34 1.28 2 .36.66.9 1.54 1.18 1.96l.5.76h-2.25l-1.05-1.8c-1.32-2.26-2.02-3.03-2.77-3.03h-.56v4.82h-1.8v-11.6zm40.8 0H203l-1.95 2.75-1.96 2.77V1969.58h-1.98v-6.18l-1.88-2.63a55.35 55.35 0 0 1-1.87-2.74c0-.05.5-.07 1.1-.04l1.12.05 1.12 1.6c.62.9 1.2 1.68 1.28 1.76.1.1.73-.63 1.44-1.64l1.3-1.8zm19.46 0H226.08v1.8h-3.94v2.66H226.1v1.8H222.16l-.05 2.62-.05 2.64-.8.04c-.46.03-.88 0-.95-.07a69.6 69.6 0 0 1-.13-5.82v-5.7zm-73.35 0c.7 0 .93.06.87.22l-2.2 5.9c-1.7 4.5-2.2 5.67-2.45 5.68a.5.5 0 0 1-.43-.3l-2.12-5.5c-1.1-2.86-2.06-5.38-2.13-5.6-.14-.4-.1-.42.8-.37l.95.05.56 1.43c.32.78.96 2.42 1.43 3.64.55 1.43.9 2.13 1 1.97.08-.13.73-1.8 1.45-3.7l1.3-3.44h.97zm65.3.02h.7c2.25.14 3.72 1.17 4.7 3.32.33.7.4 1.18.4 2.56 0 1.5-.05 1.82-.5 2.72a5.96 5.96 0 0 1-3.2 2.9 5.52 5.52 0 0 1-7.23-4.06 6 6 0 0 1 1.54-5.87 4.58 4.58 0 0 1 3.6-1.57zm-50.43 1.77v3.04h.7c1.44 0 2.12-.8 1.77-2.07-.22-.74-.62-.98-1.62-.98h-.86zm50.56.04c-2.44.06-4.17 2.7-3.3 5.56a4.24 4.24 0 0 0 2.37 2.4c.8.22 2.1.1 2.76-.24 1.26-.65 1.98-2 1.97-3.7 0-1.94-1.06-3.46-2.7-3.9-.38-.1-.74-.14-1.1-.13zm-89.9 14.43c1.66-.02 3.43.34 5.2 1.12l1 .45.1.96c.15 1.1.17 2.84.05 2.84-.04 0-.55-.3-1.12-.63a8.86 8.86 0 0 0-5.14-1.43c-1.6 0-1.9.06-2.77.5a6.92 6.92 0 0 0-2.8 2.57 8.72 8.72 0 0 0-.78 5.75c1.13 4.9 6.52 6.55 11.47 3.5.68-.43 1.28-.78 1.32-.78.05 0 .06.86.03 1.9l-.05 1.92-.8.4c-.45.23-1.3.58-1.88.8-.84.3-1.58.4-3.4.44-2.47.07-3.37-.1-4.78-.82-3.4-1.76-5.3-5.04-5.32-9.06 0-2.15.23-3.22 1.1-5.06a9.32 9.32 0 0 1 8.55-5.37zm-40.43 0H83l3.7 9.25a9901 9901 0 0 1 4.04 10.1l.33.86H87.76l-1.15-2.87-1.15-2.86-3.47.06-3.47.04-1.07 2.82-1.08 2.82H73l.36-.9c.2-.5 1.9-4.9 3.77-9.8 1.88-4.88 3.5-9.02 3.58-9.2.13-.24.4-.3 1.22-.3zm92.4.1h2.23l4.02 10c2.2 5.5 4 10.04 4 10.07 0 .03-.74.03-1.65 0l-1.65-.05-1.14-2.82-1.14-2.82h-6.91l-.34.95-1.1 2.86-.75 1.94h-1.58c-.88 0-1.6-.06-1.6-.14 0-.07 1.72-4.6 3.82-10.06l3.82-9.92zm14 .06l1.3.05 1.3.05 5.54 7.05 5.54 7.05.05-7.1.03-7.1h3.04v20.04h-2.64l-5.52-7.06-5.5-7.06-.06 7.06-.04 7.06h-3.04V1974.4zm-95.12 0h3.2l.05 6.94c.05 6.8.06 6.94.47 7.76.7 1.45 2.15 2.28 3.98 2.3 2.05 0 3.67-.85 4.34-2.3.37-.8.4-1.13.44-7.76l.06-6.93h3.2v6.58c0 7.13-.1 8.15-.97 9.85-.92 1.8-2.14 2.8-4.25 3.45-.77.24-1.56.33-2.72.3-2.04-.02-2.27-.06-3.64-.68a7.14 7.14 0 0 1-4-5.63c-.1-.7-.17-4.1-.17-7.56v-6.3zm40.6 0h3.2l.05 4.03.05 4.03 3.3-4.02 3.3-4.03h4.09l-.36.4c-1.18 1.32-7.4 8.95-7.4 9.1 0 .1 2.04 2.36 4.52 5.04 2.48 2.68 4.62 5 4.75 5.2.23.28.12.3-1.9.3h-2.14l-4.08-4.42-4.1-4.4-.04 4.4-.05 4.42h-3.2v-20.02zm18.94 0H156v16.82h7.86v3.22h-11.09v-20.02zm57.58 0h4.07c5.9.02 7.45.44 9.72 2.7a9.7 9.7 0 0 1 2.85 7.17c0 2.05-.26 3.15-1.1 4.9a9.13 9.13 0 0 1-5.28 4.76c-.96.36-1.48.4-5.66.47l-4.6.07v-20.06zm3.22 3.23v13.6h2.4c3.4 0 4.87-.52 6.24-2.2 1.12-1.34 1.46-2.45 1.47-4.7 0-1.8-.04-2.06-.5-3.04a5.86 5.86 0 0 0-4-3.4c-.65-.17-1.86-.27-3.3-.27h-2.3zM81.87 1980c-.02-.03-.45 1.05-.94 2.4l-1.03 2.78c-.1.3.05.32 2.04.32h2.16l-.34-.85c-1.16-2.95-1.84-4.62-1.88-4.66zm93.6.1c-.1 0-.24.36-.6 1.37l-1.06 2.82-.45 1.2h2.14c1.17 0 2.13-.04 2.13-.1 0-.04-.4-1.1-.9-2.36-.52-1.26-1-2.48-1.1-2.73-.06-.12-.1-.2-.15-.2zm2.16 18.63h.88l.06 2.2.05 2.18.82-1.02c.55-.7.92-1.03 1.2-1.03.54 0 .52.1-.2.97-.92 1.15-.92 1.1.07 2.2.9 1.03.9 1.04.44 1.1-.44.05-1.12-.55-2.2-1.93-.16-.24-.2-.1-.2.83-.02 1.07-.03 1.1-.46 1.1h-.45v-6.6zm22.53 0h.88l.06 2.17.05 2.18.78-1c.56-.74.9-1.03 1.2-1.03.24 0 .43.05.43.1 0 .07-.32.5-.72.98-.4.47-.7.9-.7.98 0 .08.4.6.9 1.2.9 1.04.9 1.04.42 1.04-.37 0-.73-.25-1.44-1.02l-.95-1.03v1.02c0 .97-.04 1.02-.46 1.02h-.44v-6.6zm-116.74.16l.46.04c.4.05.53.28 1.22 2.2.43 1.22.8 2.03.86 1.88.06-.15.42-1.1.8-2.15.6-1.65.74-1.88 1.14-1.93.42-.05.5.07 1.2 2.1.43 1.2.8 2.16.82 2.16.03 0 .4-.97.8-2.15.7-1.92.8-2.14 1.2-2.14.22 0 .4.03.4.05-.03.38-2.27 6.2-2.4 6.25-.1.03-.57-1.05-1.05-2.4-.48-1.35-.93-2.42-1-2.38-.08.05-.52 1.17-1 2.5a13.26 13.26 0 0 1-1 2.42c-.1 0-.15-.02-.15-.06 0-.04-.52-1.5-1.15-3.23l-1.15-3.16zm-8.08 0c2.37 0 2.5.03 2.5.36 0 .3-.14.35-1.02.4l-1.03.05-.06 2.83c-.04 2.65-.07 2.8-.4 2.8s-.35-.15-.4-2.8l-.04-2.82-1.03-.04c-.88-.05-1.03-.1-1.03-.4 0-.33.14-.35 2.5-.35zm18.42 0c.33 0 .36.13.36 1.38 0 1.3 0 1.35.33 1.07.46-.42 1.33-.38 1.74.08.27.3.35.7.4 2.14.05 1.67.04 1.77-.3 1.77-.32 0-.36-.14-.42-1.62-.05-1.33-.12-1.67-.4-1.86-.32-.24-.7-.2-1.14.14-.15.1-.22.7-.22 1.76 0 1.47-.03 1.58-.36 1.58-.34 0-.36-.1-.36-3.2s.02-3.23.36-3.23zm18.45 0c.38 0 .5.23 1.13 2.02.38 1.1.74 2.07.8 2.14.06.07.46-.84.9-2 .67-1.9.8-2.15 1.18-2.15.45 0 .4-.07 1.5 2.96.6 1.63.47 1.74 1.48-1.2.52-1.52.65-1.75 1-1.75.22 0 .4.06.4.12 0 .14-2.18 6.2-2.27 6.32-.12.16-.4-.46-1.22-2.82-.46-1.3-.86-2.35-.88-2.32l-.98 2.6c-.5 1.4-1 2.54-1.05 2.54-.1 0-2.12-5.42-2.3-6.2-.05-.14.1-.23.34-.23zm46.83 0c2.37 0 2.5.03 2.5.36 0 .3-.14.35-1.02.4l-1.02.05-.05 2.83c-.05 2.65-.07 2.8-.4 2.8s-.35-.15-.4-2.8l-.04-2.82-1.04-.04c-.88-.05-1.03-.1-1.03-.4 0-.33.14-.35 2.5-.35zm29.5 0h.4c.3 0 .65.35 1.3 1.26.47.7.9 1.25.97 1.25.06 0 .5-.55 1-1.24.65-.94.97-1.25 1.28-1.25h.42v6.45h-.88l-.05-2.44-.05-2.43-.8 1.18a7.22 7.22 0 0 1-.9 1.2c-.07 0-.52-.58-1-1.28l-.88-1.28-.05 2.52c-.05 2.38-.08 2.53-.4 2.53-.35 0-.36-.14-.36-3.22v-3.22zm-5.47.36c.35 0 .52.53.27.83-.26.3-.5.3-.63-.03-.14-.37.05-.8.36-.8zm-60.95.72c.92 0 1.17.06 1.17.27 0 .2-.25.27-1.16.27-.9 0-1.16-.06-1.16-.27 0-.2.25-.27 1.17-.27zm40.42 0c.9 0 1.16.06 1.16.27 0 .2-.25.27-1.16.27-.9 0-1.16-.06-1.16-.27 0-.2.25-.27 1.16-.27zm-83.34 1.05c.8-.03 1.52.6 1.66 1.6l.1.75h-1.37c-1.5 0-1.62.1-.9.83.46.47 1 .5 1.9.16.24-.1.32-.04.32.24 0 .2-.15.45-.33.54-1.08.57-2.32.26-2.82-.7-.46-.9-.28-2.43.35-2.97.34-.3.7-.43 1.08-.44zm42.87 0c.45-.02.92.14 1.2.5.3.38.38.72.38 1.9s.04 1.4.26 1.3c.4-.14.32.4-.1.6a.68.68 0 0 1-.7.02c-.23-.12-.5-.13-.82 0-.55.2-.46.2-.84-.02-.98-.57-.73-1.56.57-2.22 1-.5 1-.5.73-1-.23-.4-.56-.42-1.26-.06-.5.27-.53.26-.53-.17 0-.5.53-.82 1.1-.84zm52.22 0c.44 0 .92.14 1.2.5.3.38.37.72.37 1.9s.05 1.4.27 1.3c.43-.15.33.4-.1.63-.3.15-.48.15-.78-.02-.3-.15-.5-.16-.77 0-.2.1-.46.18-.56.18-.32 0-.92-.7-.92-1.05 0-.5.66-1.22 1.34-1.45.5-.16.63-.3.63-.64 0-.57-.73-.76-1.34-.36-.43.3-.44.28-.44-.15 0-.5.53-.82 1.1-.84zm-11.8 0c.45 0 .92.15 1.2.5.3.4.37.72.37 1.9 0 1.2.04 1.4.27 1.32.4-.16.34.37-.07.6-.24.12-.48.12-.78-.02-.32-.14-.54-.14-.8 0-.2.1-.4.2-.43.18l-.35-.1c-.17-.03-.4-.3-.52-.6-.28-.7.1-1.32 1.1-1.7.53-.23.7-.4.7-.7 0-.56-.57-.73-1.26-.38-.53.25-.54.25-.54-.17 0-.5.53-.8 1.1-.8zm-26.45.02c.38 0 .76.16 1 .48.32.4.38.72.38 2.14 0 1.56-.03 1.68-.36 1.68-.33 0-.36-.12-.36-1.52 0-1.3-.06-1.58-.36-1.88-.34-.34-.4-.35-.9-.1-.53.3-.53.3-.53 1.9 0 1.48-.04 1.6-.37 1.6s-.35-.12-.35-2.15.02-2.15.35-2.15c.22 0 .36.12.36.3 0 .28 0 .28.32 0 .22-.2.5-.3.8-.3zm-36.82 0c1.1 0 1.36.46 1.36 2.26 0 1.3.04 1.53.27 1.45.4-.16.33.37-.08.6-.36.18-.9.07-.9-.2 0-.07-.23-.02-.5.12-.6.32-.6.32-1.1-.03-.3-.22-.38-.42-.34-.94.06-.58.16-.7.96-1.1.5-.24.93-.46.97-.5.04 0-.02-.23-.13-.48-.25-.54-.72-.57-1.35-.08l-.47.37v-.53c0-.64.4-.9 1.32-.9zm3.5 0c.27 0 .36.13.36.48v.47l.37-.47c.37-.47.76-.58 1.32-.36.3.12.35.4.12.76-.12.18-.24.2-.52.04-.84-.45-1.3.3-1.3 2.14 0 1.13-.02 1.25-.35 1.25-.33 0-.35-.12-.35-2.15 0-2.02.02-2.14.35-2.14zm22.88 0c.2 0 .4.1.46.2.07.1.22.1.45 0 .52-.3 1.2-.22 1.6.17.3.3.35.6.35 2.14 0 1.67-.02 1.8-.35 1.8-.33 0-.36-.13-.36-1.6 0-1.46-.04-1.64-.4-1.9-.33-.22-.44-.23-.76-.02-.3.2-.37.46-.4 1.88-.06 1.6-.07 1.63-.5 1.63h-.44v-2.15c0-2 .02-2.14.34-2.14zm5.48 0c1.13 0 1.4.42 1.48 2.27.05 1.2.12 1.5.3 1.42.16-.05.26.02.26.17 0 .4-.86.7-1.2.43-.18-.16-.35-.16-.7 0-.6.27-.72.25-1.14-.16-.72-.72-.24-1.72 1.05-2.16.44-.15.58-.3.54-.56-.1-.6-.6-.8-1.22-.45-.53.3-.54.28-.54-.1 0-.6.34-.84 1.18-.84zm13.1 0c1.05 0 1.28.42 1.28 2.3 0 1.26.05 1.48.27 1.4.42-.16.33.38-.1.6-.26.15-.43.15-.6 0-.2-.16-.4-.17-.83-.02l-.6.2-.4-.28c-.44-.3-.53-.95-.23-1.5.1-.2.54-.48 1-.65.62-.24.8-.4.75-.67-.1-.57-.58-.77-1.17-.47-.27.14-.56.28-.64.3-.08.05-.14-.08-.14-.26 0-.55.58-.94 1.4-.94zm7.67 0c.67 0 .9.1 1.4.62.52.5.62.73.62 1.42 0 .95-.27 1.6-.8 1.95-1.77 1.17-3.83-.56-3.14-2.63.3-.9.96-1.36 1.93-1.36zm14.53 0c.22 0 .36.13.36.3 0 .28.02.28.33 0 .44-.4 1.2-.37 1.62.05.34.34.35.34.66 0 .42-.46 1.35-.45 1.8.03.27.3.34.72.4 2.15.05 1.7.04 1.77-.32 1.77-.34 0-.36-.1-.36-1.33 0-1.66-.2-2.25-.78-2.25-.77 0-1 .5-1 2.12 0 1.33-.04 1.45-.37 1.45-.34 0-.37-.12-.37-1.57 0-1.66-.14-2-.8-2-.67 0-.8.34-.8 2 0 1.45-.04 1.57-.37 1.57s-.35-.12-.35-2.15c0-2.02.03-2.14.36-2.14zm16.28 0h.89v4.3h-.89v-4.29zm14.24 0c1.07 0 1.3.35 1.35 2.16.05 1.32.1 1.52.37 1.5.45-.04.38.24-.14.58-.36.24-.5.25-.72.06-.2-.17-.37-.18-.72-.02-.6.28-.74.26-1.15-.15-.74-.74-.26-1.73 1.02-2.16.46-.14.6-.28.55-.56-.1-.58-.57-.78-1.16-.48-.3.13-.58.28-.65.3-.08.05-.14-.08-.14-.27 0-.55.6-.94 1.38-.94zm9.32 0c1.06 0 1.3.42 1.3 2.3 0 1.26.04 1.48.26 1.4.42-.16.33.38-.1.6-.27.15-.43.15-.63 0-.2-.18-.37-.18-.7-.03-.62.28-.75.27-1.16-.15-.72-.72-.37-1.62.8-2.07.65-.24.8-.4.77-.67-.08-.57-.57-.77-1.15-.47-.3.13-.58.28-.65.3-.08.05-.14-.08-.14-.27 0-.55.6-.94 1.4-.94zm3.23 0h.91v1.7c0 1.53.04 1.7.37 1.9.3.14.47.12.8-.1.42-.26.44-.38.44-1.9 0-1.47.03-1.6.36-1.6.34 0 .36.13.36 2.15 0 2.03-.02 2.15-.36 2.15-.2 0-.36-.08-.36-.18 0-.1-.22-.07-.52.1-.7.35-.8.33-1.4-.17-.47-.4-.5-.52-.55-2.24l-.07-1.8zm5.57 0c.27 0 .36.13.36.48v.47l.37-.47c.4-.5 1-.6 1.48-.25.28.2.3.27.07.58-.22.3-.3.3-.54.1-.38-.3-.9-.1-1.16.45-.12.26-.2 1.02-.2 1.7 0 1.13-.04 1.25-.37 1.25s-.35-.12-.35-2.15c0-2.02.02-2.14.35-2.14zm4.77 0c1.08 0 1.33.4 1.45 2.24.07 1.2.15 1.5.34 1.44.45-.18.24.37-.23.6-.36.15-.52.15-.72 0-.18-.17-.35-.17-.7-.02-.6.28-.73.26-1.14-.15-.74-.74-.26-1.74 1.02-2.16.46-.14.6-.28.55-.56-.08-.58-.56-.78-1.15-.5l-.64.33c-.08.04-.14-.1-.14-.28 0-.55.58-.95 1.37-.95zm3.24 0h.95v1.7c0 1.53.03 1.7.36 1.9.3.14.48.12.82-.1.4-.26.43-.38.43-1.9 0-1.58.02-1.62.4-1.56.4.04.4.12.46 2.15l.06 2.1H226c-.24 0-.45-.08-.45-.18 0-.1-.22-.07-.52.1-.7.34-.8.33-1.38-.17-.47-.4-.5-.52-.57-2.23l-.07-1.8zm-81.52 0c.52 0 .56.08.56.35 0 .25-.1.37-.35.37-.3 0-.34.07-.2.44.1.3.1.64 0 .98-.18.48-.42.65-1.48 1-.54.16-.24.52.66.78.98.27 1.44.83 1.26 1.54-.06.26-.3.6-.5.73-.42.3-1.8.33-2.37.06-.8-.4-.9-1.78-.15-2.07.18-.06.24-.22.16-.45-.06-.2 0-.46.1-.6.2-.22.17-.34-.1-.63-.46-.5-.42-1.5.07-2 .3-.3.65-.4 1.64-.46.3-.03.5-.04.68-.04zm-33.8 0c.25.02.48.06.65.12.4.15.8 1 .8 1.67v.54h-2.68l.28.54c.32.63.94.83 1.72.56.72-.26.7-.26.7.15 0 .2-.15.42-.32.5-1.98 1.05-3.75-.88-2.83-3.08.14-.33.4-.7.6-.8.26-.13.7-.2 1.1-.2zm-.1.7c-.46 0-.94.3-.94.78 0 .26.15.32.9.32.9 0 1.03-.12.7-.73-.13-.25-.4-.36-.66-.36zm-28.4.02c-.37 0-.98.57-.98.94 0 .08.45.15 1 .15.53 0 .97-.07.97-.14 0-.36-.6-.93-.98-.93zm61.02 0c-.27 0-.84.56-.84.82 0 .12.13.35.28.5.16.16.4.28.53.28.3 0 .8-.48.8-.75 0-.26-.54-.86-.77-.86zm11.6 0c-1.07 0-1.62 1.7-.8 2.5.8.8 2.13.12 2.13-1.1 0-.65-.7-1.4-1.33-1.4zm-7.07 1.43l-.53.27c-.65.33-.78.53-.63 1 .1.35.37.43.87.24.2-.07.3-.33.3-.8v-.7zm62.05 0l-.52.26c-.56.3-.78.67-.62 1.1.1.27.4.32.86.15.2-.07.28-.33.28-.8v-.7zm-107.17.18c-.63 0-1.27.93-.9 1.32.2.18.7.13.93-.1.3-.3.27-1.22-.02-1.22zm23.08 0c-.64 0-1.28.93-.9 1.32.2.18.68.13.92-.1.28-.3.27-1.22-.02-1.22zm8.73 0c-.1 0-.27.1-.5.25-.3.24-.4.84-.17 1.07.07.07.3.1.5.07.27-.04.37-.2.4-.72.05-.45-.03-.67-.22-.67zm31.48 0c-.12 0-.28.1-.48.3-.33.3-.43.8-.2 1.02.07.07.3.1.5.07.27-.04.37-.2.4-.72.05-.46-.03-.68-.22-.67zm11.8 0c-.12 0-.27.1-.48.3-.33.3-.43.8-.2 1.02.07.07.3.1.5.07.27-.04.37-.2.4-.72.05-.46-.02-.68-.22-.67zm22.53 0c-.13 0-.33.13-.58.36-.45.42-.48.56-.18.86.48.47 1.04.14 1.04-.6 0-.4-.1-.6-.27-.6zm22.9 0c-.14 0-.34.13-.6.36-.44.42-.47.56-.17.86.48.47 1.04.14 1.04-.6 0-.4-.1-.6-.27-.6zm-80.1 2.2c-.16.02-.33.05-.46.13-.48.26-.45.87.05 1.07.52.22.56.22 1.1 0 .35-.12.46-.28.42-.56-.05-.36-.6-.62-1.12-.6zm-66.8 4.77H227v1.07H73.2v-1.09zm34.24 4.3l.7.04.72.04.96 2.23a27.8 27.8 0 0 0 1.1 2.37c.06.08.56-.95 1.08-2.28l.95-2.4h.78c.43 0 .78.03.78.08 0 .06-.73 1.9-1.63 4.12-1.2 2.93-1.7 4-1.92 4-.2 0-.65-.87-1.52-2.95a18.96 18.96 0 0 0-1.33-2.84c-.06.06-.64 1.36-1.3 2.9-1.22 2.85-1.6 3.36-1.93 2.52l-1.6-3.97a73.67 73.67 0 0 1-1.46-3.7c0-.1.36-.15.78-.15h.78l.95 2.4c.53 1.33 1 2.38 1.07 2.34.06-.04.55-1.13 1.1-2.42l.97-2.34zm56.15 0l1.7 3.87a844.4 844.4 0 0 1 1.75 4.02c.03.1-.3.16-.77.16h-.83l-.43-1-.44-.97H161.05l-.4.98-.4 1h-.8c-.95 0-1.05.45.94-4.35l1.5-3.6.85-.06.86-.06zm-90.4 0h.76c.76 0 .76.02 3.08 2.76l2.33 2.77.05-2.76.05-2.75h1.6v8.05h-.76c-.75-.02-.76-.03-3.08-2.8l-2.32-2.8-.05 2.8-.05 2.8h-1.6v-8.05zm16.1 0h5.18v1.25H90.9V2018.05h3.4v1.25h-3.4v2.13l1.83.05 1.84.05.05.58.06.6h-5.4v-8.05zm42.02 0h7.12l-2.3 3.35-2.28 3.35 2.3.05 2.3.05v1.25h-7.36l.3-.5c.2-.27 1.2-1.76 2.27-3.32a74.1 74.1 0 0 0 1.94-2.9c0-.05-.96-.08-2.14-.08h-2.14v-1.25zm14.84 0h5.18v1.25h-3.58V2018.05h3.6l-.05.58-.05.58-1.74.06-1.73.05v2.13l1.83.05 1.83.05.06.58.04.6H146.16v-8.05zm28.43 0h1.6V2021.43l1.92.05 1.92.05.06.58.06.6h-5.57v-8.05zm28.07 0h1.52l2.35 2.8 2.37 2.78v-5.58h1.6v8.05h-.7c-.7 0-.75-.06-3.08-2.82l-2.38-2.8-.04 2.8-.05 2.82h-1.6v-8.05zm16.1 0h2.27c2.02 0 2.38.05 3.17.42 1.6.74 2.25 1.84 2.25 3.7 0 1.76-1.1 3.3-2.63 3.73-.38.1-1.66.2-2.87.2h-2.2v-8.06zm-28.7.1h1.73l.72 1.6c.4.88 1.18 2.67 1.75 3.98l1.04 2.37h-1.71l-.36-.94-.36-.94h-3.68l-.35.94-.36.94h-1.71l1.64-3.98 1.64-3.98zm30.3 1.15v5.58l1.52-.06c1.47-.06 1.52-.08 2.18-.74.65-.66.67-.7.67-2 0-1.16-.05-1.38-.45-1.8-.7-.76-1.3-.98-2.67-.98h-1.26zm-57.63.45l-.5 1.34c-.3.73-.57 1.47-.63 1.64-.08.28.05.32 1.18.32.7 0 1.26-.04 1.26-.1 0-.08-.5-1.37-1-2.5l-.3-.7zm28.2.13c-.1.1-1.15 2.84-1.15 3 0 .1.56.18 1.26.18.94 0 1.25-.06 1.18-.23-.4-1.05-1.26-3-1.3-2.95z"/>
    </g>
    <g>
        <path style="isolation:auto;mix-blend-mode:normal" color="#000" overflow="visible" fill="none" d="M0 2100h300v300H0z"/>
        <path d="M205.6 2190.95v27.07h-15.07v20.85h15.07v42.47c0 24.3 15.92 26.52 30.3 26.52 7.2 0 14.87-1.05 21.7-1.05v-25.65c-2.55.34-5.1.5-7.67.5-8.56 0-10.45-3.57-10.45-11.8v-30.98h18.13v-20.85H239.5v-27.07H205.6zm-38.97 24.23c-9.1 0-18.73 5.26-18.73 17.07 0 8.6 8.6 16.94 13.6 24-10.9 6.8-24.65 15.14-24.65 30.03 0 14.12 13.37 22.72 26.2 22.72 13.1 0 21.7-7.3 26.83-16.68l11.4 14.5h3.34l-13.47-17.08c2.57-5.77 4-10.9 3.86-18.46h-2.56a36.5 36.5 0 0 1-3.1 16.17l-24.1-30.55c8.34-6.16 20.13-12.58 20.13-24.65 0-10.78-8.6-17.07-18.74-17.07zm-76.17.6c-26.7 0-48.07 18.64-48.07 46.7 0 28.08 21.37 46.57 48.06 46.57 23.96 0 42.93-13.53 46.18-37.66h-32.3c-.7 7-5.82 13-13.18 13-13 0-14.88-11.13-14.88-21.9 0-10.8 1.87-22.07 14.88-22.07 3.6 0 6.5 1.02 8.55 2.9 2.23 1.88 3.43 4.8 3.77 8.38h32.15c-2.05-24.46-21.88-35.92-45.16-35.92zm76.3 1.96c8.47 0 16.05 5.53 16.05 14.5 0 10.66-11.8 17.73-19.12 22.73-9.24-11.93-13.23-17.07-13.23-22.97 0-9 7.46-14.26 16.3-14.26zm-3.7 40.58l25.14 31.57c-4.74 9.6-12.95 16.54-25.15 16.54-11.8 0-23.63-7.07-23.63-20.16 0-14.25 13.24-21.42 23.63-27.96z" color="#000" overflow="visible"/>
    </g>
    <g>
        <path style="isolation:auto;mix-blend-mode:normal" color="#000" overflow="visible" fill="none" d="M0 2400h300v300H0z"/>
        <path d="M191.9 2473.7l-41.9-41.9-42.04 42.04a86.56 86.56 0 0 1 42.1-10.85c15.17 0 29.43 3.88 41.85 10.7m-117.94 34.15L31.8 2550l42.32 42.32c-7.02-12.54-11.02-27-11.02-42.38a86.54 86.54 0 0 1 10.86-42.1m33.7 118.03L150 2668.2l42.2-42.2a86.56 86.56 0 0 1-42.15 10.9c-15.4 0-29.84-4.02-42.38-11.03M237 2549.94c0 15.3-3.95 29.65-10.88 42.13L268.2 2550l-41.92-41.9a86.54 86.54 0 0 1 10.72 41.84"/>
        <path d="M150 2466.4a83.6 83.6 0 1 0 0 167.2 83.6 83.6 0 0 0 0-167.2zm-19.44 19.17h6.67v22.77c0 5 .3 7.37 2.83 7.37 2.52 0 2.82-2.37 2.82-7.36v-22.77h6.46v21.96c0 9.94-2.17 14.34-9.4 14.34-7.26 0-9.38-4.3-9.38-14.34v-21.96zm22.16 0h6.67v11.3l5.03-11.3h5.96l-6.17 13.98 6.92 21.6h-6.92l-4.5-13.97-.34.8v13.18h-6.68v-35.6zm-.58 45.02H156l10.2 40.28h-7.68l-1.37-5.86h-6.66l-1.37 5.86h-7.17l10.18-40.3zm-77.7.16H94.9v7.17h-6.38v32.95h-7.62v-32.95h-6.5v-7.17zm23.17 0h7.52v15.94h6.5v-15.94h7.5v40.12h-7.5v-16.73h-6.5v16.73h-7.5v-40.12zm25.15 0h16.96v7.17h-9.5v9.1h7.18v7.18h-7.18v9.85h9.85v6.83h-17.3v-40.12zm39.65 0h20.5v7.17h-6.4v32.95h-7.6v-32.95h-6.5v-7.17zm22.96 0h4.15c9.23 0 15.26 4.16 15.26 14.74 0 5.35-1.7 8.88-4.38 11.04l5.4 14.34h-7.68l-4.38-11.6-1.02.16v11.44h-7.34v-40.12zm22.34 0h16.96v7.17h-9.5v9.1h7.16v7.18h-7.16v9.85H225v6.83h-17.3v-40.12zm-15 7.17v15.14c3.58-.1 4.72-3.98 4.72-7.57 0-3.6-1.14-7.45-4.72-7.57zM153.8 2548l-1.94 10.48h3.87L153.8 2548zm-45.1 38.1h82.6v3.2h-82.6v-3.2zm51.6 11.7c1.76 0 3.03 1.36 3.03 4.55 0 3-.94 5.73-2.43 7.8l-1.64-1.06c.78-1.02 1.42-2.23 1.8-3.66-.33.2-.72.3-1.17.3-1.22 0-2.54-.83-2.54-3.94 0-2.96 1.46-4 2.94-4zm-6.7.03c1.74 0 2.76 1.33 2.76 2.95 0 1.23-.5 2.15-1.14 2.58.86.47 1.5 1.67 1.5 3.22 0 2.03-1.18 3.5-3.1 3.5-1.95 0-3.13-1.45-3.13-3.5 0-1.55.66-2.73 1.5-3.2a3.15 3.15 0 0 1-1.13-2.58c0-1.64 1-2.97 2.74-2.97zm-16.04.02c.52 0 .98.15 1.16.25l-.33 1c-.24-.1-.55-.17-.8-.17-.35 0-.6.18-.6.54 0 .92 2 2.35 2 3.87 0 1.1-.72 1.63-1.8 1.63-.6 0-1.14-.18-1.5-.37l.38-.94c.23.12.7.3 1.1.3.45 0 .68-.25.68-.62 0-.97-1.97-2.35-1.97-3.87 0-1.25.85-1.62 1.66-1.62zm-7.38.05H135v1.84h-2.9v3.2h2.2v1.85h-2.2v3.35h3v1.78h-4.92v-12.03zm37.7 0h1.42v7.93h1.1v1.57h-1.1v2.53h-1.9v-2.53h-3.62v-1.1l4.1-8.4zm-28.56 0h3.44v1.08h-1.14v5.94h-1.15v-5.94h-1.15v-1.07zm6.74.1h3.14v11.93h-1.93v-10.13h-1.2v-1.8zm7.55 1.62c-.62 0-.87.62-.87 1.43 0 .8.25 1.5.88 1.5s.88-.68.88-1.5c0-.8-.23-1.43-.87-1.43zm6.7.04c-.73 0-1.04.77-1.04 2.17 0 1.65.32 2.18 1 2.18.43 0 .82-.15 1.15-.38.06-.4.08-.82.08-1.25 0-1.86-.35-2.7-1.18-2.7zm7.1 2.4l-1.83 3.77h1.84v-3.78zm-13.8 2.32c-.8 0-1.25.84-1.25 2 0 1.17.46 1.97 1.26 1.97.82 0 1.26-.8 1.26-1.97 0-1.15-.44-2-1.25-2z"/>
    </g>
    <path style="line-height:1.25;-inkscape-font-specification:Helvetica" d="M73 2749.4c-4.7 0-4.77.02-7.74 1.48a17.45 17.45 0 0 0-9.45 18.84c1.2 6.93 6.47 12.6 13.1 14.03a17.86 17.86 0 0 0 19.14-7.97c1.96-3.04 2.65-5.92 2.47-10.2-.13-3.14-.33-4-1.46-6.3a19.55 19.55 0 0 0-8.58-8.6c-2.58-1.22-2.9-1.28-7.45-1.28zm94.6 6.1c-.1 0-6.96 4.83-15.25 10.72-8.28 5.9-16.32 11.6-17.87 12.7l-2.8 2-.68 2.96-1.66 7.2-1 4.25h-11.73l-.4 1.48a836.87 836.87 0 0 0-4.75 20.23c0 .22 2.42.37 5.72.37 6.48 0 6.06-.3 5.1 3.67-.47 2-3.52 15.78-10.03 45.4-2.95 13.44-1.87 21.02 3.77 26.45 2.5 2.4 6.72 4.62 10.8 5.67 3.44.88 11.43 1.07 16.4.38 3.62-.5 8.73-1.95 12.57-3.54l2.8-1.17 2.6-11.85c2.1-9.67 2.45-11.82 1.94-11.66-.34.1-2.04.82-3.78 1.6-8.17 3.6-15.34 3.54-16.15-.15-.27-1.23-.08-3.4.66-7.7.33-1.87 6.6-29.48 10.1-44.34l.7-2.95 6.7-.1 6.7-.1 2.1-9.95c1.14-5.47 2.17-10.35 2.3-10.84l.2-.87h-13.2l.23-1.28c.1-.7 1.56-7.67 3.2-15.48 4.7-22.22 4.87-23.06 4.7-23.06zm45.57 38a47.2 47.2 0 0 0-37.77 18.98c-2.68 3.6-6.9 12.1-8.1 16.36a66.08 66.08 0 0 0-1.2 30.53c4.46 22 21.93 37.68 43.73 39.22 12.16.85 22.17-1.66 31.37-7.9 3.58-2.42 8.88-7.87 11.5-11.84 2.08-3.12 5.66-10.1 5.35-10.4-.1-.1-4.06-1.8-8.47-3.62-.25-.1-.9.78-1.46 2.03-2.75 6-8.46 12.87-13.43 16.14-5.08 3.36-11.15 5.25-18 5.62-21.04 1.14-36.76-12.46-40.02-34.64-.78-5.32-.6-14.26.4-18.84 2.2-10.13 7.08-18.65 13.68-23.85 3.28-2.6 9.52-5.7 13.35-6.7 3.47-.87 11.28-1.2 15-.63a33.1 33.1 0 0 1 17.6 8.6c5.3 5.13 7.52 10.07 8.62 19.14l.23 1.9 4.4-.12 4.42-.1.1-19.23.1-19.22h-9.07v6.5c0 3.6-.13 6.5-.3 6.5-.16 0-1.33-1.15-2.6-2.57a35.6 35.6 0 0 0-14.84-9.57 47 47 0 0 0-14.6-2.3zm-124.57 2.6l-23.27.1-23.27.1v22.48l7.1.1 7.12.12v55.15l-7.2.1c-5.46.1-7.18.24-7.15.6.02.28.06 5.3.1 11.15l.06 10.64H103.97v-22.46H88.6v-39.03zm83.48 111.85v41.58h4.68v-3.87a14.02 14.02 0 0 0 3.02 3.16 9.85 9.85 0 0 0 5.8 1.67c4.1 0 7.3-1.6 9.63-4.75 2.32-3.16 3.48-7.13 3.48-11.9 0-5.05-1.18-8.85-3.53-11.43-2.33-2.6-5.38-3.9-9.14-3.9a11.07 11.07 0 0 0-9 4.46v-15.03zm-127.6.14v41.43h5.37v-24.46c0-.98-.03-2.5-.08-4.57-.04-2.1-.06-3.64-.06-4.65v-1.27l11.9 34.95h5.57L79 2914.58c0 2.24-.03 4.33-.07 6.3-.03 1.94-.05 3.35-.05 4.2v24.45h5.33v-41.44h-7.95l-11.8 35.03-11.92-35.04zm60.24 10.54c-4.25 0-7.7 1.5-10.33 4.54-2.64 3.03-3.96 6.97-3.96 11.82 0 4.93 1.3 8.76 3.92 11.5s5.8 4.1 9.57 4.1c1.54 0 2.92-.15 4.14-.45a11.83 11.83 0 0 0 5.73-3.05c.92-.86 1.75-1.97 2.48-3.33a10.5 10.5 0 0 0 1.33-3.72h-5a8.84 8.84 0 0 1-1.9 3.53c-1.58 1.75-3.7 2.62-6.35 2.62-2.84 0-4.94-.92-6.3-2.76-1.35-1.87-2.07-4.33-2.16-7.4h22.13c0-3.04-.15-5.26-.45-6.65a13.48 13.48 0 0 0-2.03-5.34 11.4 11.4 0 0 0-4.6-3.9c-2-1-4.1-1.52-6.23-1.52zm33.56 0c-2.12 0-4.02.57-5.7 1.72-.97.68-2.06 1.76-3.27 3.25v-4.28h-5v30.2h5.07v-16c0-3.9.78-6.6 2.34-8.08a7.5 7.5 0 0 1 5.26-2.23c2.1 0 3.54.72 4.3 2.13.5.94.75 2.43.75 4.48v19.73h5.17v-17.57c0-3.13.7-5.36 2.14-6.7a7.36 7.36 0 0 1 5.17-2 5.9 5.9 0 0 1 3.67 1.13c1.02.75 1.52 2.13 1.52 4.14v21h5.28v-20.12c0-2.67-.4-4.8-1.18-6.38-1.47-2.93-4.24-4.4-8.3-4.4a11 11 0 0 0-5.13 1.2 10.84 10.84 0 0 0-3.98 3.57 9.3 9.3 0 0 0-2.26-2.98c-1.47-1.2-3.4-1.78-5.82-1.78zm78.93 0c-4.24 0-7.68 1.5-10.32 4.54-2.63 3.03-3.94 6.97-3.94 11.82 0 4.93 1.3 8.76 3.92 11.5 2.6 2.74 5.8 4.1 9.56 4.1 1.54 0 2.92-.15 4.15-.45a11.83 11.83 0 0 0 5.72-3.05c.9-.86 1.74-1.97 2.47-3.33a10.5 10.5 0 0 0 1.33-3.72h-5a8.84 8.84 0 0 1-1.9 3.53c-1.6 1.75-3.7 2.62-6.36 2.62-2.84 0-4.93-.92-6.3-2.76-1.34-1.87-2.07-4.33-2.16-7.4h22.14c0-3.04-.15-5.26-.45-6.65a13.48 13.48 0 0 0-2.03-5.34 11.4 11.4 0 0 0-4.6-3.9c-2-1-4.1-1.52-6.23-1.52zm32.8 0c-2.03 0-3.8.73-5.34 2.2-1.55 1.45-2.52 2.68-2.9 3.7v-5.22h-4.83v30.2H242v-17.37c0-2.14.7-4.03 2.06-5.67 1.37-1.65 3.34-2.48 5.9-2.48a7.6 7.6 0 0 1 1.66.14v-5.36a57.67 57.67 0 0 0-1.63-.14zm-145.6 4.43c3.26 0 5.58 1.22 6.97 3.67a13.16 13.16 0 0 1 1.44 5.27H96.04a9.5 9.5 0 0 1 2.5-6.4 7.7 7.7 0 0 1 5.88-2.53zm81.02 0c2.65 0 4.65 1.04 6 3.13 1.38 2.1 2.07 4.72 2.07 7.9 0 3.57-.7 6.45-2.07 8.63-1.36 2.18-3.4 3.27-6.15 3.27-3.65 0-6.14-1.66-7.48-5-.7-1.76-1.07-4.06-1.07-6.9 0-3.93.87-6.75 2.6-8.46a8.45 8.45 0 0 1 6.1-2.57zm31.48 0c3.25 0 5.58 1.22 6.97 3.67a13.16 13.16 0 0 1 1.43 5.27h-16.78c.1-2.58.93-4.72 2.5-6.4a7.7 7.7 0 0 1 5.88-2.53z" font-weight="400" font-family="Helvetica" letter-spacing="0" word-spacing="0"/>
    <path style="isolation:auto;mix-blend-mode:normal" color="#000" overflow="visible" fill="none" d="M0 2700h300v300H0z"/>
</svg>
