<svg xmlns="http://www.w3.org/2000/svg" viewBox="0 0 120 45">
    <path d="M25.837 6.063V23.99h1.45v-6.96h2.715c1.985 0 3.602-.466 4.85-1.398 1.248-.93 1.88-2.32 1.9-4.165 0-1.862-.58-3.23-1.74-4.1-1.162-.87-2.734-1.304-4.72-1.304zm1.45 1.213h3.19c3.197 0 4.797 1.406 4.797 4.217-.017 1.424-.497 2.505-1.437 3.243-.94.738-2.157 1.107-3.65 1.107h-2.9zM63.48 10.86c-1.423 0-2.534.322-3.333.963-.8.642-1.2 1.498-1.2 2.57 0 1.494 1.3 2.707 3.9 3.638 2.286.844 3.428 1.785 3.428 2.822 0 .72-.307 1.282-.922 1.687-.616.403-1.45.605-2.505.605-1.02 0-2.18-.316-3.48-.95l-.474 1.135c.457.3 1.072.54 1.845.725.773.185 1.458.277 2.056.277 1.6 0 2.807-.313 3.625-.936.818-.623 1.226-1.506 1.226-2.65 0-.878-.373-1.63-1.12-2.254-.747-.623-1.727-1.164-2.94-1.62-1.037-.387-1.836-.78-2.398-1.173-.563-.397-.843-.867-.843-1.412 0-.633.28-1.165.843-1.595.562-.43 1.283-.645 2.16-.645.687 0 1.262.078 1.728.236.466.158.997.38 1.595.66l.528-1.03c-.422-.297-1-.547-1.74-.75-.738-.202-1.397-.303-1.977-.303zm11.47 0c-1.355 0-2.568.493-3.64 1.477l-.342-1.134h-.897v18.56l1.452-.29v-6.38a6.4 6.4 0 0 0 1.568.896c.57.227 1.147.342 1.726.342 1.23 0 2.28-.29 3.15-.87.87-.58 1.53-1.375 1.977-2.386.45-1.01.673-2.157.673-3.44 0-2.056-.487-3.7-1.463-4.93-.975-1.23-2.376-1.845-4.204-1.845zm12.81 0c-1.827 0-3.23.616-4.204 1.845-.975 1.232-1.463 2.84-1.463 4.825 0 2.092.518 3.748 1.555 4.97 1.037 1.22 2.6 1.832 4.693 1.832.74 0 1.49-.102 2.255-.303a8.27 8.27 0 0 0 2.016-.805l-.526-1.08a11.08 11.08 0 0 1-1.845.737c-.6.176-1.284.263-2.057.263-1.548 0-2.7-.504-3.454-1.515-.757-1.01-1.144-2.343-1.162-3.995H92.9c0-2.02-.447-3.655-1.343-4.902-.897-1.248-2.162-1.872-3.797-1.872zm-36.274 0c-1.23 0-2.298.29-3.203.87-.905.58-1.6 1.376-2.082 2.386-.482 1.01-.724 2.148-.724 3.414 0 2.04.51 3.682 1.53 4.93 1.018 1.248 2.45 1.872 4.296 1.872 1.23 0 2.297-.29 3.203-.87.905-.58 1.6-1.375 2.083-2.386.483-1.01.725-2.148.725-3.414 0-2.074-.506-3.72-1.517-4.943-1.01-1.222-2.447-1.842-4.31-1.86zm57.496 0c-1.23 0-2.3.29-3.204.87-.906.58-1.6 1.376-2.082 2.386-.484 1.01-.726 2.148-.726 3.414 0 2.04.51 3.682 1.53 4.93 1.02 1.248 2.45 1.872 4.297 1.872 1.23 0 2.298-.29 3.203-.87.904-.58 1.6-1.375 2.083-2.386.482-1.01.724-2.148.724-3.414 0-2.074-.505-3.72-1.516-4.943-1.01-1.222-2.446-1.842-4.308-1.86zm-69.99.343V23.99h1.45v-9.28c.543-.597 1.25-1.143 2.12-1.635.87-.492 1.684-.738 2.44-.738l-.45-1.134c-.596 0-1.295.216-2.094.646-.8.43-1.5.89-2.096 1.384l-.475-2.03zm56.703 0V23.99h1.45v-9.28c.545-.597 1.25-1.143 2.122-1.635.87-.492 1.683-.738 2.438-.738l-.448-1.134c-.598 0-1.296.216-2.095.646-.8.43-1.5.89-2.097 1.384l-.474-2.03zm-44.235.87c1.388 0 2.465.527 3.23 1.582.764 1.055 1.146 2.4 1.146 4.033-.018 1.003-.207 1.917-.567 2.743-.36.826-.88 1.48-1.556 1.964s-1.472.725-2.385.725c-1.39 0-2.466-.528-3.23-1.583-.765-1.054-1.148-2.398-1.148-4.032.017-1.003.206-1.916.567-2.743.36-.825.878-1.48 1.554-1.964.677-.482 1.472-.725 2.386-.725zm23.515 0c1.37 0 2.403.514 3.098 1.542.693 1.028 1.04 2.378 1.04 4.047 0 1.564-.368 2.865-1.107 3.902-.737 1.036-1.784 1.555-3.137 1.555-.668 0-1.27-.128-1.807-.383a6.92 6.92 0 0 1-1.54-1.016v-8.038a6.08 6.08 0 0 1 1.54-1.186c.537-.282 1.174-.423 1.912-.423zm12.654 0c1.193 0 2.09.413 2.688 1.24.597.826.958 1.924 1.08 3.295h-7.776c.123-1.335.522-2.425 1.2-3.27.676-.842 1.61-1.265 2.807-1.265zm21.324 0c1.39 0 2.466.527 3.23 1.582.765 1.055 1.147 2.4 1.147 4.033-.017 1.003-.206 1.917-.566 2.743-.36.826-.88 1.48-1.555 1.964-.678.484-1.473.725-2.387.725-1.388 0-2.465-.528-3.23-1.583-.763-1.054-1.146-2.398-1.146-4.032.017-1.003.207-1.916.567-2.743.36-.825.878-1.48 1.555-1.964.675-.482 1.47-.725 2.384-.725z" fill="#fff"/>
    <path d="M9.266 6l3.902 19.912h4.502a.43.43 0 0 0 .43-.43V5.887a.26.26 0 0 0-.26-.26H9.573A.314.314 0 0 0 9.266 6" fill="#f9df23"/>
    <path d="M15.403 40.285l-2.235-14.373H8.344l6.85 14.436c.056.115.228.062.21-.063" fill="#d8b525"/>
    <path d="M13.168 25.912l-1.185-6.158H5.93a.322.322 0 0 0-.29.46l2.704 5.698z" fill="#eac926"/>
</svg>
