<?xml version="1.0" encoding="UTF-8" standalone="no"?>
<!-- Created with Inkscape (http://www.inkscape.org/) -->

<svg
   xmlns:dc="http://purl.org/dc/elements/1.1/"
   xmlns:cc="http://creativecommons.org/ns#"
   xmlns:rdf="http://www.w3.org/1999/02/22-rdf-syntax-ns#"
   xmlns:svg="http://www.w3.org/2000/svg"
   xmlns="http://www.w3.org/2000/svg"
   xmlns:sodipodi="http://sodipodi.sourceforge.net/DTD/sodipodi-0.dtd"
   xmlns:inkscape="http://www.inkscape.org/namespaces/inkscape"
   width="120mm"
   height="45mm"
   viewBox="0 0 120 45"
   version="1.1"
   id="svg17691"
   inkscape:version="0.92.1 r15371"
   sodipodi:docname="logo-original.svg">
  <defs
     id="defs17685">
    <clipPath
       id="clipPath22211"
       clipPathUnits="userSpaceOnUse">
      <path
         inkscape:connector-curvature="0"
         id="path22209"
         d="M 0,595.276 H 841.89 V 0 H 0 Z" />
    </clipPath>
    <clipPath
       id="clipPath22374"
       clipPathUnits="userSpaceOnUse">
      <path
         inkscape:connector-curvature="0"
         id="path22372"
         d="M 0,595.276 H 841.89 V 0 H 0 Z" />
    </clipPath>
  </defs>
  <sodipodi:namedview
     id="base"
     pagecolor="#ffffff"
     bordercolor="#666666"
     borderopacity="1.0"
     inkscape:pageopacity="0.0"
     inkscape:pageshadow="2"
     inkscape:zoom="0.51896552"
     inkscape:cx="660.14596"
     inkscape:cy="419.87248"
     inkscape:document-units="mm"
     inkscape:current-layer="layer1"
     showgrid="false"
     fit-margin-top="0"
     fit-margin-left="0"
     fit-margin-right="0"
     fit-margin-bottom="0" />
  <metadata
     id="metadata17688">
    <rdf:RDF>
      <cc:Work
         rdf:about="">
        <dc:format>image/svg+xml</dc:format>
        <dc:type
           rdf:resource="http://purl.org/dc/dcmitype/StillImage" />
        <dc:title></dc:title>
      </cc:Work>
    </rdf:RDF>
  </metadata>
  <g
     inkscape:label="Layer 1"
     inkscape:groupmode="layer"
     id="layer1"
     transform="translate(-34.812146,-79.171002)">
    <path
       style="fill:#b2b2b2;fill-opacity:1;fill-rule:nonzero;stroke:none;stroke-width:0.35277778"
       d="m 60.648678,85.233969 v 17.926041 h 1.450041 v -6.959269 h 2.71508 c 1.985434,0 3.602387,-0.466156 4.850868,-1.397849 1.247421,-0.931331 1.880085,-2.31974 1.898074,-4.165119 0,-1.861962 -0.580012,-3.229215 -1.739945,-4.098459 -1.160286,-0.870302 -2.732953,-1.305345 -4.719093,-1.305345 z m 1.450041,1.212844 h 3.189986 c 3.197932,0 4.797642,1.406028 4.797642,4.217316 -0.01765,1.423458 -0.497324,2.505035 -1.437124,3.242693 -0.940152,0.738013 -2.157278,1.107427 -3.650938,1.107427 h -2.899566 z m 36.19469,3.584795 c -1.42381,0 -2.535285,0.321217 -3.334681,0.962215 -0.8001,0.641702 -1.199409,1.498457 -1.199409,2.570904 0,1.49366 1.29967,2.706007 3.901053,3.636986 2.284942,0.843489 3.426668,1.784723 3.426668,2.821537 0,0.72073 -0.30737,1.28207 -0.92191,1.68671 -0.615598,0.40428 -1.449951,0.60617 -2.504758,0.60617 -1.019175,0 -2.179198,-0.31606 -3.47989,-0.9493 l -0.474389,1.13378 c 0.456848,0.29951 1.072075,0.54069 1.845365,0.72554 0.773287,0.18453 1.459116,0.27647 2.056723,0.27647 1.598787,0 2.806849,-0.31215 3.624589,-0.93586 0.81773,-0.62301 1.22576,-1.5061 1.22576,-2.649451 0,-0.878419 -0.373,-1.630056 -1.11983,-2.254126 -0.74754,-0.623361 -1.727375,-1.163889 -2.93987,-1.621089 -1.037521,-0.385931 -1.836846,-0.777779 -2.398821,-1.172538 -0.563034,-0.395464 -0.84336,-0.865372 -0.84336,-1.410766 0,-0.632883 0.280326,-1.164347 0.84336,-1.594736 0.561975,-0.430742 1.282856,-0.645438 2.161624,-0.645438 0.685449,0 1.260843,0.07863 1.72651,0.236678 0.466017,0.158043 0.996587,0.378417 1.595257,0.658873 l 0.5271,-1.027843 c -0.42193,-0.298802 -1.0014,-0.548716 -1.74047,-0.750858 -0.737654,-0.202494 -1.396654,-0.303858 -1.976621,-0.303858 z m 11.467521,0 c -1.35361,0 -2.5668,0.492498 -3.63854,1.476396 l -0.34262,-1.133782 h -0.89658 v 18.558558 l 1.45055,-0.28939 v -6.37997 c 0.4745,0.36936 0.99653,0.66833 1.56839,0.89659 0.57009,0.22824 1.14689,0.34261 1.72651,0.34261 1.22977,0 2.27989,-0.29045 3.15019,-0.86972 0.86995,-0.58067 1.5293,-1.37484 1.97662,-2.38589 0.44838,-1.010366 0.67283,-2.157213 0.67283,-3.440622 0,-2.055638 -0.48753,-3.698573 -1.46296,-4.929415 -0.97543,-1.229431 -2.3763,-1.845365 -4.20439,-1.845365 z m 12.81162,0 c -1.82775,0 -3.22932,0.61577 -4.2044,1.844849 -0.97543,1.231194 -1.46347,2.839239 -1.46347,4.825027 0,2.091621 0.51829,3.747366 1.55546,4.968686 1.03681,1.22202 2.6004,1.83245 4.69273,1.83245 0.73836,0 1.48895,-0.10138 2.25413,-0.30282 0.76446,-0.20214 1.43609,-0.47036 2.01641,-0.80409 l -0.52761,-1.08107 c -0.63218,0.31715 -1.24795,0.56296 -1.84485,0.73794 -0.59796,0.17602 -1.28327,0.26355 -2.05621,0.26355 -1.54728,0 -2.69875,-0.50444 -3.45405,-1.51515 -0.75565,-1.011063 -1.14283,-2.342531 -1.16014,-3.994592 h 9.33277 c 0,-2.020707 -0.44821,-3.655121 -1.34462,-4.902544 -0.89676,-1.248126 -2.16173,-1.872236 -3.79615,-1.872236 z m -36.274275,5.29e-4 c -1.230487,0 -2.29803,0.289938 -3.202905,0.869199 -0.904875,0.580673 -1.599089,1.375544 -2.082044,2.385901 -0.483655,1.01106 -0.725535,2.148141 -0.725535,3.41426 0,2.038712 0.509577,3.681453 1.529104,4.929933 1.019175,1.24777 2.451515,1.8712 4.296897,1.8712 1.229783,0 2.297676,-0.2901 3.202905,-0.86971 0.905227,-0.58032 1.599417,-1.37484 2.083076,-2.3859 0.483306,-1.010712 0.725021,-2.148145 0.725021,-3.414263 0,-2.073281 -0.505478,-3.720476 -1.516186,-4.942851 -1.010709,-1.221316 -2.447666,-1.840479 -4.310333,-1.857769 z m 57.495715,0 c -1.2312,0 -2.29889,0.289938 -3.20342,0.869199 -0.90593,0.580673 -1.59925,1.375544 -2.08256,2.385901 -0.48401,1.01106 -0.72554,2.148141 -0.72554,3.41426 0,2.038712 0.51009,3.681453 1.52962,4.929933 1.01917,1.24777 2.45152,1.8712 4.2969,1.8712 1.22978,0 2.29767,-0.2901 3.2029,-0.86971 0.90452,-0.58032 1.59907,-1.37484 2.08308,-2.3859 0.4826,-1.010712 0.7245,-2.148145 0.7245,-3.414263 0,-2.073281 -0.50547,-3.720476 -1.51618,-4.942851 -1.01001,-1.221316 -2.44734,-1.840479 -4.3093,-1.857769 z m -69.991075,0.342098 v 12.785785 h 1.450041 v -9.279537 c 0.544335,-0.5969 1.2524,-1.142402 2.12235,-1.634527 0.86995,-0.492125 1.682445,-0.737939 2.438095,-0.737939 l -0.448035,-1.133782 c -0.597606,0 -1.296085,0.215919 -2.095478,0.645957 -0.799748,0.4318 -1.498743,0.892286 -2.095998,1.384411 L 74.6995,90.374235 Z m 56.704035,0 v 12.785785 h 1.45004 v -9.279537 c 0.54469,-0.5969 1.25153,-1.142402 2.12183,-1.634527 0.86995,-0.492125 1.68296,-0.737939 2.43861,-0.737939 l -0.44855,-1.133782 c -0.59761,0 -1.29592,0.215919 -2.09496,0.645957 -0.80045,0.4318 -1.49927,0.892286 -2.09651,1.384411 l -0.47439,-2.030368 z m -44.234511,0.870231 c 1.387827,0 2.464789,0.526849 3.229258,1.581301 0.764116,1.054806 1.146701,2.399633 1.146701,4.033345 -0.01799,1.002599 -0.207057,1.916607 -0.566891,2.742467 -0.36054,0.825851 -0.878668,1.480391 -1.554943,1.963701 -0.676629,0.48331 -1.472208,0.72451 -2.385901,0.72451 -1.388533,0 -2.46479,-0.52684 -3.229261,-1.5813 -0.764468,-1.054801 -1.147217,-2.398771 -1.147217,-4.03283 0.01728,-1.002601 0.206354,-1.915911 0.566891,-2.742469 0.359833,-0.8255 0.878832,-1.480209 1.555461,-1.964219 0.676275,-0.482249 1.471854,-0.724506 2.385902,-0.724506 z m 23.514321,0 c 1.37019,0 2.4034,0.513678 3.09801,1.542026 0.69357,1.027993 1.04179,2.37762 1.04179,4.046265 0,1.56456 -0.36939,2.865628 -1.10846,3.902083 -0.73731,1.03646 -1.78366,1.55495 -3.13727,1.55495 -0.66675,0 -1.26865,-0.12719 -1.80558,-0.38189 -0.53657,-0.25471 -1.05008,-0.59316 -1.54151,-1.01544 v -8.039822 c 0.49143,-0.509411 1.00494,-0.904809 1.54151,-1.185974 0.53693,-0.281165 1.1735,-0.422198 1.91151,-0.422198 z m 12.65401,0 c 1.19451,0 2.09128,0.412832 2.68924,1.238686 0.59725,0.826556 0.95779,1.924511 1.08056,3.295404 h -7.77627 c 0.12277,-1.33491 0.52174,-2.424853 1.19837,-3.269049 0.67699,-0.842787 1.61254,-1.265041 2.8081,-1.265041 z m 21.32583,0 c 1.38889,0 2.46511,0.526849 3.2303,1.581301 0.76447,1.054806 1.14618,2.399633 1.14618,4.033345 -0.0177,1.002599 -0.20706,1.916607 -0.56689,2.742467 -0.36054,0.825851 -0.87883,1.480391 -1.55546,1.963701 -0.67698,0.48331 -1.47205,0.72451 -2.38539,0.72451 -1.38818,0 -2.46479,-0.52684 -3.22926,-1.5813 -0.76412,-1.054801 -1.14721,-2.398771 -1.14721,-4.03283 0.0176,-1.002601 0.20706,-1.915911 0.56689,-2.742469 0.35983,-0.8255 0.87883,-1.480209 1.55546,-1.964219 0.67592,-0.482249 1.47169,-0.724506 2.38538,-0.724506 z"
       id="path22215"
       inkscape:connector-curvature="0" />
    <g
       id="g22504"
       transform="matrix(0.63869047,0,0,0.63867917,11.01028,-7.3957687)">
      <path
         d="m 51.773741,144.93473 6.109758,31.17603 h 7.049558 c 0.371123,0 0.672042,-0.30057 0.672042,-0.67204 v -30.68108 c 0,-0.22508 -0.182386,-0.40711 -0.407106,-0.40711 H 52.256341 c -0.308681,0 -0.540808,0.28116 -0.4826,0.5842"
         style="fill:#f9df23;fill-opacity:1;fill-rule:nonzero;stroke:none;stroke-width:0.35277778"
         id="path22390"
         inkscape:connector-curvature="0" />
      <path
         d="M 61.383125,198.61516 57.88357,176.11076 H 50.330245 L 61.057864,198.715 c 0.08502,0.17921 0.3556,0.0963 0.325261,-0.0998"
         style="fill:#d8b525;fill-opacity:1;fill-rule:nonzero;stroke:none;stroke-width:0.35277778"
         id="path22394"
         inkscape:connector-curvature="0" />
      <path
         d="m 57.883605,176.11076 -1.855611,-9.64142 H 46.55203 c -0.370064,0 -0.614186,0.38594 -0.455436,0.72038 l 4.233686,8.92104 z"
         style="fill:#eac926;fill-opacity:1;fill-rule:nonzero;stroke:none;stroke-width:0.35277778"
         id="path22398"
         inkscape:connector-curvature="0" />
    </g>
  </g>
</svg>
