<?xml version="1.0" encoding="UTF-8" standalone="no"?>
<!-- Created with Inkscape (http://www.inkscape.org/) -->

<svg
   xmlns:dc="http://purl.org/dc/elements/1.1/"
   xmlns:cc="http://creativecommons.org/ns#"
   xmlns:rdf="http://www.w3.org/1999/02/22-rdf-syntax-ns#"
   xmlns:svg="http://www.w3.org/2000/svg"
   xmlns="http://www.w3.org/2000/svg"
   xmlns:sodipodi="http://sodipodi.sourceforge.net/DTD/sodipodi-0.dtd"
   xmlns:inkscape="http://www.inkscape.org/namespaces/inkscape"
   width="210mm"
   height="297mm"
   viewBox="0 0 210 297"
   version="1.1"
   id="svg22389"
   inkscape:version="0.92.2 (unknown)"
   sodipodi:docname="sharing_images.svg">
  <defs
     id="defs22383">
    <clipPath
       id="clipPath26909"
       clipPathUnits="userSpaceOnUse">
      <path
         inkscape:connector-curvature="0"
         id="path26907"
         d="M 0,595.276 H 841.89 V 0 H 0 Z" />
    </clipPath>
    <clipPath
       id="clipPath27035"
       clipPathUnits="userSpaceOnUse">
      <path
         inkscape:connector-curvature="0"
         id="path27033"
         d="M 0,155.906 H 240.945 V 0 H 0 Z" />
    </clipPath>
  </defs>
  <sodipodi:namedview
     id="base"
     pagecolor="#ffffff"
     bordercolor="#666666"
     borderopacity="1.0"
     inkscape:pageopacity="0.0"
     inkscape:pageshadow="2"
     inkscape:zoom="2.7784582"
     inkscape:cx="186.94934"
     inkscape:cy="586.06034"
     inkscape:document-units="mm"
     inkscape:current-layer="layer1"
     showgrid="false" />
  <metadata
     id="metadata22386">
    <rdf:RDF>
      <cc:Work
         rdf:about="">
        <dc:format>image/svg+xml</dc:format>
        <dc:type
           rdf:resource="http://purl.org/dc/dcmitype/StillImage" />
        <dc:title></dc:title>
      </cc:Work>
    </rdf:RDF>
  </metadata>
  <g
     inkscape:label="Layer 1"
     inkscape:groupmode="layer"
     id="layer1">
    <path
       sodipodi:nodetypes="ccccc"
       d="M 104.26253,154.1585 H 19.429002 v -42.5 h 84.833528 z"
       style="fill:#f4d625;fill-opacity:1;fill-rule:nonzero;stroke:none;stroke-width:0.29690719"
       id="path27015"
       inkscape:connector-curvature="0"
       inkscape:export-xdpi="611.98999"
       inkscape:export-ydpi="611.98999" />
    <g
       id="g27017"
       transform="matrix(-0.35277777,0,0,-0.24988501,66.345623,111.6585)"
       style="fill:#f9df23;fill-opacity:1"
       inkscape:export-xdpi="611.98999"
       inkscape:export-ydpi="611.98999">
      <path
         d="M 0,0 28.982,-169.91144 H 133.464 V -73.67 L 132.992,0 Z"
         style="fill:#f9df23;fill-opacity:1;fill-rule:nonzero;stroke:none"
         id="path27019"
         inkscape:connector-curvature="0"
         sodipodi:nodetypes="cccccc" />
    </g>
    <g
       id="g27037"
       transform="matrix(0.35277777,0,0,-0.35277777,50.529292,128.46037)"
       inkscape:export-xdpi="611.98999"
       inkscape:export-ydpi="611.98999">
      <path
         d="m 0,0 h -3.417 v -9.176 h 3.106 c 1.6,0 2.904,0.396 3.911,1.187 1.006,0.79 1.52,1.948 1.539,3.472 C 5.139,-1.506 3.425,0 0,0 M -3.417,-17.899 H -4.969 V 1.299 h 4.771 c 2.127,0 3.812,-0.466 5.054,-1.398 C 6.099,-1.029 6.72,-2.494 6.72,-4.488 6.701,-6.465 6.023,-7.952 4.687,-8.949 3.35,-9.947 1.619,-10.446 -0.508,-10.446 h -2.909 z"
         style="fill:#0f0f0f;fill-opacity:1;fill-rule:nonzero;stroke:none"
         id="path27039"
         inkscape:connector-curvature="0" />
    </g>
    <g
       id="g27041"
       transform="matrix(0.35277777,0,0,-0.35277777,54.294101,134.77489)"
       inkscape:export-xdpi="611.98999"
       inkscape:export-ydpi="611.98999">
      <path
         d="m 0,0 h -1.553 v 13.693 h 0.961 l 0.508,-2.174 c 0.639,0.527 1.388,1.021 2.244,1.483 0.857,0.46 1.605,0.691 2.245,0.691 l 0.48,-1.214 c -0.81,0 -1.68,-0.263 -2.612,-0.791 C 1.341,11.162 0.583,10.577 0,9.938 Z"
         style="fill:#0f0f0f;fill-opacity:1;fill-rule:nonzero;stroke:none"
         id="path27043"
         inkscape:connector-curvature="0" />
    </g>
    <g
       id="g27045"
       transform="matrix(0.35277777,0,0,-0.35277777,59.309119,134.17234)"
       inkscape:export-xdpi="611.98999"
       inkscape:export-ydpi="611.98999">
      <path
         d="m 0,0 c 0.725,0.518 1.28,1.219 1.666,2.104 0.385,0.883 0.588,1.863 0.607,2.936 0,1.75 -0.41,3.19 -1.228,4.32 -0.819,1.129 -1.972,1.694 -3.459,1.694 -0.979,0 -1.831,-0.26 -2.555,-0.777 C -5.694,9.759 -6.249,9.058 -6.635,8.174 -7.021,7.289 -7.224,6.311 -7.242,5.237 c 0,-1.751 0.409,-3.19 1.228,-4.32 0.819,-1.129 1.972,-1.693 3.459,-1.693 0.978,0 1.83,0.258 2.555,0.776 M 3.078,1.412 C 2.56,0.329 1.816,-0.522 0.847,-1.144 c -0.97,-0.621 -2.113,-0.931 -3.43,-0.931 -1.977,0 -3.511,0.668 -4.603,2.004 -1.091,1.337 -1.637,3.096 -1.637,5.28 0,1.355 0.259,2.573 0.777,3.656 0.517,1.082 1.26,1.934 2.23,2.556 0.969,0.621 2.112,0.931 3.43,0.931 C -0.391,12.333 1.148,11.67 2.23,10.361 3.313,9.053 3.854,7.289 3.854,5.068 3.854,3.713 3.595,2.494 3.078,1.412"
         style="fill:#0f0f0f;fill-opacity:1;fill-rule:nonzero;stroke:none"
         id="path27047"
         inkscape:connector-curvature="0" />
    </g>
    <g
       id="g27049"
       transform="matrix(0.35277777,0,0,-0.35277777,61.266295,134.52579)"
       inkscape:export-xdpi="611.98999"
       inkscape:export-ydpi="611.98999">
      <path
         d="M 0,0 0.508,1.214 C 1.901,0.536 3.144,0.197 4.235,0.197 c 1.13,0 2.023,0.216 2.682,0.65 0.659,0.432 0.988,1.035 0.988,1.806 0,1.111 -1.223,2.118 -3.67,3.022 -2.786,0.997 -4.178,2.296 -4.178,3.895 0,1.149 0.427,2.067 1.284,2.754 0.856,0.687 2.047,1.03 3.572,1.03 0.621,0 1.327,-0.108 2.117,-0.325 0.791,-0.216 1.412,-0.484 1.864,-0.804 L 8.33,11.124 c -0.642,0.3 -1.21,0.536 -1.709,0.705 -0.499,0.17 -1.115,0.254 -1.849,0.254 -0.941,0 -1.713,-0.229 -2.315,-0.691 C 1.854,10.931 1.553,10.362 1.553,9.684 1.553,9.1 1.854,8.597 2.457,8.173 3.059,7.75 3.915,7.33 5.026,6.917 6.325,6.428 7.374,5.849 8.174,5.181 c 0.8,-0.668 1.2,-1.474 1.2,-2.414 0,-1.225 -0.437,-2.17 -1.313,-2.838 -0.875,-0.667 -2.169,-1.002 -3.882,-1.002 -0.64,0 -1.374,0.098 -2.202,0.296 C 1.148,-0.579 0.49,-0.321 0,0"
         style="fill:#0f0f0f;fill-opacity:1;fill-rule:nonzero;stroke:none"
         id="path27051"
         inkscape:connector-curvature="0" />
    </g>
    <g
       id="g27053"
       transform="matrix(0.35277777,0,0,-0.35277777,68.487197,133.85883)"
       inkscape:export-xdpi="611.98999"
       inkscape:export-ydpi="611.98999">
      <path
         d="m 0,0 c 0.792,1.11 1.187,2.504 1.187,4.18 0,1.787 -0.373,3.232 -1.115,4.333 -0.745,1.101 -1.851,1.652 -3.318,1.652 -0.791,0 -1.473,-0.151 -2.047,-0.452 C -5.868,9.412 -6.418,8.988 -6.944,8.442 v -8.61 c 0.526,-0.452 1.076,-0.814 1.651,-1.088 0.574,-0.272 1.219,-0.409 1.933,-0.409 1.45,0 2.57,0.556 3.36,1.665 M 1.229,9.487 C 2.273,8.169 2.796,6.409 2.796,4.208 2.796,2.833 2.556,1.605 2.076,0.523 1.596,-0.56 0.89,-1.411 -0.042,-2.032 c -0.932,-0.621 -2.057,-0.932 -3.374,-0.932 -0.621,0 -1.238,0.122 -1.849,0.367 -0.612,0.244 -1.171,0.565 -1.679,0.96 V -8.47 l -1.554,-0.31 v 19.877 h 0.96 l 0.367,-1.214 c 1.148,1.054 2.447,1.58 3.897,1.58 1.958,0 3.458,-0.659 4.503,-1.976"
         style="fill:#0f0f0f;fill-opacity:1;fill-rule:nonzero;stroke:none"
         id="path27055"
         inkscape:connector-curvature="0" />
    </g>
    <g
       id="g27057"
       transform="matrix(0.35277777,0,0,-0.35277777,70.609226,131.98607)"
       inkscape:export-xdpi="611.98999"
       inkscape:export-ydpi="611.98999">
      <path
         d="M 0,0 H 8.328 C 8.197,1.469 7.811,2.645 7.171,3.529 6.531,4.413 5.57,4.856 4.292,4.856 3.011,4.856 2.009,4.404 1.284,3.501 0.559,2.598 0.131,1.43 0,0 m 9.938,-1.101 h -9.995 c 0.018,-1.769 0.433,-3.195 1.242,-4.278 0.809,-1.082 2.043,-1.623 3.699,-1.623 0.828,0 1.562,0.094 2.202,0.282 0.64,0.188 1.299,0.451 1.977,0.791 L 9.628,-7.087 C 9.006,-7.444 8.287,-7.731 7.468,-7.948 6.648,-8.164 5.844,-8.272 5.054,-8.272 c -2.241,0 -3.916,0.653 -5.026,1.961 -1.111,1.309 -1.666,3.082 -1.666,5.323 0,2.127 0.522,3.848 1.567,5.167 1.045,1.316 2.546,1.975 4.503,1.975 1.751,0 3.106,-0.668 4.066,-2.004 0.96,-1.337 1.44,-3.087 1.44,-5.251"
         style="fill:#0f0f0f;fill-opacity:1;fill-rule:nonzero;stroke:none"
         id="path27059"
         inkscape:connector-curvature="0" />
    </g>
    <g
       id="g27061"
       transform="matrix(0.35277777,0,0,-0.35277777,75.718471,134.77489)"
       inkscape:export-xdpi="611.98999"
       inkscape:export-ydpi="611.98999">
      <path
         d="m 0,0 h -1.553 v 13.693 h 0.96 l 0.508,-2.174 c 0.639,0.527 1.388,1.021 2.245,1.483 0.856,0.46 1.604,0.691 2.244,0.691 l 0.48,-1.214 C 4.075,12.479 3.205,12.216 2.272,11.688 1.34,11.162 0.583,10.577 0,9.938 Z"
         style="fill:#0f0f0f;fill-opacity:1;fill-rule:nonzero;stroke:none"
         id="path27063"
         inkscape:connector-curvature="0" />
    </g>
    <g
       id="g27065"
       transform="matrix(0.35277777,0,0,-0.35277777,81.03201,134.17234)"
       inkscape:export-xdpi="611.98999"
       inkscape:export-ydpi="611.98999">
      <path
         d="m 0,0 c 0.725,0.518 1.28,1.219 1.667,2.104 0.385,0.883 0.588,1.863 0.606,2.936 0,1.75 -0.409,3.19 -1.228,4.32 -0.819,1.129 -1.972,1.694 -3.459,1.694 -0.979,0 -1.831,-0.26 -2.554,-0.777 C -5.693,9.759 -6.249,9.058 -6.635,8.174 -7.02,7.289 -7.223,6.311 -7.242,5.237 c 0,-1.751 0.41,-3.19 1.229,-4.32 0.819,-1.129 1.971,-1.693 3.458,-1.693 0.979,0 1.83,0.258 2.555,0.776 M 3.079,1.412 C 2.56,0.329 1.816,-0.522 0.848,-1.144 c -0.97,-0.621 -2.113,-0.931 -3.431,-0.931 -1.976,0 -3.51,0.668 -4.602,2.004 -1.092,1.337 -1.638,3.096 -1.638,5.28 0,1.355 0.259,2.573 0.777,3.656 0.518,1.082 1.26,1.934 2.231,2.556 0.968,0.621 2.112,0.931 3.43,0.931 C -0.39,12.333 1.149,11.67 2.231,10.361 3.313,9.053 3.854,7.289 3.854,5.068 3.854,3.713 3.595,2.494 3.079,1.412"
         style="fill:#0f0f0f;fill-opacity:1;fill-rule:nonzero;stroke:none"
         id="path27067"
         inkscape:connector-curvature="0" />
    </g>
    <g
       id="g27069"
       transform="matrix(0.35277777,0,0,-0.35277777,42.51531,127.97837)"
       inkscape:export-xdpi="611.98999"
       inkscape:export-ydpi="611.98999">
      <path
         d="m 0,0 4.179,-21.325 h 4.822 c 0.254,0 0.46,0.206 0.46,0.46 V 0.121 C 9.461,0.275 9.336,0.4 9.183,0.4 H 0.33 C 0.119,0.4 -0.04,0.208 0,0"
         style="fill:#06c6c6;fill-opacity:1;fill-rule:nonzero;stroke:none"
         id="path27071"
         inkscape:connector-curvature="0" />
    </g>
    <g
       id="g27073"
       transform="matrix(0.35277777,0,0,-0.35277777,44.834224,140.93195)"
       inkscape:export-xdpi="611.98999"
       inkscape:export-ydpi="611.98999">
      <path
         d="M 0,0 -2.394,15.394 H -7.561 L -0.223,-0.068 C -0.165,-0.19 0.021,-0.134 0,0"
         style="fill:#008896;fill-opacity:1;fill-rule:nonzero;stroke:none"
         id="path27075"
         inkscape:connector-curvature="0" />
    </g>
    <path
       inkscape:connector-curvature="0"
       id="path27079"
       style="fill:#05adad;fill-opacity:1;fill-rule:nonzero;stroke:none;stroke-width:0.35277778"
       d="m 43.989639,135.50143 -0.447675,-2.32692 h -2.286705 c -0.08925,0 -0.148167,0.0935 -0.110067,0.17392 l 1.021644,2.153 z"
       inkscape:export-xdpi="611.98999"
       inkscape:export-ydpi="611.98999" />
  </g>
</svg>
